<?xml version="1.0" standalone="no"?>
<!DOCTYPE svg PUBLIC "-//W3C//DTD SVG 1.1//EN" "http://www.w3.org/Graphics/SVG/1.1/DTD/svg11.dtd" >
<svg xmlns="http://www.w3.org/2000/svg">
<metadata>
Created by FontPrep 20130207 at Thu Jul 17 12:51:57 2014
 By Phillip Epstein
Copyright 1990-2007 Bitstream Inc. All rights reserved. Modification for European languages. Copyright 1995-2007 Tilde, SIA.
</metadata>
<defs>
<font id="3710854597fe98cb9deaf022f0a72583" horiz-adv-x='1024' >
  <font-face 
    font-family="Gothic821CondTL-Regular"
    font-weight="700"
    font-stretch="condensed"
    units-per-em="2048"
    panose-1="2 15 8 6 2 2 4 4 2 4"
    ascent="1638"
    descent="-410"
    x-height="1176"
    cap-height="1475"
    bbox="-289 -389 2048 1985"
    underline-thickness="231"
    underline-position="16"
    unicode-range="U+0020-FB02"
  />
<missing-glyph 
d="M158 932l354 -354l354 354h-708zM578 512l354 -354v708zM512 446l-354 -354h708zM92 158l354 354l-354 354v-708zM0 1024h1024v-1024h-1024v1024z" />
    <glyph glyph-name="IJ" unicode="IJ" horiz-adv-x="1038" 
d="M266 0h-71q-92 0 -109 18q-18 18 -22 56q-4 37 1 333q5 295 5 758l-4 217q0 64 23 78q23 15 95 15h95q76 1 95 -17t22 -51t3 -88v-123l-6 -850l4 -225q0 -81 -25 -101q-24 -20 -106 -20zM860 1475q62 0 82 -22t21 -81l-5 -266q0 -5 3 -320v-401q0 -225 -52 -312t-202 -87
t-178 19t-31 48q-4 29 -4 78v27q0 94 8 129t42 39t51 7t25 25t7 211v166l-2 641q0 58 16 78t76 21h143z" />
    <glyph glyph-name="ij" unicode="ij" horiz-adv-x="970" 
d="M372 1256q-21 -21 -98 -21h-55q-108 0 -125 19q-18 20 -21 50t-3 88t14 81t72 22l84 -2l65 2q61 0 74 -22q14 -22 14 -109t-21 -108zM70 90v893l-2 92q0 61 24 77q25 15 86 15h39l84 2q49 0 69 -11t21 -50v-1012q0 -58 -11 -78t-65 -20l-88 4l-100 -4q-41 0 -49 22t-8 70
zM517 172q13 0 31 4t23 28q4 24 4 70v709l-2 94q0 59 25 75t86 17l41 -2l82 2q49 0 69 -11t21 -50v-983q0 -165 -58 -230t-186 -65t-154 27t-26 108l2 80l-2 68q0 59 44 59zM878 1257q-21 -22 -96 -22h-63q-105 0 -126 26q-13 15 -15 46q-9 137 10 163q18 26 74 25l83 -2
l66 2q58 0 73 -21t15 -108t-21 -109z" />
    <glyph glyph-name="napostrophe" unicode="&#x22;n" horiz-adv-x="923" 
d="M287 0h-137q-47 0 -62 23q-14 23 -14 88v825l-4 121q0 79 22 101t107 22h116q45 0 59 -14t15 -58v-14l10 -2q78 102 207 102q130 0 186 -99t56 -300v-631q0 -86 -15 -125t-85 -39h-78q-86 0 -106 22q-21 22 -21 93v536q-1 105 -11 161t-63 56q-88 0 -88 -151v-443
l10 -184q0 -58 -18 -72q-17 -14 -37 -16t-49 -2zM39 1186q-35 0 -35 18t20 38q40 44 39 122q0 33 -10 49t-10 29q0 31 33 31h155q33 1 47 -15t13 -65q0 -94 -98 -174q-38 -33 -74 -33h-80z" />
    <glyph glyph-name="fi" unicode="fi" horiz-adv-x="1009" 
d="M848 1495q61 0 74 -22q14 -22 14 -109q0 -88 -22 -108q-22 -21 -97 -21h-55q-108 0 -125 19q-17 20 -21 50t-4 88t14 81t72 22l84 -2zM721 1167h39l84 2q49 0 69 -11t21 -50v-1012q0 -58 -11 -78t-65 -20l-88 4l-100 -4q-41 0 -49 22t-9 70v893l-2 92q0 61 25 77t86 15z
M129 96v725q-10 -2 -36 -2q-26 1 -33 19t-7 65v141q-1 36 11 52t42 16l23 -2v186q0 199 207 199h84q66 0 88 -10t22 -68v-147q0 -61 -51 -62l-37 4q-41 0 -41 -55q0 -22 5 -47h77q47 0 47 -66v-149q0 -41 -17 -55t-64 -15h-29v-739q0 -50 -12 -70t-68 -20l-70 4l-77 -6
q-47 0 -56 23q-8 24 -8 79z" />
    <glyph glyph-name="fl" unicode="fl" horiz-adv-x="1009" 
d="M623 115v1194l-2 88q0 63 23 81q24 17 87 17l41 -2l98 2q36 0 50 -14t14 -51v-1336q0 -56 -11 -76t-63 -20l-88 4l-90 -4q-43 0 -51 28t-8 89zM129 96v725q-10 -2 -36 -2q-26 1 -33 19t-7 65v141q-1 36 11 52t42 16l23 -2v186q0 199 207 199h84q66 0 88 -10t22 -68v-147
q0 -61 -51 -62l-37 4q-41 0 -41 -55q0 -22 5 -47h77q47 0 47 -66v-149q0 -41 -17 -55t-64 -15h-29v-739q0 -50 -12 -70t-68 -20l-70 4l-77 -6q-47 0 -56 23q-8 24 -8 79z" />
    <glyph glyph-name=".notdef" 
d="M158 932l354 -354l354 354h-708zM578 512l354 -354v708zM512 446l-354 -354h708zM92 158l354 354l-354 354v-708zM0 1024h1024v-1024h-1024v1024z" />
    <glyph glyph-name=".null" 
 />
    <glyph glyph-name="nonmarkingreturn" horiz-adv-x="0" 
 />
    <glyph glyph-name="space" unicode=" " horiz-adv-x="456" 
 />
    <glyph glyph-name="exclam" unicode="!" horiz-adv-x="516" 
d="M354 1491q86 0 86 -46v-20q0 -20 -2 -36l-57 -859q-4 -54 -17 -64.5t-53 -10.5h-104q-47 0 -58.5 12t-13.5 63l-55 859l-2 41q0 35 18.5 48t65.5 13h192zM164 0q-39 0 -54.5 15.5t-15.5 58.5v227q0 37 17.5 50.5t58.5 13.5h182q39 0 54.5 -15.5t15.5 -58.5v-228
q0 -39 -17.5 -51t-58.5 -12h-182z" />
    <glyph glyph-name="quotedbl" unicode="&#x22;" horiz-adv-x="829" 
d="M522 850l-49 563h287l-47 -563h-191zM117 850l-47 563h286l-49 -563h-190z" />
    <glyph glyph-name="numbersign" unicode="#" horiz-adv-x="1120" 
d="M72 360v197h200l33 225h-172v197h203l51 352h188l-53 -352h176l52 352h190l-53 -352h162v-197h-193l-33 -225h168v-197h-200l-52 -360h-190l53 360h-174l-53 -360h-191l54 360h-166zM635 557l33 225h-174l-33 -225h174z" />
    <glyph glyph-name="dollar" unicode="$" horiz-adv-x="915" 
d="M59 326q1 102 83 102q40 0 55.5 -11t47 -35t89.5 -24q121 0 121 82q0 50 -46.5 89.5t-144.5 118.5t-150.5 180.5t-52.5 218.5q0 184 79 290.5t220 122.5v127q0 16 4.5 20.5t22.5 4.5h109q18 0 24 -7.5t6 -25.5v-106q29 2 34 2h61q93 0 117 -23.5t24 -103.5v-146
q0 -59 -15.5 -78.5t-57.5 -19.5t-79 12t-78 12q-90 0 -90 -63q0 -52 50.5 -101t93 -85.5t108.5 -100.5t103 -142.5t37 -195.5q0 -184 -71 -284.5t-237 -137.5v-141q0 -18 -6 -25.5t-24 -7.5h-109q-18 0 -22.5 4.5t-4.5 20.5v137q-16 -2 -18 -2h-16q-86 0 -150.5 17.5
t-89.5 34.5t-25 69v18l-2 174v9z" />
    <glyph glyph-name="percent" unicode="%" horiz-adv-x="1343" 
d="M1081 535q0 53 -47 53t-47 -53v-324q0 -55 47 -55t47 55v324zM772 394q0 221 52.5 304.5t204.5 83.5t210.5 -76.5t58.5 -236.5v-166q0 -181 -58.5 -258.5t-202.5 -77.5q-241 0 -253 155.5t-12 271.5zM211 42q0 22 12 46l744 1399q17 35 35 35t28 -6l84 -41q16 -9 16 -23
t-14 -43l-735 -1399q-23 -41 -49 -41q-4 0 -21 4l-80 37q-20 10 -20 32zM354 1262q0 53 -47 53t-47 -53v-324q0 -55 47 -55t47 55v324zM45 1120q0 221 53.5 305t200.5 84q148 0 217 -82q41 -51 48 -149t7 -220t-13 -184.5t-59 -122t-190 -59.5q-240 0 -252 156t-12 272z" />
    <glyph glyph-name="ampersand" unicode="&#x26;" horiz-adv-x="1071" 
d="M527 1268q-91 0 -91 -108q0 -58 74 -169q49 53 77.5 94t28.5 86.5t-23.5 71t-65.5 25.5zM322 453q0 -68 43 -120t92 -52t102 28l-160 307q-77 -65 -77 -163zM1030 731q0 -140 -52 -260.5t-91 -177.5l106 -199q14 -25 15 -39q0 -57 -64 -57l-133 8l-74 -6q-37 0 -65 78
q-92 -94 -255 -94t-273.5 125.5t-110.5 330.5q0 135 57 235.5t182 198.5q-96 152 -96 286t97 231.5t247 97.5t236 -83t86 -218q0 -179 -211 -400l96 -204l14 8q6 45 7 55v21q0 72 8 101.5t51 29.5l57 -2l80 2q86 0 86 -68z" />
    <glyph glyph-name="quotesingle" unicode="'" horiz-adv-x="423" 
d="M117 850l-47 563h286l-49 -563h-190z" />
    <glyph glyph-name="parenleft" unicode="(" horiz-adv-x="587" 
d="M559 -109q0 -72 -65 -71q-114 0 -187.5 74.5t-99.5 119.5q-76 127 -106.5 286t-30.5 363q0 393 121.5 614.5t304.5 221.5q63 0 63 -65v-230q0 -38 -19.5 -56t-32.5 -26t-24 -22q-45 -59 -57 -156.5t-12 -257.5q0 -344 61 -459q8 -18 22.5 -28.5t38 -28.5t23.5 -64v-215z
" />
    <glyph glyph-name="parenright" unicode=")" horiz-adv-x="587" 
d="M23 113q0 38 19 55.5t31.5 26t22.5 22.5q45 59 58.5 158t13.5 259q0 421 -63 469.5t-72.5 64.5t-9.5 44v215q0 70 63 70q70 0 151.5 -50.5t147.5 -160.5q127 -211 127 -617q0 -405 -121.5 -628t-302.5 -223q-66 0 -65 65v230z" />
    <glyph glyph-name="asterisk" unicode="*" 
d="M401 1415q0 82 109 82t108 -88q0 -74 -36 -238q102 59 153 93t65 34t30 -11t29 -29.5t21.5 -41t8.5 -47t-14.5 -41t-43 -29t-74.5 -25.5t-108 -32q57 -29 144.5 -69t87.5 -79q0 -49 -29 -79.5t-48.5 -42.5t-35.5 -12t-62.5 38t-130.5 109q8 -78 21.5 -141.5t13.5 -108.5
t-21.5 -59t-76.5 -14q-98 0 -98 88q0 23 7 81t13 150q-84 -53 -133 -90t-69 -37q-37 0 -66 44.5t-29 81.5q0 36 23.5 57.5t45.5 21.5t60.5 14.5t112.5 32.5q-63 31 -109.5 47.5t-77 30.5t-46 28.5t-15.5 38.5t10.5 47t26.5 41.5t34.5 31t35 12.5t59.5 -39.5t129 -98.5
q-2 96 -13.5 156.5t-11.5 91.5z" />
    <glyph glyph-name="plus" unicode="+" horiz-adv-x="915" 
d="M324 600h-283v283h283v374h268v-374h282v-283h-282v-379h-268v379z" />
    <glyph glyph-name="comma" unicode="," horiz-adv-x="454" 
d="M135 -190q-37 0 -37 24q0 14 23.5 53t58.5 113h-33q-51 0 -67.5 12.5t-16.5 61.5v227q0 37 17.5 50.5t58.5 13.5h183q39 0 54 -15.5t15 -58.5v-228q0 -29 -10 -44t-19 -31l-83 -150q-16 -29 -60 -28h-84z" />
    <glyph glyph-name="hyphen" unicode="-" horiz-adv-x="569" 
d="M57 729h453v-270h-453v270z" />
    <glyph glyph-name="period" unicode="." horiz-adv-x="454" 
d="M133 0q-39 0 -54.5 15.5t-15.5 58.5v227q0 37 17.5 50.5t58.5 13.5h183q39 0 54 -15.5t15 -58.5v-228q0 -39 -17.5 -51t-58.5 -12h-182z" />
    <glyph glyph-name="slash" unicode="/" horiz-adv-x="569" 
d="M-68 -131q0 12 7 35l489 1655q12 41 45 40q10 0 14 -2l99 -28q20 -8 20 -23t-8 -41l-481 -1655q-16 -49 -49 -49q-10 0 -15 2l-94 25q-10 4 -18.5 16.5t-8.5 24.5z" />
    <glyph glyph-name="zero" unicode="0" horiz-adv-x="915" 
d="M524 1038q0 72 -16 109t-57 37t-57.5 -34t-16.5 -101v-627q0 -111 76 -111q41 0 56 30t15 95v602zM70 1148q15 115 67 202q98 154 324 153q121 0 210 -53t131 -143t49 -224.5t7 -326.5v-183q0 -135 -12 -241.5t-68 -193.5q-106 -163 -322 -163t-317 156
q-80 126 -82 346.5t-2 387.5q0 168 15 283z" />
    <glyph glyph-name="one" unicode="1" horiz-adv-x="915" 
d="M352 1031q0 7 -2 36l-88 -121q-15 -20 -36 -20t-48 22l-82 72q-28 26 -28 44t20 40l315 381h226q33 0 45 -19.5t12 -66.5v-1274q0 -79 -13 -102t-79 -23h-191q-35 0 -43 20.5t-8 59.5l-4 137l4 182l-4 297l4 260v75z" />
    <glyph glyph-name="two" unicode="2" horiz-adv-x="915" 
d="M141 0q-63 0 -63 72v153q0 68 36 101.5t62.5 55t54.5 54.5q137 160 205 313t68 255t-15.5 138t-57.5 36t-54 -30t-12 -89v-68q0 -51 -8.5 -76.5t-53.5 -25.5h-156q-47 0 -57 27.5t-10 87.5v28q0 246 88 357.5t278 111.5t286.5 -114.5t96.5 -312.5t-79.5 -371t-239.5 -361
h217q58 0 75 -17.5t17 -84.5v-170q0 -41 -22.5 -55.5t-67.5 -14.5h-588z" />
    <glyph glyph-name="three" unicode="3" horiz-adv-x="915" 
d="M471 1068q0 48 -30.5 79t-72.5 31t-60.5 -13.5t-32 -31t-24.5 -30.5t-32 -13t-47 34l-102 119q-16 20 -17 49q0 45 101 119q125 88 286 88t261 -103t100 -286t-148 -276q86 -35 133.5 -127.5t47.5 -216.5t-33 -215t-90.5 -156.5t-135 -101t-170 -35.5t-165 29.5
t-128.5 63.5t-76 49.5t-20 41.5t5.5 35.5t13.5 21.5l106 168q20 33 49 33t45.5 -12.5t50.5 -40t84 -27.5t81.5 37t31.5 102q0 160 -121 160l-71 -2q-41 0 -51.5 17.5t-12.5 62.5l-6 164v4q0 66 84 65l23 -2q66 0 104.5 34t38.5 82z" />
    <glyph glyph-name="four" unicode="4" horiz-adv-x="915" 
d="M432 631v366l-151 -366h151zM489 0q-53 0 -63 15.5t-10 62.5v239h-320q-39 0 -50 14.5t-11 61.5v166q0 20 14 51l227 508q157 349 181 358t59 9h184q51 0 52 -70v-786h71q39 0 39 -54v-190q0 -37 -12 -52.5t-45 -15.5h-53v-233q0 -57 -17.5 -70.5t-79.5 -13.5h-166z" />
    <glyph glyph-name="five" unicode="5" horiz-adv-x="915" 
d="M502 1042q338 0 338 -504q0 -255 -125.5 -409t-321.5 -154q-137 0 -289 97q-86 55 -86 104q0 16 23 55l86 156q27 49 68 49q40 0 64 -32q25 -32 40.5 -50t58.5 -18q133 0 134 217q0 193 -148 192q-50 0 -76 -19t-37 -27.5t-31 -8.5t-52.5 20.5t-32.5 49.5l6 71v467l-2 62
q0 61 19.5 93t76.5 32h461q59 0 85.5 -11.5t26.5 -62.5v-174q0 -35 -17 -43t-54 -8h-262q-29 0 -38 -23.5t-9 -60.5t9 -49.5t32 -12.5z" />
    <glyph glyph-name="six" unicode="6" horiz-adv-x="915" 
d="M466 696q-54 0 -63.5 -54t-9.5 -162t14.5 -152.5t58.5 -44.5t60.5 25.5t16.5 82.5v76q0 121 -11.5 175t-65.5 54zM580 995q139 0 215 -112q41 -59 50 -159.5t9 -250.5q0 -252 -95 -375t-300 -123q-403 0 -404 621q0 457 139.5 680t428.5 223q104 0 144 -25.5t40 -97.5
v-151q0 -74 -59 -74q-14 0 -42 10t-69 10q-94 0 -151.5 -53t-67.5 -157l6 -9q70 43 156 43z" />
    <glyph glyph-name="seven" unicode="7" horiz-adv-x="915" 
d="M563 100v-28q-6 -51 -24.5 -61.5t-49.5 -10.5h-235q-43 0 -61.5 18.5t-18.5 73.5q0 238 309 1079h-313q-54 0 -64 19.5t-11 51.5t-1 114t15 105.5t86 23.5h534q51 0 70.5 -7.5t19.5 -45.5l4 -140q0 -20 -20.5 -79.5t-78.5 -246.5t-105 -417q-46 -229 -51 -318.5
t-5 -130.5z" />
    <glyph glyph-name="eight" unicode="8" horiz-adv-x="915" 
d="M545 1137q0 47 -22.5 71.5t-62.5 24.5t-62.5 -25.5t-22.5 -70.5q0 -95 100 -154q70 59 70 154zM365 446q0 -62 24.5 -96.5t66.5 -34.5t67.5 31t25.5 88q0 156 -90 215q-43 -33 -68.5 -87t-25.5 -116zM76 1112q0 180 110.5 282.5t289.5 102.5t278.5 -105t99.5 -272
q0 -90 -38 -173t-109 -142v-8q172 -113 172 -363q0 -209 -116 -330.5t-308 -121.5t-305 123.5t-113 312.5q0 260 188 375l4 12q-153 127 -153 307z" />
    <glyph glyph-name="nine" unicode="9" horiz-adv-x="915" 
d="M441 778q54 0 65.5 46t11.5 153t-14.5 157t-69.5 50q-72 0 -72 -107v-86q0 -109 12.5 -161t66.5 -52zM102 248q0 72 60 71q14 0 41.5 -10t68.5 -10q94 0 151.5 54.5t68.5 158.5l-7 8q-72 -45 -155 -45q-137 0 -215 115q-41 59 -50.5 159.5t-9.5 249.5q0 254 95.5 375
t303.5 121t304 -159.5t96 -487.5q0 -438 -142.5 -656.5t-420.5 -218.5q-109 0 -139.5 18.5t-40 42t-9.5 60.5v154z" />
    <glyph glyph-name="colon" unicode=":" horiz-adv-x="516" 
d="M422 721q0 -39 -17.5 -51.5t-58.5 -12.5h-182q-39 0 -54.5 15.5t-15.5 58.5v227q0 37 17.5 50.5t58.5 13.5h182q39 0 54.5 -15.5t15.5 -58.5v-227zM164 0q-39 0 -54.5 15.5t-15.5 58.5v227q0 37 17.5 50.5t58.5 13.5h182q39 0 54.5 -15.5t15.5 -58.5v-228
q0 -39 -17.5 -51t-58.5 -12h-182z" />
    <glyph glyph-name="semicolon" unicode=";" horiz-adv-x="516" 
d="M422 721q0 -39 -17.5 -51.5t-58.5 -12.5h-182q-39 0 -54.5 15.5t-15.5 58.5v227q0 37 17.5 50.5t58.5 13.5h182q39 0 54.5 -15.5t15.5 -58.5v-227zM166 -190q-37 0 -37 24q0 14 23.5 53t58.5 113h-33q-51 0 -67.5 12.5t-16.5 61.5v227q0 37 17.5 50.5t58.5 13.5h182
q39 0 54.5 -15.5t15.5 -58.5v-228q0 -29 -10.5 -44t-18.5 -31l-84 -150q-16 -29 -59 -28h-84z" />
    <glyph glyph-name="less" unicode="&#x3c;" horiz-adv-x="915" 
d="M860 221l-807 410v215l807 409v-323l-438 -195l438 -192v-324z" />
    <glyph glyph-name="equal" unicode="=" horiz-adv-x="915" 
d="M41 702h833v-284h-833v284zM41 1061h833v-283h-833v283z" />
    <glyph glyph-name="greater" unicode="&#x3e;" horiz-adv-x="915" 
d="M53 545l445 194l-445 195v319l807 -401v-227l-807 -402v322z" />
    <glyph glyph-name="question" unicode="?" horiz-adv-x="663" 
d="M225 455q-63 0 -63 184q0 123 19.5 214t28.5 130t9 66q0 90 -61 90l-56 -11q-37 0 -52 50.5t-15 148.5t50 136t161 38q328 0 327 -305q0 -94 -32.5 -178t-75.5 -185t-43 -188l8 -123q0 -45 -19.5 -56t-60.5 -11h-125zM217 0q-39 0 -54.5 15.5t-15.5 58.5v227
q0 37 17.5 50.5t58.5 13.5h183q39 0 54 -15.5t15 -58.5v-228q0 -39 -17.5 -51t-58.5 -12h-182z" />
    <glyph glyph-name="at" unicode="@" horiz-adv-x="1638" 
d="M879 575q0 37 -9.5 54.5t-35.5 17.5q-55 0 -56 -76v-88q0 -68 49 -67q33 0 42.5 18.5t9.5 59.5v81zM866 786q16 0 15 28q0 28 -23.5 45.5t-62.5 17.5t-69 -11.5t-50 -11.5t-25.5 10t-5.5 33v68q0 18 3 30.5t20 18.5q54 30 182 30t174.5 -46t46.5 -154v-432
q0 -23 10.5 -29t65.5 -6t102 46t90 146t43 226q0 241 -135.5 378.5t-361.5 137.5q-287 0 -458 -208t-171 -498t152.5 -454.5t413.5 -164.5q262 0 450 153q8 8 18 8q10 -1 28 -29t26 -39t8 -21t-6.5 -15.5t-10.5 -9.5q-227 -188 -501 -189q-340 0 -538 213.5t-198 534.5
q0 193 62.5 351.5t170 273t252 178t303.5 63.5q304 0 479 -185.5t175 -445.5q0 -259 -121 -426.5t-348 -167.5h-156q-27 0 -31.5 16.5t-4.5 51.5h-5q-35 -61 -110.5 -61t-125.5 73.5t-50 206.5t55 208t135 75q25 0 48.5 -8.5t39.5 -8.5z" />
    <glyph glyph-name="A" unicode="A" horiz-adv-x="894" 
d="M453 582q71 0 71 48q0 30 -4 54l-65 428l-17 -2l-57 -416q-4 -16 -5 -28.5t-3 -22.5t-2 -23t20.5 -25.5t61.5 -12.5zM63 0q-77 0 -77 58q0 33 26 145l64 297q8 35 9 75.5t54 318.5t71 391q17 112 31.5 151t59.5 39h252q61 0 79 -24q17 -24 43.5 -157t62.5 -299t53 -296
t43 -268t48.5 -216t22.5 -125q0 -90 -94 -90h-180q-20 0 -39 14t-26 42t-7 65t-9 71t-27.5 50t-67.5 16t-79 -17.5t-30 -45.5l2 -72q0 -68 -18.5 -95.5t-77.5 -27.5h-189z" />
    <glyph glyph-name="B" unicode="B" horiz-adv-x="933" 
d="M528 1475q330 0 330 -355q0 -131 -29.5 -204.5t-107.5 -102.5q90 -37 124 -125t34 -242q0 -233 -98.5 -339.5t-309.5 -106.5h-283q-69 0 -93 14q-25 14 -28.5 65.5t-3.5 147.5l9 303l-9 363l7 385l-7 123q0 78 134 78l88 -4h243zM381 387q0 -84 68 -84q53 0 82.5 42
t29.5 123t-26.5 119t-85.5 38q-68 0 -68 -68v-170zM387 977q0 -37 39 -37q123 0 123 131q0 53 -27.5 85t-80.5 32t-54 -45v-166z" />
    <glyph glyph-name="C" unicode="C" horiz-adv-x="724" 
d="M315.5 24.5q-88.5 30.5 -159.5 132.5q-70 101 -91.5 249.5t-21.5 349.5t23.5 338t82 221t160 122t256.5 38q66 0 90.5 -21.5t24.5 -87.5l-2 -88l4 -76q0 -64 -34 -81q-21 -11 -87.5 -11t-106.5 -48t-45.5 -144.5t-5.5 -189.5q0 -206 24 -295t116 -89l82 4q59 0 59 -84
l4 -160q0 -66 -32.5 -88t-142.5 -22q-109 0 -197.5 30.5z" />
    <glyph glyph-name="D" unicode="D" horiz-adv-x="972" 
d="M469 1473q252 0 348 -191t96 -633q0 -330 -90 -491.5t-288 -161.5l-66 4l-135 -2l-172 -4q-71 0 -86 35.5t-15 148.5v19q0 29 3.5 178t3.5 423t-5.5 418t-5.5 180q0 78 113 77l137 -3l154 3h8zM454 305q72 0 89.5 62t17.5 235v127q0 250 -14.5 307.5t-38 80t-66.5 22.5
q-63 0 -63 -74l4 -147l2 -476l-2 -41q0 -53 16.5 -74.5t54.5 -21.5z" />
    <glyph glyph-name="E" unicode="E" horiz-adv-x="768" 
d="M145 0q-94 0 -94 90q0 45 7.5 105.5t7.5 134.5l2 993l-2 51q0 66 32 83.5t121 17.5h320l34 -2l39 2q63 0 86 -22.5t23 -84.5l2 -125q0 -61 -22.5 -80.5t-77.5 -19.5l-76 2h-94q-35 0 -47.5 -17.5t-12.5 -64.5v-27q0 -57 10.5 -79.5t61.5 -22.5l139 6q74 0 90.5 -30.5
t16.5 -106.5v-60q0 -137 -84 -137l-166 8q-45 0 -53.5 -16t-8.5 -53l-2 -121q-2 -47 10.5 -61.5t59.5 -14.5l180 2q63 0 76.5 -33t13.5 -105q0 -136 -16.5 -174t-91.5 -38l-338 8z" />
    <glyph glyph-name="F" unicode="F" horiz-adv-x="724" 
d="M522 1151h-57q-51 0 -60.5 -15.5t-12.5 -38t-3 -80t14.5 -71.5t100.5 -14h14l119 8q35 0 47 -21.5t12 -68.5l-2 -80v-51q0 -63 -18.5 -90t-79.5 -27l-121 4q-51 0 -66.5 -19.5t-15.5 -84.5v-297l6 -133q0 -41 -18.5 -59.5t-61.5 -18.5l-124 8l-86 -6q-35 0 -42.5 17.5
t-7.5 58.5v41l2 65v1102l-2 96q0 55 19.5 77t71.5 22l14 -1l98 1h289l65 2q53 0 74 -21.5t21 -85.5l-4 -96q0 -47 -6.5 -71.5t-30.5 -38t-148 -13.5z" />
    <glyph glyph-name="G" unicode="G" horiz-adv-x="948" 
d="M602 563q0 33 -49 51q-35 14 -48 41t-13 87t4 103.5t18 66t43 28.5t76 6h119q78 0 105.5 -30.5t27.5 -114.5v-645q0 -45 -4 -72.5t-33 -49.5q-77 -59 -232 -59t-257.5 50.5t-214 193.5t-111.5 491t160.5 556.5t429.5 208.5q137 0 179 -24t54 -53.5t12 -106.5t-10 -128
t-65 -51q-23 0 -55.5 11.5t-80.5 11.5q-141 0 -208.5 -94.5t-67.5 -294.5t36 -305t122 -105q41 0 52 29.5t11 83.5v114z" />
    <glyph glyph-name="H" unicode="H" horiz-adv-x="933" 
d="M776 0h-145q-51 0 -72.5 29.5t-21.5 89.5v180q0 59 9 108.5t9 90.5q0 70 -61 69q-66 0 -82.5 -31.5t-16.5 -95.5v-323q0 -73 -24 -95t-105 -22h-80q-66 0 -94.5 12.5t-28.5 79.5l5 242l-7 631l5 338v51q0 78 20 99.5t102 21.5h64q86 0 118.5 -17.5t32.5 -83.5v-14
l-12 -324l-2 -41q0 -47 15.5 -72.5t63.5 -25.5t65.5 34.5t17.5 104.5t-5 111t-5 55l8 109l-4 80q0 57 31.5 70.5t103.5 13.5h96q53 0 74.5 -15.5t21.5 -62.5l-6 -205l2 -207l-4 -598l6 -272q0 -115 -94 -115z" />
    <glyph glyph-name="I" unicode="I" horiz-adv-x="464" 
d="M266 0h-71q-91 0 -109 18.5t-21.5 45t-3.5 75.5t4.5 306t4.5 720l-4 217q0 64 23 78.5t95 14.5h95q74 0 100 -21q20 -20 20 -135v-123l-6 -850l4 -225q0 -80 -21.5 -97.5t-47 -20.5t-62.5 -3z" />
    <glyph glyph-name="J" unicode="J" horiz-adv-x="573" 
d="M252 1475h143q61 0 82 -21.5t21 -81.5l-4 -266l2 -320v-401q0 -225 -51 -312t-202 -87t-178.5 19.5t-31.5 48t-4 77.5v27q0 94 8 129t42 39t51 7t24.5 24.5t7.5 211.5v166l-2 641q0 59 16.5 79t75.5 20z" />
    <glyph glyph-name="K" unicode="K" horiz-adv-x="890" 
d="M379 616v-501q0 -61 -14.5 -88t-77.5 -27h-97q-41 0 -65.5 2t-43 20t-18.5 115l3 570l-3 682q0 57 25 71.5t94 14.5h121q47 0 63.5 -19.5t16.5 -75.5v-14l-8 -399h31q111 445 123 477q13 31 71 31h188q45 0 63.5 -6.5t18.5 -30.5t-10 -48t-22 -53l-174 -419
q-17 -45 -17 -72q0 -26 84 -287q84 -262 122 -370.5t38 -148.5t-66 -40l-96 4l-76 -4q-75 0 -94.5 17t-34.5 94l-118 505h-27z" />
    <glyph glyph-name="L" unicode="L" horiz-adv-x="702" 
d="M61 188v21l5 670l-3 456q0 78 10.5 109t57.5 31l92 -2l109 4q29 0 44 -12t15 -97l-2 -274q0 -644 7 -686t24.5 -56t54.5 -14l80 6q57 0 74.5 -28.5t17.5 -96.5v-108q0 -113 -115 -113l-83 2h-256l-52 -4q-76 0 -78 71.5t-2 120.5z" />
    <glyph glyph-name="M" unicode="M" horiz-adv-x="1185" 
d="M279 0h-134q-76 0 -75 117v958l4 197l-6 125q0 49 22.5 63.5t81.5 14.5h190q54 0 78 -21.5t45 -110.5l99 -434h24l119 490q10 41 28.5 58.5t51.5 17.5h225q55 0 69.5 -29t14.5 -103l-8 -409l4 -625l4 -190q0 -66 -12 -92.5t-51 -26.5h-185q-43 0 -58 24.5t-15 81.5v394
q0 201 -9 282h-30q-84 -401 -154 -401q-41 0 -81 101.5t-105 299.5h-25v-598l-4 -114q0 -45 -16 -57.5t-92 -12.5z" />
    <glyph glyph-name="N" unicode="N" 
d="M864 0h-166q-61 0 -79 19t-44 106l-165 571h-41v-571q0 -73 -16 -99t-83 -26h-104q-72 0 -87.5 27t-15.5 112v1184q0 76 14.5 114t82.5 38h186q37 0 52.5 -9.5t25.5 -45.5t53 -196.5t135 -445.5h41l4 574q0 66 12.5 94.5t65.5 28.5h127q57 0 76.5 -15.5t19.5 -68.5
l-2 -45v-580l-6 -207l4 -387q0 -84 -12 -128t-78 -44z" />
    <glyph glyph-name="O" unicode="O" horiz-adv-x="1034" 
d="M616 995q0 158 -106 158q-53 0 -73.5 -54.5t-20.5 -164.5v-408q0 -104 17.5 -150t65.5 -46t70.5 18.5t34.5 64.5t12 236v346zM65.5 1076.5q14.5 120.5 66.5 219.5q109 205 413 205q231 0 333.5 -139t102.5 -438v-66q0 -223 -7 -378.5t-51 -264.5t-155.5 -174.5
t-259.5 -65.5t-231.5 44t-154.5 174t-71 447q0 316 14.5 436.5z" />
    <glyph glyph-name="P" unicode="P" horiz-adv-x="1013" 
d="M485 1180q-90 0 -90 -130q0 -266 11 -305.5t83 -39.5t93.5 55t21.5 177t-24.5 182.5t-94.5 60.5zM406 274l8 -210q0 -64 -76 -64l-78 6l-110 -10q-57 0 -58 70l2 65l-2 164l8 678q0 174 -5 273.5t-5 121.5q0 100 78 107q4 0 93 6t263 6q217 0 318.5 -131t101.5 -402
t-112 -422t-289 -151l-39 2q-55 0 -76.5 -17.5t-21.5 -91.5z" />
    <glyph glyph-name="Q" unicode="Q" horiz-adv-x="1062" 
d="M55 802q0 198 24.5 325.5t109.5 250.5t354 123q227 0 329.5 -140t102.5 -437q0 -374 -7 -452t-17.5 -106t-10.5 -34t32 -18t45 -15.5t28.5 -9.5t15.5 -45l-1 -21l1 -153q0 -68 -66 -68q-95 0 -194 64q-124 -91 -318 -91q-260 1 -354 215q-47 108 -60.5 261t-13.5 351z
M623 995q0 158 -103 158q-68 0 -89 -51t-21 -168v-422q0 -94 13 -139t73 -45q16 0 51 10q-29 27 -44.5 46t-15.5 42t15.5 40t47.5 17t73 -41v553z" />
    <glyph glyph-name="R" unicode="R" horiz-adv-x="1052" 
d="M492 743q122 0 122 144q0 160 -21 221t-104 61q-92 0 -92 -110l4 -146q0 -106 15 -138t76 -32zM406 84q0 -84 -68 -84h-182q-57 0 -68.5 29.5t-11.5 103.5v1217q0 70 18.5 99.5t93.5 29.5l160 -4l225 6q200 0 286.5 -115.5t86.5 -392.5q0 -188 -30.5 -299t-122.5 -158
l186 -426q10 -25 10 -37q0 -57 -71 -57l-46 4h-174q-48 0 -62 23.5t-36 85.5l-158 407h-36v-432z" />
    <glyph glyph-name="S" unicode="S" horiz-adv-x="886" 
d="M66 283q0 104 73 104q33 0 48.5 -8t53.5 -25.5t99 -17.5q104 0 104 90q0 62 -45 104.5t-143 126t-143 185.5t-45 221q0 416 460 416q148 0 175.5 -17.5t31.5 -44t4 -69.5v-150q0 -61 -12 -80.5t-55 -19.5t-79 13t-75 13q-94 0 -94 -82q0 -50 50 -98.5t94 -89t111 -106.5
q128 -127 128 -341t-104.5 -323t-309.5 -109t-260 28t-60 48.5t-5 52.5v15l-2 155v9z" />
    <glyph glyph-name="T" unicode="T" horiz-adv-x="806" 
d="M6 1363q0 106 96 105l297 5l156 -7l111 4q57 0 74.5 -17t17.5 -83v-24q0 -106 -9.5 -158.5t-62.5 -52.5h-68q-41 0 -55 -11.5t-14 -38.5v-34l2 -830l6 -135q0 -47 -16.5 -66.5t-57.5 -19.5l-49 2l-129 -6q-51 0 -71.5 19.5t-20.5 62.5l4 108v531l-4 104l6 269
q0 35 -16 38q-41 10 -82 6t-73 10t-37 63.5t-5 155.5z" />
    <glyph glyph-name="U" unicode="U" horiz-adv-x="1009" 
d="M610 1358q0 68 20.5 92.5t78.5 24.5h159q41 0 57.5 -27t16.5 -80v-893q0 -260 -112.5 -380t-354.5 -120t-342 142q-53 72 -64.5 174t-11.5 248v790q0 74 11.5 110t66.5 36h168q63 0 75.5 -27t12.5 -86v-899q0 -141 110 -141t109 112v924z" />
    <glyph glyph-name="V" unicode="V" horiz-adv-x="919" 
d="M2 1434q0 24 19.5 33.5t68.5 9.5h205q57 0 67 -31q32 -103 89 -1034h26q35 483 53.5 741t49.5 299q18 25 73 25l166 -2h19q41 0 61.5 -5.5t20.5 -45.5t-44 -283t-92 -523t-59.5 -366t-23 -143.5t-29 -84t-51.5 -26.5l-60 6l-115 -2l-71 2l-64 -2q-27 0 -41 16.5t-23 52
t-16 92t-27 179.5t-61 308.5t-73 381.5t-50 287t-18 115z" />
    <glyph glyph-name="W" unicode="W" horiz-adv-x="1337" 
d="M1296 1470q41 0 41 -32t-20 -127l-221 -1186q-12 -68 -24.5 -97.5t-65.5 -29.5l-68 6l-70 -8q-59 0 -76.5 41t-33.5 129l-78 403h-23l-69 -467q-8 -53 -28.5 -77.5t-88.5 -24.5h-13l-106 -2q-72 0 -89 31.5t-36 142.5l-196 1145q-8 45 -14.5 75.5t-6.5 49.5q0 31 72 31
l186 4q59 0 75.5 -36t25.5 -128l75 -692h25l90 346l-78 424q-4 21 -4 37t17.5 33.5t44.5 17.5l120 -4l82 4q45 0 58.5 -24.5t17.5 -92.5l57 -741h23l90 735v30q0 49 23.5 68t76.5 19l144 -5z" />
    <glyph glyph-name="X" unicode="X" horiz-adv-x="919" 
d="M-6 32q0 22 18 74l234 662q-100 311 -158.5 472t-58.5 185q0 50 59 50l111 -2l102 2q68 0 82 -68l72 -330h22l64 336q12 63 69 64l127 -11l99 7q53 0 53 -46q0 -16 -9.5 -37.5t-19.5 -52.5l-207 -569l244 -664q8 -23 14.5 -41t6.5 -34q0 -31 -78 -31l-111 4l-111 -4
q-35 0 -47 16.5t-22 53.5l-94 352h-19l-78 -357q-8 -37 -27.5 -50t-56.5 -13l-106 6l-115 -4q-35 0 -47 4t-12 26z" />
    <glyph glyph-name="Y" unicode="Y" horiz-adv-x="890" 
d="M285 522q0 38 -29 131l-233 688q-16 49 -17 76q0 57 82 58l88 -5l115 3q43 0 59.5 -20.5t22.5 -59.5l73 -469h17l65 415q10 53 19.5 84t32.5 39q37 12 221 13q98 0 98 -54q0 -20 -18 -78l-226 -684q-8 -23 -23.5 -67.5t-15.5 -140.5v-13l5 -282l4 -88q0 -41 -20.5 -54.5
t-67.5 -13.5l-88 2l-113 -4q-31 0 -43 13.5t-12 43.5l4 310v157z" />
    <glyph glyph-name="Z" unicode="Z" horiz-adv-x="833" 
d="M385 1114q0 22 -24.5 26.5t-81.5 4.5l-138 -4q-51 0 -67.5 26.5t-16.5 85.5l2 41l-2 99q0 45 26 61t85 16h545q39 0 55 -15t16 -114v-69q0 -30 -22 -82l-322 -787q-6 -16 -11 -26.5t-5 -24.5t108 -14h56l143 8q25 0 41 -20.5t16 -53.5l-4 -118l2 -60q0 -57 -17 -76.5
t-58 -19.5l-285 6l-207 -6h-45l-76 -2q-33 0 -46 18.5t-13 63.5l2 168q0 55 27.5 118.5t71.5 175.5q69 175 157 363.5t88 210.5z" />
    <glyph glyph-name="bracketleft" unicode="[" horiz-adv-x="587" 
d="M397 1110v-922q0 -33 9.5 -45t39.5 -14t50 -10t20 -43v-201q0 -29 -16.5 -35t-50.5 -6h-312q-43 0 -50 19.5t-7 66.5v1434q0 61 10 91t72 30h287q41 0 54 -20.5t13 -61.5v-150q0 -31 -10 -45t-39 -14l-27 2q-43 0 -43 -76z" />
    <glyph glyph-name="backslash" unicode="\" horiz-adv-x="569" 
d="M489 -199q-35 0 -49 49l-481 1655q-8 24 -8 40t20 24l99 28q4 2 14 2q33 0 45 -40l489 -1655q16 -62 -20 -76l-94 -25q-4 -2 -15 -2z" />
    <glyph glyph-name="bracketright" unicode="]" horiz-adv-x="587" 
d="M66 1243v150q0 41 14 61.5t55 20.5h287q57 0 68.5 -27t11.5 -82v-1446q0 -47 -8.5 -66.5t-49.5 -19.5h-309q-35 0 -52 6t-17 35v201q0 35 20 43t50 10t39 14.5t9 44.5v922q0 76 -43 76l-26 -2q-29 0 -39 14t-10 45z" />
    <glyph glyph-name="asciicircum" unicode="^" horiz-adv-x="915" 
d="M27 690l323 813h215l322 -813h-293l-139 367l-138 -367h-290z" />
    <glyph glyph-name="underscore" unicode="_" 
d="M0 -102h1024v-103h-1024v103z" />
    <glyph glyph-name="grave" unicode="`" 
d="M500 1251q-35 0 -51 17l-191 176q-8 6 -8 14q0 16 22 17h234q46 0 57 -23l99 -172q4 -8 4 -10q0 -18 -21 -19h-145z" />
    <glyph glyph-name="a" unicode="a" horiz-adv-x="845" 
d="M481 489q0 53 -14 79t-53 26q-80 0 -80 -111v-131q0 -102 74 -102q45 0 59 26.5t14 90.5v122zM684 0h-141q-42 0 -50 12t-8 64h-14q-35 -94 -156 -94t-194.5 114t-73.5 310t81.5 310.5t203.5 114.5q43 0 74.5 -13t54.5 -13q29 0 29 42t-33 68.5t-95 26.5t-107.5 -18.5
t-73.5 -18.5t-38 16.5t-10 51.5v102q0 27 4 45.5t32 30.5t99.5 27.5t166.5 15.5q195 0 267 -69.5t72 -233.5v-785l2 -38q0 -49 -17.5 -58.5t-74.5 -9.5z" />
    <glyph glyph-name="b" unicode="b" horiz-adv-x="868" 
d="M367 420q0 -121 73 -121q47 0 59.5 38t12.5 116v288q0 70 -12.5 103t-61.5 33t-60 -39t-11 -115v-303zM543 -10q-101 0 -178 84q-6 -49 -18.5 -61.5t-57.5 -12.5h-123q-53 0 -72.5 16.5t-19.5 63.5l4 127v1184q0 71 10.5 83.5t73.5 12.5h129q60 0 72 -16.5t13 -37
t1 -51.5v-241q61 53 151 53q147 0 212 -147.5t65 -450.5t-58.5 -454.5t-203.5 -151.5z" />
    <glyph glyph-name="c" unicode="c" horiz-adv-x="583" 
d="M528 66q0 -76 -90 -76q-223 0 -305 128t-82 465t79 474t308 137q51 0 70.5 -17.5t19.5 -64.5v-168q0 -59 -23 -68.5t-55 -13.5q-62 -8 -76 -64t-14 -193q0 -138 14.5 -196.5t74.5 -58.5h22q35 0 46 -15.5t11 -55.5v-213z" />
    <glyph glyph-name="d" unicode="d" horiz-adv-x="868" 
d="M356 455q0 -80 12.5 -118t59.5 -38q74 0 74 123v305q0 78 -11.5 116t-60.5 38t-61.5 -33t-12.5 -103v-290zM698 0h-120q-45 0 -58.5 13.5t-19.5 60.5q-77 -84 -178 -84q-145 0 -203 150.5t-58 454.5t64.5 451.5t212.5 147.5q88 0 149 -53v241q0 65 14 85t74 20h130
q62 0 72.5 -14t10.5 -82v-1184l5 -127q0 -47 -20.5 -63.5t-74.5 -16.5z" />
    <glyph glyph-name="e" unicode="e" horiz-adv-x="833" 
d="M451 709q35 0 43 14.5t8 70.5t-17.5 92t-70.5 36q-70 0 -70 -115q0 -53 7 -75.5t36 -22.5h64zM768 113q0 -51 -24 -69t-96.5 -39t-158.5 -21q-242 0 -346 149.5t-104 459.5t89 454.5t297 144.5t310 -178q35 -63 42 -157.5t7 -200.5t-12 -146.5t-63 -40.5h-330
q-10 0 -21.5 -8t-11.5 -19q0 -78 42 -113.5t116 -35.5t126 26.5t66 26.5q72 0 72 -76v-157z" />
    <glyph glyph-name="f" unicode="f" horiz-adv-x="573" 
d="M129 96v725q-10 -2 -36 -2t-33 18.5t-7 65.5v141q0 37 11.5 52.5t41.5 15.5l23 -2v186q0 199 207 199h84q66 0 88 -10t22 -68v-147q0 -61 -51 -62l-37 4q-41 0 -41 -55q0 -24 5 -47h77q47 0 47 -66v-149q0 -41 -17 -55.5t-64 -14.5h-29v-739q0 -51 -12.5 -70.5
t-67.5 -19.5l-70 4l-77 -6q-47 0 -55.5 23.5t-8.5 78.5z" />
    <glyph glyph-name="g" unicode="g" horiz-adv-x="843" 
d="M768 1077v-887q0 -82 -11.5 -143t-70.5 -111q-125 -106 -309 -106t-216 24.5t-37 61.5t-5 94t17.5 85t37.5 28t35.5 -7t51 -22.5t95.5 -15.5t91.5 28.5t31.5 96.5v17q0 16 -2 28q-72 -59 -155 -60q-123 0 -195 126t-72 366q0 514 281 514q71 0 143 -76v19q0 47 35 47
l82 -2l115 2q41 0 49 -20.5t8 -86.5zM414 887q-49 0 -63.5 -48t-14.5 -157t15.5 -160t65.5 -51t60 37t10 115l-4 172q1 92 -69 92z" />
    <glyph glyph-name="h" unicode="h" horiz-adv-x="929" 
d="M150 0q-47 0 -61.5 22.5t-14.5 88.5v1128l-4 121q0 78 22 100.5t107 22.5h116q70 0 70 -41l-2 -21l6 -327l10 -2q78 102 207 102t185.5 -99.5t56.5 -299.5v-631q0 -86 -15.5 -125t-84.5 -39h-78q-85 0 -106 21.5t-21 93.5v536q0 106 -10.5 161.5t-63.5 55.5
q-88 0 -88 -151v-443l10 -184q0 -58 -21 -74t-83 -16h-137z" />
    <glyph glyph-name="i" unicode="i" horiz-adv-x="468" 
d="M371.5 1256.5q-21.5 -21.5 -97.5 -21.5h-55q-108 0 -125.5 19.5t-20.5 49.5t-3 88t14 80.5t72 22.5l84 -2l65 2q62 0 75 -22t13 -108q0 -87 -21.5 -108.5zM70 90v893l-2 92q0 61 24.5 76.5t85.5 15.5h39l84 2q49 0 69.5 -11t20.5 -50v-1012q0 -59 -11 -78.5t-65 -19.5
l-88 4l-100 -4q-41 0 -49 21.5t-8 70.5z" />
    <glyph glyph-name="j" unicode="j" horiz-adv-x="501" 
d="M48.5 172q13.5 0 31.5 4t22 27.5t4 70.5v709l-2 94q0 59 25 75.5t86 16.5l41 -2l82 2q49 0 69.5 -11t20.5 -50v-983q0 -164 -57.5 -229.5t-185.5 -65.5t-154.5 26.5t-26.5 108.5l2 80l-2 68q0 44 15.5 51.5t29 7.5zM408.5 1258q-21.5 -23 -95.5 -23h-63q-105 0 -122 20.5
t-19.5 50.5t-2.5 88t15.5 79.5t71.5 21.5l83 -2l66 2q59 0 73.5 -21.5t14.5 -107.5q0 -85 -21.5 -108z" />
    <glyph glyph-name="k" unicode="k" horiz-adv-x="894" 
d="M840 1092q0 -63 -178 -478l190 -520q12 -42 12 -63t-15 -26t-44 -5h-197q-41 0 -57 24.5t-33 77.5l-102 363h-35v-371q0 -57 -10.5 -76.5t-61.5 -19.5l-78 4l-90 -4q-41 0 -49 23.5t-8 78.5v1209l-2 88q0 63 23.5 80.5t84.5 17.5l41 -2l88 2q35 0 49.5 -12.5t14.5 -44.5
l-2 -78v-588h27q63 119 85.5 212.5t36.5 135.5t31 48t51 6h70q86 0 122 -9.5t36 -72.5z" />
    <glyph glyph-name="l" unicode="l" horiz-adv-x="468" 
d="M78 115v1194l-2 88q0 63 23.5 80.5t86.5 17.5l41 -2l67 1q66 1 80.5 -13.5t14.5 -50.5v-1336q0 -57 -11 -76.5t-63 -19.5l-88 4l-90 -4q-43 0 -51 27.5t-8 89.5z" />
    <glyph glyph-name="m" unicode="m" horiz-adv-x="1388" 
d="M150 0q-47 0 -61.5 22.5t-14.5 88.5v825l-4 121q0 78 22.5 100.5t106.5 22.5h116q45 0 59.5 -13.5t14.5 -58.5v-14l10 -2q78 102 197 102q78 0 134 -32t104 -99q51 68 104 99.5t125 31.5q135 0 191.5 -99.5t56.5 -299.5v-631q0 -86 -15.5 -125t-85.5 -39h-77
q-85 0 -106 21.5t-21 93.5v536q0 106 -10.5 161.5t-63.5 55.5q-84 0 -84 -139v-565q0 -86 -15.5 -125t-84.5 -39h-78q-85 0 -106 21.5t-21 93.5v536q0 106 -10.5 161.5t-63.5 55.5q-88 0 -88 -151v-443l10 -184q0 -58 -21 -74t-83 -16h-137z" />
    <glyph glyph-name="n" unicode="n" horiz-adv-x="923" 
d="M150 0q-47 0 -61.5 22.5t-14.5 88.5v825l-4 121q0 78 22.5 100.5t106.5 22.5h116q45 0 59.5 -13.5t14.5 -58.5v-14l10 -2q78 102 207 102t185.5 -99.5t56.5 -299.5v-631q0 -86 -15.5 -125t-84.5 -39h-78q-85 0 -106 21.5t-21 93.5v536q0 106 -10.5 161.5t-63.5 55.5
q-88 0 -88 -151v-443l10 -184q0 -58 -21 -74t-83 -16h-137z" />
    <glyph glyph-name="o" unicode="o" horiz-adv-x="847" 
d="M498 743q0 70 -13.5 102t-66.5 32q-66 0 -66 -99v-385q0 -94 68 -94q43 0 60.5 24.5t17.5 79.5v340zM57 599q0 161 10.5 272.5t57.5 177.5q55 82 128 113.5t227 31.5t232.5 -129.5t78.5 -415.5q0 -176 -13.5 -421.5t-361.5 -245.5q-207 0 -283 141t-76 476z" />
    <glyph glyph-name="p" unicode="p" horiz-adv-x="862" 
d="M510 725q0 80 -12.5 118t-59.5 38q-74 0 -73 -121v-305q0 -80 11 -118t61 -38t61.5 33t11.5 102v291zM543 1186q145 0 203.5 -149.5t58.5 -451.5t-64.5 -448.5t-212.5 -146.5q-92 0 -151 53v-119q0 -61 -12.5 -82.5t-73.5 -21.5h-129q-62 0 -73 12t-11 84v1139l-2 47
q0 43 16.5 58.5t73.5 15.5h123q43 0 57 -13.5t19 -60.5q80 84 178 84z" />
    <glyph glyph-name="q" unicode="q" horiz-adv-x="858" 
d="M354 436q0 -70 12.5 -101.5t60.5 -31.5t60.5 38t12.5 116v303q0 119 -74 119q-47 0 -59.5 -38t-12.5 -116v-289zM786 -84q0 -69 -10.5 -82.5t-73.5 -13.5h-129q-60 0 -74 20.5t-14 83.5v119q-63 -53 -149 -53q-147 0 -212 146.5t-65 447.5t58.5 451.5t204.5 150.5
q94 0 178 -84q4 47 17 60.5t58 13.5h123q53 0 73 -16.5t20 -61.5l-5 -129v-1053z" />
    <glyph glyph-name="r" unicode="r" horiz-adv-x="587" 
d="M375 1055q47 145 115 145q32 0 44.5 -28.5t12.5 -88.5v-219q0 -56 -10.5 -68t-56.5 -19q-47 -7 -71 -35.5t-24 -94.5v-375l8 -172q0 -68 -15.5 -84t-66.5 -16h-164q-47 0 -61 21.5t-14 87.5v827l-4 119q0 78 22.5 100.5t104.5 22.5h100q46 0 55.5 -20.5t9.5 -100.5z" />
    <glyph glyph-name="s" unicode="s" horiz-adv-x="681" 
d="M371 828q0 -32 40.5 -71.5t102.5 -108.5q124 -136 123 -305q0 -169 -94 -266t-294 -97t-200 81v15l-4 133v31q0 43 9.5 66.5t35.5 23.5t56 -11.5t76 -11.5t69.5 16.5t23.5 61.5t-36.5 77t-98.5 90q-134 125 -133 292q0 168 92 260t230 92t168 -12.5t41.5 -33t11.5 -56.5
l2 -119q0 -86 -66 -86l-82 10q-35 0 -54 -19.5t-19 -51.5z" />
    <glyph glyph-name="t" unicode="t" horiz-adv-x="583" 
d="M434 1309v-193h15q57 0 75.5 -17.5t18.5 -68.5v-121q0 -60 -17 -75t-92 -15v-444q0 -47 39 -47t50.5 -11.5t11.5 -68.5v-160q0 -53 -19.5 -71.5t-66.5 -18.5h-82q-72 0 -120 6t-80 37t-39 92.5t-7 157.5v530h-12q-64 0 -81.5 22.5t-17.5 83.5q0 122 17.5 154.5t87.5 32.5
h6v172q0 83 15 103t83 20h33l115 2q47 0 57 -24.5t10 -77.5z" />
    <glyph glyph-name="u" unicode="u" horiz-adv-x="923" 
d="M715 -4h-117q-45 0 -59.5 13.5t-14.5 58.5v14l-10 2q-76 -100 -206 -100t-186 99t-56 298v631q0 96 16.5 130t83.5 34h78q82 0 104.5 -20.5t22.5 -92.5v-539q0 -106 10 -161.5t63 -55.5q88 0 88 152v442l-10 184q0 63 23.5 77t81.5 14h137q47 0 61.5 -21.5t14.5 -87.5
v-827l4 -121q0 -78 -22.5 -100.5t-106.5 -22.5z" />
    <glyph glyph-name="v" unicode="v" horiz-adv-x="796" 
d="M293 0q-58 0 -74 16.5t-29 85.5q-90 481 -140 737.5t-50 284.5q0 52 78 52h160q57 0 67 -26t14 -83l66 -711h21l71 731q4 57 28.5 73t92.5 16h127q63 0 63 -58q0 -4 -34 -200.5t-86 -452.5t-65 -334t-27 -101t-36 -26.5t-59 -3.5h-188z" />
    <glyph glyph-name="w" unicode="w" horiz-adv-x="1165" 
d="M1079 1176q70 0 70 -43q0 -4 -38 -271.5t-130 -783.5q-10 -55 -20.5 -66.5t-51.5 -11.5h-209q-43 0 -55 20.5t-18 75.5l-35 312h-31l-53 -359q-4 -35 -26.5 -42t-65.5 -7h-150q-62 0 -74 15.5t-17 41t-13 60.5t-74 516q-68 481 -68 493q-1 31 38.5 39.5t158.5 8.5h37
q31 0 41 -16.5t16 -63.5l80 -658h35l53 264l-45 385q-2 10 -2 27q0 63 72 64h135q54 0 63 -18.5t10 -40t3 -54.5l35 -627h38l70 627q4 35 5 56.5t10.5 39t58.5 17.5h147z" />
    <glyph glyph-name="x" unicode="x" horiz-adv-x="854" 
d="M768 1176q55 0 55 -42q0 -29 -28 -96l-166 -401l178 -502q16 -49 16 -78q0 -59 -55 -59l-20 2h-156q-41 0 -63.5 18.5t-32.5 73.5l-56 283h-24l-62 -303q-10 -51 -37.5 -61.5t-80.5 -10.5h-173q-47 0 -47 45q0 25 23 78l215 506l-207 444q-12 27 -12 58t18.5 38t59.5 7
h190q57 0 66 -35l59 -287h21l59 270q8 37 27.5 44.5t48.5 7.5h184z" />
    <glyph glyph-name="y" unicode="y" horiz-adv-x="786" 
d="M8 1116q0 60 72 60h176q39 0 47 -18.5t12 -65.5l68 -732h37l57 758q4 35 18.5 46.5t53.5 11.5h149q82 0 82 -64q0 -20 -8 -53l-205 -965q-33 -150 -101.5 -215t-191.5 -65t-176 19.5t-53 66.5v176q0 76 49 76q23 0 35 -9.5t23 -9.5q41 0 41 31q0 23 -7 53l-170 854
q-8 32 -8 45z" />
    <glyph glyph-name="z" unicode="z" horiz-adv-x="653" 
d="M629 176v-55q0 -63 -8.5 -92t-47.5 -29q-14 0 -57.5 4t-147.5 4t-183 -7t-112.5 -7t-43 25.5t-9.5 111.5q0 85 9.5 107t13.5 32l94 254q53 141 93 223.5t40 110.5t-18 29l-14 -2l-117 -2h-12q-49 0 -58.5 16t-9.5 66v20l-4 94q0 63 25.5 82t91.5 19l243 -9q72 0 114 4.5
t52 4.5q35 0 43 -26t8 -75v-49q0 -84 -20.5 -126t-30.5 -70l-166 -441q-12 -35 -12 -49t23.5 -18t74.5 -4l99 10q31 0 39 -38t8 -118z" />
    <glyph glyph-name="braceleft" unicode="{" horiz-adv-x="587" 
d="M434 1159q0 -53 9.5 -118t9.5 -169t-53.5 -152t-170.5 -65v-4q117 -17 170.5 -68.5t53.5 -150.5q0 -100 -9.5 -163.5t-9.5 -118.5t25.5 -89t97.5 -36v-191q-211 0 -321.5 56.5t-110.5 172t12.5 198.5t12.5 139t-8.5 98.5t-110.5 62.5v184q80 16 99.5 52.5t19.5 100.5
t-12.5 147t-12.5 162q0 150 107.5 209t324.5 59v-193q-123 -4 -123 -123z" />
    <glyph glyph-name="bar" unicode="|" 
d="M418 1516h186v-1700h-186v1700z" />
    <glyph glyph-name="braceright" unicode="}" horiz-adv-x="587" 
d="M152 1159q0 119 -123 123v193q217 0 324.5 -59.5t107.5 -207.5q0 -80 -12.5 -162.5t-12.5 -147.5t19.5 -100.5t99.5 -52.5v-184q-105 -20 -112 -62.5t-7 -98.5t12.5 -139t12.5 -197t-110 -172t-322 -58v191q72 2 97.5 35.5t25.5 89.5t-9.5 119t-9.5 137q0 126 53.5 177
t169.5 68v4q-117 16 -170 64.5t-53 152.5t9.5 169t9.5 118z" />
    <glyph glyph-name="asciitilde" unicode="~" horiz-adv-x="915" 
d="M866 946q0 -422 -231 -422q-73 0 -162.5 64.5t-112.5 64.5q-47 0 -47 -121h-262q0 293 91.5 356.5t145.5 63.5t93 -19.5t71.5 -44t58 -44t53.5 -19.5t33 29t5 92h264z" />
    <glyph glyph-name="uni00A0" unicode="&#xa0;" horiz-adv-x="456" 
 />
    <glyph glyph-name="exclamdown" unicode="&#xa1;" horiz-adv-x="516" 
d="M207 1022h104q48 0 57 -11.5t13 -64.5l57 -858q2 -16 2 -18v-23q0 -35 -19.5 -48t-66.5 -13h-192q-51 0 -67.5 14t-16.5 51l57 895q2 51 16.5 63.5t55.5 12.5zM164 1112q-39 0 -54.5 14.5t-15.5 57.5v229q0 37 17.5 50.5t58.5 13.5h182q39 0 54.5 -15.5t15.5 -58.5v-227
q0 -39 -17.5 -51.5t-58.5 -12.5h-182z" />
    <glyph glyph-name="cent" unicode="&#xa2;" horiz-adv-x="915" 
d="M709 279v-213q0 -74 -82 -74h-11q-12 0 -20 2v-117q0 -18 -6 -25.5t-25 -7.5h-108q-18 0 -22.5 4.5t-4.5 20.5v131q-152 20 -213 159.5t-61 426.5t59.5 425t214.5 167v133q0 16 4 20t23 4h108q18 0 24.5 -7t6.5 -25v-119q66 0 89.5 -12.5t23.5 -59.5v-168
q0 -51 -22.5 -67.5t-74.5 -16.5h-30q-41 0 -63.5 -12t-36 -48.5t-13.5 -155.5q0 -197 18 -246.5t93 -49.5l69 4q35 0 47.5 -16.5t12.5 -56.5z" />
    <glyph glyph-name="sterling" unicode="&#xa3;" horiz-adv-x="915" 
d="M500 504q0 -86 -39 -164h297q57 0 75.5 -16.5t18.5 -85.5v-168q0 -41 -22.5 -55.5t-69.5 -14.5h-654q-35 0 -34 43v147q0 29 12 43.5t40 42.5q54 53 54 168v50q0 51 -4 86h-98q-23 0 -23 18v162q0 20 21 20h71q-59 174 -59 305q0 193 103 301.5t291 108.5t275 -116.5
t87 -360.5v-14q0 -59 -9.5 -88t-60.5 -29h-160q-47 0 -55 23.5t-8 74.5v39q0 74 -9.5 112t-51.5 38t-55 -42t-13 -129t51 -223h231q33 0 33 -32v-138q0 -31 -26 -30h-213q4 -46 4 -76z" />
    <glyph glyph-name="currency" unicode="&#xa4;" horiz-adv-x="915" 
d="M458 950q-52 0 -92 -55t-40 -160t42 -159t89 -54t88 53.5t41 157.5t-38 160.5t-90 56.5zM115 737q0 131 53 240l-145 166l120 162l129 -185q74 74 186.5 74t186.5 -68l127 179l121 -162l-145 -166q16 -39 32.5 -93.5t16.5 -172.5t-56 -213l142 -174l-119 -154l-121 186
q-73 -77 -188 -77q-47 0 -98.5 19t-86.5 58l-120 -186l-117 154l137 170q-55 112 -55 243z" />
    <glyph glyph-name="yen" unicode="&#xa5;" horiz-adv-x="915" 
d="M618 440v-32l9 -248q4 -70 4 -90q0 -70 -74 -70h-203q-35 0 -50 9t-15 50l2 80v340q0 98 -17 135h-151q-29 0 -41 5.5t-12 27.5v144q0 20 12 26t41 6h92l-188 537q-17 53 -17 82t19.5 41t62.5 12l107 -2l108 2q66 0 74 -70l70 -559h22l66 510q8 76 28.5 96.5t73.5 20.5
l90 -2l82 4q90 0 90 -49q0 -21 -18 -84l-178 -539h84q29 0 41 -6t12 -26v-144q0 -23 -13.5 -28t-39.5 -5h-142q-31 -84 -31 -174z" />
    <glyph glyph-name="brokenbar" unicode="&#xa6;" 
d="M418 1516h186v-717h-186v717zM418 532h186v-716h-186v716z" />
    <glyph glyph-name="section" unicode="&#xa7;" 
d="M442.5 585.5q47.5 -42.5 87.5 -42.5t62 24.5t22 48.5q0 46 -50 89t-87 43t-59.5 -23.5t-22.5 -59.5q0 -37 47.5 -79.5zM170 1178q0 140 107.5 229.5t314.5 89.5q137 0 187 -21.5t50 -84.5v-5l-2 -161q0 -33 -18.5 -52.5t-36.5 -19.5t-34.5 12.5t-55 38t-82.5 25.5
q-45 0 -71.5 -21.5t-26.5 -61.5t53 -77t125 -87q142 -99 192 -158t50 -154q0 -192 -187 -287q109 -71 109 -227t-100.5 -243t-286.5 -87q-133 0 -192.5 13.5t-59.5 60.5v190q0 16 17.5 29.5t45.5 13.5t63.5 -22.5t82.5 -22.5t69.5 18.5t22.5 45t-16.5 46t-45 38t-68.5 40
t-86 54.5q-103 74 -146.5 138.5t-43.5 164.5q0 219 172 295q-102 110 -102 250z" />
    <glyph glyph-name="dieresis" unicode="&#xa8;" 
d="M795 1296q0 -23 -12.5 -28.5t-41.5 -5.5h-127q-25 0 -36 7t-11 31v127q0 23 12.5 30t41.5 7h124q27 0 38.5 -8t11.5 -33v-127zM279 1262q-25 0 -37.5 7t-12.5 31v127q0 23 12.5 30t41.5 7h125q27 0 38 -8t11 -33v-127q0 -23 -12.5 -28.5t-41.5 -5.5h-124z" />
    <glyph glyph-name="copyright" unicode="&#xa9;" horiz-adv-x="1705" 
d="M878 289q-64 0 -117.5 17.5t-96.5 79.5t-56.5 151.5t-13.5 210.5q0 243 64.5 336.5t248.5 93.5q39 0 53.5 -12.5t14.5 -53.5v-51l2 -47q1 -36 -17 -46t-44 -10t-44 -6q-38 -13 -50.5 -59t-12.5 -162q0 -115 12.5 -173t71.5 -58l49 2q37 0 37 -49l2 -97q0 -39 -19.5 -53
t-83.5 -14zM1268 316q176 172 176 418t-173 418q-173 173 -419 173t-417 -173t-171 -415t173.5 -417t414 -175.5t416.5 171.5zM852 -10q-303 0 -522 220t-219 524.5t216 524.5t526 220t527 -217t217 -527t-221 -527q-221 -218 -524 -218z" />
    <glyph glyph-name="ordfeminine" unicode="&#xaa;" horiz-adv-x="634" 
d="M360 993q0 39 -10 56.5t-39 17.5q-61 0 -61 -78v-92q0 -72 55 -72q35 0 45 19.5t10 62.5v86zM408 651q-31 0 -36 7.5t-7 46.5h-11q-29 -66 -116.5 -66t-145 78t-57.5 218t61.5 219t153.5 79q33 0 56.5 -9.5t41.5 -9.5t18 30t-24.5 48.5t-70.5 18.5t-79.5 -13.5
t-55.5 -13.5t-29 12.5t-7 34.5v72q0 18 3 31.5t24 22.5q70 30 170 30q174 0 229.5 -48t55.5 -165v-576q0 -35 -12.5 -41t-55.5 -6h-106z" />
    <glyph glyph-name="guillemotleft" unicode="&#xab;" horiz-adv-x="901" 
d="M819 772q0 -31 -16 -47l-105 -111q-12 -12 -12 -21t8 -18l101 -110q27 -31 26 -57v-252q0 -20 -20 -21q-10 0 -21 10l-274 273q-19 19 -19 43v256q0 26 17 43l280 280q18 18 26.5 7t8.5 -17v-258zM74 461v256q0 27 16 43l281 280q17 17 26 6.5t9 -16.5v-258
q0 -30 -17 -47l-104 -111q-22 -22 -4 -39l100 -110q27 -31 27 -57v-252q0 -20 -21 -21q-10 0 -20 10l-275 273q-18 18 -18 43z" />
    <glyph glyph-name="logicalnot" unicode="&#xac;" horiz-adv-x="915" 
d="M608 778h-567v283h833v-604h-266v321z" />
    <glyph glyph-name="uni00AD" unicode="&#xad;" horiz-adv-x="569" 
d="M57 729h453v-270h-453v270z" />
    <glyph glyph-name="registered" unicode="&#xae;" horiz-adv-x="886" 
d="M434 1104q35 0 35 43t-5 63.5t-31.5 20.5t-26.5 -35l2 -41q0 -29 3 -40t23 -11zM496 885q-16 0 -20.5 7t-10.5 23l-47 121h-10v-127q0 -25 -21 -24h-53q-16 0 -20.5 8t-4.5 31v360q0 20 5 28.5t28 8.5h49l66 2q59 0 84.5 -33.5t25.5 -103.5t-9 -102.5t-36 -47.5l56 -127
q2 -2 2 -10q0 -16 -21 -16l-12 2h-51zM445 1407q-128 0 -218 -88t-90 -216t91 -219t213 -91t216 90q95 90 95 217t-90 217t-217 90zM430 1487q182 0 292 -115q110 -116 110 -276t-117 -272q-116 -112 -273 -111q-156 1 -270 115t-115 272q0 106 58 200q51 90 137 138.5
t178 48.5z" />
    <glyph glyph-name="macron" unicode="&#xaf;" 
d="M299 1284q-25 0 -36 5t-11 28v100q0 18 12 23.5t41 5.5h422q25 0 37 -6t12 -27v-100q0 -18 -13 -23.5t-40 -5.5h-424z" />
    <glyph glyph-name="degree" unicode="&#xb0;" horiz-adv-x="673" 
d="M162 1161q0 -74 51 -125t124 -51t124 53t51 124t-51 122t-124 51t-124 -50t-51 -124zM552 1375q89 -89 89 -215t-89 -215t-215 -89t-214 88t-88 214.5t87.5 216t214 89.5t215.5 -89z" />
    <glyph glyph-name="plusminus" unicode="&#xb1;" horiz-adv-x="854" 
d="M827 0h-807v274h807v-274zM293 631h-283v280h283v295h268v-295h283v-280h-283v-303h-268v303z" />
    <glyph glyph-name="twosuperior" unicode="&#xb2;" horiz-adv-x="604" 
d="M547 1225q0 -205 -211 -428h143q39 0 50.5 -9.5t11.5 -52.5v-102q0 -41 -60 -41h-387q-43 0 -43 43v92q0 37 23.5 59.5t42 36t37.5 31.5q90 96 134 188.5t44 152.5t-10 81.5t-38 21.5t-36 -17t-8 -54v-41q0 -29 -5.5 -45.5t-33.5 -16.5h-103q-33 0 -39 17.5t-6 52.5v16
q0 147 58.5 215t182.5 68t188.5 -68.5t64.5 -199.5z" />
    <glyph glyph-name="threesuperior" unicode="&#xb3;" horiz-adv-x="604" 
d="M311 1233q0 29 -20.5 47t-46.5 18t-40 -8t-23 -18t-15 -18.5t-20 -8.5t-33 21l-68 71q-10 14 -10 31q1 27 75 75t181 48t172 -61.5t65 -169.5t-96 -168q119 -45 119 -215q0 -131 -80.5 -213t-188.5 -82t-221 61q-25 14 -38 23.5t-13 26.5t13 32l71 102q12 19 30 19
q21 1 53 -23t66 -24t55 21.5t21 62.5q0 94 -79 94h-47q-27 0 -34 10t-9 37l-5 98v2q0 41 56 41l16 -2q41 0 67.5 20.5t26.5 49.5z" />
    <glyph glyph-name="acute" unicode="&#xb4;" 
d="M377 1251q-20 0 -21 19q0 2 4 10l99 172q12 23 57 23h234q23 0 22 -17q0 -8 -8 -14l-189 -176q-23 -17 -53 -17h-145z" />
    <glyph glyph-name="mu" unicode="&#xb5;" horiz-adv-x="1153" 
d="M1036 346q0 -214 8 -346h-284l-15 129h-6q-20 -51 -75.5 -95t-134.5 -44t-128 43v-422h-288v1413h327v-584q0 -198 133 -198q59 0 97.5 40t38.5 95v647h327v-678z" />
    <glyph glyph-name="paragraph" unicode="&#xb6;" 
d="M475 1202q0 86 -63 86q-47 0 -61.5 -40t-14.5 -121t13 -116.5t62.5 -35.5t57.5 26q6 15 6 201zM809 1497q106 0 106 -59v-1563q0 -49 -38 -49l-74 8l-43 -4q-51 0 -51 55v1553q0 41 32.5 50t67.5 9zM469 702q0 35 -14.5 46.5t-46.5 11.5h-35q-115 0 -189.5 98t-74.5 280
t87 270.5t226 88.5t203 -10q53 -6 53 -72q0 -16 -4 -81.5t-4 -182.5v-1276q0 -49 -39 -49l-74 8l-43 -4q-51 0 -51 55v25l1 208z" />
    <glyph glyph-name="periodcentered" unicode="&#xb7;" horiz-adv-x="454" 
d="M227.5 897q65.5 0 111.5 -46t46 -111.5t-46 -111.5t-111.5 -46t-112.5 46t-47 111.5t47 111.5t112.5 46z" />
    <glyph glyph-name="cedilla" unicode="&#xb8;" 
d="M567 -12v-19q0 -26 19.5 -31.5t42 -6.5t68.5 -5t82 -43t36 -94q0 -86 -73.5 -122t-184.5 -36q-187 0 -239 18t-52 68t33 50q25 0 80 -14.5t137 -14.5t82 47t-68 47h-12q-35 0 -51 6t-16 41l2 121h116q-2 -10 -2 -12z" />
    <glyph glyph-name="onesuperior" unicode="&#xb9;" horiz-adv-x="604" 
d="M231 1210q0 4 -2 23l-57 -74q-12 -12 -24 -12t-31 14l-54 43q-20 16 -20 26t14 23l209 230h148q39 0 39 -51v-764q0 -47 -8.5 -61.5t-53.5 -14.5h-125q-23 0 -29 12t-6 35l-2 84l2 108l-2 179l2 155v45z" />
    <glyph glyph-name="ordmasculine" unicode="&#xba;" horiz-adv-x="636" 
d="M373 1171q0 49 -9.5 72t-50.5 23q-49 0 -49 -70v-270q0 -66 51 -66q33 0 45.5 17.5t12.5 56.5v237zM43 1071q0 113 8 189.5t46 128.5t93.5 75t171 23t174 -90.5t58.5 -290.5q0 -123 -10.5 -295t-272.5 -172q-155 0 -211.5 99t-56.5 333z" />
    <glyph glyph-name="guillemotright" unicode="&#xbb;" horiz-adv-x="901" 
d="M489 1030q0 18 19 19q8 0 16 -9l281 -280q16 -16 16 -43v-256q0 -25 -18 -43l-275 -273q-10 -10 -20 -10q-20 0 -21 21v252q0 27 27 57l100 110q18 18 -4 39l-104 111q-17 17 -17 47v258zM82 408q0 27 27 57l100 110q8 7 8 17t-12 22l-105 111q-16 16 -16 47v258
q0 18 18 19q8 0 17 -9l280 -280q17 -17 17 -43v-256q0 -26 -19 -43l-276 -273q-10 -10 -19 -10q-20 0 -20 21v252z" />
    <glyph glyph-name="onequarter" unicode="&#xbc;" horiz-adv-x="1495" 
d="M1190 352v207l-96 -207h96zM1391 47q0 -33 -10.5 -40t-49.5 -7h-104q-35 0 -41 8t-6 35v135h-201q-25 0 -32 8.5t-7 34.5v92q0 12 8 29l144 285q29 55 52.5 101t41.5 72t26.5 28.5t30.5 2.5h115q33 0 33 -38v-441h45q25 0 24 -30v-107q0 -37 -35 -37h-34v-131zM307 10
q-20 10 -20 36t10 42l745 1399q18 35 36 35t28 -6l84 -41q14 -9 14 -25t-12 -41l-735 -1399q-23 -41 -49 -41q-4 0 -21 4zM221 1230q0 3 -2 19l-55 -67q-8 -12 -24 -12t-29 12l-52 41q-18 14 -18 23t14 24l199 213h141q37 0 37 -49v-713q0 -41 -8 -55.5t-51 -14.5h-119
q-23 0 -28 11.5t-5 33.5l-2 76l2 102l-2 166l2 148v42z" />
    <glyph glyph-name="onehalf" unicode="&#xbd;" horiz-adv-x="1495" 
d="M1440 590q0 -188 -201 -397h137q35 0 46.5 -9.5t11.5 -48.5v-96q0 -23 -14.5 -31t-43.5 -8h-370q-39 0 -39 41v86q0 37 22.5 56.5t40 30.5t33.5 30q86 90 129 176t43 142t-10.5 76.5t-36.5 20.5t-33.5 -16t-7.5 -49v-39q0 -29 -5 -43t-34 -14h-98q-29 0 -35 15t-6 48v17
q0 137 55 199.5t174 62.5t180.5 -63.5t61.5 -186.5zM1078 1522q18 0 28 -6l84 -41q14 -9 14 -25t-12 -41l-735 -1399q-23 -41 -49 -41q-4 0 -21 4l-80 37q-20 10 -20 36t10 42l745 1399q18 35 36 35zM221 1230q0 3 -2 19l-55 -67q-8 -12 -24 -12t-29 12l-52 41
q-18 14 -18 23t14 24l199 213h141q37 0 37 -49v-713q0 -41 -8 -55.5t-51 -14.5h-119q-23 0 -28 11.5t-5 33.5l-2 76l2 102l-2 166l2 148v42z" />
    <glyph glyph-name="threequarters" unicode="&#xbe;" horiz-adv-x="1495" 
d="M1192 352v207l-96 -207h96zM1182 178h-201q-25 0 -32 8.5t-7 34.5v92q0 12 8 29l144 285q29 55 52.5 101t41.5 72t26.5 28.5t30.5 2.5h115q33 0 33 -38v-441h45q25 0 24 -30v-107q0 -37 -35 -37h-34v-131q0 -33 -10.5 -40t-49.5 -7h-104q-35 0 -41 8t-6 35v135zM309 10
q-20 10 -20 36t10 42l745 1399q18 35 36 35t28 -6l84 -41q14 -9 14 -25t-12 -41l-735 -1399q-23 -41 -49 -41q-4 0 -21 4zM524 918q0 -122 -76 -199.5t-192 -77.5q-84 0 -187 53q-35 18 -47 26.5t-12 24.5t13 31l65 94q12 18 30 18t29 -7t33.5 -22t54.5 -15q31 0 50.5 20.5
t19.5 57.5q0 90 -76 90l-47 -2q-25 0 -31 10t-8 35l-4 92v2q0 37 54 37l14 -2q41 0 65.5 18t24.5 46t-19.5 45.5t-45.5 17.5t-38 -8.5t-21 -17.5t-15 -16t-18.5 -7t-30.5 18l-66 68q-10 10 -10 30q-1 20 69 67q70 46 173 46t166 -57.5t63 -161.5t-92 -154q112 -42 112 -200z
" />
    <glyph glyph-name="questiondown" unicode="&#xbf;" horiz-adv-x="663" 
d="M412 1022q63 0 63 -184q0 -119 -19.5 -212.5t-28.5 -134t-9 -71.5q0 -82 61 -82l56 10q37 0 52 -51t15 -151t-52 -135.5t-188 -35.5t-218.5 79t-82.5 227q0 94 34 178.5t77 186.5t43 185l-8 121q0 45 19.5 57.5t60.5 12.5h125zM229 1112q-39 0 -53 14.5t-14 57.5v229
q0 37 17.5 50.5t58.5 13.5h182q39 0 53 -15.5t14 -58.5v-227q0 -39 -17 -51.5t-58 -12.5h-183z" />
    <glyph glyph-name="Agrave" unicode="&#xc0;" horiz-adv-x="894" 
d="M452 582q72 0 72 48q0 28 -4 54l-65 428l-17 -2l-57 -416q-4 -16 -5 -28t-3 -22t-2 -24t20 -26q19 -12 61 -12zM252 0h-189q-43 0 -60 14t-17 46t26 143l64 297q8 36 9 76t54 318t71 391q18 112 32 151t59 39h252q60 0 78 -24t45 -157q26 -133 62 -299t54 -296
q43 -320 89 -478q47 -159 -1 -199q-26 -22 -69 -22h-180q-20 0 -46 20t-26 106t-37 117q-18 15 -59 15q-117 0 -117 -63l2 -72q0 -67 -18 -95t-78 -28zM436 1556q-35 0 -51 17l-190 176q-9 6 -9 18t23 13h233q45 0 58 -23l98 -172q4 -8 4 -10q0 -18 -20 -19h-146z" />
    <glyph glyph-name="Aacute" unicode="&#xc1;" horiz-adv-x="894" 
d="M452 582q72 0 72 48q0 28 -4 54l-65 428l-17 -2l-57 -416q-4 -16 -5 -28t-3 -22t-2 -24t20 -26q19 -12 61 -12zM252 0h-189q-43 0 -60 14t-17 46t26 143l64 297q8 36 9 76t54 318t71 391q18 112 32 151t59 39h252q60 0 78 -24t45 -157q26 -133 62 -299t54 -296
q43 -320 89 -478q47 -159 -1 -199q-26 -22 -69 -22h-180q-20 0 -46 20t-26 106t-37 117q-18 15 -59 15q-117 0 -117 -63l2 -72q0 -67 -18 -95t-78 -28zM313 1556q-20 0 -20 19q0 2 4 10l98 172q12 23 58 23h233q23 0 23 -17q0 -8 -9 -14l-188 -176q-20 -15 -53 -17h-146z
" />
    <glyph glyph-name="Acircumflex" unicode="&#xc2;" horiz-adv-x="894" 
d="M452 582q72 0 72 48q0 28 -4 54l-65 428l-17 -2l-57 -416q-4 -16 -5 -28t-3 -22t-2 -24t20 -26q19 -12 61 -12zM252 0h-189q-43 0 -60 14t-17 46t26 143l64 297q8 36 9 76t54 318t71 391q18 112 32 151t59 39h252q60 0 78 -24t45 -157q26 -133 62 -299t54 -296
q43 -320 89 -478q47 -159 -1 -199q-26 -22 -69 -22h-180q-20 0 -46 20t-26 106t-37 117q-18 15 -59 15q-117 0 -117 -63l2 -72q0 -67 -18 -95t-78 -28zM193 1556q-18 0 -19 19q0 6 4 10l146 172q16 23 51 23h149q33 0 51 -23l140 -172q4 -4 4 -10q0 -18 -19 -19h-135
q-29 0 -49 17l-53 57q-8 8 -14 8t-15 -8l-57 -57q-15 -15 -49 -17h-135z" />
    <glyph glyph-name="Atilde" unicode="&#xc3;" horiz-adv-x="894" 
d="M452 582q72 0 72 48q0 28 -4 54l-65 428l-17 -2l-57 -416q-4 -16 -5 -28t-3 -22t-2 -24t20 -26q19 -12 61 -12zM252 0h-189q-43 0 -60 14t-17 46t26 143l64 297q8 36 9 76t54 318t71 391q18 112 32 151t59 39h252q60 0 78 -24t45 -157q26 -133 62 -299t54 -296
q43 -320 89 -478q47 -159 -1 -199q-26 -22 -69 -22h-180q-20 0 -46 20t-26 106t-37 117q-18 15 -59 15q-117 0 -117 -63l2 -72q0 -67 -18 -95t-78 -28zM166 1563q-18 0 -19 22q-1 86 51 135t129 49t188 -53q24 -10 54 -10t44 32q5 11 9 21t19 10h82q27 0 27 -36
q0 -66 -52 -116t-126 -50q-75 0 -191 53q-25 10 -56 10t-43 -34q-4 -13 -10 -23t-20 -10h-86z" />
    <glyph glyph-name="Adieresis" unicode="&#xc4;" horiz-adv-x="894" 
d="M452 582q72 0 72 48q0 28 -4 54l-65 428l-17 -2l-57 -416q-4 -16 -5 -28t-3 -22t-2 -24t20 -26q19 -12 61 -12zM252 0h-189q-43 0 -60 14t-17 46t26 143l64 297q8 36 9 76t54 318t71 391q18 112 32 151t59 39h252q60 0 78 -24t45 -157q26 -133 62 -299t54 -296
q43 -320 89 -478q47 -159 -1 -199q-26 -22 -69 -22h-180q-20 0 -46 20t-26 106t-37 117q-18 15 -59 15q-117 0 -117 -63l2 -72q0 -67 -18 -95t-78 -28zM731 1602q0 -23 -12 -29t-41 -6h-127q-25 0 -36 7t-11 32v127q0 23 12 29t41 7h125q27 0 38 -8t11 -32v-127zM215 1567
q-25 0 -37 7t-12 32v127q0 23 12 29t41 7h125q27 0 38 -8t11 -32v-127q0 -23 -12 -29t-41 -6h-125z" />
    <glyph glyph-name="Aring" unicode="&#xc5;" horiz-adv-x="894" 
d="M452 582q72 0 72 48q0 28 -4 54l-65 428l-17 -2l-57 -416q-4 -16 -5 -28t-3 -22t-2 -24t20 -26q19 -12 61 -12zM252 0h-189q-43 0 -60 14t-17 46t26 143l64 297q8 36 9 76t54 318t71 391q18 112 32 151t59 39h252q60 0 78 -24t45 -157q26 -133 62 -299t54 -296
q43 -320 89 -478q47 -159 -1 -199q-26 -22 -69 -22h-180q-20 0 -46 20t-26 106t-37 117q-18 15 -59 15q-117 0 -117 -63l2 -72q0 -67 -18 -95t-78 -28zM367 1772q-1 -35 23 -59q24 -23 59 -23t59 24t22 56q0 34 -23 58q-25 24 -59 24t-58 -23q-24 -22 -23 -57zM233 1772
q0 90 63 151q63 60 152 61q90 1 152 -61t63 -150t-60 -151q-61 -64 -153 -65q-91 -1 -154 62t-63 153z" />
    <glyph glyph-name="AE" unicode="&#xc6;" horiz-adv-x="1189" 
d="M383 651q-1 -82 71 -82t72 74v17q0 16 -4 40l-47 428h-18l-68 -411q-6 -41 -6 -66zM0 72q0 29 10 60.5t19 68.5l225 1161q6 29 8 49.5t14.5 39.5t67.5 19h676q57 0 79.5 -15t22.5 -75v-118q0 -121 -92 -121q-33 0 -100.5 5t-173.5 5q-25 0 -25 -14v-13l29 -184h274
q74 0 74 -53v-189q0 -86 -98 -86l-37 2h-158l45 -258l213 -4q70 0 70 -102v-172q0 -45 -31 -62.5t-94 -17.5l-240 8l-149 -6q-43 0 -57.5 16t-16.5 72t-2 103t-7 74.5t-26.5 38.5t-71.5 11t-70 -18t-24 -73.5t-6 -96.5t-9 -82t-79 -41l-88 2l-115 -4q-57 0 -57 70z" />
    <glyph glyph-name="Ccedilla" unicode="&#xc7;" horiz-adv-x="724" 
d="M577 -6h-37q-36 0 -51 2v-27q0 -26 19.5 -31.5t42 -6.5t68.5 -5t82 -43t36 -94q0 -86 -73.5 -122t-184.5 -36q-187 0 -239 18t-52 68t33 50q25 0 80 -14.5t137 -14.5t82 47t-67 47h-13q-35 0 -51 6t-16 41v129q-133 28 -215 148q-72 102 -93.5 250.5t-21.5 349.5
t23.5 338t82 221t160 122t256.5 38q66 0 90.5 -21.5t24.5 -87.5l-2 -88l4 -76q0 -64 -34 -81q-21 -11 -87.5 -11t-106.5 -48t-45.5 -144.5t-5.5 -189.5q0 -206 24 -295t116 -89l82 4q59 0 59 -84l4 -160q0 -66 -32.5 -88t-78.5 -22z" />
    <glyph glyph-name="Egrave" unicode="&#xc8;" horiz-adv-x="768" 
d="M145 0q-94 0 -94 90q0 44 7 106q7 60 8 134l2 993l-2 51q0 66 32 84t121 17h320l34 -2l39 2q63 0 86 -23t23 -84l2 -125q0 -61 -23 -81t-77 -19l-76 2h-94q-35 1 -47 -17t-13 -65v-27q0 -57 10 -80t62 -22l139 6q74 0 90 -31t17 -106v-60q0 -137 -84 -137l-166 8
q-45 0 -53 -16t-9 -53l-2 -121q-1 -48 11 -62t59 -14l180 2q63 0 77 -34t13 -138q0 -104 -12 -131t-34 -37t-62 -10l-338 8zM373 1556q-35 0 -51 17l-191 176q-8 6 -8 14q0 16 22 17h234q47 0 57 -23l99 -172q4 -8 4 -10q0 -18 -21 -19h-145z" />
    <glyph glyph-name="Eacute" unicode="&#xc9;" horiz-adv-x="768" 
d="M145 0q-94 0 -94 90q0 44 7 106q7 60 8 134l2 993l-2 51q0 66 32 84t121 17h320l34 -2l39 2q63 0 86 -23t23 -84l2 -125q0 -61 -23 -81t-77 -19l-76 2h-94q-35 1 -47 -17t-13 -65v-27q0 -57 10 -80t62 -22l139 6q74 0 90 -31t17 -106v-60q0 -137 -84 -137l-166 8
q-45 0 -53 -16t-9 -53l-2 -121q-1 -48 11 -62t59 -14l180 2q63 0 77 -34t13 -138q0 -104 -12 -131t-34 -37t-62 -10l-338 8zM250 1556q-20 0 -21 19q0 2 4 10l99 172q12 23 57 23h234q23 0 22 -17q0 -8 -8 -14l-188 -176q-20 -15 -54 -17h-145z" />
    <glyph glyph-name="Ecircumflex" unicode="&#xca;" horiz-adv-x="768" 
d="M145 0q-94 0 -94 90q0 44 7 106q7 60 8 134l2 993l-2 51q0 66 32 84t121 17h320l34 -2l39 2q63 0 86 -23t23 -84l2 -125q0 -61 -23 -81t-77 -19l-76 2h-94q-35 1 -47 -17t-13 -65v-27q0 -57 10 -80t62 -22l139 6q74 0 90 -31t17 -106v-60q0 -137 -84 -137l-166 8
q-45 0 -53 -16t-9 -53l-2 -121q-1 -48 11 -62t59 -14l180 2q63 0 77 -34t13 -138q0 -104 -12 -131t-34 -37t-62 -10l-338 8zM129 1556q-18 0 -18 19q0 6 4 10l145 172q16 23 51 23h150q33 0 51 -23l139 -172q4 -4 4 -10q0 -18 -18 -19h-135q-32 0 -49 17l-54 57q-8 8 -14 8
t-14 -8l-58 -57q-15 -15 -49 -17h-135z" />
    <glyph glyph-name="Edieresis" unicode="&#xcb;" horiz-adv-x="768" 
d="M145 0q-94 0 -94 90q0 44 7 106q7 60 8 134l2 993l-2 51q0 66 32 84t121 17h320l34 -2l39 2q63 0 86 -23t23 -84l2 -125q0 -61 -23 -81t-77 -19l-76 2h-94q-35 1 -47 -17t-13 -65v-27q0 -57 10 -80t62 -22l139 6q74 0 90 -31t17 -106v-60q0 -137 -84 -137l-166 8
q-45 0 -53 -16t-9 -53l-2 -121q-1 -48 11 -62t59 -14l180 2q63 0 77 -34t13 -138q0 -104 -12 -131t-34 -37t-62 -10l-338 8zM668 1602q0 -23 -12 -29t-42 -6h-127q-25 0 -35 7t-12 32v127q0 23 12 29t42 7h124q27 0 38 -8t12 -32v-127zM152 1567q-25 0 -37 7t-13 32v127
q0 23 12 29t42 7h125q27 0 37 -8t12 -32v-127q0 -23 -12 -29t-42 -6h-124z" />
    <glyph glyph-name="Igrave" unicode="&#xcc;" horiz-adv-x="464" 
d="M266 0h-71q-92 0 -109 18q-18 18 -22 56q-4 37 1 333q5 295 5 758l-4 217q0 64 23 78q23 15 95 15h95q76 1 95 -17t22 -51t3 -88v-123l-6 -850l4 -225q0 -81 -25 -101q-24 -20 -106 -20zM221 1556q-35 0 -51 17l-190 176q-8 6 -8 18t22 13h233q45 0 58 -23l98 -172
q4 -8 4 -10q0 -18 -20 -19h-146z" />
    <glyph glyph-name="Iacute" unicode="&#xcd;" horiz-adv-x="464" 
d="M266 0h-71q-92 0 -109 18q-18 18 -22 56q-4 37 1 333q5 295 5 758l-4 217q0 64 23 78q23 15 95 15h95q76 1 95 -17t22 -51t3 -88v-123l-6 -850l4 -225q0 -81 -25 -101q-24 -20 -106 -20zM98 1556q-20 0 -20 19q0 2 4 10l98 172q12 23 58 23h233q23 0 23 -17q0 -8 -9 -14
l-188 -176q-20 -15 -53 -17h-146z" />
    <glyph glyph-name="Icircumflex" unicode="&#xce;" horiz-adv-x="464" 
d="M266 0h-71q-92 0 -109 18q-18 18 -22 56q-4 37 1 333q5 295 5 758l-4 217q0 64 23 78q23 15 95 15h95q76 1 95 -17t22 -51t3 -88v-123l-6 -850l4 -225q0 -81 -25 -101q-24 -20 -106 -20zM-23 1556q-18 0 -18 19q0 6 4 10l146 172q16 23 51 23h149q33 0 51 -23l140 -172
q4 -4 4 -10q0 -18 -19 -19h-135q-29 0 -49 17l-53 57q-8 8 -14 8t-15 -8l-57 -57q-15 -15 -49 -17h-136z" />
    <glyph glyph-name="Idieresis" unicode="&#xcf;" horiz-adv-x="464" 
d="M266 0h-71q-92 0 -109 18q-18 18 -22 56q-4 37 1 333q5 295 5 758l-4 217q0 64 23 78q23 15 95 15h95q76 1 95 -17t22 -51t3 -88v-123l-6 -850l4 -225q0 -81 -25 -101q-24 -20 -106 -20zM516 1602q0 -23 -12 -29t-41 -6h-127q-25 0 -36 7t-11 32v127q0 23 12 29t41 7h125
q27 0 38 -8t11 -32v-127zM0 1567q-25 0 -37 7t-12 32v127q0 23 12 29t41 7h125q27 0 38 -8t11 -32v-127q0 -23 -12 -29t-41 -6h-125z" />
    <glyph glyph-name="Eth" unicode="&#xd0;" horiz-adv-x="1003" 
d="M491 305q70 0 88.5 61.5t18.5 235.5v127q0 250 -14.5 307.5t-38 80t-66.5 22.5q-63 0 -63 -74l4 -147v-89h29q72 0 71 -32v-176q0 -35 -65 -35h-13q-12 0 -22 2l2 -146l-2 -41q0 -53 16.5 -74.5t54.5 -21.5zM98 178v19l6 391l-32 -2q-66 0 -66 35v176q0 20 16.5 26
t51.5 6h30q0 254 -5 391.5t-5 173.5q0 78 113 79l137 -3l156 3h8q252 0 347 -192.5t95 -625.5q0 -334 -90 -496.5t-289 -162.5l-65 4l-135 -2l-172 -4q-71 0 -86 34t-15 150z" />
    <glyph glyph-name="Ntilde" unicode="&#xd1;" 
d="M864 0h-166q-61 0 -79 18t-44 107l-165 571h-41v-571q0 -76 -17 -100q-17 -25 -82 -25h-104q-72 0 -86 25t-17 114v1184q1 76 15 114t82 38h186q37 1 52 -9q16 -10 26 -46t53 -196t135 -446h41l4 574q1 66 13 94t65 29h127q56 1 76 -15t20 -69l-2 -45v-580l-6 -207
l4 -387q0 -84 -12 -128t-78 -44zM229 1563q-18 0 -18 22q0 86 51 135t126 49t191 -53q24 -10 54 -10t44 32q5 11 9 21t19 10h81q27 0 27 -36q0 -66 -51 -116t-120 -50t-121 21q-52 22 -77 32t-56 10t-43 -34q-5 -13 -10 -23t-20 -10h-86z" />
    <glyph glyph-name="Ograve" unicode="&#xd2;" horiz-adv-x="1034" 
d="M616 995q0 158 -106 158q-54 0 -74 -54t-20 -165v-408q0 -104 17 -150t65 -46t72 18q22 18 34 65t12 236v346zM276 19q-225 118 -225 620q0 316 14 436q14 119 66 219q110 207 414 207q231 0 333 -139t103 -438v-66q0 -223 -7 -379q-7 -157 -51 -265t-156 -174
q-111 -66 -259 -65q-148 0 -232 44zM504 1556q-35 0 -51 17l-191 176q-8 6 -8 14q0 16 22 17h234q47 0 57 -23l99 -172q4 -8 4 -10q0 -18 -21 -19h-145z" />
    <glyph glyph-name="Oacute" unicode="&#xd3;" horiz-adv-x="1034" 
d="M616 995q0 158 -106 158q-54 0 -74 -54t-20 -165v-408q0 -104 17 -150t65 -46t72 18q22 18 34 65t12 236v346zM276 19q-225 118 -225 620q0 316 14 436q14 119 66 219q110 207 414 207q231 0 333 -139t103 -438v-66q0 -223 -7 -379q-7 -157 -51 -265t-156 -174
q-111 -66 -259 -65q-148 0 -232 44zM381 1556q-20 0 -21 19q0 2 5 10l98 172q12 23 57 23h234q23 0 22 -17q0 -8 -8 -14l-188 -176q-20 -15 -54 -17h-145z" />
    <glyph glyph-name="Ocircumflex" unicode="&#xd4;" horiz-adv-x="1034" 
d="M616 995q0 158 -106 158q-54 0 -74 -54t-20 -165v-408q0 -104 17 -150t65 -46t72 18q22 18 34 65t12 236v346zM276 19q-225 118 -225 620q0 316 14 436q14 119 66 219q110 207 414 207q231 0 333 -139t103 -438v-66q0 -223 -7 -379q-7 -157 -51 -265t-156 -174
q-111 -66 -259 -65q-148 0 -232 44zM260 1556q-18 0 -18 19q0 6 4 10l145 172q16 23 51 23h150q33 0 51 -23l139 -172q4 -4 4 -10q0 -18 -18 -19h-135q-32 0 -49 17l-54 57q-8 8 -14 8t-14 -8l-58 -57q-15 -15 -49 -17h-135z" />
    <glyph glyph-name="Otilde" unicode="&#xd5;" horiz-adv-x="1034" 
d="M616 995q0 158 -106 158q-54 0 -74 -54t-20 -165v-408q0 -104 17 -150t65 -46t72 18q22 18 34 65t12 236v346zM276 19q-225 118 -225 620q0 316 14 436q14 119 66 219q110 207 414 207q231 0 333 -139t103 -438v-66q0 -223 -7 -379q-7 -157 -51 -265t-156 -174
q-111 -66 -259 -65q-148 0 -232 44zM233 1563q-18 0 -18 22q0 86 51 135t126 49t191 -53q24 -10 54 -10t44 32q5 11 9 21t19 10h82q27 0 26 -36q0 -66 -51 -116t-126 -50t-191 53q-25 10 -55 10t-45 -34q-5 -13 -10 -23t-20 -10h-86z" />
    <glyph glyph-name="Odieresis" unicode="&#xd6;" horiz-adv-x="1034" 
d="M616 995q0 158 -106 158q-54 0 -74 -54t-20 -165v-408q0 -104 17 -150t65 -46t72 18q22 18 34 65t12 236v346zM276 19q-225 118 -225 620q0 316 14 436q14 119 66 219q110 207 414 207q231 0 333 -139t103 -438v-66q0 -223 -7 -379q-7 -157 -51 -265t-156 -174
q-111 -66 -259 -65q-148 0 -232 44zM799 1602q-1 -23 -13 -29t-41 -6h-127q-26 0 -36 7t-11 32v127q1 23 13 29t41 7h125q28 0 38 -8t11 -32v-127zM283 1567q-25 0 -37 7t-13 32v127q1 23 13 29t41 7h125q27 0 38 -8t11 -32v-127q0 -23 -12 -29t-41 -6h-125z" />
    <glyph glyph-name="multiply" unicode="&#xd7;" horiz-adv-x="915" 
d="M14 1042l181 209l260 -303l266 303l182 -209l-266 -303l266 -301l-180 -209l-264 303l-266 -305l-181 209l267 303z" />
    <glyph glyph-name="Oslash" unicode="&#xd8;" horiz-adv-x="1034" 
d="M509 -27q-146 0 -218 35l-72 -162q-10 -23 -26 -22q-2 0 -15 4l-80 35q-18 7 -18 23t2 20l86 194q-116 146 -120.5 352.5t-4.5 317.5v29q0 381 108.5 541.5t393.5 160.5q117 0 196 -33l54 131q10 27 30 27q4 0 13 -4l80 -33q23 -10 22 -24q0 -2 -4 -15l-68 -168
q123 -127 123 -458v-115q0 -201 -8 -346t-51 -251t-160 -172.5t-263 -66.5zM616 989q0 152 -106 152q-53 0 -73.5 -51.5t-20.5 -159.5v-398q0 -100 17.5 -145t65.5 -45t70.5 19.5t34.5 68.5t12 246v313z" />
    <glyph glyph-name="Ugrave" unicode="&#xd9;" horiz-adv-x="1009" 
d="M610 1358q0 68 20 92t79 25h159q42 0 58 -27t16 -80v-893q0 -260 -113 -380t-355 -120t-341 142q-53 72 -64 174t-12 248v790q-1 74 11 110t67 36h168q63 0 75 -27t13 -86v-899q0 -141 110 -141t109 112v924zM494 1556q-35 0 -52 17l-190 176q-8 6 -8 14q0 16 22 17h234
q47 0 57 -23l98 -172q4 -8 4 -10q0 -18 -20 -19h-145z" />
    <glyph glyph-name="Uacute" unicode="&#xda;" horiz-adv-x="1009" 
d="M610 1358q0 68 20 92t79 25h159q42 0 58 -27t16 -80v-893q0 -260 -113 -380t-355 -120t-341 142q-53 72 -64 174t-12 248v790q-1 74 11 110t67 36h168q63 0 75 -27t13 -86v-899q0 -141 110 -141t109 112v924zM371 1556q-20 0 -21 19q0 2 4 10l99 172q12 23 57 23h233
q23 0 23 -17q0 -8 -8 -14l-189 -176q-20 -15 -53 -17h-145z" />
    <glyph glyph-name="Ucircumflex" unicode="&#xdb;" horiz-adv-x="1009" 
d="M610 1358q0 68 20 92t79 25h159q42 0 58 -27t16 -80v-893q0 -260 -113 -380t-355 -120t-341 142q-53 72 -64 174t-12 248v790q-1 74 11 110t67 36h168q63 0 75 -27t13 -86v-899q0 -141 110 -141t109 112v924zM250 1556q-18 0 -19 19q0 6 5 10l145 172q16 23 51 23h150
q33 0 51 -23l139 -172q4 -4 4 -10q0 -18 -18 -19h-135q-30 0 -50 17l-53 57q-8 8 -14 8t-14 -8l-58 -57q-15 -15 -49 -17h-135z" />
    <glyph glyph-name="Udieresis" unicode="&#xdc;" horiz-adv-x="1009" 
d="M610 1358q0 68 20 92t79 25h159q42 0 58 -27t16 -80v-893q0 -260 -113 -380t-355 -120t-341 142q-53 72 -64 174t-12 248v790q-1 74 11 110t67 36h168q63 0 75 -27t13 -86v-899q0 -141 110 -141t109 112v924zM788 1602q0 -23 -12 -29t-41 -6h-127q-25 0 -36 7t-11 32v127
q0 23 12 29t41 7h125q27 0 38 -8t11 -32v-127zM272 1567q-24 0 -36 7t-13 32v127q1 23 13 29t40 7h125q27 0 38 -8t12 -32v-127q-1 -23 -13 -29t-41 -6h-125z" />
    <glyph glyph-name="Yacute" unicode="&#xdd;" horiz-adv-x="890" 
d="M285 522q0 38 -29 131l-233 688q-16 49 -17 76q0 57 82 58l88 -5l115 3q43 -1 59 -21t23 -59l73 -469h17l65 415q10 53 20 84q9 31 32 39q37 12 221 13q98 0 98 -54q0 -20 -18 -78l-226 -684q-8 -23 -23 -67t-16 -141v-13l5 -282l4 -88q-1 -40 -21 -54t-67 -14l-88 2
l-113 -4q-31 0 -43 13t-12 44l4 310v157zM311 1556q-20 0 -20 19q0 2 4 10l98 172q12 23 58 23h233q23 0 23 -17q0 -8 -9 -14l-188 -176q-20 -15 -53 -17h-146z" />
    <glyph glyph-name="Thorn" unicode="&#xde;" horiz-adv-x="1013" 
d="M485 1012q-90 0 -90 -130t3 -208t7.5 -94.5t25 -29.5t54.5 -13q76 0 97.5 56t21.5 178t-24.5 181.5t-94.5 59.5zM90 1376q0 68 39 87.5t160 19.5h82q53 0 67.5 -13.5t14.5 -60.5q0 -94 30 -94l76 6q186 0 285.5 -136t99.5 -402t-112 -417t-285 -151h-45
q-53 0 -73.5 -17.5t-20.5 -76.5l2 -58q0 -61 -72 -61l-78 4l-110 -10q-57 0 -58 70l2 65l-2 164l8 678q0 174 -5 273.5t-5 129.5z" />
    <glyph glyph-name="germandbls" unicode="&#xdf;" horiz-adv-x="937" 
d="M115 2q-51 0 -52 96v1002q0 80 10.5 145.5t63.5 130.5q106 125 332 125q170 0 266 -88t96 -225q0 -96 -43 -171t-43 -95t20.5 -59t54.5 -115q79 -175 79 -360t-78 -288.5t-194 -103.5t-141 19.5t-31 44t-6 61.5v180q0 35 5.5 47t33.5 16t43.5 15.5t15.5 49.5t-17.5 89
t-56.5 162t-39 173q0 61 10.5 96.5t21.5 69.5t21.5 64.5t10.5 57.5q0 63 -60 63q-33 0 -45 -20.5t-12 -63.5v-1040q0 -45 -17.5 -61.5t-87.5 -16.5h-161z" />
    <glyph glyph-name="agrave" unicode="&#xe0;" horiz-adv-x="845" 
d="M481 489q0 53 -14 79t-53 26q-80 0 -80 -111v-131q0 -102 74 -102q45 0 59 26t14 91v122zM684 0h-141q-42 0 -50 13t-8 63h-14q-35 -94 -156 -94t-193 113q-73 113 -74 308q-1 196 81 314q82 116 203 114q43 0 75 -13t54 -13q29 0 29 42q0 43 -34 69q-32 26 -94 26
t-108 -18q-91 -36 -111 -2q-10 16 -10 51v102q0 27 4 45t32 30q27 12 99 28t167 16q197 0 268 -69t71 -234v-785l2 -38q0 -48 -17 -58t-75 -10zM412 1251q-35 0 -52 17l-190 176q-8 6 -8 14q0 16 22 17h234q46 0 57 -23l98 -172l5 -10q0 -18 -21 -19h-145z" />
    <glyph glyph-name="aacute" unicode="&#xe1;" horiz-adv-x="845" 
d="M481 489q0 53 -14 79t-53 26q-80 0 -80 -111v-131q0 -102 74 -102q45 0 59 26t14 91v122zM684 0h-141q-42 0 -50 13t-8 63h-14q-35 -94 -156 -94t-193 113q-73 113 -74 308q-1 196 81 314q82 116 203 114q43 0 75 -13t54 -13q29 0 29 42q0 43 -34 69q-32 26 -94 26
t-108 -18q-91 -36 -111 -2q-10 16 -10 51v102q0 27 4 45t32 30q27 12 99 28t167 16q197 0 268 -69t71 -234v-785l2 -38q0 -48 -17 -58t-75 -10zM289 1251q-20 0 -21 19q0 2 4 10l99 172q10 21 57 23h234q23 0 22 -17q0 -8 -8 -14l-189 -176q-23 -17 -53 -17h-145z" />
    <glyph glyph-name="acircumflex" unicode="&#xe2;" horiz-adv-x="845" 
d="M481 489q0 53 -14 79t-53 26q-80 0 -80 -111v-131q0 -102 74 -102q45 0 59 26t14 91v122zM684 0h-141q-42 0 -50 13t-8 63h-14q-35 -94 -156 -94t-193 113q-73 113 -74 308q-1 196 81 314q82 116 203 114q43 0 75 -13t54 -13q29 0 29 42q0 43 -34 69q-32 26 -94 26
t-108 -18q-91 -36 -111 -2q-10 16 -10 51v102q0 27 4 45t32 30q27 12 99 28t167 16q197 0 268 -69t71 -234v-785l2 -38q0 -48 -17 -58t-75 -10zM168 1251q-18 0 -18 19q0 6 4 10l145 172q16 23 51 23h150q33 0 51 -23l139 -172q4 -4 4 -10q0 -18 -18 -19h-135q-34 0 -49 17
l-54 57q-8 8 -14 8t-14 -8l-58 -57q-17 -17 -49 -17h-135z" />
    <glyph glyph-name="atilde" unicode="&#xe3;" horiz-adv-x="845" 
d="M481 489q0 53 -14 79t-53 26q-80 0 -80 -111v-131q0 -102 74 -102q45 0 59 26t14 91v122zM684 0h-141q-42 0 -50 13t-8 63h-14q-35 -94 -156 -94t-193 113q-73 113 -74 308q-1 196 81 314q82 116 203 114q43 0 75 -13t54 -13q29 0 29 42q0 43 -34 69q-32 26 -94 26
t-108 -18q-91 -36 -111 -2q-10 16 -10 51v102q0 27 4 45t32 30q27 12 99 28t167 16q197 0 268 -69t71 -234v-785l2 -38q0 -48 -17 -58t-75 -10zM141 1257q-18 0 -18 23q0 86 51 135t128 49t188 -53q24 -10 54 -10t45 32q5 11 9 21t18 10h82q27 0 27 -37q0 -65 -51 -115
t-120 -50t-121 21t-77 31t-56 11q-31 0 -43 -34q-5 -13 -10 -23t-20 -11h-86z" />
    <glyph glyph-name="adieresis" unicode="&#xe4;" horiz-adv-x="845" 
d="M481 489q0 53 -14 79t-53 26q-80 0 -80 -111v-131q0 -102 74 -102q45 0 59 26t14 91v122zM684 0h-141q-42 0 -50 13t-8 63h-14q-35 -94 -156 -94t-193 113q-73 113 -74 308q-1 196 81 314q82 116 203 114q43 0 75 -13t54 -13q29 0 29 42q0 43 -34 69q-32 26 -94 26
t-108 -18q-91 -36 -111 -2q-10 16 -10 51v102q0 27 4 45t32 30q27 12 99 28t167 16q197 0 268 -69t71 -234v-785l2 -38q0 -48 -17 -58t-75 -10zM707 1296q-1 -22 -13 -28t-41 -6h-127q-25 0 -36 7t-11 31v127q1 23 13 30t40 7h125q27 0 38 -8t12 -33v-127zM190 1262
q-24 0 -36 7t-13 31v127q1 23 13 30t41 7h124q27 0 38 -8t12 -33v-127q-1 -22 -13 -28t-41 -6h-125z" />
    <glyph glyph-name="aring" unicode="&#xe5;" horiz-adv-x="845" 
d="M481 489q0 53 -14 79t-53 26q-80 0 -80 -111v-131q0 -102 74 -102q45 0 59 26t14 91v122zM684 0h-141q-42 0 -50 13t-8 63h-14q-35 -94 -156 -94t-193 113q-73 113 -74 308q-1 196 81 314q82 116 203 114q43 0 75 -13t54 -13q29 0 29 42q0 43 -34 69q-32 26 -94 26
t-108 -18q-91 -36 -111 -2q-10 16 -10 51v102q0 27 4 45t32 30q27 12 99 28t167 16q197 0 268 -69t71 -234v-785l2 -38q0 -48 -17 -58t-75 -10zM342 1466q0 -34 24 -58t58 -24t58 24t24 58t-24 57t-58 23t-58 -22t-24 -58zM272 1619q63 60 153 60q91 -1 153 -63
q61 -62 61 -151t-61 -151q-61 -61 -153 -62q-91 0 -153 62t-63 153q0 92 63 152z" />
    <glyph glyph-name="ae" unicode="&#xe6;" horiz-adv-x="1265" 
d="M924 794q0 128 -80 128q-45 0 -60.5 -28t-15.5 -84t7 -78.5t36 -22.5h63q35 0 42.5 14.5t7.5 70.5zM481 489q0 53 -14 79t-53 26q-80 0 -80 -111v-131q0 -102 74 -102q45 0 59 26.5t14 90.5v122zM456 1194q116 0 212 -57q88 55 178 55q209 0 311 -178q35 -63 43 -157.5
t8 -200.5t-12 -146.5t-63 -40.5h-332q-10 0 -21.5 -8t-11.5 -19q0 -78 43 -113.5t118 -35.5t124.5 26.5t64.5 26.5q72 0 72 -76v-157q0 -59 -59.5 -92t-159.5 -33q-137 0 -183 92h-20q2 -10 2 -39t-21.5 -35t-74.5 -6h-119q-42 0 -48.5 9t-6.5 13l-4 58h-17
q-43 -98 -164 -98t-194.5 114t-73.5 310t81.5 310.5t203.5 114.5q43 0 74.5 -13t54.5 -13q29 0 29 42t-33 68.5t-95 26.5t-107.5 -18.5t-73.5 -18.5t-38 16.5t-10 51.5v102q0 27 4 45.5t29 28.5q93 45 290 45z" />
    <glyph glyph-name="ccedilla" unicode="&#xe7;" horiz-adv-x="583" 
d="M379 -31q0 -27 19.5 -32t42 -6t68.5 -5t82 -43t36 -94q0 -86 -74.5 -122t-184.5 -36q-186 0 -238 18t-52 68t33 50q25 0 80 -14.5t137 -14.5t82 47t-68 47h-12q-35 0 -51.5 6t-16.5 41v137q-118 46 -164.5 174t-46.5 337q0 210 16.5 330t79 228.5t291.5 108.5
q51 0 70.5 -17.5t19.5 -64.5v-168q0 -59 -23 -68.5t-55 -13.5q-62 -8 -76 -64t-14 -193q0 -138 14.5 -196.5t74.5 -58.5h22q35 0 46 -15.5t11 -55.5v-213q0 -76 -90 -76l-59 2v-23z" />
    <glyph glyph-name="egrave" unicode="&#xe8;" horiz-adv-x="833" 
d="M451 709q35 0 43 14q8 15 8 71t-18 92t-70 36q-70 0 -70 -115q0 -53 7 -76t36 -22h64zM768 113q0 -51 -24 -69t-97 -39q-72 -22 -158 -21q-242 0 -346 150t-104 459q0 311 89 455t297 144t310 -178q35 -64 42 -158t7 -200t-12 -146q-12 -41 -63 -41h-330q-9 0 -21 -8
t-12 -19q0 -78 42 -114t116 -35q74 0 111 18q37 19 53 27t28 8q72 0 72 -76v-157zM406 1251q-35 0 -52 17l-190 176q-8 6 -8 14q0 16 22 17h234q46 0 57 -23l98 -172q4 -8 4 -10q0 -18 -20 -19h-145z" />
    <glyph glyph-name="eacute" unicode="&#xe9;" horiz-adv-x="833" 
d="M451 709q35 0 43 14q8 15 8 71t-18 92t-70 36q-70 0 -70 -115q0 -53 7 -76t36 -22h64zM768 113q0 -51 -24 -69t-97 -39q-72 -22 -158 -21q-242 0 -346 150t-104 459q0 311 89 455t297 144t310 -178q35 -64 42 -158t7 -200t-12 -146q-12 -41 -63 -41h-330q-9 0 -21 -8
t-12 -19q0 -78 42 -114t116 -35q74 0 111 18q37 19 53 27t28 8q72 0 72 -76v-157zM283 1251q-20 0 -21 19q0 2 4 10l99 172q10 21 57 23h233q23 0 23 -17q0 -8 -8 -14l-189 -176q-23 -17 -53 -17h-145z" />
    <glyph glyph-name="ecircumflex" unicode="&#xea;" horiz-adv-x="833" 
d="M451 709q35 0 43 14q8 15 8 71t-18 92t-70 36q-70 0 -70 -115q0 -53 7 -76t36 -22h64zM768 113q0 -51 -24 -69t-97 -39q-72 -22 -158 -21q-242 0 -346 150t-104 459q0 311 89 455t297 144t310 -178q35 -64 42 -158t7 -200t-12 -146q-12 -41 -63 -41h-330q-9 0 -21 -8
t-12 -19q0 -78 42 -114t116 -35q74 0 111 18q37 19 53 27t28 8q72 0 72 -76v-157zM162 1251q-18 0 -19 19q0 6 4 10l146 172q16 23 51 23h150q33 0 51 -23l139 -172q4 -4 4 -10q0 -18 -18 -19h-135q-33 0 -50 17l-53 57q-8 8 -14 8t-15 -8l-57 -57q-17 -17 -49 -17h-135z
" />
    <glyph glyph-name="edieresis" unicode="&#xeb;" horiz-adv-x="833" 
d="M451 709q35 0 43 14q8 15 8 71t-18 92t-70 36q-70 0 -70 -115q0 -53 7 -76t36 -22h64zM768 113q0 -51 -24 -69t-97 -39q-72 -22 -158 -21q-242 0 -346 150t-104 459q0 311 89 455t297 144t310 -178q35 -64 42 -158t7 -200t-12 -146q-12 -41 -63 -41h-330q-9 0 -21 -8
t-12 -19q0 -78 42 -114t116 -35q74 0 111 18q37 19 53 27t28 8q72 0 72 -76v-157zM700 1296q0 -22 -12 -28t-41 -6h-127q-25 0 -36 7t-11 31v127q0 23 12 30t41 7h125q27 0 38 -8t11 -33v-127zM184 1262q-25 0 -37 7t-12 31v127q0 23 12 30t41 7h125q27 0 38 -8t11 -33v-127
q0 -22 -12 -28t-41 -6h-125z" />
    <glyph glyph-name="igrave" unicode="&#xec;" horiz-adv-x="468" 
d="M70 90v893l-2 92q0 61 24 77q25 15 86 15h39l84 2q49 0 69 -11t21 -50v-1012q0 -58 -11 -78t-65 -20l-88 4l-100 -4q-41 0 -49 22t-8 70zM223 1251q-35 0 -51 17l-190 176q-8 6 -8 18t22 13h233q44 0 58 -23l98 -172q4 -8 4 -10q0 -18 -20 -19h-146z" />
    <glyph glyph-name="iacute" unicode="&#xed;" horiz-adv-x="468" 
d="M70 90v893l-2 92q0 61 24 77q25 15 86 15h39l84 2q49 0 69 -11t21 -50v-1012q0 -58 -11 -78t-65 -20l-88 4l-100 -4q-41 0 -49 22t-8 70zM100 1251q-20 0 -20 19q0 2 4 10l98 172q10 21 58 23h233q23 0 23 -17q0 -8 -9 -14l-188 -176q-23 -17 -53 -17h-146z" />
    <glyph glyph-name="icircumflex" unicode="&#xee;" horiz-adv-x="468" 
d="M70 90v893l-2 92q0 61 24 77q25 15 86 15h39l84 2q49 0 69 -11t21 -50v-1012q0 -58 -11 -78t-65 -20l-88 4l-100 -4q-41 0 -49 22t-8 70zM-20 1251q-18 0 -19 19q0 6 4 10l146 172q16 23 51 23h149q33 0 51 -23l140 -172q4 -4 4 -10q0 -18 -19 -19h-135q-32 0 -49 17
l-53 57q-8 8 -14 8t-15 -8l-57 -57q-17 -17 -49 -17h-135z" />
    <glyph glyph-name="idieresis" unicode="&#xef;" horiz-adv-x="468" 
d="M70 90v893l-2 92q0 61 24 77q25 15 86 15h39l84 2q49 0 69 -11t21 -50v-1012q0 -58 -11 -78t-65 -20l-88 4l-100 -4q-41 0 -49 22t-8 70zM518 1296q0 -22 -12 -28t-41 -6h-127q-25 0 -36 7t-11 31v127q0 23 12 30t41 7h125q27 0 38 -8t11 -33v-127zM2 1262q-25 0 -37 7
t-12 31v127q0 23 12 30t41 7h125q27 0 38 -8t11 -33v-127q0 -22 -12 -28t-41 -6h-125z" />
    <glyph glyph-name="eth" unicode="&#xf0;" horiz-adv-x="847" 
d="M365 393q0 -94 55 -94q35 0 49 25.5t14 78.5v340q0 66 -11 101t-50 35q-57 0 -57 -101v-385zM252 1479q0 51 176 51q53 0 83 -12.5t58 -59.5l82 19q20 4 31 4q23 0 29 -25l22 -74l2 -6q0 -20 -53 -33l-45 -12q100 -172 135 -348.5t35 -356.5t-12.5 -346t-133 -232
t-239.5 -66t-191.5 37.5t-114.5 114.5t-58.5 193.5t-16.5 274.5t13.5 263.5t54.5 166.5q94 137 270 137q29 0 61 -4q-23 66 -57 117l-117 -27q-23 -6 -30 -6q-20 0 -29 25l-23 69l-2 9q0 20 54 32l71 17q-20 35 -37.5 52t-17.5 26z" />
    <glyph glyph-name="ntilde" unicode="&#xf1;" horiz-adv-x="923" 
d="M287 0h-137q-47 0 -62 23q-14 23 -14 88v825l-4 121q0 79 22 101t107 22h116q45 0 59 -14t15 -58v-14l10 -2q78 102 207 102q130 0 186 -99t56 -300v-631q0 -86 -15 -125t-85 -39h-78q-86 0 -106 22q-21 22 -21 93v536q-1 105 -11 161t-63 56q-88 0 -88 -151v-443
l10 -184q0 -58 -18 -72q-17 -14 -37 -16t-49 -2zM180 1257q-18 0 -18 23q0 86 51 135t128 49t188 -53q23 -10 53 -10t46 32q5 11 9 21t18 10h82q27 0 27 -37q0 -65 -51 -115t-127 -50t-191 53q-25 10 -56 10t-43 -34q-5 -13 -10 -23t-20 -11h-86z" />
    <glyph glyph-name="ograve" unicode="&#xf2;" horiz-adv-x="847" 
d="M498 743q0 70 -14 102t-66 32q-66 0 -66 -99v-385q0 -94 68 -94q43 0 60 25t18 79v340zM57 599q1 161 11 273t57 177q55 81 128 113t177 32q204 0 281 -128q78 -128 80 -417q-1 -176 -7 -294q-13 -241 -168 -328q-80 -45 -194 -45t-183 36q-135 72 -167 304
q-16 116 -15 277zM414 1251q-35 0 -52 17l-190 176q-8 6 -8 14q0 16 22 17h234q46 0 57 -23l98 -172l5 -10q0 -18 -21 -19h-145z" />
    <glyph glyph-name="oacute" unicode="&#xf3;" horiz-adv-x="847" 
d="M498 743q0 70 -14 102t-66 32q-66 0 -66 -99v-385q0 -94 68 -94q43 0 60 25t18 79v340zM57 599q1 161 11 273t57 177q55 81 128 113t177 32q204 0 281 -128q78 -128 80 -417q-1 -176 -7 -294q-13 -241 -168 -328q-80 -45 -194 -45t-183 36q-135 72 -167 304
q-16 116 -15 277zM291 1251q-20 0 -21 19q0 2 4 10l99 172q10 21 57 23h234q23 0 22 -17q0 -8 -8 -14l-189 -176q-23 -17 -53 -17h-145z" />
    <glyph glyph-name="ocircumflex" unicode="&#xf4;" horiz-adv-x="847" 
d="M498 743q0 70 -14 102t-66 32q-66 0 -66 -99v-385q0 -94 68 -94q43 0 60 25t18 79v340zM57 599q1 161 11 273t57 177q55 81 128 113t177 32q204 0 281 -128q78 -128 80 -417q-1 -176 -7 -294q-13 -241 -168 -328q-80 -45 -194 -45t-183 36q-135 72 -167 304
q-16 116 -15 277zM170 1251q-18 0 -18 19q0 6 4 10l145 172q16 23 51 23h150q33 0 51 -23l139 -172q4 -4 4 -10q0 -18 -18 -19h-135q-34 0 -49 17l-54 57q-8 8 -14 8t-14 -8l-58 -57q-17 -17 -49 -17h-135z" />
    <glyph glyph-name="otilde" unicode="&#xf5;" horiz-adv-x="847" 
d="M498 743q0 70 -14 102t-66 32q-66 0 -66 -99v-385q0 -94 68 -94q43 0 60 25t18 79v340zM57 599q1 161 11 273t57 177q55 81 128 113t177 32q204 0 281 -128q78 -128 80 -417q-1 -176 -7 -294q-13 -241 -168 -328q-80 -45 -194 -45t-183 36q-135 72 -167 304
q-16 116 -15 277zM143 1257q-18 0 -18 23q0 86 51 135t126 49t191 -53q24 -10 53 -10t45 32q5 11 9 21t18 10h82q27 0 27 -37q0 -65 -51 -115t-120 -50t-121 21t-77 31t-56 11q-31 0 -43 -34q-5 -13 -10 -23t-20 -11h-86z" />
    <glyph glyph-name="odieresis" unicode="&#xf6;" horiz-adv-x="847" 
d="M498 743q0 70 -14 102t-66 32q-66 0 -66 -99v-385q0 -94 68 -94q43 0 60 25t18 79v340zM57 599q1 161 11 273t57 177q55 81 128 113t177 32q204 0 281 -128q78 -128 80 -417q-1 -176 -7 -294q-13 -241 -168 -328q-80 -45 -194 -45t-183 36q-135 72 -167 304
q-16 116 -15 277zM709 1296q-1 -22 -13 -28t-41 -6h-127q-26 0 -36 7t-11 31v127q1 23 13 30t41 7h124q27 0 38 -8t12 -33v-127zM193 1262q-25 0 -37 7t-13 31v127q1 23 13 30t41 7h125q28 0 38 -8t11 -33v-127q-1 -22 -13 -28t-41 -6h-124z" />
    <glyph glyph-name="divide" unicode="&#xf7;" horiz-adv-x="854" 
d="M428 221q-68 0 -112 41t-44 118t42 123t112 46t109.5 -46t44.5 -124q0 -76 -42 -117t-110 -41zM829 604h-806v275h806v-275zM428 930q-68 0 -112 41t-44 117t42 122.5t112 46.5t109.5 -46t44.5 -124q0 -76 -42 -116.5t-110 -40.5z" />
    <glyph glyph-name="oslash" unicode="&#xf8;" horiz-adv-x="847" 
d="M450 1194q126 0 212 -74l49 86q20 39 67 7.5t47 -53.5t-16 -50l-61 -102q43 -124 43 -330q0 -205 -6.5 -322.5t-39.5 -183.5q-92 -193 -315 -192q-152 0 -240 77l-55 -92q-17 -16 -35 -16t-50 19.5t-32 54.5q0 12 17 38l71 115q-49 107 -49 418q0 166 10.5 277.5
t61.5 184.5t123 105.5t198 32.5zM498 743q0 70 -13.5 102t-66.5 32q-66 0 -66 -99v-385q0 -94 68 -94q43 0 60.5 24.5t17.5 79.5v340z" />
    <glyph glyph-name="ugrave" unicode="&#xf9;" horiz-adv-x="923" 
d="M598 -4q-45 0 -59 13t-15 59v14l-10 2q-76 -100 -206 -100t-186 99t-56 298v631q0 96 12 120q20 42 88 44h78q82 0 105 -21q22 -21 22 -92v-539q0 -106 10 -162t63 -55q88 0 88 152v442l-10 184q0 63 24 77t81 14h137q47 0 61 -22t15 -87v-827l4 -121q0 -80 -23 -101
q-23 -22 -106 -22h-117zM451 1251q-35 0 -52 17l-190 176q-8 6 -8 14q0 16 22 17h234q46 0 57 -23l98 -172q4 -8 4 -10q0 -18 -20 -19h-145z" />
    <glyph glyph-name="uacute" unicode="&#xfa;" horiz-adv-x="923" 
d="M598 -4q-45 0 -59 13t-15 59v14l-10 2q-76 -100 -206 -100t-186 99t-56 298v631q0 96 12 120q20 42 88 44h78q82 0 105 -21q22 -21 22 -92v-539q0 -106 10 -162t63 -55q88 0 88 152v442l-10 184q0 63 24 77t81 14h137q47 0 61 -22t15 -87v-827l4 -121q0 -80 -23 -101
q-23 -22 -106 -22h-117zM328 1251q-20 0 -21 19q0 2 4 10l99 172q10 21 57 23h233q23 0 23 -17q0 -8 -8 -14l-189 -176q-23 -17 -53 -17h-145z" />
    <glyph glyph-name="ucircumflex" unicode="&#xfb;" horiz-adv-x="923" 
d="M598 -4q-45 0 -59 13t-15 59v14l-10 2q-76 -100 -206 -100t-186 99t-56 298v631q0 96 12 120q20 42 88 44h78q82 0 105 -21q22 -21 22 -92v-539q0 -106 10 -162t63 -55q88 0 88 152v442l-10 184q0 63 24 77t81 14h137q47 0 61 -22t15 -87v-827l4 -121q0 -80 -23 -101
q-23 -22 -106 -22h-117zM207 1251q-18 0 -19 19q0 6 5 10l145 172q16 23 51 23h150q33 0 51 -23l139 -172q4 -4 4 -10q0 -18 -18 -19h-135q-33 0 -50 17l-53 57q-8 8 -14 8t-14 -8l-58 -57q-17 -17 -49 -17h-135z" />
    <glyph glyph-name="udieresis" unicode="&#xfc;" horiz-adv-x="923" 
d="M598 -4q-45 0 -59 13t-15 59v14l-10 2q-76 -100 -206 -100t-186 99t-56 298v631q0 96 12 120q20 42 88 44h78q82 0 105 -21q22 -21 22 -92v-539q0 -106 10 -162t63 -55q88 0 88 152v442l-10 184q0 63 24 77t81 14h137q47 0 61 -22t15 -87v-827l4 -121q0 -80 -23 -101
q-23 -22 -106 -22h-117zM745 1296q0 -22 -12 -28t-41 -6h-127q-25 0 -36 7t-11 31v127q0 23 12 30t41 7h125q27 0 38 -8t11 -33v-127zM229 1262q-25 0 -37 7t-12 31v127q0 23 12 30t41 7h125q27 0 38 -8t12 -33v-127q0 -22 -12 -28t-42 -6h-125z" />
    <glyph glyph-name="yacute" unicode="&#xfd;" horiz-adv-x="786" 
d="M8 1116q0 58 72 60h176q39 0 47 -18t12 -66l68 -732h37l57 758q5 35 19 46t53 12h149q82 0 82 -64q0 -20 -8 -53l-205 -965q-33 -150 -101 -216t-192 -64q-123 0 -176 19t-53 67v176q0 76 49 76q23 0 35 -10t23 -9q41 0 41 31q0 23 -7 53l-170 854q-8 32 -8 45zM260 1251
q-20 0 -20 19q0 2 4 10l98 172q10 21 57 23h234q23 0 22 -17q0 -8 -8 -14l-188 -176q-23 -17 -53 -17h-146z" />
    <glyph glyph-name="thorn" unicode="&#xfe;" horiz-adv-x="862" 
d="M543 1186q145 0 203.5 -149.5t58.5 -451.5t-64.5 -448.5t-212.5 -146.5q-92 0 -151 53v-119q0 -61 -12.5 -82.5t-73.5 -21.5h-129q-62 0 -73 12t-11 84v1458l-2 47q0 43 16.5 58.5t73.5 15.5h123q47 0 61.5 -18.5t14.5 -81.5v-293q80 84 178 84zM510 725q0 80 -12.5 118
t-59.5 38q-74 0 -73 -121v-305q0 -80 11 -118t61 -38t61.5 33t11.5 102v291z" />
    <glyph glyph-name="ydieresis" unicode="&#xff;" horiz-adv-x="786" 
d="M8 1116q0 58 72 60h176q39 0 47 -18t12 -66l68 -732h37l57 758q5 35 19 46t53 12h149q82 0 82 -64q0 -20 -8 -53l-205 -965q-33 -150 -101 -216t-192 -64q-123 0 -176 19t-53 67v176q0 76 49 76q23 0 35 -10t23 -9q41 0 41 31q0 23 -7 53l-170 854q-8 32 -8 45zM678 1296
q0 -22 -12 -28t-41 -6h-127q-25 0 -36 7t-11 31v127q0 23 12 30t41 7h125q27 0 38 -8t11 -33v-127zM162 1262q-25 0 -37 7t-12 31v127q0 23 12 30t41 7h125q27 0 38 -8t11 -33v-127q0 -22 -12 -28t-41 -6h-125z" />
    <glyph glyph-name="Amacron" unicode="&#x100;" horiz-adv-x="894" 
d="M452 582q72 0 72 48q0 28 -4 54l-65 428l-17 -2l-57 -416q-4 -16 -5 -28t-3 -22t-2 -24t20 -26q19 -12 61 -12zM252 0h-189q-43 0 -60 14t-17 46t26 143l64 297q8 36 9 76t54 318t71 391q18 112 32 151t59 39h252q60 0 78 -24t45 -157q26 -133 62 -299t54 -296
q43 -320 89 -478q47 -159 -1 -199q-26 -22 -69 -22h-180q-20 0 -46 20t-26 106t-37 117q-18 15 -59 15q-117 0 -117 -63l2 -72q0 -67 -18 -95t-78 -28zM236 1589q-25 0 -36 5t-12 28v100q0 18 12 24t42 5h422q24 0 36 -6t13 -27v-100q1 -18 -13 -24t-41 -5h-423z" />
    <glyph glyph-name="amacron" unicode="&#x101;" horiz-adv-x="845" 
d="M481 489q0 53 -14 79t-53 26q-80 0 -80 -111v-131q0 -102 74 -102q45 0 59 26t14 91v122zM684 0h-141q-42 0 -50 13t-8 63h-14q-35 -94 -156 -94t-193 113q-73 113 -74 308q-1 196 81 314q82 116 203 114q43 0 75 -13t54 -13q29 0 29 42q0 43 -34 69q-32 26 -94 26
t-108 -18q-91 -36 -111 -2q-10 16 -10 51v102q0 27 4 45t32 30q27 12 99 28t167 16q197 0 268 -69t71 -234v-785l2 -38q0 -48 -17 -58t-75 -10zM211 1284q-25 0 -36 5t-11 28v100q0 17 12 23t41 6h422q25 0 37 -6t12 -27v-100q0 -17 -13 -23t-40 -6h-424z" />
    <glyph glyph-name="Abreve" unicode="&#x102;" horiz-adv-x="894" 
d="M452 582q72 0 72 48q0 28 -4 54l-65 428l-17 -2l-57 -416q-4 -16 -5 -28t-3 -22t-2 -24t20 -26q19 -12 61 -12zM252 0h-189q-43 0 -60 14t-17 46t26 143l64 297q8 36 9 76t54 318t71 391q18 112 32 151t59 39h252q60 0 78 -24t45 -157q26 -133 62 -299t54 -296
q43 -320 89 -478q47 -159 -1 -199q-26 -22 -69 -22h-180q-20 0 -46 20t-26 106t-37 117q-18 15 -59 15q-117 0 -117 -63l2 -72q0 -67 -18 -95t-78 -28zM328 1780q20 0 30 -33q19 -61 97 -61q45 0 58 17t28 47t34 30h105q20 0 20 -37q0 -86 -64 -138q-64 -53 -188 -53
q-122 0 -187 54t-64 133q0 41 28 41h103z" />
    <glyph glyph-name="abreve" unicode="&#x103;" horiz-adv-x="845" 
d="M481 489q0 53 -14 79t-53 26q-80 0 -80 -111v-131q0 -102 74 -102q45 0 59 26t14 91v122zM684 0h-141q-42 0 -50 13t-8 63h-14q-35 -94 -156 -94t-193 113q-73 113 -74 308q-1 196 81 314q82 116 203 114q43 0 75 -13t54 -13q29 0 29 42q0 43 -34 69q-32 26 -94 26
t-108 -18q-91 -36 -111 -2q-10 16 -10 51v102q0 27 4 45t32 30q27 12 99 28t167 16q197 0 268 -69t71 -234v-785l2 -38q0 -48 -17 -58t-75 -10zM303 1475q20 0 31 -33q19 -60 96 -62q45 0 58 18t27 46q14 29 36 31h104q20 0 21 -37q0 -86 -65 -138t-187 -53q-122 1 -188 55
q-64 54 -64 132q0 41 29 41h102z" />
    <glyph glyph-name="Aogonek" unicode="&#x104;" horiz-adv-x="894" 
d="M453 582q71 0 71 48q0 30 -4 54l-65 428l-17 -2l-57 -416q-4 -16 -5 -28.5t-3 -22.5t-2 -23t20.5 -25.5t61.5 -12.5zM63 0q-77 0 -77 58q0 33 26 145l64 297q8 35 9 75.5t54 318.5t71 391q17 112 31.5 151t59.5 39h252q61 0 79 -24q17 -24 43.5 -157t62.5 -299t53 -296
t43 -268t48.5 -216t22.5 -125q0 -90 -94 -90h-18q-70 -76 -70 -162q0 -41 13.5 -59.5t13.5 -22.5q0 -43 -39 -43h-156q-59 1 -59 103t122 184h7q-66 7 -66 109.5t-27.5 125.5t-76.5 23t-79 -17.5t-30 -45.5l2 -72q0 -68 -18.5 -95.5t-77.5 -27.5h-189z" />
    <glyph glyph-name="aogonek" unicode="&#x105;" horiz-adv-x="845" 
d="M481 489q0 53 -14 79t-53 26q-80 0 -80 -111v-131q0 -102 74 -102q45 0 59 26.5t14 90.5v122zM618 -162q0 -41 13.5 -59.5t13.5 -22.5q0 -43 -39 -43h-155q-59 0 -59 102t122 185h8q-25 2 -30 15.5t-7 60.5h-14q-35 -94 -156 -94t-194.5 114t-73.5 310t81.5 310.5
t203.5 114.5q43 0 74.5 -13t54.5 -13q29 0 29 42t-33 68.5t-95 26.5t-107.5 -18.5t-73.5 -18.5t-38 16.5t-10 51.5v102q0 27 4 45.5t32 30.5t99.5 27.5t166.5 15.5q195 0 267 -69.5t72 -233.5v-785l2 -38q0 -49 -16.5 -58.5t-71.5 -9.5q-70 -76 -70 -162z" />
    <glyph glyph-name="Cacute" unicode="&#x106;" horiz-adv-x="724" 
d="M43 756q0 404 105 559q58 84 160 122t257 38q67 0 91 -22t24 -87l-2 -88l4 -76q0 -86 -65 -91q-13 -1 -29 -1q-95 0 -135 -48t-46 -177q-15 -321 18 -444q26 -97 118 -97l82 4q59 0 59 -84l4 -160q0 -66 -33 -88t-144 -22q-180 1 -277 77q-40 32 -76 85q-72 102 -94 250
t-21 350zM258 1556q-20 0 -20 19q0 2 4 10l98 172q12 23 57 23h234q23 0 22 -17q0 -8 -8 -14l-188 -176q-20 -15 -54 -17h-145z" />
    <glyph glyph-name="cacute" unicode="&#x107;" horiz-adv-x="583" 
d="M528 66q0 -76 -90 -76q-223 0 -304 127t-82 465t78 475t308 137q50 0 70 -17t20 -65v-168q0 -59 -22 -68q-22 -10 -56 -14q-32 -4 -57 -26t-29 -97t-4 -173t14 -157q14 -58 75 -59h22q35 0 46 -15t11 -56v-213zM203 1251q-20 0 -21 19q0 2 4 10l99 172q10 21 57 23h233
q23 0 23 -17q0 -8 -8 -14l-189 -176q-23 -17 -53 -17h-145z" />
    <glyph glyph-name="Ccircumflex" unicode="&#x108;" horiz-adv-x="724" 
d="M43 756q0 404 105 559q58 84 160 122t257 38q67 0 91 -22t24 -87l-2 -88l4 -76q0 -86 -65 -91q-13 -1 -29 -1q-95 0 -135 -48t-46 -177q-15 -321 18 -444q26 -97 118 -97l82 4q59 0 59 -84l4 -160q0 -66 -33 -88t-144 -22q-180 1 -277 77q-40 32 -76 85q-72 102 -94 250
t-21 350zM137 1556q-18 0 -18 19q0 6 4 10l145 172q16 23 51 23h150q33 0 51 -23l139 -172q4 -4 5 -10q0 -18 -19 -19h-135q-32 0 -49 17l-53 57q-8 8 -14 8t-15 -8l-57 -57q-15 -15 -50 -17h-135z" />
    <glyph glyph-name="ccircumflex" unicode="&#x109;" horiz-adv-x="583" 
d="M528 66q0 -76 -90 -76q-223 0 -304 127t-82 465t78 475t308 137q50 0 70 -17t20 -65v-168q0 -59 -22 -68q-22 -10 -56 -14q-32 -4 -57 -26t-29 -97t-4 -173t14 -157q14 -58 75 -59h22q35 0 46 -15t11 -56v-213zM82 1251q-18 0 -19 19q0 6 5 10l145 172q16 23 51 23h150
q33 0 51 -23l139 -172q4 -4 4 -10q0 -18 -18 -19h-135q-34 0 -49 17l-54 57q-8 8 -14 8t-14 -8l-58 -57q-17 -17 -49 -17h-135z" />
    <glyph glyph-name="Cdotaccent" unicode="&#x10a;" horiz-adv-x="724" 
d="M43 756q0 404 105 559q58 84 160 122t257 38q67 0 91 -22t24 -87l-2 -88l4 -76q0 -86 -65 -91q-13 -1 -29 -1q-95 0 -135 -48t-46 -177q-15 -321 18 -444q26 -97 118 -97l82 4q59 0 59 -84l4 -160q0 -66 -33 -88t-144 -22q-180 1 -277 77q-40 32 -76 85q-72 102 -94 250
t-21 350zM319 1567q-29 0 -41 7t-12 32v127q0 23 14 29t46 7h139q29 0 41 -8t12 -32v-127q0 -23 -14 -29t-43 -6h-142z" />
    <glyph glyph-name="cdotaccent" unicode="&#x10b;" horiz-adv-x="583" 
d="M528 66q0 -76 -90 -76q-223 0 -304 127t-82 465t78 475t308 137q50 0 70 -17t20 -65v-168q0 -59 -22 -68q-22 -10 -56 -14q-32 -4 -57 -26t-29 -97t-4 -173t14 -157q14 -58 75 -59h22q35 0 46 -15t11 -56v-213zM264 1262q-29 0 -41 7t-12 31v127q0 23 14 30t45 7h140
q29 0 41 -8t12 -33v-127q0 -22 -14 -28t-43 -6h-142z" />
    <glyph glyph-name="Ccaron" unicode="&#x10c;" horiz-adv-x="724" 
d="M43 756q0 404 105 559q58 84 160 122t257 38q67 0 91 -22t24 -87l-2 -88l4 -76q0 -86 -65 -91q-13 -1 -29 -1q-95 0 -135 -48t-46 -177q-15 -321 18 -444q26 -97 118 -97l82 4q59 0 59 -84l4 -160q0 -66 -33 -88t-144 -22q-180 1 -277 77q-40 32 -76 85q-72 102 -94 250
t-21 350zM319 1556q-33 0 -51 21l-145 172q-4 4 -4 10q0 20 18 21h135q33 0 50 -17l57 -59q6 -6 14 -6t15 6l53 59q16 16 49 17h135q18 0 19 -21q0 -6 -5 -10l-139 -172q-16 -20 -51 -21h-150z" />
    <glyph glyph-name="ccaron" unicode="&#x10d;" horiz-adv-x="583" 
d="M528 66q0 -76 -90 -76q-223 0 -304 127t-82 465t78 475t308 137q50 0 70 -17t20 -65v-168q0 -59 -22 -68q-22 -10 -56 -14q-32 -4 -57 -26t-29 -97t-4 -173t14 -157q14 -58 75 -59h22q35 0 46 -15t11 -56v-213zM264 1251q-33 0 -51 21l-145 172q-4 4 -5 10q0 20 19 21
h135q33 0 49 -17l58 -59q6 -6 14 -6t14 6l54 59q16 16 49 17h135q18 0 18 -21q0 -6 -4 -10l-139 -172q-16 -20 -51 -21h-150z" />
    <glyph glyph-name="Dcaron" unicode="&#x10e;" horiz-adv-x="972" 
d="M61 197l7 601q0 273 -6 417q-5 144 -5 180q0 76 113 78l137 -3l154 3h8q252 0 354 -202q90 -178 90 -622q0 -329 -90 -491t-288 -162l-66 4l-135 -2l-172 -4q-71 0 -86 36t-15 148v19zM454 305q72 0 89 62q18 62 18 235v127q0 251 -14 307t-38 80q-24 23 -67 23
q-63 0 -63 -74l4 -147l2 -476l-2 -41q0 -53 16 -75q17 -22 55 -21zM393 1556q-33 0 -51 21l-145 172q-4 4 -4 10q0 20 18 21h135q33 0 49 -17l58 -59q6 -6 14 -6t14 6l54 59q16 16 49 17h135q18 0 18 -21q0 -6 -4 -10l-139 -172q-16 -20 -51 -21h-150z" />
    <glyph glyph-name="dcaron" unicode="&#x10f;" horiz-adv-x="1011" 
d="M356 455q0 -80 12 -118t60 -38q74 0 74 123v305q0 78 -12 116t-60 38q-49 0 -61 -33t-13 -103v-290zM698 0h-120q-45 0 -59 13q-13 13 -19 61q-77 -84 -178 -84q-145 0 -203 150q-57 151 -57 455q0 303 64 451q65 148 212 148q88 0 149 -53v241q0 67 15 86t73 19h130
q62 0 72 -14q11 -14 11 -82v-1184l5 -127q-1 -48 -21 -64t-74 -16zM866 1186q-35 0 -35 20q0 14 20 36q40 44 40 122q0 33 -10 49t-11 29q0 31 33 31h156q33 1 46 -15t13 -65q0 -94 -98 -174q-38 -33 -74 -33h-80z" />
    <glyph glyph-name="Dcroat" unicode="&#x110;" horiz-adv-x="1003" 
d="M491 305q70 0 88.5 61.5t18.5 235.5v127q0 250 -14.5 307.5t-38 80t-66.5 22.5q-63 0 -63 -74l4 -147v-89h29q72 0 71 -32v-176q0 -35 -65 -35h-13q-12 0 -22 2l2 -146l-2 -41q0 -53 16.5 -74.5t54.5 -21.5zM98 178v19l6 391l-32 -2q-66 0 -66 35v176q0 20 16.5 26
t51.5 6h30q0 254 -5 391.5t-5 173.5q0 78 113 79l137 -3l156 3h8q252 0 347 -192.5t95 -625.5q0 -334 -90 -496.5t-289 -162.5l-65 4l-135 -2l-172 -4q-71 0 -86 34t-15 150z" />
    <glyph glyph-name="dcroat" unicode="&#x111;" horiz-adv-x="876" 
d="M502 422v326q0 39 -13.5 71.5t-61.5 32.5t-59.5 -33t-11.5 -74v-323q0 -123 73 -123t73 123zM698 0h-120q-47 0 -59.5 13.5t-18.5 60.5q-80 -84 -166 -84t-134 38t-72 94q-66 152 -67 431q0 369 77 490.5t200 121.5q88 0 149 -53v135h-61q-37 0 -45 8t-8 43v60
q0 25 28 24h86q0 62 13.5 83.5t74.5 21.5h168q31 0 38 -21.5t7 -48.5v-35h37q43 0 49 -7t7 -25l-2 -76q0 -29 -45 -29l-46 2v-1044l5 -123q0 -51 -24 -65.5t-71 -14.5z" />
    <glyph glyph-name="Emacron" unicode="&#x112;" horiz-adv-x="768" 
d="M145 0q-94 0 -94 90q0 44 7 106q7 60 8 134l2 993l-2 51q0 66 32 84t121 17h320l34 -2l39 2q63 0 86 -23t23 -84l2 -125q0 -61 -23 -81t-77 -19l-76 2h-94q-35 1 -47 -17t-13 -65v-27q0 -57 10 -80t62 -22l139 6q74 0 90 -31t17 -106v-60q0 -137 -84 -137l-166 8
q-45 0 -53 -16t-9 -53l-2 -121q-1 -48 11 -62t59 -14l180 2q63 0 77 -34t13 -138q0 -104 -12 -131t-34 -37t-62 -10l-338 8zM172 1589q-25 0 -36 5t-11 28v100q0 18 12 24t41 5h422q25 0 37 -6t12 -27v-100q0 -18 -13 -24t-40 -5h-424z" />
    <glyph glyph-name="emacron" unicode="&#x113;" horiz-adv-x="833" 
d="M451 709q35 0 43 14q8 15 8 71t-18 92t-70 36q-70 0 -70 -115q0 -53 7 -76t36 -22h64zM768 113q0 -51 -24 -69t-97 -39q-72 -22 -158 -21q-242 0 -346 150t-104 459q0 311 89 455t297 144t310 -178q35 -64 42 -158t7 -200t-12 -146q-12 -41 -63 -41h-330q-9 0 -21 -8
t-12 -19q0 -78 42 -114t116 -35q74 0 111 18q37 19 53 27t28 8q72 0 72 -76v-157zM205 1284q-25 0 -36 5t-11 28v100q0 17 12 23t41 6h422q25 0 37 -6t12 -27v-100q0 -17 -13 -23t-40 -6h-424z" />
    <glyph glyph-name="Ebreve" unicode="&#x114;" horiz-adv-x="768" 
d="M145 0q-94 0 -94 90q0 44 7 106q7 60 8 134l2 993l-2 51q0 66 32 84t121 17h320l34 -2l39 2q63 0 86 -23t23 -84l2 -125q0 -61 -23 -81t-77 -19l-76 2h-94q-35 1 -47 -17t-13 -65v-27q0 -57 10 -80t62 -22l139 6q74 0 90 -31t17 -106v-60q0 -137 -84 -137l-166 8
q-45 0 -53 -16t-9 -53l-2 -121q-1 -48 11 -62t59 -14l180 2q63 0 77 -34t13 -138q0 -104 -12 -131t-34 -37t-62 -10l-338 8zM264 1780q21 0 31 -33q19 -61 96 -61q45 0 59 17q13 17 27 47t35 30h104q20 0 21 -37q0 -86 -65 -138q-66 -53 -188 -53t-186 54t-65 133
q0 41 29 41h102z" />
    <glyph glyph-name="ebreve" unicode="&#x115;" horiz-adv-x="833" 
d="M451 709q35 0 43 14q8 15 8 71t-18 92t-70 36q-70 0 -70 -115q0 -53 7 -76t36 -22h64zM768 113q0 -51 -24 -69t-97 -39q-72 -22 -158 -21q-242 0 -346 150t-104 459q0 311 89 455t297 144t310 -178q35 -64 42 -158t7 -200t-12 -146q-12 -41 -63 -41h-330q-9 0 -21 -8
t-12 -19q0 -78 42 -114t116 -35q74 0 111 18q37 19 53 27t28 8q72 0 72 -76v-157zM297 1475q18 0 29 -33q12 -33 34 -47q22 -15 66 -15q43 0 56 18t27 46q14 29 36 31h104q20 0 21 -37q0 -86 -65 -138t-187 -53q-122 1 -188 55q-65 54 -64 132q0 41 29 41h102z" />
    <glyph glyph-name="Edotaccent" unicode="&#x116;" horiz-adv-x="768" 
d="M145 0q-94 0 -94 90q0 44 7 106q7 60 8 134l2 993l-2 51q0 66 32 84t121 17h320l34 -2l39 2q63 0 86 -23t23 -84l2 -125q0 -61 -23 -81t-77 -19l-76 2h-94q-35 1 -47 -17t-13 -65v-27q0 -57 10 -80t62 -22l139 6q74 0 90 -31t17 -106v-60q0 -137 -84 -137l-166 8
q-45 0 -53 -16t-9 -53l-2 -121q-1 -48 11 -62t59 -14l180 2q63 0 77 -34t13 -138q0 -104 -12 -131t-34 -37t-62 -10l-338 8zM311 1567q-29 0 -41 7t-12 32v127q0 23 14 29t45 7h140q29 0 41 -8t12 -32v-127q0 -23 -14 -29t-43 -6h-142z" />
    <glyph glyph-name="edotaccent" unicode="&#x117;" horiz-adv-x="833" 
d="M451 709q35 0 43 14q8 15 8 71t-18 92t-70 36q-70 0 -70 -115q0 -53 7 -76t36 -22h64zM768 113q0 -51 -24 -69t-97 -39q-72 -22 -158 -21q-242 0 -346 150t-104 459q0 311 89 455t297 144t310 -178q35 -64 42 -158t7 -200t-12 -146q-12 -41 -63 -41h-330q-9 0 -21 -8
t-12 -19q0 -78 42 -114t116 -35q74 0 111 18q37 19 53 27t28 8q72 0 72 -76v-157zM344 1262q-29 0 -41 7t-12 31v127q0 23 14 30t45 7h139q29 0 41 -8t13 -33v-127q-1 -22 -15 -28t-43 -6h-141z" />
    <glyph glyph-name="Eogonek" unicode="&#x118;" horiz-adv-x="768" 
d="M145 0q-94 0 -94 90q0 45 7.5 105.5t7.5 134.5l2 993l-2 51q0 66 32 83.5t121 17.5h320l34 -2l39 2q63 0 86 -22.5t23 -84.5l2 -125q0 -61 -22.5 -80.5t-77.5 -19.5l-76 2h-94q-35 0 -47.5 -17.5t-12.5 -64.5v-27q0 -57 10.5 -79.5t61.5 -22.5l139 6q74 0 90.5 -30.5
t16.5 -106.5v-60q0 -137 -84 -137l-166 8q-45 0 -53.5 -16t-8.5 -53l-2 -121q-2 -47 10.5 -61.5t59.5 -14.5l180 2q63 0 76.5 -33t13.5 -105q0 -136 -16.5 -174t-91.5 -38h-23q-69 -77 -69 -140t13 -81.5t13 -22.5q0 -43 -39 -43h-155q-59 0 -60 101q0 47 34 99t93 93
l-145 2z" />
    <glyph glyph-name="eogonek" unicode="&#x119;" horiz-adv-x="833" 
d="M451 709q35 0 43 14.5t8 70.5t-17.5 92t-70.5 36q-70 0 -70 -115q0 -53 7 -75.5t36 -22.5h64zM342 -287q-59 0 -59 98t108 181q-188 29 -270 176t-82 441t89 438.5t297 144.5t310 -178q35 -63 42 -157.5t7 -200.5t-12 -146.5t-63 -40.5h-330q-10 0 -21.5 -8t-11.5 -19
q0 -78 42 -113.5t116 -35.5t126 26.5t66 26.5q72 0 72 -76v-157q0 -51 -22 -67q-57 -41 -177 -56q-59 -68 -59 -152q0 -41 13.5 -59.5t13.5 -22.5q0 -43 -39 -43h-156z" />
    <glyph glyph-name="Ecaron" unicode="&#x11a;" horiz-adv-x="768" 
d="M145 0q-94 0 -94 90q0 44 7 106q7 60 8 134l2 993l-2 51q0 66 32 84t121 17h320l34 -2l39 2q63 0 86 -23t23 -84l2 -125q0 -61 -23 -81t-77 -19l-76 2h-94q-35 1 -47 -17t-13 -65v-27q0 -57 10 -80t62 -22l139 6q74 0 90 -31t17 -106v-60q0 -137 -84 -137l-166 8
q-45 0 -53 -16t-9 -53l-2 -121q-1 -48 11 -62t59 -14l180 2q63 0 77 -34t13 -138q0 -104 -12 -131t-34 -37t-62 -10l-338 8zM311 1556q-33 0 -51 21l-145 172q-4 4 -4 10q0 20 18 21h135q33 0 49 -17l58 -59q6 -6 14 -6t14 6l54 59q16 16 49 17h135q18 0 18 -21q0 -6 -4 -10
l-139 -172q-16 -20 -51 -21h-150z" />
    <glyph glyph-name="ecaron" unicode="&#x11b;" horiz-adv-x="833" 
d="M451 709q35 0 43 14q8 15 8 71t-18 92t-70 36q-70 0 -70 -115q0 -53 7 -76t36 -22h64zM768 113q0 -51 -24 -69t-97 -39q-72 -22 -158 -21q-242 0 -346 150t-104 459q0 311 89 455t297 144t310 -178q35 -64 42 -158t7 -200t-12 -146q-12 -41 -63 -41h-330q-9 0 -21 -8
t-12 -19q0 -78 42 -114t116 -35q74 0 111 18q37 19 53 27t28 8q72 0 72 -76v-157zM344 1251q-33 0 -51 21l-146 172q-4 4 -4 10q0 20 19 21h135q33 0 49 -17l57 -59q7 -6 15 -6t14 6l53 59q16 16 50 17h135q18 0 18 -21q0 -6 -4 -10l-139 -172q-16 -20 -51 -21h-150z" />
    <glyph glyph-name="Gcircumflex" unicode="&#x11c;" horiz-adv-x="948" 
d="M602 563q0 33 -49 51q-35 14 -48 41t-13 124t18 126t47 35t76 6h119q78 0 106 -31t27 -114v-645q0 -45 -4 -72q-8 -57 -127 -90q-66 -18 -180 -18t-216 50q-211 104 -286 370q-39 134 -39 309q0 352 161 560t429 210q136 1 178 -23q43 -24 55 -54t12 -107t-10 -128
t-65 -51q-23 0 -56 11t-80 12q-141 -1 -209 -95t-67 -294q0 -200 36 -304q36 -106 122 -106q41 0 52 30t11 83v114zM219 1556q-18 0 -18 19q0 6 4 10l145 172q16 23 51 23h150q33 0 51 -23l139 -172q4 -4 4 -10q0 -18 -18 -19h-135q-32 0 -49 17l-54 57q-8 8 -14 8t-14 -8
l-58 -57q-15 -15 -49 -17h-135z" />
    <glyph glyph-name="gcircumflex" unicode="&#x11d;" horiz-adv-x="843" 
d="M768 1077v-887q0 -82 -11 -143t-71 -111q-126 -106 -309 -106q-184 0 -223 31q-25 18 -30 55t-5 98q0 109 63 109q12 0 28 -7t51 -23q36 -16 95 -15q60 0 92 28t31 97v21q0 11 -2 24q-72 -59 -155 -60q-123 0 -195 126t-72 366q0 514 281 514q75 0 143 -76v19q0 47 35 47
l82 -2l115 2q41 0 49 -20t8 -87zM414 887q-50 0 -64 -48t-14 -157t15 -160t65 -51t61 37q10 37 10 115l-4 172q1 92 -69 92zM168 1251q-18 0 -18 19q0 6 4 10l145 172q16 23 51 23h150q33 0 51 -23l139 -172q4 -4 4 -10q0 -18 -18 -19h-135q-34 0 -49 17l-54 57q-8 8 -14 8
t-14 -8l-58 -57q-17 -17 -49 -17h-135z" />
    <glyph glyph-name="Gbreve" unicode="&#x11e;" horiz-adv-x="948" 
d="M602 563q0 33 -49 51q-35 14 -48 41t-13 124t18 126t47 35t76 6h119q78 0 106 -31t27 -114v-645q0 -45 -4 -72q-8 -57 -127 -90q-66 -18 -180 -18t-216 50q-211 104 -286 370q-39 134 -39 309q0 352 161 560t429 210q136 1 178 -23q43 -24 55 -54t12 -107t-10 -128
t-65 -51q-23 0 -56 11t-80 12q-141 -1 -209 -95t-67 -294q0 -200 36 -304q36 -106 122 -106q41 0 52 30t11 83v114zM354 1780q21 0 31 -33q19 -61 96 -61q45 0 59 17q13 17 27 47t35 30h105q20 0 20 -37q-1 -86 -65 -138q-64 -53 -187 -53t-187 54t-65 133q0 41 29 41h102z
" />
    <glyph glyph-name="gbreve" unicode="&#x11f;" horiz-adv-x="843" 
d="M768 1077v-887q0 -82 -11 -143t-71 -111q-126 -106 -309 -106q-184 0 -223 31q-25 18 -30 55t-5 98q0 109 63 109q12 0 28 -7t51 -23q36 -16 95 -15q60 0 92 28t31 97v21q0 11 -2 24q-72 -59 -155 -60q-123 0 -195 126t-72 366q0 514 281 514q75 0 143 -76v19q0 47 35 47
l82 -2l115 2q41 0 49 -20t8 -87zM414 887q-50 0 -64 -48t-14 -157t15 -160t65 -51t61 37q10 37 10 115l-4 172q1 92 -69 92zM303 1475q20 0 31 -33q19 -60 96 -62q45 0 58 18t27 46q14 29 36 31h104q20 0 21 -37q0 -86 -65 -138t-187 -53q-122 1 -188 55q-64 54 -64 132
q0 41 29 41h102z" />
    <glyph glyph-name="Gdotaccent" unicode="&#x120;" horiz-adv-x="948" 
d="M602 563q0 33 -49 51q-35 14 -48 41t-13 124t18 126t47 35t76 6h119q78 0 106 -31t27 -114v-645q0 -45 -4 -72q-8 -57 -127 -90q-66 -18 -180 -18t-216 50q-211 104 -286 370q-39 134 -39 309q0 352 161 560t429 210q136 1 178 -23q43 -24 55 -54t12 -107t-10 -128
t-65 -51q-23 0 -56 11t-80 12q-141 -1 -209 -95t-67 -294q0 -200 36 -304q36 -106 122 -106q41 0 52 30t11 83v114zM401 1567q-29 0 -41 7t-12 32v127q0 23 14 29t46 7h139q29 0 41 -8t12 -32v-127q0 -23 -14 -29t-43 -6h-142z" />
    <glyph glyph-name="gdotaccent" unicode="&#x121;" horiz-adv-x="843" 
d="M768 1077v-887q0 -82 -11 -143t-71 -111q-126 -106 -309 -106q-184 0 -223 31q-25 18 -30 55t-5 98q0 109 63 109q12 0 28 -7t51 -23q36 -16 95 -15q60 0 92 28t31 97v21q0 11 -2 24q-72 -59 -155 -60q-123 0 -195 126t-72 366q0 514 281 514q75 0 143 -76v19q0 47 35 47
l82 -2l115 2q41 0 49 -20t8 -87zM414 887q-50 0 -64 -48t-14 -157t15 -160t65 -51t61 37q10 37 10 115l-4 172q1 92 -69 92zM350 1262q-29 0 -41 7t-12 31v127q0 23 14 30t45 7h140q29 0 41 -8t12 -33v-127q0 -22 -14 -28t-43 -6h-142z" />
    <glyph glyph-name="Gcommaaccent" unicode="&#x122;" horiz-adv-x="948" 
d="M602 563q0 33 -49 51q-35 14 -48 41t-13 124t18 126t47 35t76 6h119q78 0 106 -31t27 -114v-645q0 -45 -4 -72q-8 -57 -127 -90q-66 -18 -180 -18t-216 50q-211 104 -286 370q-39 134 -39 309q0 352 161 560t429 210q136 1 178 -23q43 -24 55 -54t12 -107t-10 -128
t-65 -51q-23 0 -56 11t-80 12q-141 -1 -209 -95t-67 -294q0 -200 36 -304q36 -106 122 -106q41 0 52 30t11 83v114zM358 -369q-35 0 -34 21q0 13 20 36q40 45 39 122q0 33 -10 49t-11 28q0 31 33 31h156q33 0 46 -15t13 -65q0 -94 -98 -174q-36 -31 -74 -33h-80z" />
    <glyph glyph-name="gcommaaccent" unicode="&#x123;" horiz-adv-x="843" 
d="M768 1077v-887q0 -82 -11 -143t-71 -111q-126 -106 -309 -106q-184 0 -223 31q-25 18 -30 55t-5 98q0 109 63 109q12 0 28 -7t51 -23q36 -16 95 -15q60 0 92 28t31 97v21q0 11 -2 24q-72 -59 -155 -60q-123 0 -195 126t-72 366q0 514 281 514q75 0 143 -76v19q0 47 35 47
l82 -2l115 2q41 0 49 -20t8 -87zM414 887q-50 0 -64 -48t-14 -157t15 -160t65 -51t61 37q10 37 10 115l-4 172q1 92 -69 92zM348 1251q-33 -1 -46 15t-13 65q0 94 98 174q37 31 74 31h80q35 0 34 -18q1 -14 -19 -37q-40 -47 -40 -121q0 -33 10 -50t11 -30q0 -29 -33 -29
h-156z" />
    <glyph glyph-name="Hcircumflex" unicode="&#x124;" horiz-adv-x="933" 
d="M631 0q-96 0 -94 119v180q0 59 9 109t9 90q0 70 -61 69q-66 1 -82 -31t-17 -96v-323q0 -75 -24 -96t-105 -21h-80q-66 0 -94 12t-29 80l5 242l-7 631l5 338v51q0 78 19 98q19 21 103 23h64q86 1 119 -17t32 -84v-14l-12 -324l-2 -41q0 -47 15 -73q16 -26 64 -25
q48 0 66 34q17 35 17 105t-5 111t-5 55l8 109l-4 80q0 57 32 70t103 14h96q53 1 75 -15t21 -63l-6 -205l2 -207l-4 -598l6 -272q0 -115 -94 -115h-145zM213 1556q-18 0 -18 19q0 6 4 10l145 172q16 23 51 23h150q33 0 51 -23l139 -172q4 -4 4 -10q0 -18 -18 -19h-135
q-32 0 -49 17l-54 57q-8 8 -14 8t-14 -8l-58 -57q-15 -15 -49 -17h-135z" />
    <glyph glyph-name="hcircumflex" unicode="&#x125;" horiz-adv-x="929" 
d="M287 0h-137q-47 0 -62 23q-14 23 -14 88v1128l-4 121q0 78 22 100t107 23h116q70 0 70 -41l-2 -21l6 -327l10 -2q78 102 207 102q130 0 186 -99t56 -300v-631q0 -86 -15 -125t-85 -39h-78q-86 0 -106 22q-21 22 -21 93v536q-1 105 -11 161t-63 56q-88 0 -88 -151v-443
l10 -184q0 -58 -18 -72q-17 -14 -37 -16t-49 -2zM211 1556q-18 0 -18 19q0 6 4 10l145 172q16 23 51 23h150q33 0 51 -23l139 -172q4 -4 4 -10q0 -18 -18 -19h-135q-32 0 -49 17l-54 57q-8 8 -14 8t-14 -8l-58 -57q-15 -15 -49 -17h-135z" />
    <glyph glyph-name="Hbar" unicode="&#x126;" horiz-adv-x="933" 
d="M468 795q91 1 84 121q-3 54 -9 81t-37 27h-62q-49 0 -53 -90l-2 -41q0 -47 15.5 -72.5t63.5 -25.5zM776 0h-145q-51 0 -72.5 29.5t-21.5 89.5v78q0 59 9 108t9 90q0 70 -61 70q-66 0 -82.5 -32t-16.5 -95v-221q0 -73 -24 -95t-105 -22h-80q-66 0 -94.5 12.5t-28.5 79.5
l5 242l-7 631l5 338v51q0 78 20 99.5t102 21.5h64q86 0 118.5 -17.5t32.5 -83.5v-14q0 -31 5.5 -62.5t35.5 -31.5h56q29 0 39 16t10 29l-4 80q0 57 31.5 70.5t103.5 13.5h96q53 0 74.5 -15.5t21.5 -62.5l-6 -205l2 -207l-4 -598l6 -272q0 -115 -94 -115z" />
    <glyph glyph-name="hbar" unicode="&#x127;" horiz-adv-x="929" 
d="M150 0q-47 0 -61.5 22.5t-14.5 88.5v1136h-37q-39 0 -47 8q-6 8 -6 27l2 74q0 28 47 28h13q13 0 24 -2q2 61 25.5 81t103.5 20h116q70 0 70 -41l-2 -21v-39h61q31 0 39 -8t9 -45v-57q0 -25 -29 -25h-78l4 -153l10 -2q78 102 207 102t185.5 -99.5t56.5 -299.5v-631
q0 -86 -15.5 -125t-84.5 -39h-78q-85 0 -106 21.5t-21 93.5v536q0 106 -10.5 161.5t-63.5 55.5q-88 0 -88 -151v-443l10 -184q0 -58 -21 -74t-83 -16h-137z" />
    <glyph glyph-name="Itilde" unicode="&#x128;" horiz-adv-x="464" 
d="M266 0h-71q-92 0 -109 18q-18 18 -22 56q-4 37 1 333q5 295 5 758l-4 217q0 64 23 78q23 15 95 15h95q76 1 95 -17t22 -51t3 -88v-123l-6 -850l4 -225q0 -81 -25 -101q-24 -20 -106 -20zM-49 1563q-18 0 -19 22q0 86 52 135t128 49q77 0 188 -53q24 -10 54 -10t44 32
q6 11 10 21t18 10h82q27 0 27 -36q1 -66 -51 -116t-127 -50t-191 53q-25 10 -56 10t-43 -34q-5 -13 -11 -23t-19 -10h-86z" />
    <glyph glyph-name="itilde" unicode="&#x129;" horiz-adv-x="468" 
d="M70 90v893l-2 92q0 61 24 77q25 15 86 15h39l84 2q49 0 69 -11t21 -50v-1012q0 -58 -11 -78t-65 -20l-88 4l-100 -4q-41 0 -49 22t-8 70zM-47 1257q-18 0 -19 23q0 86 52 135t128 49q77 0 188 -53q24 -10 54 -10t44 32q6 11 10 21t18 10h82q27 0 27 -37q1 -65 -51 -115
t-127 -50t-191 53q-25 10 -56 10t-43 -34q-5 -13 -11 -23t-19 -11h-86z" />
    <glyph glyph-name="Imacron" unicode="&#x12a;" horiz-adv-x="464" 
d="M266 0h-71q-92 0 -109 18q-18 18 -22 56q-4 37 1 333q5 295 5 758l-4 217q0 64 23 78q23 15 95 15h95q76 1 95 -17t22 -51t3 -88v-123l-6 -850l4 -225q0 -81 -25 -101q-24 -20 -106 -20zM20 1589q-26 0 -36 5t-11 28v100q1 18 13 24t41 5h422q25 0 37 -6t12 -27v-100
q0 -18 -14 -24t-40 -5h-424z" />
    <glyph glyph-name="imacron" unicode="&#x12b;" horiz-adv-x="468" 
d="M70 90v893l-2 92q0 61 24 77q25 15 86 15h39l84 2q49 0 69 -11t21 -50v-1012q0 -58 -11 -78t-65 -20l-88 4l-100 -4q-41 0 -49 22t-8 70zM23 1284q-25 0 -36 5t-12 28v100q1 17 13 23t41 6h422q25 0 37 -6t12 -27v-100q0 -17 -14 -23t-40 -6h-423z" />
    <glyph glyph-name="Iogonek" unicode="&#x12e;" horiz-adv-x="464" 
d="M262 -162q0 -41 13.5 -59.5t13.5 -22.5q0 -43 -39 -43h-156q-59 0 -59 103t123 184q-65 0 -81 26t-16 94t4.5 325t4.5 720l-4 217q0 64 23 78.5t95 14.5h95q74 0 100 -21q20 -20 20 -135v-123l-6 -850l4 -225q0 -96 -26.5 -106.5t-38.5 -14.5q-70 -76 -70 -162z" />
    <glyph glyph-name="iogonek" unicode="&#x12f;" horiz-adv-x="468" 
d="M371.5 1256.5q-21.5 -21.5 -97.5 -21.5h-55q-108 0 -125.5 19.5t-20.5 49.5t-3 88t14 80.5t72 22.5l84 -2l65 2q62 0 75 -22t13 -108q0 -87 -21.5 -108.5zM391 1108v-1012q0 -47 -6 -68.5t-33 -27.5q-68 -74 -67 -160q0 -41 13 -59.5t13 -22.5q0 -43 -39 -43h-155
q-59 0 -60 101q0 47 31 96t90 88l-51 -2q-41 0 -49 21.5t-8 70.5v893l-2 92q0 61 24.5 76.5t85.5 15.5h39l84 2q49 0 69.5 -11t20.5 -50z" />
    <glyph glyph-name="Idotaccent" unicode="&#x130;" horiz-adv-x="464" 
d="M266 0h-71q-92 0 -109 18q-18 18 -22 56q-4 37 1 333q5 295 5 758l-4 217q0 64 23 78q23 15 95 15h95q76 1 95 -17t22 -51t3 -88v-123l-6 -850l4 -225q0 -81 -25 -101q-24 -20 -106 -20zM160 1567q-29 0 -41 7t-13 32v127q0 23 14 29t46 7h139q29 0 41 -8t12 -32v-127
q0 -23 -14 -29t-43 -6h-141z" />
    <glyph glyph-name="dotlessi" unicode="&#x131;" horiz-adv-x="468" 
d="M70 90v893l-2 92q0 61 24.5 76.5t85.5 15.5h39l84 2q49 0 69.5 -11t20.5 -50v-1012q0 -59 -11 -78.5t-65 -19.5l-88 4l-100 -4q-41 0 -49 21.5t-8 70.5z" />
    <glyph glyph-name="Jcircumflex" unicode="&#x134;" horiz-adv-x="573" 
d="M395 1475q61 0 81 -22t22 -81l-4 -266l2 -320v-401q0 -225 -52 -312t-202 -87t-178 19t-31 48q-4 29 -4 78v27q0 94 8 129t42 39t51 7q16 3 24 24t8 212v166l-2 641q0 58 16 78t76 21h143zM53 1556q-18 0 -18 19q0 6 4 10l145 172q16 23 52 23h149q33 0 51 -23l139 -172
q4 -4 5 -10q0 -18 -19 -19h-135q-32 0 -49 17l-53 57q-8 8 -14 8t-15 -8l-57 -57q-15 -15 -50 -17h-135z" />
    <glyph glyph-name="jcircumflex" unicode="&#x135;" horiz-adv-x="501" 
d="M48 172q14 0 32 4t22 28t4 70v709l-2 94q0 59 25 75t86 17l41 -2l82 2q50 0 70 -11t20 -50v-983q0 -165 -58 -230t-186 -65t-154 27t-26 108l2 80l-2 68q0 59 44 59zM-4 1251q-18 0 -19 19q0 6 5 10l145 172q16 23 51 23h150q33 0 51 -23l139 -172q4 -4 4 -10
q0 -18 -18 -19h-135q-33 0 -50 17l-53 57q-8 8 -14 8t-14 -8l-58 -57q-17 -17 -49 -17h-135z" />
    <glyph glyph-name="Kcommaaccent" unicode="&#x136;" horiz-adv-x="890" 
d="M379 616v-501q0 -61 -14 -88t-78 -27h-97q-42 0 -66 2t-42 18t-19 117l3 570q0 559 -3 682q0 57 25 71t94 15h121q47 1 63 -19t17 -76v-14l-8 -399h31q111 445 123 477q13 31 71 31h188q46 -1 64 -7t18 -30t-10 -48t-22 -53l-174 -419q-17 -45 -17 -68t84 -288t122 -374
q38 -108 38 -148t-66 -40l-96 4l-76 -4q-75 0 -93 15t-36 96l-118 505h-27zM330 -369q-35 0 -35 21q-1 13 19 36q40 45 40 122q0 33 -10 49t-10 28q0 31 33 31h155q33 0 46 -15t14 -65q0 -94 -99 -174q-36 -31 -73 -33h-80z" />
    <glyph glyph-name="kcommaaccent" unicode="&#x137;" horiz-adv-x="894" 
d="M682 1174q86 0 122 -10t36 -72q0 -63 -178 -478l190 -520l8 -28t4 -35t-15 -26t-44 -5h-197q-41 0 -57 25t-33 77l-102 363h-35v-371q0 -56 -10 -76t-62 -20l-78 4l-90 -4q-41 0 -49 24t-8 78v1209l-2 88q0 63 23 81q24 17 85 17l41 -2l88 2q35 0 49 -12t15 -45l-2 -78
v-588h27q63 119 86 213q23 93 37 135t30 48t51 6h70zM332 -369q-35 0 -35 21q-1 13 19 36q40 45 40 122q0 33 -10 49t-10 28q0 31 33 31h155q33 0 46 -15t14 -65q0 -94 -99 -174q-36 -31 -73 -33h-80z" />
    <glyph glyph-name="Lacute" unicode="&#x139;" horiz-adv-x="702" 
d="M61 188v21l5 670q0 72 -3 456q1 78 11 109t57 31l92 -2l109 4q29 0 44 -12t15 -97l-2 -274q0 -644 7 -686q6 -42 24 -56t55 -14l80 6q57 0 75 -29t17 -96v-108q0 -113 -115 -113l-83 2h-256l-52 -4q-54 0 -67 40t-13 152zM135 1556q-20 0 -20 19q0 2 4 10l98 172
q12 23 57 23h234q23 0 22 -17q0 -8 -8 -14l-188 -176q-20 -15 -53 -17h-146z" />
    <glyph glyph-name="lacute" unicode="&#x13a;" horiz-adv-x="468" 
d="M78 115v1194l-2 88q0 63 23 81q24 17 87 17l41 -2l99 2q35 0 49 -14t14 -51v-1336q0 -56 -11 -76t-63 -20l-88 4l-90 -4q-43 0 -51 28t-8 89zM121 1556q-20 0 -21 19q0 2 4 10l99 172q12 23 57 23h234q23 0 22 -17q0 -8 -8 -14l-189 -176q-20 -15 -53 -17h-145z" />
    <glyph glyph-name="Lcommaaccent" unicode="&#x13b;" horiz-adv-x="702" 
d="M61 188v21l5 670q0 72 -3 456q1 78 11 109t57 31l92 -2l109 4q29 0 44 -12t15 -97l-2 -274q0 -644 7 -686q6 -42 24 -56t55 -14l80 6q57 0 75 -29t17 -96v-108q0 -113 -115 -113l-83 2h-256l-52 -4q-54 0 -67 40t-13 152zM236 -369q-35 0 -35 21q-1 13 19 36
q40 45 40 122q0 33 -10 49t-10 28q0 31 32 31h156q33 0 46 -15t13 -65q0 -94 -98 -174q-36 -31 -74 -33h-79z" />
    <glyph glyph-name="lcommaaccent" unicode="&#x13c;" horiz-adv-x="468" 
d="M78 115v1194l-2 88q0 63 23 81q24 17 87 17l41 -2l99 2q35 0 49 -14t14 -51v-1336q0 -56 -11 -76t-63 -20l-88 4l-90 -4q-43 0 -51 28t-8 89zM119 -369q-35 0 -35 21q0 13 20 36q40 45 39 122q0 33 -10 49t-10 28q0 31 33 31h155q33 0 46 -15t14 -65q0 -94 -99 -174
q-36 -31 -73 -33h-80z" />
    <glyph glyph-name="Lcaron" unicode="&#x13d;" horiz-adv-x="702" 
d="M61 188v21l5 670q0 72 -3 456q1 78 11 109t57 31l92 -2l109 4q29 0 44 -12t15 -97l-2 -274q0 -644 7 -686q6 -42 24 -56t55 -14l80 6q57 0 75 -29t17 -96v-108q0 -113 -115 -113l-83 2h-256l-52 -4q-54 0 -67 40t-13 152zM479 1186q-35 0 -35 18t17 33q43 50 43 127
q0 33 -10 49t-11 29q0 31 33 31h156q33 1 46 -15t13 -65q0 -94 -98 -174q-38 -33 -74 -33h-80z" />
    <glyph glyph-name="lcaron" unicode="&#x13e;" horiz-adv-x="612" 
d="M78 115v1194l-2 88q0 63 23 81q24 17 87 17l41 -2l99 2q35 0 49 -14t14 -51v-1336q0 -56 -11 -76t-63 -20l-88 4l-90 -4q-43 0 -51 28t-8 89zM467 1186q-35 0 -35 18t29 49q29 32 30 88t-10 72q-10 16 -10 29q0 31 33 31h155q33 1 47 -15t13 -65q0 -94 -98 -174
q-38 -33 -74 -33h-80z" />
    <glyph glyph-name="Ldot" unicode="&#x13f;" horiz-adv-x="702" 
d="M61 188v21l5 670q0 72 -3 456q1 78 11 109t57 31l92 -2l109 4q29 0 44 -12t15 -97l-2 -274q0 -644 7 -686q6 -42 24 -56t55 -14l80 6q57 0 75 -29t17 -96v-108q0 -113 -115 -113l-83 2h-256l-52 -4q-54 0 -67 40t-13 152zM483 578q-29 0 -41 7t-12 31v127q0 23 14 30
t45 7h140q29 0 41 -8t12 -33v-127q0 -22 -14 -28t-43 -6h-142z" />
    <glyph glyph-name="ldot" unicode="&#x140;" horiz-adv-x="669" 
d="M78 115v1194l-2 88q0 63 23 81q24 17 87 17l41 -2l99 2q35 0 49 -14t14 -51v-1336q0 -56 -11 -76t-63 -20l-88 4l-90 -4q-43 0 -51 28t-8 89zM481 578q-29 0 -41 7t-12 31v127q0 23 14 30t45 7h140q29 0 41 -8t12 -33v-127q0 -22 -14 -28t-43 -6h-142z" />
    <glyph glyph-name="Lslash" unicode="&#x141;" horiz-adv-x="729" 
d="M109 146q0 74 1 164.5t1 240.5l-62 -39q-10 -6 -14 -6q-16 0 -17 26v197q0 34 21 45l72 41q4 57 4 71v146l-6 311q0 72 12 102t57 30l92 -2l103 4q45 0 55 -25t10 -109l-2 -204v-44q0 -44 2 -79l97 57q6 4 16 4q20 0 20 -24v-193q0 -27 -22 -39l-111 -63v-242
q0 -96 13.5 -137t70.5 -41l80 6q57 0 74.5 -28.5t17.5 -96.5v-108q0 -113 -114 -113l-86 2h-254l-52 -4q-54 0 -66.5 38t-12.5 112z" />
    <glyph glyph-name="lslash" unicode="&#x142;" horiz-adv-x="512" 
d="M96 115v458l-76 -53q-2 -2 -11 -2t-9 27v196q0 25 16 33l80 47v488l-2 88q0 63 24.5 80.5t88.5 17.5l39 -2l66 1q67 1 82.5 -13.5t15.5 -50.5l-2 -70v-354l67 47q2 2 6 2q20 0 21 -19l2 -209q0 -15 -23 -30l-73 -39v-664q0 -57 -11.5 -76.5t-62.5 -19.5l-86 4l-92 -4
q-43 0 -51.5 27.5t-8.5 89.5z" />
    <glyph glyph-name="Nacute" unicode="&#x143;" 
d="M864 0h-166q-61 0 -79 18t-44 107l-165 571h-41v-571q0 -76 -17 -100q-17 -25 -82 -25h-104q-72 0 -86 25t-17 114v1184q1 76 15 114t82 38h186q37 1 52 -9q16 -10 26 -46t53 -196t135 -446h41l4 574q1 66 13 94t65 29h127q56 1 76 -15t20 -69l-2 -45v-580l-6 -207
l4 -387q0 -84 -12 -128t-78 -44zM377 1556q-20 0 -21 19q0 2 4 10l99 172q12 23 57 23h234q23 0 22 -17q0 -8 -8 -14l-189 -176q-20 -15 -53 -17h-145z" />
    <glyph glyph-name="nacute" unicode="&#x144;" horiz-adv-x="923" 
d="M287 0h-137q-47 0 -62 23q-14 23 -14 88v825l-4 121q0 79 22 101t107 22h116q45 0 59 -14t15 -58v-14l10 -2q78 102 207 102q130 0 186 -99t56 -300v-631q0 -86 -15 -125t-85 -39h-78q-86 0 -106 22q-21 22 -21 93v536q-1 105 -11 161t-63 56q-88 0 -88 -151v-443
l10 -184q0 -58 -18 -72q-17 -14 -37 -16t-49 -2zM328 1251q-20 0 -21 19q0 2 4 10l99 172q10 21 57 23h233q23 0 23 -17q0 -8 -8 -14l-189 -176q-23 -17 -53 -17h-145z" />
    <glyph glyph-name="Ncommaaccent" unicode="&#x145;" 
d="M864 0h-166q-61 0 -79 18t-44 107l-165 571h-41v-571q0 -76 -17 -100q-17 -25 -82 -25h-104q-72 0 -86 25t-17 114v1184q1 76 15 114t82 38h186q37 1 52 -9q16 -10 26 -46t53 -196t135 -446h41l4 574q1 66 13 94t65 29h127q56 1 76 -15t20 -69l-2 -45v-580l-6 -207
l4 -387q0 -84 -12 -128t-78 -44zM395 -369q-35 0 -35 21q0 12 20 35q40 46 40 123q0 33 -10 49t-11 28q0 31 33 31h156q33 0 46 -15t13 -65q0 -94 -98 -174q-36 -31 -74 -33h-80z" />
    <glyph glyph-name="ncommaaccent" unicode="&#x146;" horiz-adv-x="923" 
d="M287 0h-137q-47 0 -62 23q-14 23 -14 88v825l-4 121q0 79 22 101t107 22h116q45 0 59 -14t15 -58v-14l10 -2q78 102 207 102q130 0 186 -99t56 -300v-631q0 -86 -15 -125t-85 -39h-78q-86 0 -106 22q-21 22 -21 93v536q-1 105 -11 161t-63 56q-88 0 -88 -151v-443
l10 -184q0 -58 -18 -72q-17 -14 -37 -16t-49 -2zM346 -369q-35 0 -35 21q0 14 29 46t30 88q1 57 -10 73q-10 16 -10 28q0 31 33 31h156q33 0 46 -15t13 -65q0 -94 -98 -174q-36 -31 -74 -33h-80z" />
    <glyph glyph-name="Ncaron" unicode="&#x147;" 
d="M864 0h-166q-61 0 -79 18t-44 107l-165 571h-41v-571q0 -76 -17 -100q-17 -25 -82 -25h-104q-72 0 -86 25t-17 114v1184q1 76 15 114t82 38h186q37 1 52 -9q16 -10 26 -46t53 -196t135 -446h41l4 574q1 66 13 94t65 29h127q56 1 76 -15t20 -69l-2 -45v-580l-6 -207
l4 -387q0 -84 -12 -128t-78 -44zM438 1556q-33 0 -51 21l-145 172q-4 4 -4 10q0 20 18 21h135q33 0 49 -17l58 -59q6 -6 14 -6t14 6l54 59q16 16 49 17h135q18 0 18 -21q0 -6 -4 -10l-139 -172q-16 -20 -51 -21h-150z" />
    <glyph glyph-name="ncaron" unicode="&#x148;" horiz-adv-x="923" 
d="M287 0h-137q-47 0 -62 23q-14 23 -14 88v825l-4 121q0 79 22 101t107 22h116q45 0 59 -14t15 -58v-14l10 -2q78 102 207 102q130 0 186 -99t56 -300v-631q0 -86 -15 -125t-85 -39h-78q-86 0 -106 22q-21 22 -21 93v536q-1 105 -11 161t-63 56q-88 0 -88 -151v-443
l10 -184q0 -58 -18 -72q-17 -14 -37 -16t-49 -2zM389 1251q-33 0 -51 21l-145 172q-4 4 -5 10q0 20 19 21h135q33 0 49 -17l58 -59q6 -6 14 -6t14 6l53 59q16 16 50 17h135q18 0 18 -21q0 -6 -4 -10l-139 -172q-16 -20 -51 -21h-150z" />
    <glyph glyph-name="Omacron" unicode="&#x14c;" horiz-adv-x="1034" 
d="M616 995q0 158 -106 158q-54 0 -74 -54t-20 -165v-408q0 -104 17 -150t65 -46t72 18q22 18 34 65t12 236v346zM276 19q-225 118 -225 620q0 316 14 436q14 119 66 219q110 207 414 207q231 0 333 -139t103 -438v-66q0 -223 -7 -379q-7 -157 -51 -265t-156 -174
q-111 -66 -259 -65q-148 0 -232 44zM303 1589q-25 0 -36 5t-11 28v100q0 18 12 24t41 5h422q25 0 37 -6t12 -27v-100q0 -18 -13 -24t-40 -5h-424z" />
    <glyph glyph-name="omacron" unicode="&#x14d;" horiz-adv-x="847" 
d="M498 743q0 70 -14 102t-66 32q-66 0 -66 -99v-385q0 -94 68 -94q43 0 60 25t18 79v340zM57 599q1 161 11 273t57 177q55 81 128 113t177 32q204 0 281 -128q78 -128 80 -417q-1 -176 -7 -294q-13 -241 -168 -328q-80 -45 -194 -45t-183 36q-135 72 -167 304
q-16 116 -15 277zM213 1284q-25 0 -36 5t-11 28v100q0 17 12 23t41 6h422q25 0 37 -6t12 -27v-100q0 -17 -13 -23t-40 -6h-424z" />
    <glyph glyph-name="Obreve" unicode="&#x14e;" horiz-adv-x="1034" 
d="M616 995q0 158 -106 158q-54 0 -74 -54t-20 -165v-408q0 -104 17 -150t65 -46t72 18q22 18 34 65t12 236v346zM276 19q-225 118 -225 620q0 316 14 436q14 119 66 219q110 207 414 207q231 0 333 -139t103 -438v-66q0 -223 -7 -379q-7 -157 -51 -265t-156 -174
q-111 -66 -259 -65q-148 0 -232 44zM395 1780q21 0 31 -33q19 -61 96 -61q45 0 59 17q13 17 27 47t35 30h105q20 0 20 -37q0 -86 -65 -138q-65 -53 -187 -53t-188 54q-64 54 -64 133q0 41 29 41h102z" />
    <glyph glyph-name="obreve" unicode="&#x14f;" horiz-adv-x="847" 
d="M498 743q0 70 -14 102t-66 32q-66 0 -66 -99v-385q0 -94 68 -94q43 0 60 25t18 79v340zM57 599q1 161 11 273t57 177q55 81 128 113t177 32q204 0 281 -128q78 -128 80 -417q-1 -176 -7 -294q-13 -241 -168 -328q-80 -45 -194 -45t-183 36q-135 72 -167 304
q-16 116 -15 277zM305 1475q20 0 31 -33q19 -60 96 -62q45 0 58 18t27 46q14 29 36 31h104q20 0 21 -37q0 -86 -65 -138t-187 -53q-122 1 -188 55q-64 54 -64 132q0 41 29 41h102z" />
    <glyph glyph-name="Ohungarumlaut" unicode="&#x150;" horiz-adv-x="1034" 
d="M616 995q0 158 -106 158q-54 0 -74 -54t-20 -165v-408q0 -104 17 -150t65 -46t72 18q22 18 34 65t12 236v346zM276 19q-225 118 -225 620q0 316 14 436q14 119 66 219q110 207 414 207q231 0 333 -139t103 -438v-66q0 -223 -7 -379q-7 -157 -51 -265t-156 -174
q-111 -66 -259 -65q-148 0 -232 44zM606 1556q-16 0 -16 17q0 8 2 12l84 172q10 23 47 23h192q20 0 21 -17q0 -2 -8 -14l-158 -176q-15 -15 -43 -17h-121zM252 1556q-16 0 -16 17q0 8 2 12l81 172q10 23 50 23h192q18 0 19 -17q0 -6 -7 -14l-157 -176q-15 -15 -43 -17h-121z
" />
    <glyph glyph-name="ohungarumlaut" unicode="&#x151;" horiz-adv-x="847" 
d="M498 743q0 70 -14 102t-66 32q-66 0 -66 -99v-385q0 -94 68 -94q43 0 60 25t18 79v340zM57 599q1 161 11 273t57 177q55 81 128 113t177 32q204 0 281 -128q78 -128 80 -417q-1 -176 -7 -294q-13 -241 -168 -328q-80 -45 -194 -45t-183 36q-135 72 -167 304
q-16 116 -15 277zM516 1251q-16 0 -16 17q0 8 2 12l84 172q10 23 47 23h192q20 0 21 -17q0 -2 -8 -14l-158 -176q-17 -17 -43 -17h-121zM162 1251q-16 1 -16 13t1 16l82 172q10 23 50 23h192q18 0 18 -17q0 -6 -6 -14l-157 -176q-17 -17 -43 -17h-121z" />
    <glyph glyph-name="OE" unicode="&#x152;" horiz-adv-x="1290" 
d="M547 1012q0 84 -17.5 125t-61.5 41t-55.5 -39t-11.5 -117v-545q0 -86 12.5 -123t59.5 -37t60.5 28t13.5 89v578zM1186 354q35 0 48 -27.5t13 -80.5v-160q0 -55 -31.5 -70.5t-107.5 -15.5h-389l-43 2q-47 0 -104.5 -13.5t-131.5 -13.5q-383 0 -383 474v555q0 135 18.5 228
t90.5 154q123 106 299 107l235 -14l78 2h344q47 0 65.5 -19.5t18.5 -77.5v-131q0 -63 -26.5 -82.5t-96.5 -19.5h-155q-41 0 -47.5 -27.5t-6.5 -83.5t9.5 -78t44.5 -22h10l164 12h18q47 0 66.5 -23.5t19.5 -78.5v-143q0 -90 -82 -91l-151 5q-41 0 -60.5 -15.5t-19.5 -38.5
v-137q0 -43 17.5 -60.5t56.5 -17.5l59 2h160z" />
    <glyph glyph-name="oe" unicode="&#x153;" horiz-adv-x="1265" 
d="M932 794q0 128 -80 128q-45 0 -60.5 -28t-15.5 -84t7.5 -78.5t35.5 -22.5h64q35 0 42 14.5t7 70.5zM430 1194q133 0 221 -55q88 53 205 53q207 0 309 -178q35 -63 43.5 -157.5t8.5 -200.5t-12.5 -146.5t-63.5 -40.5h-330q-10 0 -21.5 -8t-11.5 -19q0 -78 42 -113.5
t116 -35.5t126 26.5t66 26.5q72 0 72 -76v-157q0 -51 -24 -70t-97 -39t-170 -20q-147 0 -247 69q-92 -71 -223 -71q-132 0 -200.5 36.5t-125 141t-56.5 423.5t37 406q86 205 336 205zM498 743q0 70 -13.5 102t-66.5 32q-66 0 -66 -99v-385q0 -94 68 -94q43 0 60.5 24.5
t17.5 79.5v340z" />
    <glyph glyph-name="Racute" unicode="&#x154;" horiz-adv-x="1052" 
d="M397 1059l4 -146q1 -106 11 -128q18 -40 79 -41q62 -1 93 37q30 38 30 106q-1 163 -18 213q-24 69 -107 69q-92 0 -92 -110zM406 84q0 -84 -68 -84h-182q-57 0 -69 30q-11 30 -11 103v1217q0 70 18 100t94 29l160 -4l225 6q201 0 287 -115t86 -393q0 -188 -31 -299
t-122 -158l186 -426q10 -25 10 -37q0 -57 -71 -57l-46 4h-174q-48 0 -63 24t-35 85l-158 407h-36v-432zM373 1556q-20 0 -21 19q0 2 4 10l99 172q12 23 57 23h233q23 0 23 -17q0 -8 -8 -14l-189 -176q-20 -15 -53 -17h-145z" />
    <glyph glyph-name="racute" unicode="&#x155;" horiz-adv-x="587" 
d="M375 1055q47 145 115 145q32 0 44 -29t13 -88v-219q0 -56 -10 -68t-57 -19t-71 -36t-24 -94v-375l8 -172q0 -68 -15 -84t-67 -16h-164q-47 0 -61 22t-14 87v827l-4 119q0 78 22 100t105 23h100q46 0 55 -21q10 -21 10 -100zM160 1251q-20 0 -21 19q0 2 4 10l99 172
q10 21 57 23h233q23 0 23 -17q0 -8 -8 -14l-189 -176q-23 -17 -53 -17h-145z" />
    <glyph glyph-name="Rcommaaccent" unicode="&#x156;" horiz-adv-x="1052" 
d="M397 1059l4 -146q1 -106 11 -128q18 -40 79 -41q62 -1 93 37q30 38 30 106q-1 163 -18 213q-24 69 -107 69q-92 0 -92 -110zM406 84q0 -84 -68 -84h-182q-57 0 -69 30q-11 30 -11 103v1217q0 70 18 100t94 29l160 -4l225 6q201 0 287 -115t86 -393q0 -188 -31 -299
t-122 -158l186 -426q10 -25 10 -37q0 -57 -71 -57l-46 4h-174q-48 0 -63 24t-35 85l-158 407h-36v-432zM410 -369q-35 0 -35 21q-1 13 19 36q40 45 40 122q0 33 -10 49t-10 28q0 31 32 31h156q33 0 46 -15t14 -65q0 -94 -99 -174q-36 -31 -74 -33h-79z" />
    <glyph glyph-name="rcommaaccent" unicode="&#x157;" horiz-adv-x="587" 
d="M375 1055q47 145 115 145q32 0 44 -29t13 -88v-219q0 -56 -10 -68t-57 -19t-71 -36t-24 -94v-375l8 -172q0 -68 -15 -84t-67 -16h-164q-47 0 -61 22t-14 87v827l-4 119q0 78 22 100t105 23h100q46 0 55 -21q10 -21 10 -100zM158 -369q-35 0 -35 21q-1 13 19 36
q40 45 40 122q0 33 -10 49t-10 28q0 31 33 31h155q33 0 46 -15t14 -65q0 -94 -99 -174q-36 -31 -73 -33h-80z" />
    <glyph glyph-name="Rcaron" unicode="&#x158;" horiz-adv-x="1052" 
d="M397 1059l4 -146q1 -106 11 -128q18 -40 79 -41q62 -1 93 37q30 38 30 106q-1 163 -18 213q-24 69 -107 69q-92 0 -92 -110zM406 84q0 -84 -68 -84h-182q-57 0 -69 30q-11 30 -11 103v1217q0 70 18 100t94 29l160 -4l225 6q201 0 287 -115t86 -393q0 -188 -31 -299
t-122 -158l186 -426q10 -25 10 -37q0 -57 -71 -57l-46 4h-174q-48 0 -63 24t-35 85l-158 407h-36v-432zM434 1556q-33 0 -51 21l-145 172q-4 4 -5 10q0 20 19 21h135q33 0 49 -17l58 -59q6 -6 14 -6t14 6l53 59q16 16 50 17h135q18 0 18 -21q0 -6 -4 -10l-139 -172
q-16 -20 -51 -21h-150z" />
    <glyph glyph-name="rcaron" unicode="&#x159;" horiz-adv-x="587" 
d="M375 1055q47 145 115 145q32 0 44 -29t13 -88v-219q0 -56 -10 -68t-57 -19t-71 -36t-24 -94v-375l8 -172q0 -68 -15 -84t-67 -16h-164q-47 0 -61 22t-14 87v827l-4 119q0 78 22 100t105 23h100q46 0 55 -21q10 -21 10 -100zM221 1251q-33 0 -51 21l-145 172q-4 4 -5 10
q0 20 19 21h135q33 0 49 -17l58 -59q6 -6 14 -6t14 6l53 59q16 16 50 17h135q18 0 18 -21q0 -6 -4 -10l-139 -172q-16 -20 -51 -21h-150z" />
    <glyph glyph-name="Sacute" unicode="&#x15a;" horiz-adv-x="886" 
d="M66 283q0 104 73 104q33 0 48 -8q15 -7 53 -25t100 -18q104 0 104 90q0 61 -61 120q-29 28 -66 58q-156 129 -203 235q-46 105 -46 224q0 416 460 416q150 1 176 -17t31 -45q4 -27 4 -69v-150q0 -60 -12 -80t-55 -20t-79 13t-75 13q-94 0 -94 -82q0 -53 68 -115
q32 -32 76 -72q44 -41 111 -107q128 -127 128 -341q-1 -214 -105 -323t-331 -109q-180 0 -265 41q-30 14 -34 34t-4 54v15l-2 155v9zM309 1556q-20 0 -20 19q0 2 4 10l98 172q12 23 58 23h233q23 0 23 -17q0 -8 -9 -14l-188 -176q-20 -15 -53 -17h-146z" />
    <glyph glyph-name="sacute" unicode="&#x15b;" horiz-adv-x="681" 
d="M371 828q0 -32 40 -72q41 -40 103 -108q124 -136 123 -305q0 -169 -94 -266t-294 -97t-200 81v15l-4 133v31q0 42 9 66q10 24 36 24t56 -12t76 -11t70 17t24 61t-37 77t-99 90q-134 125 -133 290q0 166 93 263q91 91 228 91t169 -12q31 -12 42 -32t11 -58l2 -119
q0 -86 -66 -86l-82 10q-35 0 -54 -19q-19 -20 -19 -52zM207 1251q-20 0 -21 19q0 2 4 10l99 172q10 21 57 23h234q23 0 22 -17q0 -8 -8 -14l-188 -176q-23 -17 -54 -17h-145z" />
    <glyph glyph-name="Scircumflex" unicode="&#x15c;" horiz-adv-x="886" 
d="M66 283q0 104 73 104q33 0 48 -8q15 -7 53 -25t100 -18q104 0 104 90q0 61 -61 120q-29 28 -66 58q-156 129 -203 235q-46 105 -46 224q0 416 460 416q150 1 176 -17t31 -45q4 -27 4 -69v-150q0 -60 -12 -80t-55 -20t-79 13t-75 13q-94 0 -94 -82q0 -53 68 -115
q32 -32 76 -72q44 -41 111 -107q128 -127 128 -341q-1 -214 -105 -323t-331 -109q-180 0 -265 41q-30 14 -34 34t-4 54v15l-2 155v9zM188 1556q-18 0 -18 19q0 6 4 10l145 172q16 23 52 23h149q33 0 51 -23l140 -172q4 -4 4 -10q0 -18 -19 -19h-135q-32 0 -49 17l-53 57
q-9 8 -15 8t-14 -8l-57 -57q-15 -15 -49 -17h-136z" />
    <glyph glyph-name="scircumflex" unicode="&#x15d;" horiz-adv-x="681" 
d="M371 828q0 -32 40 -72q41 -40 103 -108q124 -136 123 -305q0 -169 -94 -266t-294 -97t-200 81v15l-4 133v31q0 42 9 66q10 24 36 24t56 -12t76 -11t70 17t24 61t-37 77t-99 90q-134 125 -133 290q0 166 93 263q91 91 228 91t169 -12q31 -12 42 -32t11 -58l2 -119
q0 -86 -66 -86l-82 10q-35 0 -54 -19q-19 -20 -19 -52zM86 1251q-18 0 -18 19q0 6 4 10l145 172q16 23 51 23h150q33 0 51 -23l139 -172q4 -4 4 -10q0 -18 -18 -19h-135q-34 0 -49 17l-54 57q-8 8 -14 8t-14 -8l-58 -57q-17 -17 -49 -17h-135z" />
    <glyph glyph-name="Scedilla" unicode="&#x15e;" horiz-adv-x="886" 
d="M66 283q0 104 73 104q33 0 48.5 -8t53.5 -25.5t99 -17.5q104 0 104 90q0 62 -45 104.5t-143 126t-143 185.5t-45 221q0 416 460 416q148 0 175.5 -17.5t31.5 -44t4 -69.5v-150q0 -61 -12 -80.5t-55 -19.5t-79 13t-75 13q-94 0 -94 -82q0 -50 50 -98.5t94 -89t111 -106.5
q128 -127 128 -324t-75 -303.5t-234 -134.5v-17q0 -27 19.5 -32t42 -6t68.5 -5t81.5 -43t35.5 -94q0 -86 -73.5 -122t-184.5 -36q-186 0 -238 18t-52 68t32 50q25 0 80.5 -14.5t137.5 -14.5t81 45q0 49 -67 49h-12q-35 0 -51.5 6t-16.5 41l2 96h-12q-183 0 -238 28t-60 48.5
t-5 52.5v15l-2 155v9z" />
    <glyph glyph-name="scedilla" unicode="&#x15f;" horiz-adv-x="681" 
d="M371 828q0 -32 40.5 -71.5t102.5 -108.5q124 -136 123 -288q0 -297 -240 -364v-27q0 -26 19.5 -31.5t42 -6.5t68.5 -5t82 -43t36 -94q0 -86 -73.5 -122t-184.5 -36q-187 0 -239 18t-52 68t33 50q25 0 80 -14.5t137 -14.5t82 47t-68 47h-12q-35 0 -51 6t-16 41l2 101h-13
q-221 0 -221 81v15l-4 133v31q0 43 9.5 66.5t35.5 23.5t56 -11.5t76 -11.5t69.5 16.5t23.5 61.5t-36.5 77t-98.5 90q-134 125 -133 292q0 168 92 260t230 92t168 -12.5t41.5 -33t11.5 -56.5l2 -119q0 -86 -66 -86l-82 10q-35 0 -54 -19.5t-19 -51.5z" />
    <glyph glyph-name="Scaron" unicode="&#x160;" horiz-adv-x="886" 
d="M66 283q0 104 73 104q33 0 48 -8q15 -7 53 -25t100 -18q104 0 104 90q0 61 -61 120q-29 28 -66 58q-156 129 -203 235q-46 105 -46 224q0 416 460 416q150 1 176 -17t31 -45q4 -27 4 -69v-150q0 -60 -12 -80t-55 -20t-79 13t-75 13q-94 0 -94 -82q0 -53 68 -115
q32 -32 76 -72q44 -41 111 -107q128 -127 128 -341q-1 -214 -105 -323t-331 -109q-180 0 -265 41q-30 14 -34 34t-4 54v15l-2 155v9zM371 1556q-33 0 -52 21l-145 172q-4 4 -4 10q0 20 18 21h136q33 0 49 -17l57 -59q6 -6 14 -6t15 6l53 59q16 16 49 17h135q18 0 19 -21
q0 -6 -4 -10l-140 -172q-16 -20 -51 -21h-149z" />
    <glyph glyph-name="scaron" unicode="&#x161;" horiz-adv-x="681" 
d="M371 828q0 -32 40 -72q41 -40 103 -108q124 -136 123 -305q0 -169 -94 -266t-294 -97t-200 81v15l-4 133v31q0 42 9 66q10 24 36 24t56 -12t76 -11t70 17t24 61t-37 77t-99 90q-134 125 -133 290q0 166 93 263q91 91 228 91t169 -12q31 -12 42 -32t11 -58l2 -119
q0 -86 -66 -86l-82 10q-35 0 -54 -19q-19 -20 -19 -52zM268 1251q-33 0 -51 21l-145 172q-4 4 -4 10q0 20 18 21h135q33 0 49 -17l58 -59q6 -6 14 -6t14 6l54 59q16 16 49 17h135q18 0 18 -21q0 -6 -4 -10l-139 -172q-16 -20 -51 -21h-150z" />
    <glyph glyph-name="Tcommaaccent" unicode="&#x162;" horiz-adv-x="806" 
d="M6 1363q0 106 96 105q227 0 297 5l156 -7l111 4q57 0 74 -17t18 -83v-24q0 -106 -9 -158t-63 -53h-68q-41 1 -55 -11t-14 -39v-34l2 -830l6 -135q0 -46 -16 -66t-58 -20l-49 2l-129 -6q-51 0 -72 19q-20 19 -20 63l4 108v531l-4 104l6 269q0 35 -16 38q-41 10 -82 6
t-73 10q-32 13 -37 63t-5 156zM289 -369q-35 0 -35 21q0 13 20 36q40 45 39 122q0 33 -10 49t-10 28q0 31 33 31h155q33 0 46 -15t14 -65q0 -94 -99 -174q-36 -31 -73 -33h-80z" />
    <glyph glyph-name="tcommaaccent" unicode="&#x163;" horiz-adv-x="583" 
d="M434 1309v-193h15q57 0 75 -17t19 -69v-121q0 -60 -18 -75t-91 -15v-444q0 -47 39 -47t50 -12t12 -68v-160q1 -54 -19 -72t-67 -18h-82q-72 0 -120 6t-80 37t-39 92t-7 158v530h-12q-65 0 -82 23t-17 115q0 91 12 114q23 41 93 41h6v172q0 84 15 103q15 20 83 20h33
l115 2q47 0 57 -25t10 -77zM176 -369q-35 0 -35 21q0 14 29 46t30 88q1 57 -10 73q-10 16 -10 28q0 31 33 31h156q33 0 46 -15t13 -65q0 -94 -98 -174q-36 -31 -74 -33h-80z" />
    <glyph glyph-name="Tcaron" unicode="&#x164;" horiz-adv-x="806" 
d="M6 1363q0 106 96 105q227 0 297 5l156 -7l111 4q57 0 74 -17t18 -83v-24q0 -106 -9 -158t-63 -53h-68q-41 1 -55 -11t-14 -39v-34l2 -830l6 -135q0 -46 -16 -66t-58 -20l-49 2l-129 -6q-51 0 -72 19q-20 19 -20 63l4 108v531l-4 104l6 269q0 35 -16 38q-41 10 -82 6
t-73 10q-32 13 -37 63t-5 156zM332 1556q-33 0 -51 21l-146 172q-4 4 -4 10q0 20 19 21h135q33 0 49 -17l57 -59q7 -6 15 -6t14 6l53 59q16 16 49 17h135q18 0 19 -21q0 -6 -4 -10l-140 -172q-16 -20 -51 -21h-149z" />
    <glyph glyph-name="tcaron" unicode="&#x165;" horiz-adv-x="657" 
d="M434 1309v-193h15q57 0 75 -17t19 -69v-121q0 -60 -18 -75t-91 -15v-444q0 -47 39 -47t50 -12t12 -68v-160q1 -54 -19 -72t-67 -18h-82q-72 0 -120 6t-80 37t-39 92t-7 158v530h-12q-65 0 -82 23t-17 115q0 91 12 114q23 41 93 41h6v172q0 84 15 103q15 20 83 20h33
l115 2q47 0 57 -25t10 -77zM512 1186q-35 0 -35 18t29 49q29 32 30 88t-10 72q-10 16 -10 29q0 31 33 31h156q33 1 46 -15t13 -65q0 -94 -98 -174q-38 -33 -74 -33h-80z" />
    <glyph glyph-name="Tbar" unicode="&#x166;" horiz-adv-x="806" 
d="M84 682v176q0 20 16.5 26.5t51.5 6.5h63q4 70 4 199q0 35 -16 38q-41 10 -82 6t-73 10t-37 63.5t-5 155.5t96 105l297 5l156 -7l111 4q57 0 74.5 -17t17.5 -83v-24q0 -106 -9.5 -158.5t-62.5 -52.5h-68q-41 0 -55 -11.5t-14 -38.5v-194h59q72 0 72 -33v-176
q0 -35 -66 -35h-16q-16 0 -49 2l2 -428l6 -135q0 -47 -16.5 -66.5t-57.5 -19.5l-49 2l-129 -6q-51 0 -71.5 19.5t-20.5 62.5l4 108v463l-67 -2q-66 0 -66 35z" />
    <glyph glyph-name="tbar" unicode="&#x167;" horiz-adv-x="583" 
d="M522 705q8 0 5 -32.5t-3 -62.5t-10 -35.5t-24.5 -7.5t-30 0t-25.5 2v-194q0 -47 39 -47t50.5 -11.5t11.5 -68.5v-160q0 -53 -19.5 -71.5t-66.5 -18.5h-82q-72 0 -120 6t-80 37q-58 56 -46 250v278q-47 -2 -76 -2t-28 35t1 78q0 25 29 25h74v116h-12q-64 0 -81.5 22.5
t-17.5 83.5q0 122 17.5 154.5t87.5 32.5h6v172q0 83 15 103t83 20h33l115 2q47 0 57 -24.5t10 -77.5v-193h15q57 0 75.5 -17.5t18.5 -68.5v-121q0 -60 -17 -75t-92 -15v-114h88z" />
    <glyph glyph-name="Utilde" unicode="&#x168;" horiz-adv-x="1009" 
d="M610 1358q0 68 20 92t79 25h159q42 0 58 -27t16 -80v-893q0 -260 -113 -380t-355 -120t-341 142q-53 72 -64 174t-12 248v790q-1 74 11 110t67 36h168q63 0 75 -27t13 -86v-899q0 -141 110 -141t109 112v924zM223 1563q-18 0 -18 22q0 86 51 135t128 49t188 -53
q24 -10 54 -10t45 32q5 11 9 21t18 10h82q27 0 27 -36q0 -66 -51 -116t-127 -50t-191 53q-25 10 -56 10t-43 -34q-5 -13 -10 -23t-20 -10h-86z" />
    <glyph glyph-name="utilde" unicode="&#x169;" horiz-adv-x="923" 
d="M598 -4q-45 0 -59 13t-15 59v14l-10 2q-76 -100 -206 -100t-186 99t-56 298v631q0 96 12 120q20 42 88 44h78q82 0 105 -21q22 -21 22 -92v-539q0 -106 10 -162t63 -55q88 0 88 152v442l-10 184q0 63 24 77t81 14h137q47 0 61 -22t15 -87v-827l4 -121q0 -80 -23 -101
q-23 -22 -106 -22h-117zM180 1257q-18 0 -18 23q0 86 51 135t128 49t188 -53q23 -10 53 -10t46 32q5 11 9 21t18 10h82q27 0 27 -37q0 -65 -51 -115t-127 -50t-191 53q-25 10 -56 10t-43 -34q-5 -13 -10 -23t-20 -11h-86z" />
    <glyph glyph-name="Umacron" unicode="&#x16a;" horiz-adv-x="1009" 
d="M610 1358q0 68 20 92t79 25h159q42 0 58 -27t16 -80v-893q0 -260 -113 -380t-355 -120t-341 142q-53 72 -64 174t-12 248v790q-1 74 11 110t67 36h168q63 0 75 -27t13 -86v-899q0 -141 110 -141t109 112v924zM293 1589q-25 0 -36 5t-11 28v100q0 18 12 24t41 5h422
q25 0 37 -6t12 -27v-100q0 -18 -13 -24t-40 -5h-424z" />
    <glyph glyph-name="umacron" unicode="&#x16b;" horiz-adv-x="923" 
d="M598 -4q-45 0 -59 13t-15 59v14l-10 2q-76 -100 -206 -100t-186 99t-56 298v631q0 96 12 120q20 42 88 44h78q82 0 105 -21q22 -21 22 -92v-539q0 -106 10 -162t63 -55q88 0 88 152v442l-10 184q0 63 24 77t81 14h137q47 0 61 -22t15 -87v-827l4 -121q0 -80 -23 -101
q-23 -22 -106 -22h-117zM250 1284q-25 0 -36 5t-11 28v100q0 17 12 23t41 6h422q25 0 37 -6t12 -27v-100q0 -17 -13 -23t-40 -6h-424z" />
    <glyph glyph-name="Ubreve" unicode="&#x16c;" horiz-adv-x="1009" 
d="M610 1358q0 68 20 92t79 25h159q42 0 58 -27t16 -80v-893q0 -260 -113 -380t-355 -120t-341 142q-53 72 -64 174t-12 248v790q-1 74 11 110t67 36h168q63 0 75 -27t13 -86v-899q0 -141 110 -141t109 112v924zM385 1780q19 0 30 -33q21 -61 97 -61q45 0 58 17t28 47t35 30
h104q20 0 21 -37q0 -86 -65 -138q-65 -53 -187 -53t-188 54q-65 54 -64 133q0 41 29 41h102z" />
    <glyph glyph-name="ubreve" unicode="&#x16d;" horiz-adv-x="923" 
d="M598 -4q-45 0 -59 13t-15 59v14l-10 2q-76 -100 -206 -100t-186 99t-56 298v631q0 96 12 120q20 42 88 44h78q82 0 105 -21q22 -21 22 -92v-539q0 -106 10 -162t63 -55q88 0 88 152v442l-10 184q0 63 24 77t81 14h137q47 0 61 -22t15 -87v-827l4 -121q0 -80 -23 -101
q-23 -22 -106 -22h-117zM342 1475q18 0 29 -33q21 -60 98 -62q45 0 58 18t27 46q14 29 36 31h104q20 0 21 -37q0 -86 -65 -138q-66 -52 -188 -53q-122 1 -187 55t-64 132q0 41 29 41h102z" />
    <glyph glyph-name="Uring" unicode="&#x16e;" horiz-adv-x="1009" 
d="M610 1358q0 68 20 92t79 25h159q42 0 58 -27t16 -80v-893q0 -260 -113 -380t-355 -120t-341 142q-53 72 -64 174t-12 248v790q-1 74 11 110t67 36h168q63 0 75 -27t13 -86v-899q0 -141 110 -141t109 112v924zM424 1772q0 -35 24 -59q24 -23 58 -23t58 24t24 56
q0 34 -24 58t-58 24t-58 -23q-24 -22 -24 -57zM291 1772q0 91 62 151t153 61t152 -61t62 -150t-60 -151q-61 -64 -153 -65q-91 -1 -153 61t-63 154z" />
    <glyph glyph-name="uring" unicode="&#x16f;" horiz-adv-x="923" 
d="M598 -4q-45 0 -59 13t-15 59v14l-10 2q-76 -100 -206 -100t-186 99t-56 298v631q0 96 12 120q20 42 88 44h78q82 0 105 -21q22 -21 22 -92v-539q0 -106 10 -162t63 -55q88 0 88 152v442l-10 184q0 63 24 77t81 14h137q47 0 61 -22t15 -87v-827l4 -121q0 -80 -23 -101
q-23 -22 -106 -22h-117zM381 1466q-1 -34 23 -58t59 -24t59 24t23 58q0 34 -24 57q-25 23 -59 23t-58 -22q-23 -23 -23 -58zM311 1619q63 60 153 60q91 1 152 -61q60 -62 61 -151t-60 -151t-153 -64q-92 0 -154 62t-62 153q0 92 63 152z" />
    <glyph glyph-name="Uhungarumlaut" unicode="&#x170;" horiz-adv-x="1009" 
d="M610 1358q0 68 20 92t79 25h159q42 0 58 -27t16 -80v-893q0 -260 -113 -380t-355 -120t-341 142q-53 72 -64 174t-12 248v790q-1 74 11 110t67 36h168q63 0 75 -27t13 -86v-899q0 -141 110 -141t109 112v924zM596 1556q-16 0 -16 17q0 8 2 12l84 172q10 23 47 23h192
q20 0 21 -17q0 -2 -8 -14l-158 -176q-15 -15 -43 -17h-121zM242 1556q-16 0 -16 12t1 17l82 172q10 23 49 23h193q18 0 18 -17q0 -6 -6 -14l-157 -176q-15 -15 -44 -17h-120z" />
    <glyph glyph-name="uhungarumlaut" unicode="&#x171;" horiz-adv-x="923" 
d="M598 -4q-45 0 -59 13t-15 59v14l-10 2q-76 -100 -206 -100t-186 99t-56 298v631q0 96 12 120q20 42 88 44h78q82 0 105 -21q22 -21 22 -92v-539q0 -106 10 -162t63 -55q88 0 88 152v442l-10 184q0 63 24 77t81 14h137q47 0 61 -22t15 -87v-827l4 -121q0 -80 -23 -101
q-23 -22 -106 -22h-117zM553 1251q-16 0 -16 17q0 8 2 12l84 172q10 23 47 23h192q20 0 21 -17q0 -2 -9 -14l-157 -176q-17 -17 -43 -17h-121zM199 1251q-17 1 -17 13t2 16l82 172q10 23 49 23h193q18 0 18 -17q0 -6 -6 -14l-158 -176q-17 -17 -43 -17h-120z" />
    <glyph glyph-name="Uogonek" unicode="&#x172;" horiz-adv-x="1009" 
d="M428 -287q-59 1 -59 95t88 167q-225 4 -324 142q-53 72 -64.5 174t-11.5 248v790q0 74 11.5 110t66.5 36h168q63 0 75.5 -27t12.5 -86v-899q0 -141 110 -141t109 112v924q0 68 20.5 92.5t78.5 24.5h159q41 0 57.5 -27t16.5 -80v-893q0 -203 -66.5 -318.5t-209.5 -156.5
q-70 -76 -70 -162q0 -41 13.5 -59.5t13.5 -22.5q0 -43 -39 -43h-156z" />
    <glyph glyph-name="uogonek" unicode="&#x173;" horiz-adv-x="923" 
d="M690 -244q0 -43 -39 -43h-155q-60 0 -60 101t121 186q-33 8 -33 68v14l-10 2q-76 -100 -206 -100t-186 99t-56 298v631q0 96 16.5 130t83.5 34h78q82 0 104.5 -20.5t22.5 -92.5v-539q0 -106 10 -161.5t63 -55.5q88 0 88 152v442l-10 184q0 63 23.5 77t81.5 14h137
q47 0 61.5 -21.5t14.5 -87.5v-827l4 -121q0 -75 -22 -99t-93 -24q-66 -72 -65 -158q0 -41 13 -59.5t13 -22.5z" />
    <glyph glyph-name="Wcircumflex" unicode="&#x174;" horiz-adv-x="1337" 
d="M1296 1470q41 0 41 -34t-20 -125l-221 -1186q-12 -67 -24 -97t-66 -30l-68 6l-70 -8q-59 0 -76 41t-34 129l-78 403h-23l-69 -467q-8 -54 -28 -78t-89 -24l-51 2l-68 -4q-39 0 -59 7t-34 31t-32 136l-196 1145q-8 45 -15 76q-6 31 -6 49q0 31 72 31l186 4q57 0 73 -32
t28 -132l75 -692h25l90 346l-78 424q-4 21 -4 37q-1 16 17 33t45 18l120 -4l82 4q45 0 59 -25t17 -92l57 -741h23l90 735v30q0 50 24 68t76 19l144 -5zM412 1556q-18 0 -19 19q0 6 4 10l146 172q16 23 51 23h149q33 0 52 -23l139 -172q4 -4 4 -10q0 -18 -18 -19h-136
q-29 0 -49 17l-53 57q-8 8 -14 8t-15 -8l-57 -57q-15 -15 -49 -17h-135z" />
    <glyph glyph-name="wcircumflex" unicode="&#x175;" horiz-adv-x="1165" 
d="M1079 1176q70 0 70 -43q0 -3 -38 -271t-130 -784q-10 -54 -20 -66t-52 -12h-209q-43 0 -55 20t-18 76l-35 312h-31l-53 -359q-4 -35 -27 -42t-65 -7h-150q-62 0 -74 15t-17 41t-16 76t-74 516q-65 466 -65 478q-2 43 102 46q38 1 95 2h37q31 0 41 -16t16 -64l80 -658h35
l53 264l-45 385q-2 10 -2 27q0 63 72 64h135q53 0 63 -18q9 -18 10 -41q1 -22 3 -54l35 -627h38l70 627q4 35 5 67t27 40q13 5 42 6h147zM326 1251q-18 0 -19 19q0 6 4 10l146 172q16 23 51 23h149q33 0 52 -23l139 -172q4 -4 4 -10q0 -18 -18 -19h-136q-32 0 -49 17l-53 57
q-8 8 -14 8t-15 -8l-57 -57q-17 -17 -49 -17h-135z" />
    <glyph glyph-name="Ycircumflex" unicode="&#x176;" horiz-adv-x="890" 
d="M285 522q0 38 -29 131l-233 688q-16 49 -17 76q0 57 82 58l88 -5l115 3q43 -1 59 -21t23 -59l73 -469h17l65 415q10 53 20 84q9 31 32 39q37 12 221 13q98 0 98 -54q0 -20 -18 -78l-226 -684q-8 -23 -23 -67t-16 -141v-13l5 -282l4 -88q-1 -40 -21 -54t-67 -14l-88 2
l-113 -4q-31 0 -43 13t-12 44l4 310v157zM190 1556q-18 0 -18 19q0 6 4 10l146 172q16 23 51 23h149q33 0 51 -23l140 -172q4 -4 4 -10q0 -18 -19 -19h-135q-29 0 -49 17l-53 57q-9 8 -15 8t-14 -8l-57 -57q-15 -15 -49 -17h-136z" />
    <glyph glyph-name="ycircumflex" unicode="&#x177;" horiz-adv-x="786" 
d="M8 1116q0 58 72 60h176q39 0 47 -18t12 -66l68 -732h37l57 758q5 35 19 46t53 12h149q82 0 82 -64q0 -20 -8 -53l-205 -965q-33 -150 -101 -216t-192 -64q-123 0 -176 19t-53 67v176q0 76 49 76q23 0 35 -10t23 -9q41 0 41 31q0 23 -7 53l-170 854q-8 32 -8 45zM139 1251
q-18 0 -18 19q0 6 4 10l145 172q16 23 52 23h149q33 0 51 -23l140 -172q4 -4 4 -10q0 -18 -19 -19h-135q-34 0 -49 17l-53 57q-8 8 -14 8t-15 -8l-57 -57q-17 -17 -50 -17h-135z" />
    <glyph glyph-name="Ydieresis" unicode="&#x178;" horiz-adv-x="890" 
d="M285 522q0 38 -29 131l-233 688q-16 49 -17 76q0 57 82 58l88 -5l115 3q43 -1 59 -21t23 -59l73 -469h17l65 415q10 53 20 84q9 31 32 39q37 12 221 13q98 0 98 -54q0 -20 -18 -78l-226 -684q-8 -23 -23 -67t-16 -141v-13l5 -282l4 -88q-1 -40 -21 -54t-67 -14l-88 2
l-113 -4q-31 0 -43 13t-12 44l4 310v157zM729 1602q0 -23 -12 -29t-41 -6h-127q-25 0 -36 7t-11 32v127q0 23 12 29t41 7h125q27 0 38 -8t11 -32v-127zM213 1567q-25 0 -37 7t-12 32v127q0 23 12 29t41 7h125q27 0 38 -8t11 -32v-127q0 -23 -12 -29t-41 -6h-125z" />
    <glyph glyph-name="Zacute" unicode="&#x179;" horiz-adv-x="833" 
d="M385 1114q0 22 -25 26t-81 5l-138 -4q-51 1 -67 27t-17 85l2 41l-2 99q0 45 26 61t85 16h545q39 0 55 -15t16 -114v-69q0 -32 -22 -82l-322 -787q-6 -16 -11 -27q-5 -10 -5 -24t108 -14h56l143 8q25 0 41 -20t16 -54l-4 -118l2 -60q0 -56 -17 -76t-58 -20l-285 6l-207 -6
h-45l-76 -2q-33 0 -46 18t-13 64l2 168q0 54 28 118q27 64 71 176q67 172 156 361q89 191 89 213zM283 1556q-20 0 -21 19q0 2 4 10l99 172q12 23 57 23h233q23 0 23 -17q0 -8 -8 -14l-189 -176q-20 -15 -53 -17h-145z" />
    <glyph glyph-name="zacute" unicode="&#x17a;" horiz-adv-x="653" 
d="M629 176v-55q0 -63 -8 -92t-48 -29q-14 0 -58 4q-43 4 -147 4t-183 -7t-101 -7t-42 7q-19 7 -20 53q-5 157 6 182t15 34l94 254q53 140 93 224t40 111t-18 28l-14 -2l-117 -2h-12q-49 0 -59 16q-9 16 -9 66v20l-4 94q0 63 25 82q26 18 92 19l243 -9q72 1 114 5t52 4
q35 0 43 -26t8 -75v-49q0 -84 -20 -126t-31 -70l-166 -441q-12 -35 -12 -49t24 -18t74 -4l99 10q31 0 39 -38t8 -118zM193 1251q-20 0 -21 19q0 2 4 10l98 172q10 21 58 23h233q23 0 23 -17q0 -8 -8 -14l-189 -176q-23 -17 -53 -17h-145z" />
    <glyph glyph-name="Zdotaccent" unicode="&#x17b;" horiz-adv-x="833" 
d="M385 1114q0 22 -25 26t-81 5l-138 -4q-51 1 -67 27t-17 85l2 41l-2 99q0 45 26 61t85 16h545q39 0 55 -15t16 -114v-69q0 -32 -22 -82l-322 -787q-6 -16 -11 -27q-5 -10 -5 -24t108 -14h56l143 8q25 0 41 -20t16 -54l-4 -118l2 -60q0 -56 -17 -76t-58 -20l-285 6l-207 -6
h-45l-76 -2q-33 0 -46 18t-13 64l2 168q0 54 28 118q27 64 71 176q67 172 156 361q89 191 89 213zM344 1567q-29 0 -41 7t-12 32v127q0 23 14 29t45 7h139q29 0 41 -8t13 -32v-127q-1 -23 -15 -29t-43 -6h-141z" />
    <glyph glyph-name="zdotaccent" unicode="&#x17c;" horiz-adv-x="653" 
d="M629 176v-55q0 -63 -8 -92t-48 -29q-14 0 -58 4q-43 4 -147 4t-183 -7t-101 -7t-42 7q-19 7 -20 53q-5 157 6 182t15 34l94 254q53 140 93 224t40 111t-18 28l-14 -2l-117 -2h-12q-49 0 -59 16q-9 16 -9 66v20l-4 94q0 63 25 82q26 18 92 19l243 -9q72 1 114 5t52 4
q35 0 43 -26t8 -75v-49q0 -84 -20 -126t-31 -70l-166 -441q-12 -35 -12 -49t24 -18t74 -4l99 10q31 0 39 -38t8 -118zM254 1262q-29 0 -41 7t-12 31v127q0 23 14 30t45 7h139q29 0 41 -8t13 -33v-127q-1 -22 -15 -28t-43 -6h-141z" />
    <glyph glyph-name="Zcaron" unicode="&#x17d;" horiz-adv-x="833" 
d="M385 1114q0 22 -25 26t-81 5l-138 -4q-51 1 -67 27t-17 85l2 41l-2 99q0 45 26 61t85 16h545q39 0 55 -15t16 -114v-69q0 -32 -22 -82l-322 -787q-6 -16 -11 -27q-5 -10 -5 -24t108 -14h56l143 8q25 0 41 -20t16 -54l-4 -118l2 -60q0 -56 -17 -76t-58 -20l-285 6l-207 -6
h-45l-76 -2q-33 0 -46 18t-13 64l2 168q0 54 28 118q27 64 71 176q67 172 156 361q89 191 89 213zM344 1556q-33 0 -51 21l-146 172q-4 4 -4 10q0 20 19 21h135q33 0 49 -17l57 -59q7 -6 15 -6t14 6l53 59q16 16 50 17h135q18 0 18 -21q0 -6 -4 -10l-139 -172
q-16 -20 -51 -21h-150z" />
    <glyph glyph-name="zcaron" unicode="&#x17e;" horiz-adv-x="653" 
d="M629 176v-55q0 -63 -8 -92t-48 -29q-14 0 -58 4q-43 4 -147 4t-183 -7t-101 -7t-42 7q-19 7 -20 53q-5 157 6 182t15 34l94 254q53 140 93 224t40 111t-18 28l-14 -2l-117 -2h-12q-49 0 -59 16q-9 16 -9 66v20l-4 94q0 63 25 82q26 18 92 19l243 -9q72 1 114 5t52 4
q35 0 43 -26t8 -75v-49q0 -84 -20 -126t-31 -70l-166 -441q-12 -35 -12 -49t24 -18t74 -4l99 10q31 0 39 -38t8 -118zM254 1251q-33 0 -51 21l-146 172q-4 4 -4 10q0 20 19 21h135q33 0 49 -17l57 -59q7 -6 15 -6t14 6l53 59q16 16 49 17h136q18 0 18 -21q0 -6 -4 -10
l-139 -172q-16 -20 -52 -21h-149z" />
    <glyph glyph-name="florin" unicode="&#x192;" horiz-adv-x="915" 
d="M74 51q0 35 13 46.5t58 11.5q91 0 114.5 29.5t23.5 131.5v455h-168q-33 0 -33 33v145q0 27 27 27h174v170q0 226 79.5 314.5t288.5 88.5h45q72 0 103.5 -7t31.5 -46v-190q0 -45 -24.5 -46.5t-50 -1.5t-58.5 -6q-60 -11 -73 -47.5t-13 -142.5v-86h189q31 0 30 -33v-145
q0 -27 -24 -27h-195v-506q0 -150 -44 -272t-176 -129.5t-206 -7.5t-93 5t-19 33v203z" />
    <glyph glyph-name="Adieresismacron" unicode="&#x1de;" horiz-adv-x="894" 
d="M452 582q72 0 72 48q0 28 -4 54l-65 428l-17 -2l-57 -416q-4 -16 -5 -28t-3 -22t-2 -24t20 -26q19 -12 61 -12zM252 0h-189q-43 0 -60 14t-17 46t26 143l64 297q8 36 9 76t54 318t71 391q18 112 32 151t59 39h252q60 0 78 -24t45 -157q26 -133 62 -299t54 -296
q43 -320 89 -478q47 -159 -1 -199q-26 -22 -69 -22h-180q-20 0 -46 20t-26 106t-37 117q-18 15 -59 15q-117 0 -117 -63l2 -72q0 -67 -18 -95t-78 -28zM236 1804q-25 0 -36 5t-12 28v100q0 17 12 23t42 6h422q24 0 36 -6t13 -27v-100q1 -17 -13 -23t-41 -6h-423zM551 1567
q-25 0 -36 7t-11 32v127q0 23 12 29t41 7h125q27 0 38 -8t11 -32v-127q0 -23 -12 -29t-41 -6h-127zM215 1567q-25 0 -37 7t-12 32v127q0 23 12 29t41 7h125q27 0 38 -8t11 -32v-127q0 -23 -12 -29t-41 -6h-125z" />
    <glyph glyph-name="adieresismacron" unicode="&#x1df;" horiz-adv-x="845" 
d="M481 489q0 53 -14 79t-53 26q-80 0 -80 -111v-131q0 -102 74 -102q45 0 59 26t14 91v122zM684 0h-141q-42 0 -50 13t-8 63h-14q-35 -94 -156 -94t-193 113q-73 113 -74 308q-1 196 81 314q82 116 203 114q43 0 75 -13t54 -13q29 0 29 42q0 43 -34 69q-32 26 -94 26
t-108 -18q-91 -36 -111 -2q-10 16 -10 51v102q0 27 4 45t32 30q27 12 99 28t167 16q197 0 268 -69t71 -234v-785l2 -38q0 -48 -17 -58t-75 -10zM639 1661q25 0 37 -6t12 -27v-100q0 -18 -13 -24t-40 -5h-424q-25 0 -36 5t-11 28v100q0 18 12 24t41 5h422zM707 1296
q-1 -22 -13 -28t-41 -6h-127q-25 0 -36 7t-11 31v127q1 23 13 30t40 7h125q27 0 38 -8t12 -33v-127zM190 1262q-24 0 -36 7t-13 31v127q1 23 13 30t41 7h124q27 0 38 -8t12 -33v-127q-1 -22 -13 -28t-41 -6h-125z" />
    <glyph glyph-name="Scommaaccent" unicode="&#x218;" horiz-adv-x="886" 
d="M66 283q0 104 73 104q33 0 48 -8q15 -7 53 -25t100 -18q104 0 104 90q0 61 -61 120q-29 28 -66 58q-156 129 -203 235q-46 105 -46 224q0 416 460 416q150 1 176 -17t31 -45q4 -27 4 -69v-150q0 -60 -12 -80t-55 -20t-79 13t-75 13q-94 0 -94 -82q0 -53 68 -115
q32 -32 76 -72q44 -41 111 -107q128 -127 128 -341q-1 -214 -105 -323t-331 -109q-180 0 -265 41q-30 14 -34 34t-4 54v15l-2 155v9zM328 -369q-35 0 -35 21q-1 13 19 36q40 45 40 122q0 33 -10 49t-10 28q0 31 33 31h155q33 0 46 -15t14 -65q0 -94 -99 -174
q-36 -31 -73 -33h-80z" />
    <glyph glyph-name="scommaaccent" unicode="&#x219;" horiz-adv-x="681" 
d="M371 828q0 -32 40 -72q41 -40 103 -108q124 -136 123 -305q0 -169 -94 -266t-294 -97t-200 81v15l-4 133v31q0 42 9 66q10 24 36 24t56 -12t76 -11t70 17t24 61t-37 77t-99 90q-134 125 -133 290q0 166 93 263q91 91 228 91t169 -12q31 -12 42 -32t11 -58l2 -119
q0 -86 -66 -86l-82 10q-35 0 -54 -19q-19 -20 -19 -52zM225 -369q-35 0 -35 21q0 12 20 35q40 46 40 123q0 33 -10 49t-11 28q0 31 33 31h156q33 0 46 -15t13 -65q0 -94 -98 -174q-36 -31 -74 -33h-80z" />
    <glyph glyph-name="uni021A" unicode="&#x21a;" horiz-adv-x="806" 
d="M6 1363q0 106 96 105q227 0 297 5l156 -7l111 4q57 0 74 -17t18 -83v-24q0 -106 -9 -158t-63 -53h-68q-41 1 -55 -11t-14 -39v-34l2 -830l6 -135q0 -46 -16 -66t-58 -20l-49 2l-129 -6q-51 0 -72 19q-20 19 -20 63l4 108v531l-4 104l6 269q0 35 -16 38q-41 10 -82 6
t-73 10q-32 13 -37 63t-5 156zM289 -369q-35 0 -35 21q0 13 20 36q40 45 39 122q0 33 -10 49t-10 28q0 31 33 31h155q33 0 46 -15t14 -65q0 -94 -99 -174q-36 -31 -73 -33h-80z" />
    <glyph glyph-name="uni021B" unicode="&#x21b;" horiz-adv-x="583" 
d="M434 1309v-193h15q57 0 75 -17t19 -69v-121q0 -60 -18 -75t-91 -15v-444q0 -47 39 -47t50 -12t12 -68v-160q1 -54 -19 -72t-67 -18h-82q-72 0 -120 6t-80 37t-39 92t-7 158v530h-12q-65 0 -82 23t-17 115q0 91 12 114q23 41 93 41h6v172q0 84 15 103q15 20 83 20h33
l115 2q47 0 57 -25t10 -77zM176 -369q-35 0 -35 21q0 14 29 46t30 88q1 57 -10 73q-10 16 -10 28q0 31 33 31h156q33 0 46 -15t13 -65q0 -94 -98 -174q-36 -31 -74 -33h-80z" />
    <glyph glyph-name="Odieresismacron" unicode="&#x22a;" horiz-adv-x="1034" 
d="M616 995q0 158 -106 158q-54 0 -74 -54t-20 -165v-408q0 -104 17 -150t65 -46t72 18q22 18 34 65t12 236v346zM276 19q-225 118 -225 620q0 316 14 436q14 119 66 219q110 207 414 207q231 0 333 -139t103 -438v-66q0 -223 -7 -379q-7 -157 -51 -265t-156 -174
q-111 -66 -259 -65q-148 0 -232 44zM303 1804q-25 0 -36 5t-11 28v100q0 17 12 23t41 6h422q25 0 37 -6t12 -27v-100q0 -17 -13 -23t-40 -6h-424zM618 1567q-26 0 -36 7t-11 32v127q1 23 13 29t41 7h125q28 0 38 -8t11 -32v-127q-1 -23 -13 -29t-41 -6h-127zM283 1567
q-25 0 -37 7t-13 32v127q1 23 13 29t41 7h125q27 0 38 -8t11 -32v-127q0 -23 -12 -29t-41 -6h-125z" />
    <glyph glyph-name="odieresismacron" unicode="&#x22b;" horiz-adv-x="847" 
d="M498 743q0 70 -14 102t-66 32q-66 0 -66 -99v-385q0 -94 68 -94q43 0 60 25t18 79v340zM57 599q1 161 11 273t57 177q55 81 128 113t177 32q204 0 281 -128q78 -128 80 -417q-1 -176 -7 -294q-13 -241 -168 -328q-80 -45 -194 -45t-183 36q-135 72 -167 304
q-16 116 -15 277zM641 1661q25 0 37 -6t12 -27v-100q0 -18 -13 -24t-40 -5h-424q-25 0 -36 5t-11 28v100q0 18 12 24t41 5h422zM709 1296q-1 -22 -13 -28t-41 -6h-127q-26 0 -36 7t-11 31v127q1 23 13 30t41 7h124q27 0 38 -8t12 -33v-127zM193 1262q-25 0 -37 7t-13 31v127
q1 23 13 30t41 7h125q28 0 38 -8t11 -33v-127q-1 -22 -13 -28t-41 -6h-124z" />
    <glyph glyph-name="Otildemacron" unicode="&#x22c;" horiz-adv-x="1034" 
d="M616 995q0 158 -106 158q-54 0 -74 -54t-20 -165v-408q0 -104 17 -150t65 -46t72 18q22 18 34 65t12 236v346zM276 19q-225 118 -225 620q0 316 14 436q14 119 66 219q110 207 414 207q231 0 333 -139t103 -438v-66q0 -223 -7 -379q-7 -157 -51 -265t-156 -174
q-111 -66 -259 -65q-148 0 -232 44zM731 1966q25 0 37 -6t12 -27v-100q0 -17 -13 -23t-40 -6h-424q-25 0 -36 5t-11 28v100q0 19 12 23t41 6h422zM233 1563q-18 0 -18 22q0 86 51 135t126 49t191 -53q24 -10 54 -10t44 32q5 11 9 21t19 10h82q27 0 26 -36q0 -66 -51 -116
t-126 -50t-191 53q-25 10 -55 10t-45 -34q-5 -13 -10 -23t-20 -10h-86z" />
    <glyph glyph-name="otildemacron" unicode="&#x22d;" horiz-adv-x="847" 
d="M498 743q0 70 -14 102t-66 32q-66 0 -66 -99v-385q0 -94 68 -94q43 0 60 25t18 79v340zM57 599q1 161 11 273t57 177q55 81 128 113t177 32q204 0 281 -128q78 -128 80 -417q-1 -176 -7 -294q-13 -241 -168 -328q-80 -45 -194 -45t-183 36q-135 72 -167 304
q-16 116 -15 277zM641 1661q25 0 37 -6t12 -27v-100q0 -18 -13 -24t-40 -5h-424q-25 0 -36 5t-11 28v100q0 18 12 24t41 5h422zM143 1257q-18 0 -18 23q0 86 51 135t126 49t191 -53q24 -10 53 -10t45 32q5 11 9 21t18 10h82q27 0 27 -37q0 -65 -51 -115t-120 -50t-121 21
t-77 31t-56 11q-31 0 -43 -34q-5 -13 -10 -23t-20 -11h-86z" />
    <glyph glyph-name="Odotaccent" unicode="&#x22e;" horiz-adv-x="1034" 
d="M616 995q0 158 -106 158q-54 0 -74 -54t-20 -165v-408q0 -104 17 -150t65 -46t72 18q22 18 34 65t12 236v346zM276 19q-225 118 -225 620q0 316 14 436q14 119 66 219q110 207 414 207q231 0 333 -139t103 -438v-66q0 -223 -7 -379q-7 -157 -51 -265t-156 -174
q-111 -66 -259 -65q-148 0 -232 44zM442 1567q-29 0 -41 7t-12 32v127q0 23 14 29t46 7h139q29 0 41 -8t12 -32v-127q0 -23 -14 -29t-43 -6h-142z" />
    <glyph glyph-name="odotaccent" unicode="&#x22f;" horiz-adv-x="847" 
d="M498 743q0 70 -14 102t-66 32q-66 0 -66 -99v-385q0 -94 68 -94q43 0 60 25t18 79v340zM57 599q1 161 11 273t57 177q55 81 128 113t177 32q204 0 281 -128q78 -128 80 -417q-1 -176 -7 -294q-13 -241 -168 -328q-80 -45 -194 -45t-183 36q-135 72 -167 304
q-16 116 -15 277zM352 1262q-29 0 -41 7t-12 31v127q0 23 14 30t45 7h140q29 0 41 -8t12 -33v-127q0 -22 -14 -28t-43 -6h-142z" />
    <glyph glyph-name="Odotaccentmacron" unicode="&#x230;" horiz-adv-x="1034" 
d="M616 995q0 158 -106 158q-54 0 -74 -54t-20 -165v-408q0 -104 17 -150t65 -46t72 18q22 18 34 65t12 236v346zM276 19q-225 118 -225 620q0 316 14 436q14 119 66 219q110 207 414 207q231 0 333 -139t103 -438v-66q0 -223 -7 -379q-7 -157 -51 -265t-156 -174
q-111 -66 -259 -65q-148 0 -232 44zM731 1966q25 0 37 -6t12 -27v-100q0 -17 -13 -23t-40 -6h-424q-25 0 -36 5t-11 28v100q0 17 12 23t41 6h422zM442 1567q-29 0 -41 7t-12 32v127q0 23 14 29t46 7h139q29 0 41 -8t12 -32v-127q0 -23 -14 -29t-43 -6h-142z" />
    <glyph glyph-name="odotaccentmacron" unicode="&#x231;" horiz-adv-x="847" 
d="M498 743q0 70 -14 102t-66 32q-66 0 -66 -99v-385q0 -94 68 -94q43 0 60 25t18 79v340zM57 599q1 161 11 273t57 177q55 81 128 113t177 32q204 0 281 -128q78 -128 80 -417q-1 -176 -7 -294q-13 -241 -168 -328q-80 -45 -194 -45t-183 36q-135 72 -167 304
q-16 116 -15 277zM641 1661q25 0 37 -6t12 -27v-100q0 -18 -13 -24t-40 -5h-424q-25 0 -36 5t-11 28v100q0 18 12 24t41 5h422zM352 1262q-29 0 -41 7t-12 31v127q0 23 14 30t45 7h140q29 0 41 -8t12 -33v-127q0 -22 -14 -28t-43 -6h-142z" />
    <glyph glyph-name="Ymacron" unicode="&#x232;" horiz-adv-x="890" 
d="M285 522q0 38 -29 131l-233 688q-16 49 -17 76q0 57 82 58l88 -5l115 3q43 -1 59 -21t23 -59l73 -469h17l65 415q10 53 20 84q9 31 32 39q37 12 221 13q98 0 98 -54q0 -20 -18 -78l-226 -684q-8 -23 -23 -67t-16 -141v-13l5 -282l4 -88q-1 -40 -21 -54t-67 -14l-88 2
l-113 -4q-31 0 -43 13t-12 44l4 310v157zM233 1589q-25 0 -35 5t-12 28v100q0 18 12 24t42 5h422q24 0 36 -6t13 -27v-100q1 -18 -13 -24t-41 -5h-424z" />
    <glyph glyph-name="ymacron" unicode="&#x233;" horiz-adv-x="786" 
d="M8 1116q0 58 72 60h176q39 0 47 -18t12 -66l68 -732h37l57 758q5 35 19 46t53 12h149q82 0 82 -64q0 -20 -8 -53l-205 -965q-33 -150 -101 -216t-192 -64q-123 0 -176 19t-53 67v176q0 76 49 76q23 0 35 -10t23 -9q41 0 41 31q0 23 -7 53l-170 854q-8 32 -8 45zM182 1284
q-25 0 -36 5t-11 28v100q0 17 12 23t41 6h422q25 0 37 -6t12 -27v-100q0 -17 -13 -23t-40 -6h-424z" />
    <glyph glyph-name="dotlessj" unicode="&#x237;" horiz-adv-x="501" 
d="M48.5 172q13.5 0 31.5 4t22 27.5t4 70.5v709l-2 94q0 59 25 75.5t86 16.5l41 -2l82 2q49 0 69.5 -11t20.5 -50v-983q0 -164 -57.5 -229.5t-185.5 -65.5t-154.5 26.5t-26.5 108.5l2 80l-2 68q0 44 15.5 51.5t29 7.5z" />
    <glyph glyph-name="circumflex" unicode="&#x2c6;" 
d="M256 1251q-18 0 -18 19q0 6 4 10l145 172q16 23 51 23h150q33 0 51 -23l139 -172q4 -4 4 -10q0 -18 -18 -19h-135q-32 0 -49 17l-54 57q-8 8 -14 8t-14 -8l-58 -57q-17 -17 -49 -17h-135z" />
    <glyph glyph-name="caron" unicode="&#x2c7;" 
d="M438 1251q-33 0 -51 21l-145 172q-4 4 -4 10q0 20 18 21h135q33 0 49 -17l58 -59q6 -6 14 -6t14 6l54 59q16 16 49 17h135q18 0 18 -21q0 -6 -4 -10l-139 -172q-16 -20 -51 -21h-150z" />
    <glyph glyph-name="uni02C9" unicode="&#x2c9;" 
d="M299 1284q-25 0 -36 5t-11 28v100q0 18 12 23.5t41 5.5h422q25 0 37 -6t12 -27v-100q0 -18 -13 -23.5t-40 -5.5h-424z" />
    <glyph glyph-name="breve" unicode="&#x2d8;" 
d="M391 1475q20 0 31 -33q20 -62 96 -62q45 0 58.5 17.5t27.5 47.5t35 30h104q20 0 21 -37q0 -86 -64.5 -138.5t-187.5 -52.5t-187.5 54.5t-64.5 132.5q0 41 29 41h102z" />
    <glyph glyph-name="dotaccent" unicode="&#x2d9;" 
d="M438 1262q-29 0 -41 7t-12 31v127q0 23 14.5 30t44.5 7h140q29 0 41 -8t12 -33v-127q0 -23 -14.5 -28.5t-42.5 -5.5h-142z" />
    <glyph glyph-name="ring" unicode="&#x2da;" 
d="M430 1466.5q0 -34.5 23.5 -58.5t58.5 -24t58.5 24t23.5 58t-23.5 57t-58.5 23t-58.5 -22.5t-23.5 -57zM359.5 1618q62.5 61 152.5 61q140 0 177.5 -84t37.5 -129t-17.5 -84t-46 -68.5t-67.5 -46t-84 -16.5t-84 16.5t-85 62.5t-46 136.5t62.5 151.5z" />
    <glyph glyph-name="ogonek" unicode="&#x2db;" 
d="M436 -287q-59 0 -59 103t123 184h174q-70 -76 -70 -162q0 -41 13.5 -59.5t13.5 -22.5q0 -43 -39 -43h-156z" />
    <glyph glyph-name="tilde" unicode="&#x2dc;" 
d="M229 1257q-18 0 -18 23q0 86 51 135t121 49t121 -21.5t74.5 -31.5t48.5 -10t35 10t15 21.5t9 21.5t19 10h81q27 0 27 -37q0 -66 -51 -115.5t-121 -49.5t-121 21.5t-75.5 31.5t-48.5 10t-35 -10t-16 -23.5t-10 -24t-20 -10.5h-86z" />
    <glyph glyph-name="hungarumlaut" unicode="&#x2dd;" 
d="M602 1251q-16 0 -16 17q0 8 2 12l84 172q10 23 47 23h192q20 0 21 -17q0 -2 -8 -14l-158 -176q-17 -17 -43 -17h-121zM248 1251q-16 1 -16 13t1 16l82 172q10 23 50 23h192q18 0 18 -17q0 -6 -6 -14l-157 -176q-17 -17 -43 -17h-121z" />
    <glyph glyph-name="uni0394" unicode="&#x394;" horiz-adv-x="1308" 
d="M967 233l-318 947h-8l-326 -947h652zM1274 0h-1243v162l426 1231h401l416 -1307v-86z" />
    <glyph glyph-name="uni03A9" unicode="&#x3a9;" horiz-adv-x="1460" 
d="M322 258q-232 198 -232 538q0 112 47 231.5t183.5 261t422.5 141.5q285 0 455 -189t170 -446q0 -322 -235 -537v-8h256v-250h-598v190q102 86 170.5 222.5t68.5 316.5t-82.5 310t-215 130t-217.5 -131t-85 -297t68.5 -323.5t171.5 -227.5v-190h-602v250h254v8z" />
    <glyph glyph-name="uni03BC" unicode="&#x3bc;" horiz-adv-x="1153" 
d="M1036 346q0 -214 8 -346h-284l-15 129h-6q-20 -51 -75.5 -95t-134.5 -44t-128 43v-422h-288v1413h327v-584q0 -198 133 -198q59 0 97.5 40t38.5 95v647h327v-678z" />
    <glyph glyph-name="pi" unicode="&#x3c0;" horiz-adv-x="1232" 
d="M967 -18q-265 0 -265 303v526h-194v-811h-324v811h-143v248h1151v-248h-166v-438q0 -74 15.5 -112t60.5 -38t90 23v-209q-109 -55 -225 -55z" />
    <glyph glyph-name="Dcommaaccent" unicode="&#x1e10;" horiz-adv-x="972" 
d="M61 197l7 601q0 273 -6 417q-5 144 -5 180q0 76 113 78l137 -3l154 3h8q252 0 354 -202q90 -178 90 -622q0 -329 -90 -491t-288 -162l-66 4l-135 -2l-172 -4q-71 0 -86 36t-15 148v19zM454 305q72 0 89 62q18 62 18 235v127q0 251 -14 307t-38 80q-24 23 -67 23
q-63 0 -63 -74l4 -147l2 -476l-2 -41q0 -53 16 -75q17 -22 55 -21zM350 -369q-35 0 -35 21q0 14 20 36q40 44 40 122q0 33 -10 49t-11 28q0 31 33 31h156q33 0 46 -15t13 -65q0 -94 -98 -174q-36 -31 -74 -33h-80z" />
    <glyph glyph-name="dcommaaccent" unicode="&#x1e11;" horiz-adv-x="868" 
d="M356 455q0 -80 12 -118t60 -38q74 0 74 123v305q0 78 -12 116t-60 38q-49 0 -61 -33t-13 -103v-290zM698 0h-120q-45 0 -59 13q-13 13 -19 61q-77 -84 -178 -84q-145 0 -203 150q-57 151 -57 455q0 303 64 451q65 148 212 148q88 0 149 -53v241q0 67 15 86t73 19h130
q62 0 72 -14q11 -14 11 -82v-1184l5 -127q-1 -48 -21 -64t-74 -16zM319 -369q-35 0 -34 21q-1 13 19 36q40 45 40 122q0 33 -10 49t-10 28q0 31 32 31h156q33 0 46 -15t13 -65q0 -94 -98 -174q-36 -31 -74 -33h-80z" />
    <glyph glyph-name="endash" unicode="&#x2013;" 
d="M0 705h1024v-232h-1024v232z" />
    <glyph glyph-name="emdash" unicode="&#x2014;" horiz-adv-x="2048" 
d="M0 705h2048v-232h-2048v232z" />
    <glyph glyph-name="quoteleft" unicode="&#x2018;" horiz-adv-x="454" 
d="M133 922q-39 0 -54.5 15t-15.5 58v228q0 29 10.5 45t18.5 30l84 150q16 29 60 29h83q37 0 37 -25q0 -14 -23.5 -53t-58.5 -113h29q53 0 70.5 -13t17.5 -61v-227q0 -39 -17.5 -51t-58.5 -12h-182z" />
    <glyph glyph-name="quoteright" unicode="&#x2019;" horiz-adv-x="454" 
d="M135 909q-37 0 -37 25q0 14 23.5 53t58.5 113h-33q-51 0 -67.5 12t-16.5 62v227q0 37 17.5 50t58.5 13h183q39 0 54 -15t15 -58v-228q0 -29 -10 -45t-19 -31l-83 -149q-16 -29 -60 -29h-84z" />
    <glyph glyph-name="quotesinglbase" unicode="&#x201a;" horiz-adv-x="454" 
d="M135 -190q-37 0 -37 24q0 14 23.5 53t58.5 113h-33q-51 0 -67.5 12.5t-16.5 61.5v227q0 37 17.5 50.5t58.5 13.5h183q39 0 54 -15.5t15 -58.5v-228q0 -29 -10 -44t-19 -31l-83 -150q-16 -29 -60 -28h-84z" />
    <glyph glyph-name="quotedblleft" unicode="&#x201c;" horiz-adv-x="868" 
d="M63 1223q0 29 10.5 45t18.5 30l84 150q16 29 60 29h83q37 0 37 -25q0 -14 -23.5 -53t-58.5 -113h29q53 0 70.5 -13t17.5 -61v-227q0 -39 -17.5 -51t-58.5 -12h-182q-39 0 -54.5 15t-15.5 58v228zM547 922q-39 0 -53.5 15t-14.5 58v228q0 29 9.5 45t17.5 30l84 150
q16 29 59 29h86q37 0 37 -25q0 -14 -23.5 -53t-58.5 -113h29q53 0 69.5 -13t16.5 -61v-227q0 -39 -17.5 -51t-58.5 -12h-182z" />
    <glyph glyph-name="quotedblright" unicode="&#x201d;" horiz-adv-x="868" 
d="M805 1163q0 -29 -10.5 -44t-18.5 -32l-84 -149q-16 -29 -57 -29h-86q-37 0 -37 25q0 14 23.5 53t58.5 113h-33q-51 0 -66.5 12t-15.5 62v227q0 37 17.5 50t58.5 13h180q39 0 54.5 -15t15.5 -58v-228zM135 909q-37 0 -37 25q0 14 23.5 53t58.5 113h-33q-51 0 -67.5 12
t-16.5 62v227q0 37 17.5 50t58.5 13h183q39 0 54 -15t15 -58v-228q0 -29 -10 -45t-19 -31l-83 -149q-16 -29 -60 -29h-84z" />
    <glyph glyph-name="quotedblbase" unicode="&#x201e;" horiz-adv-x="868" 
d="M805 63q0 -29 -10.5 -44t-18.5 -31l-84 -150q-16 -29 -57 -28h-86q-37 0 -37 24q0 14 23.5 53t58.5 113h-33q-51 0 -66.5 12.5t-15.5 61.5v227q0 37 17.5 50.5t58.5 13.5h180q39 0 54.5 -15.5t15.5 -58.5v-228zM135 -190q-37 0 -37 24q0 14 23.5 53t58.5 113h-33
q-51 0 -67.5 12.5t-16.5 61.5v227q0 37 17.5 50.5t58.5 13.5h183q39 0 54 -15.5t15 -58.5v-228q0 -29 -10 -44t-19 -31l-83 -150q-16 -29 -60 -28h-84z" />
    <glyph glyph-name="dagger" unicode="&#x2020;" 
d="M422 -180q-49 0 -60.5 13t-11.5 61v864h-176q-41 0 -48 13t-7 67v180q0 35 9 46t56 11h166v324q0 76 88 76h142q45 0 69.5 -22.5t24.5 -53.5v-324h162q35 0 52 -8t17 -49v-180q0 -41 -6 -60.5t-35 -19.5h-190v-864q0 -41 -13.5 -57.5t-64.5 -16.5h-174z" />
    <glyph glyph-name="daggerdbl" unicode="&#x2021;" 
d="M422 -180q-49 0 -60.5 13t-11.5 61v286h-176q-41 0 -48 13.5t-7 66.5v180q0 35 9 46.5t56 11.5h166v303h-176q-41 0 -48 13t-7 67v180q0 35 9 46t56 11h166v281q0 76 88 76h142q45 0 69.5 -22.5t24.5 -53.5v-281h162q35 0 52 -8t17 -49v-180q0 -41 -6 -60.5t-35 -19.5
h-190v-303h162q35 0 52 -8.5t17 -49.5v-180q0 -41 -6 -60.5t-35 -19.5h-190v-286q0 -41 -13.5 -57.5t-64.5 -16.5h-174z" />
    <glyph glyph-name="bullet" unicode="&#x2022;" horiz-adv-x="1208" 
d="M307 761.5q0 61.5 23.5 115t63.5 93.5t94.5 63.5t116 23.5t114.5 -23.5t93 -63.5t63.5 -93.5t23.5 -115t-23.5 -114.5t-63.5 -94t-94 -64.5t-115.5 -23.5t-116 23.5t-94.5 63.5t-62.5 94t-22.5 115.5z" />
    <glyph glyph-name="ellipsis" unicode="&#x2026;" horiz-adv-x="2048" 
d="M1544 301q0 37 17.5 50.5t58.5 13.5h182q39 0 54.5 -15.5t15.5 -58.5v-228q0 -39 -17.5 -51t-58.5 -12h-182q-39 0 -54.5 15.5t-15.5 58.5v227zM1188 63q0 -39 -17.5 -51t-58.5 -12h-182q-39 0 -54.5 15.5t-15.5 58.5v227q0 37 17.5 50.5t58.5 13.5h182q39 0 54.5 -15.5
t15.5 -58.5v-228zM248 0q-39 0 -54.5 15.5t-15.5 58.5v227q0 37 17.5 50.5t58.5 13.5h182q39 0 54.5 -15.5t15.5 -58.5v-228q0 -39 -17.5 -51t-58.5 -12h-182z" />
    <glyph glyph-name="perthousand" unicode="&#x2030;" horiz-adv-x="1957" 
d="M1694 535q0 53 -47.5 53t-47.5 -53v-324q0 -55 47.5 -55t47.5 55v324zM1384 394q0 221 52.5 304.5t205.5 83.5q152 0 210.5 -76.5t58.5 -236.5v-166q0 -179 -58.5 -257.5t-202.5 -78.5q-145 0 -212 84q-39 49 -46.5 138t-7.5 205zM1081 535q0 53 -47 53t-47 -53v-324
q0 -55 47 -55t47 55v324zM772 394q0 221 52.5 304.5t204.5 83.5t210.5 -76.5t58.5 -236.5v-166q0 -181 -58.5 -258.5t-202.5 -77.5q-241 0 -253 155.5t-12 271.5zM211 42q0 22 12 46l744 1399q17 35 35 35t28 -6l84 -41q16 -9 16 -23t-14 -43l-735 -1399q-23 -41 -49 -41
q-4 0 -21 4l-80 37q-20 10 -20 32zM354 1262q0 53 -47 53t-47 -53v-324q0 -55 47 -55t47 55v324zM45 1120q0 221 53.5 305t200.5 84q148 0 217 -82q41 -51 48 -149t7 -220t-13 -184.5t-59 -122t-190 -59.5q-240 0 -252 156t-12 272z" />
    <glyph glyph-name="guilsinglleft" unicode="&#x2039;" horiz-adv-x="493" 
d="M74 461v256q0 27 16 43l281 280q17 17 26 6.5t9 -16.5v-258q0 -30 -17 -47l-104 -111q-22 -22 -4 -39l100 -110q27 -31 27 -57v-252q0 -20 -21 -21q-10 0 -20 10l-275 273q-18 18 -18 43z" />
    <glyph glyph-name="guilsinglright" unicode="&#x203a;" horiz-adv-x="493" 
d="M82 408q0 27 27 57l100 110q8 7 8 17t-12 22l-105 111q-16 16 -16 47v258q0 18 18 19q8 0 17 -9l280 -280q17 -17 17 -43v-256q0 -26 -19 -43l-276 -273q-10 -10 -19 -10q-20 0 -20 21v252z" />
    <glyph glyph-name="fraction" unicode="&#x2044;" horiz-adv-x="342" 
d="M-268 10q-21 10 -21 36q0 25 10 42l746 1399q17 35 35 35t28 -6l84 -41q28 -16 2 -66l-735 -1399q-23 -41 -49 -41q-4 0 -20 4z" />
    <glyph glyph-name="franc" unicode="&#x20a3;" horiz-adv-x="1312" 
d="M1100 1055q46 145 114 145q32 0 45 -28.5t13 -88.5v-219q0 -56 -10.5 -68t-56.5 -19q-47 -7 -71 -35.5t-24 -94.5v-375l8 -172q0 -68 -15.5 -84t-66.5 -16h-164q-47 0 -61 21.5t-14 87.5v827l-4 119q0 78 22.5 100.5t104.5 22.5h100q46 0 55.5 -20.5t9.5 -100.5z
M522 1151h-57q-51 0 -60.5 -15.5t-12.5 -38t-3 -80t14.5 -71.5t100.5 -14h14l119 8q35 0 47 -21.5t12 -68.5l-2 -80v-51q0 -63 -18.5 -90t-79.5 -27l-121 4q-51 0 -66.5 -19.5t-15.5 -84.5v-297l6 -133q0 -41 -18.5 -59.5t-61.5 -18.5l-124 8l-86 -6q-35 0 -42.5 17.5
t-7.5 58.5v41l2 65v1102l-2 96q0 55 19.5 77t71.5 22l14 -1l98 1h289l65 2q53 0 74 -21.5t21 -85.5l-4 -96q0 -47 -6.5 -71.5t-30.5 -38t-148 -13.5z" />
    <glyph glyph-name="Euro" unicode="&#x20ac;" horiz-adv-x="915" 
d="M678 -25q-138 0 -204 22.5t-106 54.5t-82 94q-81 119 -100 372h-94q-53 0 -53 27v6l10 74q4 41 25.5 48t56.5 7h47v113h-86q-53 0 -53 26v6l12 86q4 31 16.5 37t47.5 6h69q20 285 133.5 413t380.5 128q170 0 170 -109l-2 -65l4 -61q0 -80 -42.5 -85.5t-49.5 -5.5h-43
q-84 0 -108 -8q-49 -16 -72 -69.5t-33 -137.5h217q61 0 62 -34q0 -8 -2 -15l-13 -80q-4 -20 -15 -26t-38 -6h-219v-113h172q72 0 72 -35v-4q0 -4 -2 -13.5t-4 -26.5t-6 -45t-15.5 -33t-38.5 -5h-172q10 -94 39 -147.5t94 -53.5l21 1l139 4q59 0 59 -84l5 -152
q0 -111 -199 -111z" />
    <glyph glyph-name="afii61289" unicode="&#x2113;" horiz-adv-x="1116" 
d="M1047 248q-159 -268 -465 -268q-140 0 -230 68.5t-127 232.5l-90 -60l-84 172l168 119v383q0 264 103 391t263 127t248.5 -92t88.5 -254t-91.5 -295.5t-302.5 -316.5v-31q0 -176 142 -176q76 0 132 46t99 97zM528 745q152 181 152 309q0 74 -18.5 110t-47.5 36
q-86 0 -86 -250v-205z" />
    <glyph glyph-name="trademark" unicode="&#x2122;" horiz-adv-x="1116" 
d="M623 737h-68q-37 0 -37 58v473l2 96l-4 61q0 25 11.5 32t41.5 7h95q27 0 39 -10t22 -55l49 -213h12l60 241q12 37 41 37h112q29 0 36 -14t7 -51l-6 -201l2 -309l4 -92q0 -59 -32 -60h-92q-23 0 -30 12.5t-7 41.5v192q0 95 -4 139h-17q-41 -197 -76 -196q-20 0 -39.5 49
t-54.5 147h-12v-295l-2 -55q0 -23 -8.5 -29t-44.5 -6zM76 1410q0 52 49 52l147 2l20 -1l114 -1q29 0 38 -8t9 -41v-12q0 -53 -5.5 -79t-31.5 -26h-33q-23 0 -29 -5t-6 -19v-426l4 -66q0 -43 -37 -43h-24l-66 -2q-45 0 -45 41l2 53v263l-2 51l2 131q0 18 -8 20q-20 4 -40 2
t-36 6t-19 32t-3 76z" />
    <glyph glyph-name="Omega" unicode="&#x2126;" horiz-adv-x="1460" 
d="M322 258q-232 198 -232 538q0 112 47 231.5t183.5 261t422.5 141.5q285 0 455 -189t170 -446q0 -322 -235 -537v-8h256v-250h-598v190q102 86 170.5 222.5t68.5 316.5t-82.5 310t-215 130t-217.5 -131t-85 -297t68.5 -323.5t171.5 -227.5v-190h-602v250h254v8z" />
    <glyph glyph-name="estimated" unicode="&#x212e;" horiz-adv-x="1595" 
d="M1194 829v394q-170 164 -401.5 163.5t-391.5 -163.5v-394h793zM795 76q172 0 298 76.5t228 248.5l94 -55q-181 -290 -347.5 -328t-299.5 -38t-262 58t-221 159.5t-141.5 238.5t-49.5 377.5t194.5 455t506.5 214.5t507 -209.5t199 -542.5h-1100v-495q164 -160 394 -160z
" />
    <glyph glyph-name="partialdiff" unicode="&#x2202;" horiz-adv-x="1107" 
d="M494 203q108 0 176 110.5t82 251.5q-29 98 -94.5 125t-108.5 27q-92 0 -153.5 -84t-61.5 -202t50 -173t110 -55zM480 1571q118 0 223.5 -60.5t227.5 -231t122 -530.5t-127 -516.5t-231.5 -206t-214.5 -49.5q-203 0 -314 134.5t-111 332.5t121.5 344t315.5 146
q98 0 170.5 -43.5t113.5 -106.5h2v37q0 210 -95.5 367.5t-237.5 157.5t-263 -76l-82 188q87 53 174.5 83t205.5 30z" />
    <glyph glyph-name="Delta" unicode="&#x2206;" horiz-adv-x="1308" 
d="M967 233l-318 947h-8l-326 -947h652zM1274 0h-1243v162l426 1231h401l416 -1307v-86z" />
    <glyph glyph-name="product" unicode="&#x220f;" horiz-adv-x="1482" 
d="M125 1567h1233v-1833h-266v1599h-699v-1599h-268v1833z" />
    <glyph glyph-name="summation" unicode="&#x2211;" horiz-adv-x="1290" 
d="M55 1567h1168v-234h-822v-8l344 -668l-368 -680v-10h895v-233h-1239v168l416 743l-394 727v195z" />
    <glyph glyph-name="minus" unicode="&#x2212;" horiz-adv-x="915" 
d="M41 881h833v-283h-833v283z" />
    <glyph glyph-name="uni2215" unicode="&#x2215;" horiz-adv-x="342" 
d="M-268 10q-21 10 -21 36q0 25 10 42l746 1399q17 35 35 35t28 -6l84 -41q28 -16 2 -66l-735 -1399q-23 -41 -49 -41q-4 0 -20 4z" />
    <glyph glyph-name="uni2219" unicode="&#x2219;" horiz-adv-x="454" 
d="M227.5 897q65.5 0 111.5 -46t46 -111.5t-46 -111.5t-111.5 -46t-112.5 46t-47 111.5t47 111.5t112.5 46z" />
    <glyph glyph-name="radical" unicode="&#x221a;" horiz-adv-x="1181" 
d="M522 -184l-319 829l-156 -59l-47 141l369 150l258 -758h4l350 1519h236l-451 -1822h-244z" />
    <glyph glyph-name="infinity" unicode="&#x221e;" horiz-adv-x="1560" 
d="M528 431q58 42 123 110q-71 71 -120.5 111t-111.5 40t-105.5 -44t-43.5 -108t41.5 -107.5t100.5 -43.5q58 0 116 42zM1156 389q48 0 90 45t42 110t-39 106.5t-86 41.5t-79.5 -13t-62.5 -34.5t-57.5 -48.5t-54.5 -51q25 -23 50.5 -49.5t55 -50t61.5 -40t80 -16.5zM963 244
q-84 51 -185 147q-104 -99 -184 -148.5t-177 -49.5q-170 0 -263 99t-93 247q0 147 99.5 248.5t250.5 101.5t242.5 -81t128.5 -118q108 102 189 150.5t175 48.5q169 0 261 -99.5t92 -245.5q0 -147 -98 -249t-226 -102t-212 51z" />
    <glyph glyph-name="integral" unicode="&#x222b;" horiz-adv-x="761" 
d="M114 -102q40 0 100 27t60 288v10q0 201 -17 420t-17 404q0 270 98 405t285 135q89 0 133 -14l-33 -201q-35 10 -74 10q-80 0 -113.5 -72.5t-33.5 -236.5q0 -200 16.5 -431t16.5 -394q0 -570 -367 -570q-94 0 -162 25l37 207q31 -12 71 -12z" />
    <glyph glyph-name="approxequal" unicode="&#x2248;" horiz-adv-x="915" 
d="M866 700q0 -421 -231 -421q-73 0 -162.5 64.5t-112.5 64.5q-47 0 -47 -121h-262q0 291 91.5 355.5t145.5 64.5t93 -19.5t71.5 -44.5t58 -44t53.5 -19t33 28.5t5 91.5h264zM866 1192q0 -422 -231 -422q-73 0 -162.5 64.5t-112.5 64.5q-47 0 -47 -121h-262
q0 293 91.5 356.5t145.5 63.5t93 -19.5t71.5 -44t58 -44t53.5 -19.5t33 28.5t5 92.5h264z" />
    <glyph glyph-name="notequal" unicode="&#x2260;" horiz-adv-x="915" 
d="M41 416v282h260l31 82h-291v285h424l74 192h282l-80 -192h133v-285h-264l-35 -82h299v-282h-425l-76 -195h-281l80 195h-131z" />
    <glyph glyph-name="lessequal" unicode="&#x2264;" horiz-adv-x="915" 
d="M860 0h-807v274h807v-274zM53 668v229l807 317v-309l-395 -123l395 -123v-313z" />
    <glyph glyph-name="greaterequal" unicode="&#x2265;" horiz-adv-x="915" 
d="M53 274h807v-274h-807v274zM53 346v313l396 123l-396 123v309l807 -317v-229z" />
    <glyph glyph-name="lozenge" unicode="&#x25ca;" horiz-adv-x="1177" 
d="M588 1194h-4l-242 -522l248 -516h4l240 503zM469 -80l-385 746l385 764h240l385 -764l-385 -746h-240z" />
    <glyph glyph-name="grave.cap" unicode="&#xe300;" 
d="M500 1556q-35 0 -51 17l-191 176q-8 6 -8 14q0 16 22 17h234q46 0 57 -23l99 -172q4 -8 4 -10q0 -18 -21 -19h-145z" />
    <glyph glyph-name="acute.cap" unicode="&#xe301;" 
d="M377 1556q-20 0 -21 19q0 2 4 10l99 172q12 23 57 23h234q23 0 22 -17q0 -8 -8 -14l-189 -176q-23 -17 -53 -17h-145z" />
    <glyph glyph-name="circumflex.cap" unicode="&#xe302;" 
d="M256 1556q-18 0 -18 19q0 6 4 10l145 172q16 23 51 23h150q33 0 51 -23l139 -172q4 -4 4 -10q0 -18 -18 -19h-135q-32 0 -49 17l-54 57q-8 8 -14 8t-14 -8l-58 -57q-17 -17 -49 -17h-135z" />
    <glyph glyph-name="caron.cap" unicode="&#xe303;" 
d="M438 1556q-33 0 -51 21l-145 172q-4 4 -4 10q0 20 18 21h135q33 0 49 -17l58 -59q6 -6 14 -6t14 6l54 59q16 16 49 17h135q18 0 18 -21q0 -6 -4 -10l-139 -172q-16 -20 -51 -21h-150z" />
    <glyph glyph-name="tilde.cap" unicode="&#xe304;" 
d="M229 1563q-18 0 -18 22q0 86 51 135t121 49t121 -21.5t74.5 -31.5t48.5 -10t35 10t15 21.5t9 21.5t19 10h81q27 0 27 -36q0 -66 -51 -116t-121 -50t-121 21.5t-75.5 31.5t-48.5 10t-35 -10t-16 -23.5t-10 -23.5t-20 -10h-86z" />
    <glyph glyph-name="dieresis.cap" unicode="&#xe305;" 
d="M795 1602q0 -23 -12.5 -29t-41.5 -6h-127q-25 0 -36 7t-11 32v127q0 23 12.5 29.5t41.5 6.5h124q27 0 38.5 -8t11.5 -32v-127zM279 1567q-25 0 -37.5 7t-12.5 32v127q0 23 12.5 29.5t41.5 6.5h125q27 0 38 -8t11 -32v-127q0 -23 -12.5 -29t-41.5 -6h-124z" />
    <glyph glyph-name="macron.cap" unicode="&#xe306;" 
d="M299 1589q-25 0 -36 5t-11 28v100q0 18 12 23.5t41 5.5h422q25 0 37 -6t12 -27v-100q0 -18 -13 -23.5t-40 -5.5h-424z" />
    <glyph glyph-name="breve.cap" unicode="&#xe307;" 
d="M391 1780q20 0 31 -33q19 -61 96 -61q45 0 58.5 17t27.5 47t35 30h104q20 0 21 -37q0 -86 -64.5 -138.5t-187.5 -52.5t-187.5 54.5t-64.5 132.5q0 41 29 41h102z" />
    <glyph glyph-name="ring.cap" unicode="&#xe308;" 
d="M430 1771.5q0 -34.5 23.5 -58t58.5 -23.5t58.5 23t23.5 57t-23.5 57.5t-58.5 23.5t-58.5 -22.5t-23.5 -57zM360 1923.5q63 61.5 153 61.5t152 -63.5t62 -149.5t-61.5 -151t-153 -65t-153.5 63.5t-62 153t63 151z" />
    <glyph glyph-name="hungarumlaut.cap" unicode="&#xe309;" 
d="M602 1556q-16 0 -16 17q0 8 2 12l84 172q10 23 47 23h192q20 0 21 -17q0 -2 -8 -14l-158 -176q-17 -17 -43 -17h-121zM248 1556q-16 0 -16 12t1 17l82 172q10 23 50 23h192q18 0 18 -17q0 -6 -6 -14l-157 -176q-17 -17 -43 -17h-121z" />
    <glyph glyph-name="dotaccent.cap" unicode="&#xe30a;" 
d="M438 1567q-29 0 -41 7t-12 32v127q0 23 14.5 29.5t44.5 6.5h140q29 0 41 -8t12 -32v-127q0 -23 -14.5 -29t-42.5 -6h-142z" />
    <glyph glyph-name="caron.alt" unicode="&#xe30b;" 
d="M395 1186q-35 0 -35 20q0 14 20 36q40 44 40 122q0 33 -10.5 49.5t-10.5 28.5q0 31 33 31h156q33 0 46 -15.5t13 -64.5q0 -94 -98 -174q-38 -33 -74 -33h-80z" />
    <glyph glyph-name="commaaccent" unicode="&#xe30c;" 
d="M395 -369q-35 0 -35 21q0 12 20 35q40 46 40 123q0 33 -10.5 49t-10.5 28q0 31 33 31h156q33 0 46 -15.5t13 -64.5q0 -94 -98 -174q-38 -33 -74 -33h-80z" />
    <glyph glyph-name="commaaccent.alt" unicode="&#xe30d;" 
d="M436 1251q-33 0 -46 15.5t-13 64.5q0 94 98 174q37 31 74 31h80q35 0 35 -16t-20 -39q-40 -46 -40 -121q0 -33 10.5 -50.5t10.5 -29.5q0 -29 -33 -29h-156z" />
    <glyph glyph-name="uniF8FF" unicode="&#xf8ff;" 
d="M158 932l354 -354l354 354h-708zM578 512l354 -354v708zM512 446l-354 -354h708zM92 158l354 354l-354 354v-708zM0 1024h1024v-1024h-1024v1024z" />
    <glyph glyph-name="tildemacron" 
d="M727 1661q25 0 37 -6t12 -27v-100q0 -18 -13 -23.5t-40 -5.5h-424q-25 0 -36 5t-11 28v100q0 18 12 23.5t41 5.5h422zM229 1257q-18 0 -18 23q0 86 51 135t121 49t121 -21.5t74.5 -31.5t48.5 -10t35 10t15 21.5t9 21.5t19 10h81q27 0 27 -37q0 -66 -51 -115.5t-121 -49.5
t-121 21.5t-75.5 31.5t-48.5 10t-35 -10t-16 -23.5t-10 -24t-20 -10.5h-86z" />
    <glyph glyph-name="dieresismacron.cap" 
d="M299 1804q-25 0 -36 5.5t-11 27.5v100q0 18 12 23.5t41 5.5h422q25 0 37 -6t12 -27v-100q0 -18 -13 -23.5t-40 -5.5h-424zM614 1567q-25 0 -36 7t-11 32v127q0 23 12.5 29.5t41.5 6.5h124q27 0 38.5 -8t11.5 -32v-127q0 -23 -12.5 -29t-41.5 -6h-127zM279 1567
q-25 0 -37.5 7t-12.5 32v127q0 23 12.5 29.5t41.5 6.5h125q27 0 38 -8t11 -32v-127q0 -23 -12.5 -29t-41.5 -6h-124z" />
    <glyph glyph-name="dieresismacron" 
d="M727 1661q25 0 37 -6t12 -27v-100q0 -18 -13 -23.5t-40 -5.5h-424q-25 0 -36 5t-11 28v100q0 18 12 23.5t41 5.5h422zM795 1296q0 -23 -12.5 -28.5t-41.5 -5.5h-127q-25 0 -36 7t-11 31v127q0 23 12.5 30t41.5 7h124q27 0 38.5 -8t11.5 -33v-127zM279 1262q-25 0 -37.5 7
t-12.5 31v127q0 23 12.5 30t41.5 7h125q27 0 38 -8t11 -33v-127q0 -23 -12.5 -28.5t-41.5 -5.5h-124z" />
    <glyph glyph-name="dotaccentmacron" 
d="M727 1661q25 0 37 -6t12 -27v-100q0 -18 -13 -23.5t-40 -5.5h-424q-25 0 -36 5t-11 28v100q0 18 12 23.5t41 5.5h422zM438 1262q-29 0 -41 7t-12 31v127q0 23 14.5 30t44.5 7h140q29 0 41 -8t12 -33v-127q0 -23 -14.5 -28.5t-42.5 -5.5h-142z" />
    <glyph glyph-name="dotaccentmacron.cap" 
d="M727 1966q25 0 37 -6t12 -27v-100q0 -18 -13 -23.5t-40 -5.5h-424q-25 0 -36 5.5t-11 27.5v100q0 18 12 23.5t41 5.5h422zM438 1567q-29 0 -41 7t-12 32v127q0 23 14.5 29.5t44.5 6.5h140q29 0 41 -8t12 -32v-127q0 -23 -14.5 -29t-42.5 -6h-142z" />
    <glyph glyph-name="tildemacron.cap" 
d="M727 1966q25 0 37 -6t12 -27v-100q0 -18 -13 -23.5t-40 -5.5h-424q-25 0 -36 5.5t-11 27.5v100q0 18 12 22.5t41 6.5h422zM229 1563q-18 0 -18 22q0 86 51 135t121 49t121 -21.5t74.5 -31.5t48.5 -10t35 10t15 21.5t9 21.5t19 10h81q27 0 27 -36q0 -66 -51 -116t-121 -50
t-121 21.5t-75.5 31.5t-48.5 10t-35 -10t-16 -23.5t-10 -23.5t-20 -10h-86z" />
    </font>
</defs>
</svg>
