<?xml version="1.0" encoding="utf-8"?>
<!-- Generator: Adobe Illustrator 18.0.0, SVG Export Plug-In . SVG Version: 6.00 Build 0)  -->
<!DOCTYPE svg PUBLIC "-//W3C//DTD SVG 1.1//EN" "http://www.w3.org/Graphics/SVG/1.1/DTD/svg11.dtd">
<svg version="1.1" id="Layer_1" xmlns:sketch="http://www.bohemiancoding.com/sketch/ns"
	 xmlns="http://www.w3.org/2000/svg" xmlns:xlink="http://www.w3.org/1999/xlink" x="0px" y="0px" viewBox="5.1 0.2 324 139.2"
	 enable-background="new 5.1 0.2 324 139.2" xml:space="preserve">
<title>evb</title>
<description>Created with Sketch (http://www.bohemiancoding.com/sketch)</description>
<g id="Page-1" sketch:type="MSPage">
	<g id="EVB_logo" transform="translate(1.000000, 0.000000)" sketch:type="MSLayerGroup">
		<path id="Fill-1" sketch:type="MSShapeGroup" fill="#FFFFFF" d="M75,15c-8.6,6.9-14.2,17.4-14.2,29.3c0,10.6,3.4,20.6,10.5,27.5
			c0.1,0.1,0.4,0.4,0.4,1.5v66.1c0.7,0,1.3,0,2,0c1.3,0,2.7,0,4-0.1v-66c0-1.1,0.3-1.3,0.4-1.5c7.5-6.9,11.1-16.7,11.1-27.5
			C89.2,32.4,83.7,21.8,75,15"/>
		<path id="Fill-2" sketch:type="MSShapeGroup" fill="#FFFFFF" d="M109.2,93.3c-6.3-0.9-13,0.9-18.1,5.6c-5.1,4.7-7.3,11.3-6.8,17.7
			c6.3,0.9,13-0.9,18.1-5.6C107.5,106.3,109.7,99.7,109.2,93.3"/>
		<path id="Fill-3" sketch:type="MSShapeGroup" fill="#FFFFFF" d="M55,82.9c-5.9-3.6-12.8-4.1-18.9-2c0.8,6.4,4.2,12.4,10.2,16
			c5.9,3.7,12.8,4.1,18.9,1.9C64.4,92.5,60.9,86.5,55,82.9"/>
		<path id="Fill-4" sketch:type="MSShapeGroup" fill="#6BB644" d="M102.4,111c-5.1,4.7-11.8,6.6-18.1,5.6c-0.5-6.4,1.7-13,6.8-17.7
			c5.1-4.8,11.8-6.6,18.1-5.6C109.7,99.7,107.5,106.3,102.4,111L102.4,111z M65.2,98.9c-6.1,2.2-13,1.7-18.9-1.9
			c-5.9-3.6-9.4-9.6-10.2-16c6-2.2,13-1.7,18.9,2C60.9,86.5,64.4,92.5,65.2,98.9L65.2,98.9z M143.3,69.8c0-38.4-31.2-69.6-69.6-69.6
			c-1.7,0-3.3,0.1-4.9,0.2c-0.1,0-0.3,0-0.4,0c-0.3,0-0.6,0.1-0.9,0.1c-0.3,0-0.5,0-0.8,0.1c-0.1,0-0.1,0-0.2,0
			C31.4,4.3,4.1,33.9,4.1,69.8c0,37.8,30.1,68.5,67.6,69.6V73.3c0-1.1-0.3-1.4-0.4-1.5c-7.1-6.9-10.5-16.9-10.5-27.5
			c0-11.9,5.6-22.5,14.2-29.3c8.6,6.9,14.2,17.4,14.2,29.3c0,10.9-3.6,20.7-11.1,27.5c-0.1,0.1-0.4,0.4-0.4,1.5v66
			C114.3,137.2,143.3,106.9,143.3,69.8L143.3,69.8z"/>
		<path id="Fill-5" sketch:type="MSShapeGroup" fill="#FFFFFF" d="M251.4,86.4l-12-32.4h-11.2l18.6,46.3h8.9L274.3,54h-10.9
			L251.4,86.4"/>
		<path id="Fill-6" sketch:type="MSShapeGroup" fill="#FFFFFF" d="M188,81.4h19.7v-9H188V63h24.6v-9H178v46h35v-9h-25V81.4"/>
		<path id="Fill-7" sketch:type="MSShapeGroup" fill="#FFFFFF" stroke="#FFFFFF" stroke-miterlimit="10" d="M318,86.2
			c0,3.4-2.7,5-7.2,5h-12v-8.9h0V70.2h0v-7.3h10c4.3,0,6.6,1.7,6.6,4.7v0.1c0,3.4-2.8,4.9-7.3,4.9h-4.1V81h6.4c5.2,0,7.5,1.9,7.5,5
			V86.2L318,86.2z M319.5,76c3.3-1.8,6-4.7,6-9.9v-0.1c0-3.2-1-5.7-3.2-7.8c-2.6-2.6-6.8-4.1-12-4.1H289v46h21.9
			c10.4,0,17.2-4.2,17.2-12.6v-0.1C328.1,81.1,324.8,78,319.5,76L319.5,76z"/>
	</g>
</g>
</svg>
