<?xml version="1.0" encoding="utf-8"?>
<!-- Generator: Adobe Illustrator 18.0.0, SVG Export Plug-In . SVG Version: 6.00 Build 0)  -->
<!DOCTYPE svg PUBLIC "-//W3C//DTD SVG 1.1//EN" "http://www.w3.org/Graphics/SVG/1.1/DTD/svg11.dtd">
<svg version="1.1" id="Layer_1" xmlns="http://www.w3.org/2000/svg" xmlns:xlink="http://www.w3.org/1999/xlink" x="0px" y="0px"
	 viewBox="-0.3 357 612.3 78" enable-background="new -0.3 357 612.3 78" xml:space="preserve">
<g>
	<path fill="#FFFFFF" d="M285.8,395.8c0-21.4,17.4-38.9,39.2-38.9c21.7,0,38.9,17.4,38.9,39.5c0,21.1-17.7,38.6-39.2,38.6
		C303.2,435,285.8,417.6,285.8,395.8z M289.2,395.8c0,19.9,15.9,35.8,35.8,35.8c19.6,0,35.8-15.9,35.8-35.5
		c0-19.9-15.9-36.1-35.8-36.1C305.1,360,289.2,376.3,289.2,395.8z"/>
	<path fill="#FFFFFF" d="M407.6,387.3c-1.8,4.3-3.7,8.3-5.2,12.5c-1.5,3.4-2.8,6.7-4.3,10.1c-0.3,1.2-0.9,1.5-2.1,1.5
		c-4.3,0-3.4,0.6-4.9-3.4c-2.8-6.4-5.5-12.5-8-19c-0.3-0.6-0.6-1.2-1.2-1.8c0,0.3,0,0.9,0,1.2c0,7,0,13.8,0,20.8
		c0,1.5-0.3,1.8-1.8,1.8c-4,0-4,0-4-4c0-8.9,0-17.7,0-26.9c0-2.1,0-2.1,2.1-2.1c1.5,0,3.4,0,4.9,0c1.2,0,1.8,0.3,2.4,1.5
		c2.8,7,5.8,13.8,8.9,20.8c0.3,0.6,0.3,0.9,0.9,1.8c0.9-1.8,1.5-3.7,2.1-5.2c2.4-5.8,4.9-11.6,7.3-17.4c0.6-1.2,0.9-1.5,2.1-1.5
		c1.8,0,3.7,0,5.5,0c0.9,0,1.5,0.3,1.5,1.2c0,10.1,0,20.2,0,30c0,0.9-0.3,1.2-1.5,1.2c-0.9,0-1.8,0-2.8,0c-1.2,0-1.5-0.3-1.5-1.5
		c0-7,0-14.1,0-20.8c0-0.6,0-0.9,0-1.5C407.9,387.3,407.9,387.3,407.6,387.3z"/>
	<path fill="#FFFFFF" d="M602.2,398c3.4,4.3,6.4,8.6,9.8,13.2c-2.8,0-5.2,0-7.7,0c-0.3,0-0.9-0.6-1.2-1.2c-2.4-3.4-5.2-6.7-7.7-10.1
		c-0.6-0.9-1.2-1.2-2.4-1.2c-2.4,0-4.9,0-7,0c-0.9,0-1.5,0.3-1.5,1.2c0,3.4,0,6.7,0,10.1c0,1.2-0.3,1.5-1.5,1.5s-2.4,0-3.7,0
		c-0.9,0-1.2-0.3-1.2-1.2c0-10.1,0-20.2,0-30.3c0-0.9,0.3-1.2,1.2-1.2c7,0,14.1,0,21.4,0c3.1,0,6.4,0.6,8.6,3.4
		c2.4,3.1,2.8,6.7,1.2,10.4c-1.2,3.4-4,5.2-7.6,5.8C602.8,398,602.5,398,602.2,398z M592.4,383.9L592.4,383.9c-2.1,0-4.3,0-6.4,0
		c-0.6,0-1.2,0-1.2,0.9c0,2.4,0,4.6,0,7c0,0.9,0.6,1.2,1.2,1.2c1.5,0,3.1,0,4.3,0c3.4,0,6.7,0,10.4-0.3c1.5,0,3.1-0.6,3.7-2.4
		c1.2-3.1-0.3-5.5-3.4-6.1C597.9,383.9,595.2,383.9,592.4,383.9z"/>
	<path fill="#FFFFFF" d="M535.5,394.9c0-4.9,0-9.8,0-14.4c0-1.2,0.3-1.8,1.8-1.8c8.6,0,17.4,0,26,0c1.2,0,1.8,0.3,1.5,1.5
		c0,0.9,0,1.8,0,2.4c0,1.2-0.3,1.5-1.5,1.5c-6.4,0-12.9,0-19.3,0c-1.5,0-2.1,0.3-1.8,1.8c0,1.2,0,2.4,0,3.7s0.3,1.8,1.8,1.8
		c5.2,0,10.7,0,15.9,0c1.5,0,2.1,0.3,1.8,1.8c0,3.7,0,3.7-3.7,3.7c-4.9,0-9.5,0-14.4,0c-1.5,0-1.8,0.3-1.8,1.8s0,3.4,0,4.9
		s0.3,2.1,1.8,1.8c6.4,0,13.2,0,19.6,0c1.5,0,1.8,0.3,1.8,1.8c0,3.7,0,3.7-3.7,3.7c-8.3,0-16.2,0-24.5,0c-1.5,0-1.8-0.6-1.8-1.8
		C535.5,404.4,535.5,399.8,535.5,394.9z"/>
	<path fill="#FFFFFF" d="M493.3,394.9c0-4.6,0-9.2,0-13.8c0-2.4,0-2.4,2.4-2.4c0.9,0,1.5,0,2.4,0c1.2,0,1.8,0.3,1.8,1.8
		c0,7.6,0,15.3,0,23.3c0,2.1,0,2.1,2.1,2.1c6.7,0,13.2,0,19.9,0c1.2,0,1.8,0.3,1.8,1.8c0,0.9,0,1.5,0,2.4c0.3,1.5-0.3,1.8-1.8,1.5
		c-8.9,0-17.7,0-26.9,0c-1.2,0-1.5-0.3-1.5-1.5C493.3,404.7,493.3,399.8,493.3,394.9z"/>
	<path fill="#FFFFFF" d="M451,394.9c0-4.9,0-9.8,0-14.7c0-1.2,0.3-1.8,1.8-1.8c0.9,0,2.1,0,3.1,0c1.2,0,1.8,0.3,1.8,1.8
		c0,7.6,0,15.6,0,23.3c0,2.1,0,2.1,1.8,2.1c6.7,0,13.2,0,19.9,0c1.5,0,1.8,0.3,1.8,1.8c0,4,0,4-4,4c-8,0-16.2,0-24.2,0
		c-1.8,0-1.8,0-1.8-2.1C451,404.4,451,399.5,451,394.9z"/>
	<path fill="#FFFFFF" d="M429,394.9c0-4.9,0-9.8,0-14.7c0-1.2,0.3-1.5,1.5-1.5c0.9,0,1.8,0,2.8,0c2.1,0,2.1,0,2.1,1.8
		c0,6.1,0,12.2,0,18.4c0,3.7,0,7,0,10.7c0,1.2-0.3,1.8-1.5,1.8c-1.5-0.3-3.7,0.3-4.6-0.3c-0.9-0.6-0.3-2.8-0.3-4.3
		C429,402.6,429,398.6,429,394.9z"/>
	<path d="M289.2,395.8c0-19.6,15.9-35.8,35.8-35.8c19.9,0,35.8,16.2,35.8,36.1c0,19.6-16.2,35.5-35.8,35.5
		C305.1,431.6,289.2,415.7,289.2,395.8z M290.7,395.8c0,18.4,15,34,33.4,34.3c18.7,0.3,34.9-14.7,35.2-34c0-18.4-15.3-34-33.4-34.3
		C306.9,361.6,291,376.3,290.7,395.8z"/>
	<path d="M592.4,383.9c2.8,0,5.5,0.3,8.6,0.6s4.6,3.1,3.4,6.1c-0.6,1.8-2.1,2.4-3.7,2.4c-3.4,0.3-6.7,0.3-10.4,0.3
		c-1.5,0-3.1,0-4.3,0c-0.9,0-1.2-0.3-1.2-1.2c0-2.4,0-4.6,0-7c0-0.9,0.6-0.9,1.2-0.9C587.8,383.9,590.3,383.9,592.4,383.9
		L592.4,383.9z"/>
	<g id="XMLID_1_">
		<g>
			<path fill="#FFFFFF" d="M273.3,383c0,8.9,0,17.5,0,26.3c0,1.5-0.3,1.8-1.8,1.8c-3.1,0.3-4.9-0.9-7-3.1
				c-6.1-6.7-12.2-13.5-18.7-20.2c0,0-0.3-0.3-0.9-0.9c0,7.6,0,14.7,0,22c0,2.5,0.3,2.5-2.4,2.5c-3.7,0-3.7,0-3.7-3.7
				c0-8.9,0-18,0-27.2c0-1.5,0.3-1.8,1.8-2.1c3.7-0.3,5.8,0.9,8.3,3.7c5.5,6.4,11.3,12.5,17.1,18.7c0.3,0.3,0.6,0.6,1.2,1.2
				c0-0.9,0-1.2,0-1.8c0-6.7,0-13.2,0-19.9c0-1.5,0.3-1.8,1.8-1.8c0.9,0,2.1,0,3.1,0c0.9,0,1.2,0.3,1.2,1.2
				C273.3,380.9,273.3,381.8,273.3,383z"/>
			<path fill="#FFFFFF" d="M224.6,405.6c1.5,0,1.8,0.3,1.8,1.8c0,3.7,0,3.7-3.7,3.7c-8.3,0-16.2,0-24.5,0c-1.5,0-1.8-0.3-1.8-1.8
				c0-9.8,0-19.6,0-29.1c0-1.2,0.3-1.8,1.8-1.8c8.6,0,17.1,0,26,0c1.2,0,1.8,0.3,1.8,1.8c0,4.6,0.6,4-4,4c-5.8,0-11.6,0-17.4,0
				c-1.2,0-1.8,0.3-1.8,1.8s0,2.8,0,4.3c0,1.2,0.3,1.5,1.5,1.5c5.5,0,11,0,16.2,0c1.5,0,1.8,0.6,1.8,1.8c0,0.9,0,2.1,0,3.4
				c-0.6,0-1.2,0-1.8,0c-5.2,0-10.7,0-15.9,0c-1.5,0-2.1,0.3-1.8,1.8c0,1.5,0,3.4,0,4.9s0.6,1.8,1.8,1.8
				C211.4,405.6,217.9,405.6,224.6,405.6z"/>
			<path fill="#FFFFFF" d="M179,380.9c2.8,2.1,4,6.4,3.1,10.4c-0.9,3.7-4,6.4-7.7,6.7c-0.6,0-0.9,0-1.2,0c3.4,4.3,6.4,8.6,9.8,13.2
				c-0.9,0-1.5,0-1.8,0.3c-4.3,0.9-7.3-0.9-9.5-4.6c-1.5-2.4-3.4-4.6-4.9-7c-0.6-0.9-1.2-1.2-2.1-1.2c-2.5,0-4.9,0-7.4,0
				c-0.9,0-1.2,0.3-1.2,1.2c0,3.4,0,6.7,0,10.1c0,1.2-0.3,1.5-1.5,1.5s-2.4,0-3.7,0c-0.9,0-1.5-0.3-1.5-1.5c0-10.1,0-20.2,0-30
				c0-0.9,0.3-1.2,1.2-1.2c7,0,14.1,0,21.1,0C174.1,378.7,176.9,379.3,179,380.9z M175.6,388.3C175.6,388.3,175.6,388.2,175.6,388.3
				c0-2.5-1.2-4.1-4-4.4c-2.8,0-5.5,0-8.3,0c-1.6,0-3.2,0-4.8,0.1c0,0,0,0,0,0c-0.5,0-1.1-0.1-1.6-0.1c-0.9,0-1.2,0.3-1.2,1.2
				c0,0.1,0,0.2,0,0.3c0,2,0,4.4,0,6.4c0,0.1,0,0.2,0,0.3c0,0.3,0.6,0.9,0.9,0.9c4.9,0,10.1,0,15-0.3c2.4-0.3,4-1.8,4-4.3
				C175.6,388.4,175.6,388.4,175.6,388.3z"/>
			<path fill="#FFFFFF" d="M175.6,388.2C175.6,388.2,175.6,388.3,175.6,388.2c-0.1-2.2-1.3-3.7-4-4c-2.8,0-5.5-0.3-8.3-0.3
				c2.8,0,5.5,0,8.3,0C174.4,384.2,175.6,385.8,175.6,388.2z"/>
			<path d="M175.6,388.3c0,0.1,0,0.1,0,0.2c0,2.5-1.5,4-4,4.3c-4.9,0.3-10.1,0.3-15,0.3c-0.3,0-0.9-0.6-0.9-0.9c0-0.1,0-0.2,0-0.3
				c0,0.3,0.6,0.9,0.9,0.9c4.9,0,10.1,0,15-0.3C174.1,392.5,175.6,390.7,175.6,388.3z"/>
			<path d="M171.7,384.2c2.7,0.3,3.9,1.8,4,4.1c0,2.4-1.6,4.2-4,4.2c-4.9,0.3-10.1,0.3-15,0.3c-0.3,0-0.9-0.6-0.9-0.9
				c0-2.1,0-4.4,0-6.4c0-0.9,0.3-1.2,1.2-1.2c0.5-0.1,1.1-0.1,1.6-0.2c0,0,0,0,0,0c1.6,0,3.2-0.1,4.8-0.1
				C166.2,383.9,168.9,384.2,171.7,384.2z"/>
			<path d="M163.4,383.9c-1.6,0-3.2,0.2-4.8,0.1C160.2,383.9,161.8,383.9,163.4,383.9z"/>
			<path fill="#FFFFFF" d="M158.6,384c-0.5,0-1.1,0.1-1.6,0.2c-0.9,0-1.2,0.3-1.2,1.2c0-0.1,0-0.2,0-0.3c0-0.9,0.3-1.2,1.2-1.2
				C157.5,384,158,384,158.6,384z"/>
			<path fill="#FFFFFF" d="M135.2,410.8c0,0,0,0.3,0,0.6c-1.2,0-2.4,0-3.4,0c-3.1,0.6-5.2-0.6-6.7-3.4c-1.8-2.8-4-5.5-5.8-8.3
				c-0.6-0.9-1.5-1.5-2.8-1.5c-2.8,0-5.2,0-8,0c0,0.6,0,1.2,0,1.8c0,3.1,0,6.1,0,9.5c0,1.2-0.3,1.5-1.5,1.5s-2.4,0-3.7,0
				c-0.9,0-1.2-0.3-1.2-1.2c0-10.1,0-20.2,0-30.3c0-0.9,0.3-1.2,1.2-1.2c7,0,14.1,0,21.1,0c1.5,0,3.4,0.3,4.9,0.9
				c3.4,0.9,5.2,3.4,5.5,6.7c0.6,6.7-2.8,11-9.2,11.9C129.1,402.3,132.2,406.6,135.2,410.8z M128.2,388.8c-0.1-0.7-0.2-1.3-0.4-1.8
				c-0.4-1.8-1.6-2.8-3.9-3.1c-2.4,0-5.2,0-8,0c-1.2,0-2.5,0-3.7,0.1c-1,0-2,0-3-0.1c-0.9,0-1.2,0.3-1.2,0.9c0,2.5,0,4.6,0,7
				c0,0.1,0.1,0.3,0.3,0.5c0,0,0,0.1,0,0.1c0,0.3,0.6,0.9,0.9,0.9c4.9,0,10.1,0,15-0.3C127,392.8,128.2,391.3,128.2,388.8z"/>
			<path d="M127.8,387c0.2,0.5,0.3,1.1,0.4,1.8c0,2.5-1.2,4-4,4.3c-4.9,0.3-10.1,0.3-15,0.3c-0.3,0-0.9-0.6-0.9-0.9c0,0,0-0.1,0-0.1
				c0.2,0.2,0.4,0.4,0.6,0.4c4.9,0,10.1,0,15-0.3c2.8,0,4-1.8,4-4.3C127.9,387.8,127.9,387.4,127.8,387z"/>
			<path d="M127.8,387c0.1,0.4,0.1,0.8,0.1,1.2c0,2.4-1.2,4.3-4,4.3c-4.9,0.3-10.1,0.3-15,0.3c-0.2,0-0.4-0.2-0.6-0.4
				c0-2.4,0-4.5,0-7c0-0.9,0.3-1.2,1.2-0.9c0.9-0.2,1.8-0.4,2.7-0.5c1.3,0,2.5-0.1,3.7-0.1c2.8,0,5.5,0.3,8.3,0.6
				C126.2,384.7,127.3,385.6,127.8,387z"/>
			<path fill="#FFFFFF" d="M127.8,387c-0.5-1.4-1.6-2.3-3.6-2.5c-2.8-0.3-5.5-0.6-8.3-0.6c2.8,0,5.5,0,8,0
				C126.2,384.2,127.4,385.3,127.8,387z"/>
			<path d="M112.2,384c1.2-0.1,2.5-0.1,3.7-0.1C114.8,383.9,113.5,384,112.2,384z"/>
			<path fill="#FFFFFF" d="M109.2,383.9c1,0.1,2,0.1,3,0.1c-0.9,0.1-1.8,0.2-2.7,0.5c-0.9-0.3-1.2,0-1.2,0.9c0,2.4,0,4.5,0,7
				c-0.2-0.2-0.3-0.4-0.3-0.5c0-2.4,0-4.6,0-7C108,384.2,108.3,383.9,109.2,383.9z"/>
			<path fill="#FFFFFF" d="M90,411.1c-2.1,0-4.3,0-6.1,0c-0.3,0-0.9-0.6-1.2-0.9c-0.9-1.5-1.5-3.4-2.5-5.2c-0.3-0.9-0.9-1.2-1.8-1.2
				c-5.5,0-10.7,0-16.2,0c-0.9,0-1.5,0.3-1.8,1.2c-0.6,1.5-1.5,3.4-2.1,4.9c-0.3,0.6-0.9,1.2-1.2,1.2c-1.8,0-4,0-6.1,0
				c0.3-0.6,0.3-1.2,0.6-1.5c4.9-9.8,9.8-19.9,14.7-29.7c0.6-0.9,1.2-1.5,2.1-1.5c1.5,0,3.1,0,4.6,0c0.9,0,1.5,0.3,1.8,1.2
				c3.7,7.6,7.6,15.3,11.3,23.2c1.2,2.1,2.1,4.6,3.4,6.7C89.7,410.2,89.7,410.5,90,411.1z M77.1,398c0.1,0,0.2,0,0.3,0
				c-2.4-4.6-4.6-9.2-6.7-14.1c-0.1,0.1-0.1,0.2-0.2,0.3c-0.1-0.1-0.1-0.2-0.2-0.3c-1.9,4.3-3.7,8.3-5.6,12.4
				c-0.3,0.6-0.5,1.2-0.8,1.7C68.4,398,72.6,398,77.1,398z"/>
			<path d="M77.4,398c-0.1,0-0.2,0-0.3,0c-2.1-4.5-4.2-9-6.6-13.8c0-0.1,0.1-0.2,0.2-0.3C72.8,388.8,75,393.4,77.4,398z"/>
			<path d="M77.1,398c-4.5,0-8.7,0-13.2,0c0.3-0.6,0.5-1.1,0.8-1.7c1.8-3.9,3.7-7.9,5.8-12C72.9,389,75,393.5,77.1,398z"/>
			<path fill="#FFFFFF" d="M70.4,383.9c0.1,0.1,0.1,0.2,0.2,0.3c-2.1,4.2-4,8.1-5.8,12C66.6,392.2,68.5,388.2,70.4,383.9z"/>
			<path fill="#FFFFFF" d="M42.2,378.4c1.2,0,1.5,0.3,1.2,1.5c-1.5,5.5-3.4,11.3-4.9,16.8c-1.2,4.3-2.5,8.6-3.7,13.2
				c-0.3,0.9-0.6,1.5-1.8,1.5c-4.9,0-4.9,0-6.1-4.6c-1.5-5.8-3.1-11.3-4.6-17.1c0-0.3-0.3-0.6-0.3-1.2c-1.8,7.4-4,14.1-5.5,20.8
				c-0.3,1.5-0.9,2.1-2.8,2.1c-4.3,0-4.3,0-5.5-4c-2.8-9.2-5.2-18.4-8-27.2c-0.6-1.5-0.6-1.8,1.2-1.8c4.6,0,4.6,0,6.1,4.6
				c1.5,5.8,3.4,11.6,4.9,17.8c0.6-1.5,0.9-3.1,1.2-4.3c1.5-5.2,3.1-10.7,4.6-16.5c0.3-1.2,0.9-1.5,2.1-1.5c4.6,0,4.6,0,5.8,4.3
				c1.5,5.8,3.4,11.6,5.2,18c0.3-0.6,0.3-1.2,0.6-1.5c1.8-6.4,3.7-12.9,5.2-19.3c0-0.9,0.6-1.5,1.8-1.5
				C40.1,378.4,41.3,378.4,42.2,378.4z"/>
		</g>
		<g>
		</g>
	</g>
	<path fill="#FFFFFF" d="M290.7,395.8c0.3-19.6,16.2-34.3,35.2-34c18.1,0.3,33.4,15.9,33.4,34.3c0,19.6-16.2,34.6-35.2,34
		C305.7,429.8,290.7,414.5,290.7,395.8z M299,403.2c4.6,0,9.2,0,13.5,0c1.2,0,1.5,0.3,1.8,1.5c1.2,4.9,2.8,10.1,4.3,15
		c0.6,2.1,1.5,2.8,3.7,2.8c1.8,0,2.8-0.9,3.4-3.1c1.5-6.4,3.1-12.9,4.6-19.3c0.3-1.8,1.2-2.4,2.8-2.1s1.8,1.5,1.8,2.8
		c0,0.3,0,0.9,0,1.2c0,2.1,0,4.3,0,6.4c4.6,0,8.9,0,13.5,0c-0.3-0.6-0.3-1.2-0.3-1.8c-1.2-4-2.1-8-3.4-11.9
		c-1.8-6.7-3.7-13.5-5.8-20.2c-0.9-3.1-3.7-4.6-6.7-3.4c-1.8,0.6-2.8,2.4-3.4,4.3c-1.8,7.3-3.7,14.4-5.5,21.7
		c-0.3,1.2-0.6,1.5-1.8,1.5s-2.4,0-3.4,0s-1.5-0.3-1.8-1.2c-1.2-3.1-2.4-6.1-3.7-9.2c-0.6-1.8-1.5-3.1-3.7-3.1s-3.1,1.2-3.7,3.1
		c-1.5,4-3.4,8-4.9,11.9C299.6,401,299.3,402,299,403.2z"/>
	<path d="M299,403.2c0.3-1.2,0.9-2.1,1.2-3.1c1.5-4,3.4-8,4.9-11.9c0.6-1.8,1.5-3.1,3.7-3.1c2.1,0,3.1,1.2,3.7,3.1
		c1.2,3.1,2.4,6.1,3.7,9.2c0.3,0.9,0.9,1.2,1.8,1.2c1.2,0,2.4,0,3.4,0c1.2,0,1.5-0.3,1.8-1.5c1.8-7.3,3.7-14.4,5.5-21.7
		c0.6-1.8,1.2-3.4,3.4-4.3c3.1-1.2,5.8,0.3,6.7,3.4c1.8,6.7,4,13.5,5.8,20.2c1.2,4,2.1,8,3.4,11.9c0,0.6,0.3,0.9,0.3,1.8
		c-4.6,0-8.9,0-13.5,0c0-2.1,0-4.3,0-6.4c0-0.3,0-0.9,0-1.2c0-1.2-0.3-2.4-1.8-2.8c-1.2-0.3-2.1,0.6-2.8,2.1
		c-1.5,6.4-3.1,12.9-4.6,19.3c-0.6,2.1-1.5,3.1-3.4,3.1c-2.1,0-3.1-0.6-3.7-2.8c-1.5-4.9-3.1-10.1-4.3-15c-0.3-1.2-0.9-1.5-1.8-1.5
		C307.8,403.2,303.6,403.2,299,403.2z"/>
</g>
</svg>
