<?xml version="1.0" encoding="utf-8"?>
<!-- Generator: Adobe Illustrator 18.0.0, SVG Export Plug-In . SVG Version: 6.00 Build 0)  -->
<!DOCTYPE svg PUBLIC "-//W3C//DTD SVG 1.1//EN" "http://www.w3.org/Graphics/SVG/1.1/DTD/svg11.dtd">
<svg version="1.1" id="Layer_2" xmlns="http://www.w3.org/2000/svg" xmlns:xlink="http://www.w3.org/1999/xlink" x="0px" y="0px"
	 viewBox="0 0 39.9 27.6" enable-background="new 0 0 39.9 27.6" xml:space="preserve">
<g id="xvPie1_1_">
	<g>
		<path d="M10.3,27.6c-0.2,0-0.4,0-0.6,0c0,0,0,0,0,0c-0.7-0.1-1.4-0.3-2.2-0.4c-0.4-0.1-0.8-0.1-1.2-0.2c-0.6-0.1-1.1-0.2-1.7-0.3
			c-0.5-0.1-1-0.1-1.4-0.3c-0.2-0.1-0.4-0.1-0.5-0.1c-0.4,0-0.8-0.1-1.2-0.1c-0.2,0-0.5-0.1-0.7-0.1C0.3,26,0.1,25.8,0,25.6
			c0-0.1,0-0.3,0-0.4c0.1-0.3,0.3-0.6,0.4-0.9c0.2-0.6,0.5-1.3,0.7-1.9c0.1-0.1,0.1-0.3,0.2-0.4c0.1-0.3,0.2-0.6,0.4-0.9
			c0.1-0.3,0.2-0.6,0.3-0.9c0-0.1,0.1-0.2,0.1-0.2c0.2-0.5,0.3-0.9,0.5-1.4c0.1-0.3,0.2-0.6,0.3-0.9C3,17.4,3.1,17.2,3.1,17
			c0-0.1,0.1-0.2,0.1-0.3c0-0.1,0-0.2,0-0.2c-0.2-0.2-0.2-0.3-0.1-0.6c0.1-0.2,0.2-0.4,0.3-0.6C3.8,14.5,4,13.8,4.3,13
			c0.1-0.4,0.2-0.8,0.1-1.1c-0.1-0.5-0.4-1-0.7-1.4c0,0-0.1,0-0.1-0.1c-0.6-0.4-1.3-0.5-2-0.6c-0.3,0-0.5,0-0.8-0.1
			C0.2,9.7,0.3,9.5,0.2,9.1c0-0.4,0.2-0.7,0.6-0.9C1.3,8,1.9,7.8,2.3,7.5c0.1,0,0.1-0.1,0.2-0.1c0.4-0.1,0.8-0.2,1.2-0.3
			C3.9,7,4.1,6.9,4.1,6.7c0.1-0.6,0.1-1.2,0.1-1.8c0,0,0,0,0,0c0-0.2-0.1-0.3-0.1-0.5c0-0.1,0-0.2-0.1-0.3c-0.3-0.2-0.7-0.5-1-0.7
			C2.7,3.2,2.4,3.1,2.1,2.9C2,2.8,2,2.5,2,2.4c0,0,0,0,0,0c0.3-0.1,0.7-0.2,1,0c0.1,0.1,0.3,0.2,0.5,0.2c0.2,0.1,0.5-0.1,0.7,0
			c0.1,0,0.1-0.1,0.2-0.1C4.8,2.4,5,2.1,5.1,1.8c0-0.1,0.1-0.2,0.2-0.2c0.1-0.1,0.3-0.2,0.4-0.3C5.9,1.2,6,1.1,6.1,1.1
			C6.4,1.1,6.7,1.1,7,1C7.1,1,7.2,1,7.2,1c0.1-0.1,0.2-0.3,0.2-0.4C7.6,0.4,7.6,0.1,7.9,0C8,0,8,0,8,0c0.1,0.3,0.3,0.6,0.4,0.9
			c0.1,0.3,0.2,0.4,0.5,0.4c2.6,0,5.3,0,7.9,0c6.1,0,12.2-0.1,18.3,0c0.3,0,0.7,0,1,0c0.3,0,0.6-0.1,0.9-0.3
			c0.1-0.1,0.2-0.1,0.2-0.2c0.4-0.3,1-0.3,1.3,0.2c0,0.1,0.1,0.1,0,0.2c0,0-0.1,0-0.2,0.1c0.1,0,0.1,0.1,0.1,0.1
			c0.3,0,0.5,0.1,0.7,0.3c0.1,0.1,0.2,0.2,0.2,0.3c0,0.1,0,0.2,0.1,0.2c0.1,0.2,0.2,0.4,0.3,0.6c0,0.3,0,0.6,0,0.9c0,0,0,0.1,0,0.1
			c0,0.5-0.1,1-0.1,1.4c-0.1,0.8-0.1,1.6-0.2,2.3c0,0.3-0.1,0.3-0.3,0.4c-0.1,0.4-0.2,0.5-0.5,0.5c-0.3,0-0.6,0-0.9,0
			c-0.8,0-1.6,0-2.4,0.1c-0.7,0-1.3,0-2,0.1c-0.5,0-0.9,0-1.4,0c-0.3,0-0.4,0-0.4,0.3c0,0.1-0.1,0.2-0.2,0.2c-0.1,0-0.3,0-0.4,0
			c-1.8,0.1-3.6,0.1-5.4,0c-0.7,0-1.3-0.1-1.9,0.2c-0.1,0-0.2,0.1-0.3,0.2c-0.3,0.2-0.6,0.4-0.7,0.8c-0.1,0.4-0.2,0.7-0.3,1.1
			c-0.1,0.3-0.1,0.7-0.1,1c-0.1,0.4-0.2,0.9-0.5,1.3c-0.3,0.5-0.8,0.7-1.3,0.9c-0.6,0.1-1.1,0.1-1.7,0.2c-0.6,0-1.1,0-1.7,0
			c-0.7,0-1.4,0-2.1,0.3c-0.1,0-0.2,0.1-0.3,0.1c-0.3,0.2-0.6,0.3-0.8,0.5c-0.4,0.3-0.6,0.8-0.8,1.3c-0.2,0.7-0.3,1.4-0.6,2.1
			c-0.3,0.8-0.5,1.7-0.7,2.5c-0.2,0.7-0.3,1.3-0.5,2c-0.2,0.7-0.4,1.5-0.6,2.2c-0.1,0.4-0.2,0.9-0.3,1.3c0.1,0.1,0.3,0.1,0.4,0.1
			c0,0,0.1,0.1,0.1,0.1c0,0,0,0.1-0.1,0.1C10.5,27.5,10.4,27.5,10.3,27.6z M18.1,9.6C18.1,9.6,18.1,9.6,18.1,9.6
			c0,0.1,0,0.2-0.1,0.3c-0.9,0.8-1,1.9-0.6,3c0.1,0.3,0.3,0.5,0.4,0.8c0.1,0.1,0.1,0.2,0.2,0.3c0,0,0.1,0.1,0.1,0.1
			c0.6,0,1.1,0,1.7-0.1c0.4,0,0.8-0.2,1.1-0.5c0.6-0.6,0.7-1.4,0.6-2.2c-0.1-0.6-0.5-1-0.9-1.3c-0.2-0.2-0.5-0.3-0.8-0.3
			c-0.4,0-0.8,0-1.2,0C18.5,9.5,18.3,9.6,18.1,9.6z"/>
	</g>
</g>
</svg>
