<?xml version="1.0" encoding="utf-8"?>
<!-- Generator: Adobe Illustrator 18.0.0, SVG Export Plug-In . SVG Version: 6.00 Build 0)  -->
<!DOCTYPE svg PUBLIC "-//W3C//DTD SVG 1.1//EN" "http://www.w3.org/Graphics/SVG/1.1/DTD/svg11.dtd">
<svg version="1.1" id="Layer_1" xmlns="http://www.w3.org/2000/svg" xmlns:xlink="http://www.w3.org/1999/xlink" x="0px" y="0px"
	 viewBox="0 0 960.2 554.2" enable-background="new 0 0 960.2 554.2" xml:space="preserve">
<g>
	<path fill="#6F7072" d="M55.8,545c-1.7,0-3.3,0.1-5,0.1c-4.3-1.1-8.7-2.1-13-3.2c-0.8-0.9-3,0.3-2.8-1.7c0.1-1.2,1.7-1.4,2.8-1.5
		c3.6-0.1,7.1,0.8,10.6,1.3c8.1,0.7,16.2,0.5,24.3,0.9c5.8,0.3,11.6,0.3,17.4,0.7c74.1,5.3,148.4,2,222.6,2.7
		c20.7,0.2,41.4-1.3,62.1-0.6c14.2,0.5,28.5,0.4,42.6,0.2c22.3-0.4,44.6-0.7,66.9-0.2c20.5,0.5,40.9,0.1,61.4,0.9
		c40.6,1.5,81.1,0.7,121.7,0.8c49.3,0.2,98.6-0.1,147.9,0.1c19.1,0.1,38.1-2.3,57.3-2.4c10.1,0,20.2-1.1,30.3-2.2
		c1.5-0.3,3.1-0.4,4.5,0.4c0.8,0.7,0.9,1.5,0.3,2.4c-0.4,0.3-0.7,0.7-1.1,1c-3.1,2.5-6.9,2.1-10.5,2.5c-18.3,2.1-36.7,4-55.1,5.9
		c-2.3,0.2-4.7,0.2-7,0.2c-28,0-56,0-84,0c-201.8,0-403.6,0.8-605.3,0.6c-22.2,0-44.2-1-66-4.8c-4.9-0.9-9.9-1.4-14.9-1.9
		C61,547.1,58,547.2,55.8,545z"/>
	<path fill="#8A8B8F" d="M907.7,542.1c-1.3,0-2.7,0-4,0c-13.5,0.6-27,1.2-40.5,2c-17.8,0.4-35.5,0.6-53.3,1
		c-30.4,0.8-60.9,0.4-91.3,0.3c-22.9-0.1-45.9,0.4-68.8,0c-12.9-0.3-25.8-0.4-38.7-0.7c-15.9-0.4-31.9-0.4-47.8-0.2
		c-14.9,0.2-29.9,0.1-44.8-0.1c-14.7-0.2-29.5-0.6-44.2-0.4c-0.6,0-1.2-0.1-1.8-0.2c-4.3-0.8-8.6-0.5-12.9-0.4
		c-15.6,0.1-31.3,0.6-46.9-0.2c-18.9-1-37.8-1.4-56.7-2.1c-11.4-0.4-22.9-0.4-34.3,0.1c-9.9,0.5-19.9-0.4-29.9-0.7
		c-13.1-0.4-26.2-1.2-39.4-0.8c-9.3,0.3-18.5-1.5-27.9-0.3c-2.4,0.3-6.3,0.9-6.3-3.8c1.8-1.3,3.8-1.1,5.8-1.1
		c55.6,0,111.3-1.7,166.8,0.5c51.8,2.1,103.6,2.6,155.2,1c89.1-2.7,178.1-0.5,267.1-1.6c3.3,0,6.7-0.2,10,0.4
		c4.7,1.3,9.4,1.9,14.3,1.8c16-0.4,31.9,0.1,47.9,0c9.5-0.1,18.9-1,28.4-0.2c5.6,0.5,11.2,0.5,16.8-1.4c2.6-0.9,5.6-0.9,8.4,0.1
		c2.8,2.1,0.1,2.8-1,3.9c-5.2,1.7-10.5,2.9-16,3C917,541,912.3,543.5,907.7,542.1z"/>
	<path fill="#A3A4A8" d="M823.7,536.1c-85.4,0-170.9-1.5-256.3,0.6c-54.6,1.3-109.2,2.6-163.6,0.8c-62.1-2-124.1-0.2-186.1-1.4
		c-1.9,1.9-4.3,1.6-6.6,1.6c-62.3,0-124.6,0-186.8,0.1c-6.5,0-12.4-1.9-18.3-4.2c-1.5-0.6-3.4-1.2-2.2-3.5c3.9-0.8,6.9,3.3,10.9,2.1
		c4.3,0.6,8.5,0.5,12.8-0.2c6.9-1.1,13.9-0.4,20.9-0.4c40.1,0.1,80.1,0.2,120.2,0.2c74.2-0.2,148.5,0,222.7-0.1
		c1.8,0,3.7,0.3,5.4-0.6c2.6-0.5,4.9-1.9,7.6-2.1c1.8-0.1,3.7-0.3,4.8,1.6c0.4,1.9,1.5,2.9,3.4,2.9c1.2,0,2.3,0.1,3.5,0.1
		c41.5,0,83.1,0,124.6,0c3,0,6.2,0.4,7-3.7c3.4-1.7,6.8-1.5,10.2-0.1c1.3,1.9,3.3,1.9,5.3,1.9c34.7,0,69.3,0.8,104-0.2
		c40.6-1.2,81.3-0.4,121.9-0.6c47.3-0.2,94.6-0.2,142-0.1c2.6,0,5.4-0.5,7.6,1.5c6.5,0.5,12.8,0,19-2c1,1.7-0.2,2.3-1.4,2.9
		c-2.7,1.3-5.6,1.6-8.6,1.5c-10.8-1-21.4,2.9-32.2,2.1c-2.8-0.2-5.6-0.2-8.4-0.9c-4.6-1.2-9.2-1.4-13.8,0.2
		c-2.2,0.8-4.6,0.8-6.9,0.7c-12.2-0.4-24.5,0.3-36.6-1.5c-2.2-0.3-4.3,0.1-6.4,0.6C836.8,537.1,830.3,536.8,823.7,536.1z"/>
	<path fill="#E1E2E4" d="M539.6,0.2c64.3,0,128.6-0.1,192.9-0.1c36.6,0,73.3,0.2,109.9-0.1c16-0.1,29.4,13.9,29.4,29.3
		c-0.3,120.6-0.2,241.2-0.2,361.7c-1.1,1.3-2,4-4,0.7c-0.9-2.6-0.5-5.3-0.5-7.9c0-116.6,0-233.3,0-349.9c0-3.7-0.2-7.3-1.2-10.9
		c-2.7-9.8-9.3-15.4-19.1-17.6c-4.1-0.9-8.3-0.8-12.4-0.8c-124,0-247.9,0-371.9,0c-3.3,0-6.7,0.7-9.7-1.3c0.6-3.6,3.5-2.2,5.4-2.2
		c24.4-0.1,48.8,0,73.1-0.1C534.1,1.1,537,1.8,539.6,0.2z"/>
	<path fill="#7E7F82" d="M3.8,530c0.3,0.6,0.5,1.6,0.8,1.7c5.6,1,10.2,4.6,16.4,4.5c65.6-0.3,131.2-0.1,196.7-0.1
		c1.7,2.1,4.1,2.4,6.4,1.9c6.9-1.3,13.8-0.1,20.7,0c8.5,0.1,17-0.5,25.5,0.1c15.6,1.1,31.3,0,46.9,1.8c6.3,0.7,12.5-1.1,18.9-1
		c15.5,0.4,31.1,0.6,46.6,1.4c9.6,0.5,19.2,0.7,28.8,1.3c17.4,1.1,34.8,0.2,52.3,0.2c3.1,0,6.2-0.6,9.1,1.1c-0.1,2.3-1.9,1.5-3,1.4
		c-14.1-0.2-28.2-0.4-42.3-0.2c-9.4,0.1-18.8,0.4-28.2,0.2c-15.8-0.3-31.5-0.1-47.3-0.6c-9.4-0.3-18.8,0.5-28.2,0.9
		c-4.1,0.2-8.3-0.3-12.4-0.3c-24,0.1-47.9-0.1-71.9-0.1c-21.8,0-43.6,0.4-65.4-0.5c-9.8-0.4-19.6,0.7-29.4,0.5
		c-23.2-0.5-46.4-1.8-69.6-2.8c-9.1-0.4-18.2-0.3-27.2-0.6c-4,0.6-7.8-1.7-12.2-0.8c0.8,0.7,1.5,1.2,2.2,1.7
		c-11.2-1.2-22.2-3.8-33-7.2c-0.8-0.2-1.6-0.6-2.2-1.1c-1-0.7-2.9-1-2.5-2.6C0.6,528.9,2.5,530.1,3.8,530z"/>
	<path fill="#C6C7CA" d="M539.6,0.2C539,3.3,536.5,2,534.8,2c-25.4,0.1-50.9,0.1-76.3,0.1c-1.9,0-4-0.7-5.7,0.9
		c-2.7,2.4-6,1.6-9.1,1.6c-57.8,0.1-115.6,0-173.4,0c-49.1,0-98.3,0-147.4,0c-8,0-15.6,0.9-21.8,6.9c-5.2,5-7.9,11-7.9,18.2
		c0,16.8,0.1,33.6,0,50.5c0.1,81.5,0,163,0,244.5c0,2.1,0.3,4.4-1.3,6.2c-3.4-0.2-2.6-3-2.6-4.8c-0.2-44.6,0.8-89.2-0.3-133.8
		C87.7,137.2,88.9,82.1,88.3,27c0-1-0.1-2,0.4-2.9c2.6-14.2,14.2-24,28.9-24C258.3,0.1,399,0.2,539.6,0.2z"/>
	<path fill="#E2E3E5" d="M88.7,24.1c0,46.6-1.2,93.3,0.4,139.9c1.9,54.5,1.3,108.9,1.7,163.4c0,1.3-0.2,2.7,0.8,3.8
		c2.3,2.1,1.6,4.9,1.6,7.5c0,58.8,0,117.6,0.1,176.4c0,4.4-0.1,9,3.4,12.5c2.1,1.4,4.5,1,6.8,1c22.6,0,45.3,0,67.9,0
		c2.4,0,5-0.5,7.2,1.1c-0.8,3.8-4,2.2-5.9,2.1c-18.1-0.9-36.2-0.1-54.3-0.4c-3.1,0-6.1,0-8.1,0c-1.7,0.3-0.8,1.2-1.2,0.6
		c-0.1-0.2,0-0.3,0.4-0.3c4.4-0.7,8.9-0.2,13.4-0.3c13.8-0.1,27.6-0.1,41.4,0c1.5,0,3.3-1,4.4,1c-12.8,0.1-25.6,0.3-38.4,0.3
		c-36.6,0-73.2,0-109.7,0c-1.9,0-4,0.6-5.8-0.8c10.9-0.5,21.4-4.8,32.5-3.1c9.7,1.6,19.6,0.8,29.4,1c1,0,2,0,3,0
		c8.6-0.4,8.4-0.5,8.3-8.9c-0.1-28.1-0.3-56.3,0.2-84.4c0.7-34.2,0.8-68.4,0.5-102.6c-0.1-11.5-0.8-23-0.8-34.6
		c0-89.8,0-179.5,0-269.3C87.8,28.2,87,26,88.7,24.1z"/>
	<path fill="#E9EAEB" d="M938.7,532c-50.8,0-101.5,0.1-152.3,0.1c-37,0-73.9-0.6-110.9,0.2c-38.1,0.8-76.2,0.2-114.3,0.5
		c-1.4,0-5.2,1.8-3.4-2.7c2.2-2.2,5-1.5,7.6-1.5c31.8-0.1,63.6,0,95.5,0c67.1,0,134.3,0,201.4,0c3.2,0.4,6.2-0.6,9.3-0.6
		c1.6,1.8,3.7,1,5.6,1c18.9,0.1,37.7,0,56.6,0.1C935.9,529.1,938.8,528.1,938.7,532z"/>
	<path fill="#CDCFD1" d="M871.6,528c-2.1,3.1-5.2,1.9-8.1,2c-0.2-0.6-0.1-1.3,0.2-1.9c3.1-5.2,3.4-11.1,3.4-16.8
		c-0.2-36.9,0.1-73.8,0.1-110.6c0-2.6-0.7-5.4,1.5-7.6c1-0.7,2-1.3,2.9-2C871.6,436.7,871.6,482.4,871.6,528z"/>
	<path fill="#7C7D80" d="M947.8,533.1c3.4-0.6,7.6,1.2,9.9-3c0.8-0.1,1.8-0.4,2.2,0.5c0.7,1.2-0.4,1.8-1.1,2.3
		c-2.8,1.9-5.9,2.8-9.1,3.6c-4,1-7.8,2.5-12,2.6c0.7-1,1.4-2,2-3C941.9,533.7,945.7,535.8,947.8,533.1z"/>
	<path fill="#7C7D80" d="M907.7,542.1c4.7-0.6,9.3-3.2,14,0c-2.6,1.1-5.1,2.1-8,2c-2,0-4-0.1-6-0.1
		C907.7,543.3,907.7,542.7,907.7,542.1z"/>
	<path fill="#7C7D80" d="M47.8,541.1c3.8-1.7,8-0.4,11.9-0.4c3.6-0.1,7.5,0,11.2,0.3c13.6,0.8,27.3,0.5,40.8,1.3
		c13.5,0.8,27.1,1.2,40.6,0.8c29.1-0.7,58.2,0.8,87.3,0c15.7-0.5,31.3,0.1,47-0.2c10.7-0.1,21.6-1.1,32.3,1.2
		c3.7,0.8,7.2-1.2,10.9-1c9.1,0.5,18.1-1.2,27.3-0.2c9.6,1,19.3,0.1,29,0.3c9.5,0.2,19,1.2,28.5,0.8c8.1-0.4,16.1-0.1,24.1-0.3
		c9.6-0.3,19.3,0.3,29,0.5c1.7,0,3.7,0.7,5.2-1c0.3,0,0.7,0,1,0c6.6,0.9,13.2,0.4,19.8,0.4c8.9,0,17.9,0.1,26.8,0.3
		c9.4,0.2,18.9,0.1,28.3,0.3c18.9,0.3,37.8-0.1,56.7,0.1c22.8,0.3,45.5,0.6,68.3,0.4c26.7-0.2,53.3,0.3,80,0.3
		c15.7,0,31.5,0.2,47.2-0.1c18.5-0.4,37.1,0.2,55.6-1.5c2.4-0.2,4.9,1.1,7.3-0.2c13.3-1.1,26.6-1.7,40-1c-5,2.3-10.4,1.3-15.6,1.7
		c-8.9,0.6-17.9,1.1-26.8,1.5c-92,4-184.1,0.8-276.2,1.9c-10.3,0.1-20.7,0.4-31-0.3c-18.8-1.2-37.6,0.4-56.4-0.9
		c-24-1.6-47.9-0.7-71.9-0.7c-10.6,0-21.2-0.6-31.8,0c-14.9,0.9-29.7-1-44.5,0.1c-7.4,0.5-14.9,0.7-22.4,0c-5-0.5-10.1,0.7-15.1,0.7
		c-57.5,0.1-115,0.4-172.5-0.1c-21.7-0.2-43.3-2.8-65-3.4c-7.2-0.2-14.5-1.1-21.7-0.5C51.2,542.1,49.3,542.7,47.8,541.1z"/>
	<path fill="#7E7F82" d="M863.7,543c-0.7,0.3-1.5,1-2.2,0.9c-8.5-0.6-16.9,1.1-25.3,1.1c-11.7,0.1-23.4-0.4-35.2,0.7
		c-6.9,0.6-14-0.5-21-0.4c-14.9,0.1-29.8,0.6-44.7,0.6c-14.8-0.1-29.7-0.8-44.5-0.9c-46.7-0.1-93.4,0.1-140-0.2
		c-10.1-0.1-20.3-0.3-30.4-0.5c-13.8-0.3-27.6-0.9-41.5-0.4c-1.7,0.1-3.7,0.7-5.2-1c6.5-0.9,13.1,0.1,19.6-0.2
		c16.5-0.7,33,0.1,49.5,0.4c19,0.2,38-0.2,56.9,0.1c11.5,0.2,23,0.8,34.5,0.7c18.2-0.1,36.5,0,54.7,0c34.9,0,69.8,0.2,104.7-0.1
		c19.4-0.2,38.9-1,58.3-1.1C855.8,542.9,859.8,543.1,863.7,543z"/>
	<path fill="#97989C" d="M947.8,533.1c-1,5.6-5.4,1.8-8.1,3c-7.1-1.3-13.6,2.2-20.7,2.1c-14.4-0.3-28.7-0.1-43.1-0.1
		c-14.1,0-28.1,0-42.2,0c-3.5,0-6.8-0.5-10-2c7.9-1.2,16-0.8,23.9-2.7c3.1-0.8,6.8,0.7,10.2,1.3c2.6,0.5,5.2,1,7.7-0.8
		c0.6-0.4,1.6-0.7,2.3-0.5c9.6,3,19.2,2.4,28.8,0c2.2-0.5,4.8-0.7,6.9,0c8.5,2.8,17.2,2.3,25.7,1.4
		C935.4,534.1,941.5,532.8,947.8,533.1z"/>
	<path fill="#5E5F61" d="M863.8,529.1c-0.1,0.3-0.2,0.6-0.3,0.8c-87.8,0-175.5,0.1-263.3,0.1c-14.2,0-28.3,0.1-42.5,0.1
		c-3.4,0-6.8,0.1-10.2,0.1c-2,1.6-4.4,1.4-6.7,1.4c-41.8,0-83.6,0-125.4,0c-2.3,0-4.7,0.3-6.7-1.4c-3.8-1.4-7.3,1.9-11.1,0.8
		c-2.1,0.8-4.3,0.5-6.4,0.5c-64.5,0-129,0-193.6,0c-5.1,0-10.2-0.7-15.4-0.1c-1.3,0.1-2.6-0.2-3.7-1.2c-25.3-0.1-50.6-0.2-75.9-0.3
		c-2.5,0-5,0.4-7.3-0.9c1.6-1.8,3.8-1.4,5.8-1.8c0.6,0,1.3,0,1.9,0.2c2.7,0.2,5.3,0.1,8,0.1c113,0,226,0.1,338.9-0.1
		c51.5-0.1,103-0.2,154.5-0.1c40.2,0.1,80.3,0.3,120.5,0.1c41.5-0.2,83,0,124.5-0.1c3,0,6-0.3,9-0.3
		C860.4,527.4,862.4,527.5,863.8,529.1z"/>
	<path fill="#EFEFF0" d="M178.7,530.2c47-0.1,93.9-0.1,140.9-0.1c24.3,0,48.6,0,73,0c1.7,0,3.7-0.8,5.2,0.9c-0.4,2.4-2.3,2-3.9,2
		c-66.3,0-132.6,0-199-0.1c-8.8,0-17.5-0.1-26.3-0.2c-1.7-1.1-3.6-0.6-5.4-0.6c-16.8,0-33.6,0-50.5,0c-1.6,0-3.3,0-5.8,0
		c2.5-1.5,4.3-0.9,6-0.9c20.1,0,40.3,0,60.4-0.1C175.2,531,177.1,531.6,178.7,530.2z"/>
	<path fill="#F4F4F5" d="M408.9,530.2c46.2,0,92.5,0,138.7,0.1c2.1,3.2,2,4.9-2.5,4.9c-44.6-0.1-89.3,0-133.9,0
		c-1.4,0-3.3,0.6-4.1-1.1C406.3,532.3,408,531.4,408.9,530.2z"/>
	<path fill="#4A4B4E" d="M863.8,529.1c-1.4-0.3-3,0.5-4.1-1c5-8.6,5.4-17.9,3.7-27.4c-0.4-18.5-0.8-37,0.1-55.4
		c0.6-12.2,0.7-24.3,0.7-36.4c0.1-123.9,0.1-247.8,0-371.7c0-3,0.3-6-0.7-8.9c-2.9-14.3-9.3-19.6-23.7-19.6
		c-40.6,0-81.2,0.1-121.9-0.1c-58.4-0.2-116.9,0-175.3-0.1c-28,0-55.9,0-83.9,0c-41.3,0-82.6,0-123.9,0c-49.2,0-98.3-0.1-147.5,0
		c-22.3,0.2-44.6,0.5-66.9-0.1C105.2,8.1,96,18.9,96.3,32.7c0.2,13.8,0.1,27.6-0.1,41.4c0,2.1,0.3,4.3-0.6,6.4
		c-1.4,1.8-2.6,1.3-3.6-0.4c-0.1-17.5-0.4-35-0.1-52.5C92,13.8,104.1,3.3,119.4,3.3c34.5-0.1,69,0,103.5,0c75,0,149.9,0,224.9,0.1
		c1.7,0,3.3-0.2,5-0.3c39.3,0.1,78.6,0.2,117.9,0.2c89.6,0,179.2,0,268.8,0.1c19.2,0,29.1,10.5,29.1,30c-0.1,119.1,0,238.2,0,357.3
		c0,0.8,0.1,1.7,0.2,2.5c-0.1,8.5-0.2,17-0.2,25.5c0,30,0,59.9,0.1,89.9c0,5-0.3,10-1.1,14.9C867.1,525.6,867.2,528.6,863.8,529.1z"
		/>
	<path fill="#585A5D" d="M91.9,80.1c0.9,0.3,1.8,0.7,2.8,1c1.5,1.2,1.4,2.9,1.5,4.6c0.1,2.2,0,4.3,0,6.5c0,142.1,0,284.2,0,426.3
		c0,3.1,0.7,6,3.5,7.8c0.4,0.3,0.7,0.7,0.9,1.2c0,0.2,0.1,0.5,0.1,0.7c-1.5,1.6-3.5,0.5-5.2,0.9c-4.2-3.2-3.8-8-3.8-12.2
		c-0.1-61.1-0.1-122.2-0.1-183.3c0-0.8-0.1-1.7-0.1-2.5c0.1-26.1,0.2-52.2,0.2-78.3c0-56.1,0-112.1-0.1-168.2
		C91.7,83.1,91.8,81.6,91.9,80.1z"/>
	<path fill="#C2C3C6" d="M864.8,501.8c1.1,6.6,0.6,13.2-0.3,19.8c-0.4,2.9-1.9,5.3-4.8,6.5c-3.6,1-7.2,0.7-10.9,0.7
		c-244.4,0-488.9,0.1-733.3,0.1c-4.6,0-9.3,1.3-13.8-0.8c1.9-1.9,4.3-1.5,6.5-1.5c11.2-0.1,22.4,0.1,33.6-0.1
		c44.3-0.2,88.6-0.1,132.8-0.1c25.3,0,50.6-0.1,75.9,0.1c22.1-0.2,44.1-0.2,66.2,0.1c13.2,0,26.4-0.4,39.6,1c0.7-0.1-0.2-1,0-0.4
		c0.1,0.2-0.1,0.3-0.4,0.3c-2.8-0.5-5.6,0.4-8.4-0.5c-0.8-0.3-1.8-0.5-1.9-1.4c-0.1-0.9,0.7-1.4,1.4-1.9c1.3-0.8,2.8-0.9,4.4-0.9
		c3.7,0.2,7.4-0.2,10.9-1.2c7.3-2.1,14.7-2,22.2-1.2c2,0.2,4.1,0.5,6,0.1c11.1-2.4,22.3-1.2,33.3-0.7c16.3,0.8,32.7-0.2,48.9,1.2
		c8.5,0.7,16.8,0.4,25.2-0.1c9.4-0.6,18.8,2.1,28.3,2.1c1.5,0,3.3,0.9,3.2,2.5c-0.1,2.3-2.2,2.1-3.8,2.1c-1.8,0-3.6,0-5.5-0.1
		c36.3-1.3,72.6-1.2,108.8,0.1c-1.4-0.4-2.8,0.2-4.2,0c-1.3-0.1-2.9,0-3.2-1.7c-0.2-1.7,1.4-2.3,2.6-2.5c6.2-1.1,12.3-3.2,18.6-3.7
		c5-0.4,9.8-1.5,14.5-3.4c6.7-2.8,13.4-4.9,20.9-3.1c2.8,0.7,5.2-0.5,7.1-2.8c1.5-1.8,3.2-4.2,5.5-4c9.1,0.7,11.7-7.4,16.8-12
		c2.5-2.3,4.7-4.5,8-5.6c5.7-1.9,11.2-4.1,17.2-5.1c4.1-0.7,8.2-2.8,10.2-7.1c0.4-0.9,1.1-1.9,2.1-2c6.2-0.4,11.2-4,16.9-5.7
		c0.7-0.2,1.3-0.1,1.9,0.3c0.6,9.6,0.1,19.2,0.3,28.8C864.2,499.2,863.4,500.7,864.8,501.8z"/>
	<path fill="#E2E3E5" d="M141.7,528c-13.3,0-26.7,0.1-40,0.1c-0.3,0-0.6,0-1,0.1l0.1-0.3c1.2-3.3,4.3-3.9,6.8-3.5
		c9.6,1.7,19.2,0.8,28.8,1.2C138.4,525.7,140.9,525,141.7,528z"/>
	<path fill="#E6E7E8" d="M542.7,7.1C567.4,7,592,6.9,616.6,6.9c72.8,0,145.5,0,218.3,0c3.2,0,6.3,0.1,9.5,0.3
		c11.6,0.9,19.6,9,20.5,20.6c0.6,1.8,0.3,3.6,0.3,5.5c0,133.8,0,267.5,0,401.3c0,1.9,0.9,4-0.8,5.7c-1.2-0.3-1.5-1.2-1.8-2.2
		c-0.9-11.4-0.3-22.8-0.4-34.3c-0.1-7-0.2-13.9,0.1-20.9c0-30.4,0-60.8-0.5-91.6c0.9,6.8-4.1,8.2-8.5,9.7c-4.2,1.4-4.8,5.2-6.2,8.5
		c-1.2,2.8-2,5.8-5.6,6.3c-1.4,0.2-1.3,1.2-1.5,2.2c-0.4,2.3-1.3,4.5-1.8,6.8c-0.4,1.8-0.7,4.3-2.8,4.1c-2.6-0.2-1.9-3-2-4.9
		c-0.1-1.3,0-2.7,0-4c0-14.2,0-28.3,0-42.5c0-2.5-0.1-5-0.8-7.4c-0.3-2.8-0.2-5.7-0.2-8.5c0-49.6,0.1-99.2-0.1-148.8
		c-0.1-21.8-0.1-43.6-0.2-65.4c0-7.3-0.4-7.7-7.6-7.7c-36.1,0-72.3,0-108.4,0c-3,0-6,0.1-9-0.3c-2.7-0.8-5.5-1-8.4-1
		c-20.5,0-41,0-61.5,0c-1.5,0-3,0.1-4.5-0.1c-1.6-0.2-3.8,0.1-4-2c-0.1-2,1.6-3.8,3.5-3.6c4.6,0.4,6.1-3.2,9.4-6.2
		c-2.6,0.2-2.8,1.7-3.5,2.6c-0.9,1.1-2,1.9-3.4,1.2c-1.3-0.6-1.8-1.8-1.8-3.3c0-3.9,4.1-7.3,8.8-6.9c3.7,0.4,7.2,1.4,10.3-1.7
		c0.5-0.5,1.3-0.6,1.9-0.3c3,1.9,5.6,0.1,8.5-0.6c3.5-0.8,5.8-2.3,7.9-5.2c2.4-3.4,5.5-3.2,8.4-0.3c2.4,2.4,12.5,4.5,14.9,2.3
		c3-2.7,5.2-1.7,7.9-0.2c0.9,0.5,1.9,0.7,3.4,0.5c-0.2-2.8-0.2-5.8,3.8-5.4c0.8-0.1,0.7,0.1,0.2-0.1c-4-1.8-5.8,5.5-8.3,3
		c-2.8-2.7-5.4-2.5-8.4-2.6c-2.4-0.1-4.4-0.1-5.5,2.9c-0.8,2.3-3.4,2.9-4.4,0.1c-1.4-3.8-4.5-3.3-7-3.2c-5.8,0.2-11.7,0.1-17.5,0.1
		c-24.7,0.1-49.3,0-74,0.1c-11.4,0.3-22.8,0.1-34.2,0.1c-2.1,0-4.3,0.1-6.3-0.9C542.6,8.4,542.4,7.8,542.7,7.1z"/>
	<path fill="#C2C4C7" d="M95.2,521c-0.1-25.8-0.3-51.6-0.3-77.4c0-119.4,0-238.7,0-358.1c0-1.5-0.1-3-0.2-4.5
		c0.1-16.6,0.2-33.3,0.3-49.9C95.1,16.3,104,7.1,118.9,7c22.6-0.1,45.3,0.1,67.9,0.1c1.7,0.9,3.6,0.5,5.4,0.5c47.4,0,94.8,0,142.2,0
		c8,0,16,0,23.9,0c3.8,0.8,3.1,3.8,2.8,6.3c-0.2,1.2-1.5,2.3,1.1,2.4c2.4,0.1,4.4,1.5,4,4.1c-0.4,2.7-2.9,3.1-5.1,2.6
		c-2.5-0.5-4.3,0-5,2.6c-1,3.6-3.6,4.9-7,5.2c-1.9,0.2-3.7,0.4-4,3c1.3-0.1,2.2-1.4,3.6-0.8c9.9,3.9,20.3,2.5,30.5,2.8
		c1.3,0,2.8-0.1,3.9,0.8c2.1,1.5,0.3,2-0.9,2.6c-3.1,0.7-6.3,0.5-9.5,0.5c-78.2,0-156.3,0-234.5,0c-9.7,0-9.7,0-9.7,9.6
		c0,140.1,0,280.3,0,420.4c0,3.4,0.8,7-1.4,10.2c-2.5,0.1-2.3-1.9-2.6-3.4c-0.4-2.1-0.2-4.3-0.2-6.5c0-62.1,0-124.2,0-186.3
		c0-10.8,0.3-21.6,0.1-32.5c-0.3-19.6,0.1-39.1,0-58.7c-0.1-37.2-0.1-74.3,0.4-111.5c0.7,1.9,0.1,3.8-0.3,5.6
		c-1.3,5.6-2.1,6.1-7.8,5.3c-1.4-0.2-2.7-0.3-3.9,0.2c-3.6,1.3-7.2,0.6-10.8-0.2c-3.7-0.8-5.5-3-5.5-6.6c-0.1-4.2,0-8.5-0.2-12.7
		c2.1,31.2,1,62.5,1.1,93.8c-0.1,16.2-0.1,32.5,0,48.7c-0.2,24.8,0,49.6,0.1,74.4c0.2,60.4,0.1,120.9,0,181.3
		c0,14.6,0,29.3-0.2,43.9C97.1,517,97.9,519.6,95.2,521z"/>
	<path fill="#D0D1D3" d="M863.7,440.1c1.6-1.9,0.8-4.2,0.8-6.2c0.1-133.4,0.1-266.7,0.1-400.1c0-2,0.1-4,0.2-6
		c0.9,2.1,0.5,4.3,0.5,6.4c0,134.4,0,268.8-0.1,403.2c0,21.5-0.3,43-0.5,64.4c-0.1,0.6-0.2,1.3-0.3,1.9c-0.3,0-0.5,0-0.8,0
		c0-11.6,0-23.1,0-34.7c-1-0.8-1.3-1.9-1.4-3.1c-0.4-7.6-0.4-15.2,0-22.8C862.3,442,862.8,440.9,863.7,440.1z"/>
	<path fill="#CDCED1" d="M334.7,8.1c-47.6,0-95.2,0-142.8,0c-1.7,0-3.7,0.7-5.2-0.9c31.9-0.1,63.8-0.2,95.7-0.2
		c17.4,0,34.9,0.1,52.3,0.2c0.3,0.2,0.4,0.4,0.3,0.7C335,8,334.9,8.1,334.7,8.1z"/>
	<path fill="#D4D5D7" d="M334.7,8.1c0-0.3,0-0.7,0-1c26.7-0.1,53.5-0.2,80.2-0.2c14.6,0,29.2,0.1,43.8,0.2c0.3,0.7,0.1,1.2-0.6,1.6
		c-2.5,1.3-5.2,0.9-7.9,0.9c-23.3,0-46.7,0.1-70,0c-5.2,0-10.3,1-15.5,0.1c-1.8-0.3-3.7-0.3-5.1-1.7C351.4,8.1,343.1,8.1,334.7,8.1z
		"/>
	<path fill="#E1E2E4" d="M458.7,8.1c0-0.3,0-0.6,0-1c28,0,56,0,84,0c0,0.3,0,0.7,0,1c-2,2-4.6,1.6-7.1,1.6c-13.1,0-26.3,0.1-39.4,0
		c-4.4-0.4-8.8-0.1-13.1-0.2c-0.9,0-1.9,0-2.8,0c-5.3,0.2-10.6,0.1-15.9,0.1C462.4,9.6,460.3,9.7,458.7,8.1z"/>
	<path fill="#DADBDD" d="M141.7,528c-1.3-1.5-3.1-0.8-4.7-0.9c-9.8-0.6-19.7,1.2-29.5-1.4c-1.9-0.5-4.4,1.4-6.6,2.3
		c-0.4-0.1-0.8-0.3-1.2-0.4c-2.7-3.2-3.5-6.9-3.4-11.1c0.2-11.3,0-22.6,0.1-34c0-2.4-0.6-5.8,2.9-5.9c3.1-0.1,5.8,2.1,6.3,5.4
		c0.4,2.4,0.6,4.5,3,5.8c0.6,0.3,1,1.3,0.5,1.7c-3.4,3.6,1.1,5.5,1.6,8.3c0.6,3.1,2.3,1.8,3.2,0.2c1.5-2.4,2.5-5.1,4.9-6.8
		c1.5-1,3.2-2.4,4.8-0.5c1.5,1.7,0.1,3.1-1.2,4.2c-2.5,2.1-1.4,4.1,0.2,6c1.5,1.8,3,3.9,5.6,1.1c1-1.1,2.5-1,3.7-0.1
		c3.5,2.6,6.1,0.9,7.7-2.2c1.5-3,3.7-3.3,6.2-2.1c2.3,1.1,3.8,0.9,5.7-0.9c2.8-2.8,6.5-2.1,9.9-1.4c2.1,0.4,4.1,1.2,6.3,1.5
		c2.8,0.3,4.8,0.6,4.4-3.5c-0.2-2.7,1.4-4.9,4.9-3.1c0.3,0.1,0.2,1.3,1,0c2.7-4.1,3.5-4.2,6.9-0.9c1.9,1.8,3.4,1.7,5.2,0.3
		c1.1-0.8,2.2-1.6,3.5-1.9c2.5-0.6,4.1,0,3.2,3c-0.4,1.5-1.7,2.9,0,4.3c1.4-0.2,1.3-1.1,1.2-1.9c-0.4-4,2-4.1,5.1-3.9
		c5.3,0.4,10.8,1.7,15.2-3.2c1.4-1.6,3.7-1.3,5.7-1.1c9,1.1,17.8-0.9,26.7-1.8c7.2-0.7,14.6-0.4,21.9-0.7
		c12.9-0.7,25.9,0.2,38.7-1.6c30.5-0.3,61-0.1,91.5-0.1c0.8,0,1.7,0.1,2.4,0.3c1.5,0.6,2.5,1.5,0.5,2.7c-1.3,0.8-2.9,0.8-4.4,0.7
		c-10.3-0.5-20.5,0.8-30.8,0.3c-2.7-0.1-5.1,1.2-7.7,2c-2.3,0.7-2.1,2.7-2,4.5c0.2,3.4,0.1,6.6-1.8,9.6c-0.9,1.4-0.7,2.7,0.1,4.2
		c2.4,4.9,2,7.9-2.3,11.1c-2.8,2.1-4.5,5.2-7.6,7.1c-3.8,2.4,2.4,2.7,1.3,4.7C281,528,211.3,528,141.7,528z"/>
	<path fill="#E2E3E5" d="M309.7,482.4c-2,1.3-4.2,0.6-6.3,0.6c-9.5,0.1-19.1,0.6-28.6,0.8c-9.9,0.2-19.7,0.2-29.6,1.2
		c-1.2,0.1-2.5-0.2-3.5,0.2c-5.6,2.9-11.5,0.6-17.2,0.8c-2.9,0.1-6.2-1-7.1,3.4c-0.1,0.3-0.4,0.7-0.6,0.8c-4.1,0.6-8.2,1.7-12.2,0.9
		c-1.7-0.4-3.4-1.8-5-0.6c-1.7,1.2,0.1,2.7,0.5,4c0.2,0.8,0.8,1.7-0.3,2.1c-1.6,0.7-3.2,0.3-4.7-0.6c-1.4-0.9-1.3-2.1-0.9-3.5
		c0.4-1.5,3.4-2.5,1.8-3.9c-1.9-1.6-3.7,0.9-5,2.1c-3.1,2.7-5.4,3.2-7.2-1.1c-0.8-1.9-2.3-1.7-3.7-1.3c-1.6,0.5-1.1,1.7-0.7,2.9
		c0.3,1.2,1.2,2.8-0.7,3.3c-1.4,0.3-1.7-1.2-1.9-2.4c-0.2-1.4-0.9-2.4-2.3-1.5c-1.3,0.8-2.2,2.4-1.4,3.9c3,5.5-0.1,4-3.6,3.9
		c-4.9-0.1-9.5-4.1-14-2c-4.4,2-8,5.3-13,1.9c-0.2-0.1-1.5,0.7-1.4,0.9c1.1,5-3.9,3.9-5.9,5.7c-0.6,0.5-1.8,1.3-2.5-0.1
		c-3.8-6.4-4.2-0.5-5.7,1.7c-1.9-1.8-4.1-3-5.8-5.2c-2.6-3.3-3.4-5.7,1.2-7.6c1-0.4,1.6-1.3,0.8-2.4c-0.8-1.1-1.9-0.5-2.6,0.1
		c-1.7,1.6-4.1,2.7-4.4,5.2c-0.4,3.9-3.4,4.4-6.5,5.8c-0.1-3.6-0.1-6.4-3.6-8.7c-3.9-2.5,2.6-2.5,1.9-5.2c-3-0.5-4.9-1.6-3.5-5.8
		c0.9-2.9-2.8-4.7-4.8-5.2c-2.8-0.7-2.9,2.5-2.9,4.6c-0.1,12,0,24-0.1,36c0,3.5,3.1,5.9,2.9,9.4c-2.7-1.3-3.9-3.7-4.5-6.5
		c1.2-1.7,0.6-3.5,0.6-5.3c0-100.2,0.1-200.4,0.1-300.6c3.5,1.3,2.3,4.4,2.4,6.8c0.1,17.1,0.1,34.2,0.1,51.4c0,1.5,0,3,0.1,4.5
		c0.2,3.2,1.9,4.2,4.7,2.9c3.3-1.6,6.9-2.3,10.3-3.9c0.7-0.4,1.6-1,2.3-0.9c6.4,1.4,6.1-3.2,6.5-7.2c0.4-4.5,0.1-9,1.2-13.4
		c0.4-1.6-0.1-3.9,2.5-4.2c0,74.3,0,148.5,0.1,222.8c0,2.1-0.8,4.4,0.9,6.2c0.6,0.1,1.3,0.2,1.9,0.3c2.5,0.5,5,0.3,7.5,0.3
		c55.2,0,110.4,0,165.7,0.1C304.5,480.7,307.5,479.8,309.7,482.4z"/>
	<path fill="#CECFD2" d="M350.6,528c-0.6-1-1.7-0.8-2.7-1c-1.1-0.3-2.5-0.5-2.7-1.8c-0.3-1.6,1.1-2.5,2.3-2.8
		c4.8-1.3,6.5-6.1,10.1-8.8c2.5-1.8,3.8-5.5-0.1-8.3c-1.1-0.8-2.1-2.4-0.6-3.9c3.5-3.4,3.1-7.6,2.3-11.7c-0.3-1.8-0.2-3.4,1.3-3.8
		c3.5-0.9,6.7-2.7,10.4-2.8c11.6-0.1,23.1-0.2,34.7-0.3c0.3,0,0.6-0.3,0.8-0.5c1.1-1.7,2.8-1.6,4.5-1.7c1.8-0.1,3.7,0,5.5,0
		c130.2,0,260.3,0,390.5,0c2.8,0,5.7-0.3,8.4,0.4c2.4,1.4,1.1,2.4-0.5,2.9c-2.9,0.8-5.9,1.5-8.9,1.3c-6.2-0.4-11.8,2-17.4,3.9
		c-5,1.6-7.7,6.2-9.6,10.9c-1.1,2.8-3,4.8-5.8,4.8c-6.1,0.1-11.5,3-17.4,4c-4.8,0.8-9.4,1.9-14.3,1.4c-1.3-0.1-2.8,0-3.8,0.9
		c-7,5.4-15.1,6.1-23.5,5.3c-0.5,0-1,0-1.5,0.2c-10.2,4.5-20.7,1.5-31,1.1c-4.2-0.1-8.3,0.4-12.4,0.8c-11,1.2-21.9-1-32.8-1.3
		c-10.8-0.3-21.6-2.5-32.2-2.1c-15.9,0.7-31.6-3.1-47.3-2c-9.1,0.6-17.8,0.1-26.7-0.8c-5.6-0.5-11-2.4-16.5,0.4
		c-1.3,0.7-3,0.2-4.4-0.5c-2.8-1.5-1.8-2.6,0.4-3.5c0.3-0.6,0,0.2,0.3-0.3c0.2-0.4,0.4-0.8,0.5-1.3c-0.5,0.1-0.3,0.6-0.7,0.9
		c-0.4,0.3-0.8,0.4-1.2,0.3c-2.3-1.4-1.9-4.4-3.8-6.5c-1.4,2.2-2.1,4.5-2.3,6.9c0.7,2.7-0.3,4.2-3.1,4c-2.9-0.2-4.4-1.6-3.4-4.7
		c-1.2-1.5-0.4-5.2-4.2-3.9c-0.4,0.3-0.8,0.4-1.2,0.4c-2.7-2.1-5.4,0.5-8.1,0.1c-2-1.2-3.9-1.4-5.7,0.5c-1.7,1.8-2.9,0.9-3.5-1.1
		c-0.6-2-0.9-4-3.8-3.1c-0.7,0.5-1.3,1.1-2,1.6c-1.9,0.7-3.7,1.5-5.6,2.1c-0.5,0-0.9,0-1.3-0.1c-1.6-0.8-3.2-1.4-5-1.6
		c-0.8-0.2-1.6-0.7-2.4-1c-0.5-0.1-1.1,0-1.4,0.4c-2.2,4.2-4.3,3.2-6.1-0.6c-1.1,1.4-1,2.5-0.9,3.7c1.7-1.7,3,2.1,4.9,0.4
		c2-1.9,2.4,0,3,1.4c0.4,1.7,1.9,1.2,3.1,1.4c0.9,0.1,1.8,0.2,2.8,0.3c1.1,0.2,2.6,0.2,2.9,1.5c0.3,1.5-1.3,1.7-2.3,2
		c-2.6,1-5.2,2.1-8.1,2.1c-0.8,0-1.8-0.1-2.4,0.4c-6.7,4.7-14.7,3.4-22.1,4.5c-4.9,0.7-8,4.7-13.1,5.3c1.4,1.4,4.1,0.8,4,3.4
		C395.3,528,373,528,350.6,528z"/>
	<path fill="#C5C7CA" d="M467.6,502.3c0.3-0.8,0.6-1.5,0.9-2.3c0.3,0.2,0.7,0.4,0.7,0.7c0.7,4,0.2,8.9,7.2,6.3
		c1.4-0.5,4.1,1.3,5.9-1c0.3-0.1,0.7-0.3,0.9-0.1c3.5,3.3,5.8,1.9,7.5-1.8c0.3,0,0.6,0,0.8,0c1.3,2.5,3.7,3.4,6.2,4
		c0.5,1.3-1.5,3.8,1.7,3.9c0.8,0,1.7,0,2.2-0.7c0.8-1.2-1-1.4-1-2.4c4.1-4.7,4.1-4.7,8.2-0.9c0.2,0,0.4,0,0.6,0
		c0.9-0.1,1.6,0.3,2.2,0.9c-0.4,1.6-2.4,0.5-3.2,1.8c1.7,1.2,4.1,1.7,5.2,1c7.1-4.9,14.1,0.4,21-0.1c6.9-0.5,13.6,1.8,20.9,0.2
		c5.8-1.3,12.7-0.2,19.2,0.6c9,1.1,18,2.9,27.1,0.7c2.3-0.5,4.2,0.7,6.4,0.9c9.7,0.6,19.5,1.2,29.2,2c7.3,0.6,14.7,0.3,22,1.8
		c2.9,0.6,6.2-0.6,9.3-0.8c11.2-0.7,22.4-0.6,33.6,1c2.1,0.3,3.9-0.6,5.8-1.3c3.3-1.2,6.8-1,10-1.3c5.8-0.6,12.8,0.6,17.4-4.8
		c1.1-1.2,2.6-2.1,3.9-1.8c6.6,1.4,12.9-0.4,19-2c5.5-1.5,11.1-2.7,16.7-3.8c1.2-0.3,2-1,2.4-2.3c2.5-8.5,8.1-12.7,16.9-15.1
		c7.4-2,15-0.7,22.1-3.3c1.8-2.4,4.5-1.4,6.8-1.6c2.8-0.2,5.6,0.4,8.3-0.5c0.4-0.3,0.7-0.7,1-1.1c1.3-3.5,0.1-7.1,1-10.6
		c0.6-2.4,1.6-4.7,2.6-7c1.5-3.5,4-5.4,7.6-5.4c4.9,0,7.7-3.5,11.2-5.9c1.6-1.1,1.3-2.9,1.5-4.5c0.6-4.7,3.2-7.5,7.1-7.6
		c0,0.7,0,1.3,0,2c0,9.7,0,19.3,0,29c-4,2.1-8,4.2-12,6.3c-0.8,0.4-1.5,0.7-2.3,0.4c-3.8-1.5-5.8-0.6-5.7,3.8c0,0.6-0.5,1.7-0.6,1.6
		c-4.7-0.6-6.9,5.2-11.7,4.6c-6.6-0.8-11.7,4.3-17.9,5.2c-0.5,0.1-1.2,0.2-1.4,0.5c-2.8,5.3-8.7,8-11.5,13.2c-1.4,2.6-2.6,4-5.6,2.9
		c-3.6-1.4-6.3,0.2-7.9,3.2c-1.9,3.6-5.1,5-8.2,4c-6.9-2.2-13.3-0.6-19.2,2.3c-7.1,3.4-14.7,3.5-22.1,4.9c-5,1-9.9,2.1-15.5,3.3
		c3.1,3.1,6.8,0.7,10.2,2.4c-38.8,0-77.1,0-115.3,0c0-0.2,0-0.5,0-0.7c3.1,0,6.2,0,9.4,0c1.2,0,2.7,0,2.8-1.4
		c0.1-1.5-1.4-1.6-2.6-1.6c-8.1,0.2-16.1-0.6-24.1-2c-3.7-0.6-7.3,0.2-10.8,1c-10,2.5-19.6-1.8-29.6-1.3
		c-11.1,0.6-22.2-0.1-33.3-0.4c-11.7-0.3-23.4-1.8-35.2,0.3c-7.2,1.3-15,0-22.5-0.6c-2.8-0.2-4.5,1.6-7,2.1
		c-5.6,1.1-11.4,0.6-17.7,1.6c4.2,3.3,8.7,0.7,13.3,3.2c-14.5,0-28.1,0-41.8,0c-2.3-2.2-5.6-1.5-9.4-2.7c9.9-3.1,17.8-9.3,27.9-8.2
		c3.6,0.4,6.7-0.5,9.8-2.6c4.4-2.9,10.4-0.5,14.6-4.3c-0.6-0.6-1.8,0-2.9-0.3c0.8-2.2,1.8-4.2,3.4-5.9c0.4,0,0.7,0.1,1.1,0.1
		c0.9,1.1,0.7,2.8,1.9,3.7C461.1,503.4,465.2,503.4,467.6,502.3z"/>
	<path fill="#E1E2E4" d="M705.7,38c-0.7,0.1-1.4,0.2-2.1,0.3c-1.5,1.3-3.3,1.4-5.2,1.4c-34.7,0-69.3,0.1-104-0.1
		c-0.7,0-1.3-0.1-2-0.2c-2.9-0.8-5.8-1-8.9-1.1c-10.6-0.1-21.3,0.5-31.9-0.8c-1.2-0.1-2.3,0.2-3.4,0.4c-2.5,0.4-5.1,0.8-6.6-2.1
		c-1.6-3-2-6,0.7-8.7c0.7-0.7,1.3-1.6,2-2.3c2.3-2.4,4.6-2.4,5.7,0.9c1.1,3.2,2.7,2.8,4.9,1.5c0.7-0.4,1.4-0.9,2.1-1.3
		c3.5-2.1,6.9-2.4,9.9,0.8c0.8,0.8,1.5,1.9,2.9,1.2c1.2-0.6,1.6-1.8,1.4-3c-1.1-6.7,5.3-9.1,7.8-13.6c1.2-2.1,4-1,4.8,1.6
		c0.3,1.1,0.2,2.3,0,3.7c1.6-1.7,2-3.1,0.5-4.9c-1-1.2-1.9-2.5,0.1-3.7c31.2,0,62.3,0,93.5,0c2.5,0,6.2-1.1,4.7,3.9
		c-0.1,0.4,0.9,1.5,1.1,1.4c0.7-0.2,1.8-0.7,1.9-1.3c0.2-1.2-0.2-2.5-0.3-4c4,0,7.8,0,11.6,0c2.5,0,5.9-0.9,3,4.9
		c3.4-7,8.3-4.7,12.7-4.8c-0.2,1.8-1.2,2.8-2.4,2.5c-6.1-1.9-5.1,1.4-3.6,5.2c-3.9,0.4-7.5,0.6-9.9-3.7c-1.2,3.8-3,4.8-6.7,4.2
		c-3.1-0.5-6.4-1.9-9.7-0.5c-1.2,0.5-2.4-0.4-2.6-1.7c-0.4-1.7-0.7-3.7-2.8-3.5c-2.1,0.2-4.4,1.2-5,3.6c-0.9,3.3-2.4,5-6,3.9
		c-1.4-0.4-2.5,0.5-3.5,1.5c-1.9,1.8-3.7,2.8-5.8,0.2c-1-1.2-2.1-1.7-3.1,0.1c-1.9,3.5-4.6,2.9-7.7,1.9c-4.7-1.5-8.5,0.2-9.8,3.9
		c-0.5,1.5-1,3.2,0.9,3.8c2.1,0.7,2.3-1.2,2.5-2.7c0.2-1.4-0.2-3.4,2.2-3c1.7,0.3,3.1,1.4,3.6,3.2c0.5,2-1.2,2-2.5,2.2
		c-1.3,0.3-1.8,1.2-2.3,2.4c-0.9,2.3-1.8,4.3-5,2.2c-2.2-1.4-3,1.2-4.4,2.5c1.5,1.5,3.2,0.8,4.7,0.8c22.2,0.1,44.3,0,66.5,0.1
		C702.2,37.1,704.1,36.5,705.7,38z"/>
	<path fill="#D4D5D7" d="M584.7,8.1c-0.1,0.3-0.4,0.7-0.3,0.9c1.9,5,2,5-0.3,11.6c-2.3-2.1-0.8-4.7-1.1-6.9c-0.1-1,0.1-2-1.1-2.4
		c-0.9-0.3-1.6,0-2.1,0.8c-1.9,3-3,6.4-6.7,8.1c-0.7,0.3-0.7,3.3-0.2,4.7c1.3,3.6-1.8,4.5-3.6,5.5c-2.2,1.3-2.1-1.6-3-2.8
		c-1.5-1.9-3.7-2.7-6.1-1.8c-1.9,0.7-3.4,1.9-5.1,3.1c-3.2,2.4-5.3,1.4-5.7-2.5c-0.2-1.9-1.3-2.8-3-1.9c-3.3,1.7-4.9,6.8-3.8,10.3
		c0.6,1.9,1.6,2.5,3.2,2.2c8.1-1.3,16.1,0.4,24.1,0.1c5.5-0.2,11-0.1,16.5,0c1.5,0,3-0.4,4.2,0.9c-1.2,1.4-2.9,1.6-4.5,1.6
		c-25.4,0-50.9,0.5-76.3-0.3c-2.6-0.8-5.2-0.9-7.9-0.9c-17.7,0.1-35.5,0-53.2-0.1c-0.8,0-1.7,0-2.5-0.2c-1.3-0.4-2.6-1-2.6-2.6
		c0-1.4,1.1-1.9,2.3-2.3c1.4-0.5,3-0.6,4.4-0.4c4.9,0.7,9.4-2.2,14.3-1.2c1.4,0.3,2-1,2.3-2.2c0.9-3.8,3.7-6.6,5.1-10.2
		c0.5-1.2,1.4-2.5,2.6-2.9c3.9-1.4,5.5-4.3,6-8.1c0.7,0,1.3,0,2,0c4.3,2.2,8.7,0.4,13,0c15.7,0,31.3,0,47,0
		C556.7,8.1,570.7,8.1,584.7,8.1z"/>
	<path fill="#D8DADC" d="M833.9,346.1c0-25,0-50,0-75c1.4,1.6,0.8,3.5,0.8,5.3c0,15.6,0,31.3,0,46.9c0,1.6,0,3.2,0.7,4.9
		c0.5-5.2,5.3-9.5,2-15.8c4.8,3.5,6.3,2.7,7.6-2.3c1.6-6,4.7-10.8,11.4-12.2c2.4-0.5,4.3-1.1,3.1-4.5c-1-2.9,1.6-4.2,4.1-6.9
		c0,32.7,0,64.1,0,95.5c-5.5,6.8-10.7,13.9-18.6,18.4c-3.8,2.1-6.1,5.4-6.5,10c-0.2,2.5-1.1,5.1-3.8,7.1c-0.9-2.2-0.6-4-0.6-5.7
		c0-20.1,0-40.2,0-60.3C834.2,349.7,834.5,347.9,833.9,346.1z"/>
	<path fill="#D0D1D3" d="M833.9,346.1c1.3,1.6,0.8,3.5,0.8,5.3c0,19.9,0,39.9,0,59.8c0,1.6,0,3.2,0.7,4.9c0.7-2,2.1-4,2-5.9
		c-0.4-5.1,2.3-8,6.1-10.4c6.5-4.1,12.2-9,16.5-15.5c0.8-1.2,2-2.3,3.7-2.2c0,18.7,0,37.3,0,56c-3.6,2.2-6.7,4.6-5.7,9.5
		c0.2,0.8,0.7,1.8,0,2.3c-3.3,2.4-6.6,6.7-9.9,6.7c-8.5-0.1-11,5.3-13.4,11.4c-1.1-6.2-0.3-12.5-0.5-18.7
		c-0.3-8.4,0.3-16.8-0.3-25.2C833.9,398.1,833.9,372.1,833.9,346.1z"/>
	<path fill="#E1E2E4" d="M723,8.1c2.3,0,3.9,0.1,5.5,0c1.9-0.1,3.1,0.5,3.5,2.5c0.4,1.7-0.1,3.1-1.5,3.8c-1.8,1-3-0.4-4-1.8
		C725.6,11.4,724.6,10.2,723,8.1z"/>
	<path fill="#E1E2E4" d="M751.2,8.8c-1.5,1.9-2.8,3.9-5.5,3c-1.1-0.4-1.3-1.8-0.6-2.5C746.8,7,749,8.5,751.2,8.8z"/>
	<path fill="#D3D5D7" d="M95.8,166.2c0-32.6,0-65.2,0-97.7c0.3,0,0.6,0,0.9,0c0,4.6,0,9.2,0,13.8c0,4.5,0.1,7.9,6.6,8.5
		c3.8,0.3,7.1,1.1,10.5-1c0.3-0.2,0.6-0.3,0.9-0.2c2.3,0.2,5.3,3.4,6.1,1.9c1.9-3.9,4.2-8,3.8-12.7c0-0.4,0.2-0.9,1-1.3
		c0,38.3,0,76.6,0,114.8c-1,2.5-1.1,5.4-0.8,7.8c0.7,5.6-2.6,9.1-5.3,13c-0.5,0.8-1.6,1.1-2.2,0.6c-2.5-2.2-5.7-2.3-8.8-3
		c-3.5-0.8-2.1-3.9-2.2-6.7c-2.4,1.5-2.7,3.8-3.9,5.5c-1.2,1.5-2.3,3.1-4.5,2.2c-2-0.8-1.5-2.4-1.6-4.2c-0.7-12.9-0.1-25.9-0.3-38.8
		C96.3,167.7,96.4,166.9,95.8,166.2z"/>
	<path fill="#CDCED1" d="M508.7,38c-30.9,0.1-61.7,0.1-92.6,0.2c-10.8,0-21.6-0.1-32.4-0.2c-1.7-1.6-3.8-0.8-5.7-0.9
		c-9.9-0.5-20.1,1.4-29.7-3c-1.8-0.9-1.9,0.9-2.6,1.5c-1,0.9-2,1.3-3,0.3c-1.2-1.1,0.2-1.5,0.7-2.3c0.9-1.3,3.9-4,5.3-4
		c4.4,0,5.8-3.1,6.8-6.4c0.7-2.3,1.5-3.2,3.8-1.9c1.8,1,3.8,1.3,5.6-0.2c0.7-0.6,0.6-1.5,0-2.2c-1.6-2.1-3.5-2.1-5.8-1.1
		c-0.5,0.2-1.2,0-3.2,0c4.1-2.9,4.5-6.2,3.7-9.7c33,0,66,0,99,0c7.3,0,14.7,0,22,0c1.6,4.4,1.7,7.8-4.3,8.4
		c-1.6,0.2-3.2,1.8-3.4,3.4c-0.3,4.5-5.9,6.8-4.6,11.9c0.3,1.2-1.9,2.3-2.4,1.9c-4.6-3-8.8,1.2-13.2,0.5c-1.8-0.3-3.6-0.1-5.5,0
		c-1.2,0-2.8,0-2.8,1.4c0,1.8,1.8,1.8,3,1.6c6-0.9,12,0.1,18.1,0.1c12.6,0,25.2,0,37.9,0C505.2,37.2,507.2,36.5,508.7,38z"/>
	<path fill="#DCDDDF" d="M95.8,166.2c1.6,1.5,0.9,3.4,0.9,5.2c0.2,12.4,0.3,24.8,0.4,37.1c0,1.2,0.4,1.9,1.4,2.3
		c1.1,0.4,2-0.1,2.4-1.1c0.9-2.1,2.8-3.7,3-6.2c0.1-1.4,1.1-2.8,2.7-1.8c1.2,0.8,3.9,1.7,1.9,4.1c-3,3.5,0.1,4.5,2.1,3.9
		c3.9-1.2,5.8,0.4,7.9,3.9c-0.5-3.4-1.3-6.4,3.5-5.1c0.9,0.2,0.7-1.6,1-2.5c1.5-4.5,0.6-9.5,2.8-13.9c0,19.7,0,39.3,0,59
		c-1.3,4.1-1.9,8.2-2,12.5c-0.2,4.4-0.6,8.9-1,13.3c-0.2,2.1-1.7,2.8-3,1.4c-2.2-2.5-3.9-1.3-5.9-0.1c-3.5,2.1-7.7,2.3-11.3,4.6
		c-3.4,2.1-5.8,0-5.8-4.2c0-19.4,0-38.8,0-58.3c0-1.7,0.7-3.7-0.9-5.2C95.8,198.8,95.8,182.5,95.8,166.2z"/>
	<path fill="#CDCED1" d="M495.7,8.1c-3.2,1.5-6.7,2-10.2,2c-1.4,0-2.6-0.3-2.8-2C487.1,8.1,491.4,8.1,495.7,8.1z"/>
	<path fill="#C2C3C6" d="M126.9,480.7c1.9,0.9,3.9,0.6,5.9,0.6c231.6,0,463.3,0.1,694.9,0.1c1.6,0,3.3-0.3,4.9-0.4
		c0.3,0,0.7,0,1-0.1c-3.7,2.2-7.7,0.6-11.6,1.1c-1.8,0.2-3.6,0.2-5.5,0.3c-2-0.1-4-0.2-6-0.2c-132.7,0-265.3,0-398,0
		c-2,0-4,0.1-6,0.2c-32.3,0-64.6,0-96.9,0c-38.3-0.1-76.6-0.1-115-0.2c-20.8,0-41.7,0-62.5-0.1C130.4,482.1,128.2,483.2,126.9,480.7
		z"/>
	<path fill="#E2E3E5" d="M116.3,514c-1.6,0-3.4-0.9-2.9-1.6c1.7-2.3,3.9-4.3,6.2-5.9c1-0.6,2.1,1.4,1.8,2.3
		C120.6,511.5,118.6,513.2,116.3,514z"/>
	<path fill="#E2E3E5" d="M112.1,520.7c-0.3,2-1.7,2.8-3.4,3.1c-1.6,0.3-1.9-0.9-1.9-2.2c0-1.6,0.5-2.6,2.2-2.6
		C110.3,519.1,111.7,519,112.1,520.7z"/>
	<path fill="#E2E3E5" d="M129.7,512.7c-0.2,1.3-0.9,2.5-2.3,2.7c-1.1,0.1-1.6-1.1-1.4-2.1c0.2-1.2,0.5-2.8,2.1-2.8
		C129.1,510.5,129.6,511.5,129.7,512.7z"/>
	<path fill="#424446" d="M482.9,506.6c-0.1,1.3-1.1,2.8-1.9,2.5c-3.8-1.4-7.4-0.1-11.2,0.2c-1.4,0.1-1.2-1.7-1.2-2.8
		c0-2.1,0-4.3,0-6.4c5-1.5,5.2-1.4,6.6,5.8c2.1-2.9,4.2-6.3,7.6-1.7C483.3,504.9,483.5,505.7,482.9,506.6z"/>
	<path fill="#4A4C4E" d="M451.9,507.6c0-0.6,0.2-1.5-0.1-1.9c-0.8-0.8-0.9,0.2-1.2,0.6c-2.5,3.4-2.6,3.4-4.4-0.7
		c-1.1,0.8,0.2,2.7-1.8,3.3c-1.3-2.7-0.4-5.6-0.1-8.3c0.1-0.6,0.5-1.4,1.3-1.2c0.5,0.2,1.1,0.7,1.4,1.2c0.6,1.3,1.1,2.7,2,4.9
		c0.9-2.2,1.3-3.7,2-5c1.2-2.1,2.3-1.5,2.9,0.5c1.1,2.1,1.6,4.3,0.7,6.5C453.8,509.5,452.8,509.9,451.9,507.6z"/>
	<path fill="#434447" d="M460.9,504c0,2.6,0.3,5.4-3.4,5.9c-0.7-0.3-1.4-0.6-2.1-0.8c-2.1-2.5-1.1-4.7,0.4-7
		C458,501.8,459.9,501.6,460.9,504z"/>
	<path fill="#616365" d="M509,508c-0.3,0.6-0.9,1.2-1.4,0.4c-1.8-3-3.4-3.2-5,0.1c-0.4,0.8-1.1,0.4-1.7,0.4c0.1-0.3,0.2-0.6,0.4-0.9
		c1.3-2.8,1.6-8.2,3.7-8C508,500.2,507.5,505.3,509,508z"/>
	<path fill="#444648" d="M497.9,508c-4.8,1.2-5.8,0.6-6.2-4c0.6-1.6-0.5-3.6,1-5c2.1,1.2,0.4,3.2,1.5,4.5c1.2,0.5,1.4-1.9,3.1-0.9
		C495.6,504.6,495.6,506.5,497.9,508z"/>
	<path fill="#47494C" d="M482.9,506.6c-0.1-0.8-0.1-1.7-0.2-2.5c2.7-0.8,5.4-4.2,8.1,0c0.1,2.2,0.1,4.3-2.4,5.3
		C485.5,510.6,484.7,507.5,482.9,506.6z"/>
	<path fill="#4D4F51" d="M467.6,502.3c-4.9,3.5-5,4-0.6,6.5c-4,1-4.8,0.3-5-4.6C463.4,502.2,465.2,501.4,467.6,502.3z"/>
	<path fill="#696A6D" d="M512.6,509.9c1.1-3-1.8-6.8,3.2-7.6C513.8,504.2,516.1,507.7,512.6,509.9z"/>
	<path fill="#C5C7CA" d="M455.9,502.1c0.7,2.4-1.7,4.6-0.4,7c-1.8,0.8-3.7,2-3.6-1.5c0.6,0.8,1.5,2.4,2,0.2c0.4-2.2,0.1-4.5,0.1-6.7
		C454.6,501.4,455.2,501.8,455.9,502.1z"/>
	<path fill="#6B6C6F" d="M511.7,509c-0.9,0.2-1.7,0.1-2.2-0.9c0.6-1.8-0.3-3.9,1.3-6.2C512.2,504.5,511.5,506.8,511.7,509z"/>
	<path fill="#C2C3C6" d="M833.9,424.1c1.3,1.6,0.7,3.5,0.7,5.3c0.1,12.9,0,25.8,0,38.7c-0.4,4,0.8,8-0.8,11.9
		C833.9,461.4,833.9,442.7,833.9,424.1z"/>
	<path fill="#292B2E" d="M485,24c-0.2,3.1-2,4.9-4.8,4.7c-2.7-0.2-5.4-1.6-5.3-4.7c0.1-2.8,1.6-4.9,5-4.8C483,19.3,484.7,21,485,24z
		"/>
	<path fill="#C2C4C7" d="M354.1,34.1c-1,0-2.2,0-2-1.4c0.2-1.1,0.7-2.3,2.1-2.3c1.2,0,1.7,1,1.8,2C356.2,33.6,355.1,33.9,354.1,34.1
		z"/>
	<path fill="#B9BABD" d="M479.9,508c-1.5-0.1-1.9-0.9-2-1.9c-0.1-1.2,0.2-2.4,1.6-2.6c1.1-0.1,1.6,0.9,1.8,1.9
		C481.6,506.8,480.8,507.5,479.9,508z"/>
	<path fill="#C1C3C6" d="M488.9,505.7c-0.1,1-0.2,2.1-1.4,2.2c-1.2,0.2-1.7-0.7-1.8-1.8c-0.1-1.3,0.3-2.4,1.6-2.5
		C488.4,503.5,488.9,504.6,488.9,505.7z"/>
</g>
</svg>
