<?xml version="1.0" encoding="utf-8"?>
<!-- Generator: Adobe Illustrator 18.0.0, SVG Export Plug-In . SVG Version: 6.00 Build 0)  -->
<!DOCTYPE svg PUBLIC "-//W3C//DTD SVG 1.1//EN" "http://www.w3.org/Graphics/SVG/1.1/DTD/svg11.dtd">
<svg version="1.1" id="Layer_1" xmlns="http://www.w3.org/2000/svg" xmlns:xlink="http://www.w3.org/1999/xlink" x="0px" y="0px"
	 viewBox="0 0 451 749.2" enable-background="new 0 0 451 749.2" xml:space="preserve">
<path fill="#CE0000" d="M385.9,367.2c-1.1,0-2-0.4-2.7-1.1c-0.6-0.7-1-1.5-1-2.5c0-0.9,0.3-1.7,0.9-2.4c0.6-0.7,1.5-1,2.7-1
	c1,0,1.9,0.4,2.5,1.1c0.6,0.7,0.9,1.5,0.9,2.4c0,0.9-0.3,1.7-0.9,2.4C387.8,366.9,387,367.2,385.9,367.2z M382.8,368.9h6.1v380.3
	h-6.1V368.9z"/>
<path fill="#CE0000" d="M305.2,321.4c-2.7-2.7-5.8-4-9.6-4c-1.2,0-2.3,0.1-3.1,0.4c-0.9,0.2-1.9,0.7-3,1.3v6.9
	c0.7-0.9,1.6-1.5,2.7-2c1.1-0.5,2.3-0.7,3.5-0.7c1.8,0,3.3,0.5,4.6,1.4c1.5,1,2.4,2.4,2.8,4.2c0.1,0.6,0.2,1.2,0.2,1.7
	c0,2-0.6,3.8-1.8,5.3c-1.2,1.6-2.7,2.5-4.6,2.8c-0.3,0-0.6,0.1-0.7,0.1h-0.4c-2.1,0-3.9-0.7-5.6-2.2c-1.6-1.4-2.4-3.2-2.4-5.2
	L287.8,0H282l0.1,331.6c0,3.6,1.4,6.6,4.2,9.1c2.7,2.4,6,3.6,9.8,3.6c3.6,0,6.7-1.3,9.2-3.9c2.5-2.6,3.8-5.7,3.8-9.4
	C309.2,327.2,307.8,324,305.2,321.4z"/>
<path fill="#CE0000" d="M343.2,336.3v7.4c-2.2,1.1-4.4,1.6-6.6,1.6c-3.3,0-6.4-1.2-9.3-3.7c-1.8-1.5-3.1-3.1-3.9-4.9
	c-0.8-1.7-1.2-3.8-1.2-6.2c0-3.9,1.4-7.3,4.2-10c2.8-2.8,6.2-4.2,10.1-4.2c4,0,7.5,1.4,10.4,4.1c2.9,2.7,4.3,6.1,4.3,10v13.8h-6.3
	v-14c0-2.2-0.8-4.1-2.5-5.6c-1.7-1.5-3.7-2.3-5.9-2.3c-2.3,0-4.2,0.8-5.8,2.4c-1.6,1.6-2.4,3.5-2.4,5.8c0,2.4,0.8,4.4,2.4,6.1
	c1.6,1.7,3.6,2.5,5.9,2.5c1.4,0,2.6-0.2,3.6-0.7C341.4,338.1,342.3,337.4,343.2,336.3z"/>
<path fill="#CE0000" d="M372.9,337.4v6.4c-1.1,0.3-2.3,0.4-3.5,0.4c-3.9,0-7.3-1.4-10-4.2c-2.8-2.8-4.1-6.2-4.1-10.1
	c0-3.9,1.4-7.2,4.2-9.9c2.8-2.7,6.1-4,10-4c1,0,2.2,0.2,3.3,0.5v6.2c-1-0.5-2-0.7-3.2-0.7c-2.2,0-4.1,0.7-5.7,2.1
	c-1.7,1.5-2.6,3.5-2.6,5.8c0,2.4,0.9,4.4,2.6,5.9c1.6,1.5,3.5,2.2,5.7,2.2C370.7,338.1,371.8,337.9,372.9,337.4z"/>
<path fill="#CE0000" d="M376.5,344.4v-35.6h5.9V330h0.5l6.9-11.7h7.1l-7.4,12.7l7.4,13.2h-6.8l-7.1-11.9h-0.4v12H376.5z"/>
<path fill="#CE0000" d="M447.6,344.3h-7.9l-1.3-2.1c-1,0.9-2.1,1.5-3.1,1.9c-1.1,0.3-2.4,0.5-3.9,0.5c-3.8,0-6.7-1.3-8.7-3.9
	c-1.1-1.4-2-3.4-2.7-6c-0.1-0.4-0.2-0.9-0.3-1.5c-0.1-0.6-0.1-1.1-0.1-1.5c0-1.7,0.4-3.3,1.2-4.9c0.7-1.3,1.5-2.6,2.2-3.9
	c-0.9-0.9-1.4-1.7-1.7-2.4c-0.3-0.7-0.4-1.8-0.4-3.2c0-1.7,0.8-3.5,2.5-5.3c1.9-2.2,4.1-3.2,6.5-3.2c1.4,0,2.6,0.1,3.5,0.4
	c0.9,0.3,1.9,0.9,2.9,1.7c0.9,0.8,1.7,1.7,2.3,2.7c0.6,1.1,0.9,2,0.9,2.8h-6.9c0.2-0.5,0-0.9-0.5-1.2c-0.5-0.3-1.1-0.5-1.8-0.5
	c-0.4,0-0.8,0.1-1.1,0.2c-0.5,0.2-0.9,0.6-1.2,1.1c-0.2,0.5-0.3,1.1-0.3,1.9c0,0.5,0.2,1.1,0.6,1.6c0.1,0.2,0.4,0.5,0.7,0.9
	l9.4,11.6v-3.4h6.4v5.9c0,0.2,0,0.3-0.1,0.4c-0.1,0.7-0.3,1.2-0.5,1.5c-0.2,0.3-0.5,0.7-1,1.2c-0.1,0.1-0.2,0.2-0.3,0.4L447.6,344.3
	z M434.1,336.8l-6.6-8.6c-0.6,0.6-1,1.3-1.2,1.9c-0.2,0.7-0.3,1.4-0.3,2.4c0,1.2,0.4,2.2,1.1,3.2c1,1.3,2.3,1.9,4.1,1.9
	c0.6,0,1.1-0.1,1.6-0.2C433.1,337.3,433.5,337.1,434.1,336.8z"/>
<path fill="#CE0000" d="M289.3,395.7l-6.7,0v-15.6c0-2.4,0.4-4.4,1.3-6.2c0.9-1.7,2.3-3.2,4.2-4.5c1.2-0.8,2.3-1.4,3.3-1.7
	c1-0.3,2.1-0.5,3.4-0.5c0.3,0,0.7,0,1.1,0.1c0.4,0,0.9,0.1,1.5,0.2v6.3c-0.6-0.2-1.2-0.2-1.9-0.2c-1.2,0-2.4,0.4-3.6,1.2
	c-0.8,0.6-1.5,1.3-1.9,2c-0.4,0.8-0.7,1.6-0.7,2.6V395.7z"/>
<path fill="#CE0000" d="M322.8,379.7c-0.5-1.9-1.5-3.4-3-4.5c-1.5-1.1-3.2-1.6-5.2-1.6c-2.2,0-4.2,0.8-5.8,2.4
	c-1.7,1.6-2.5,3.5-2.5,5.7c0,0.4,0,0.7,0,0.9c0.3,2.4,1.2,4.2,3,5.6c1.5,1.2,3.3,1.8,5.4,1.8c1.2,0,2.3-0.2,3.4-0.6
	c1-0.4,1.9-1,2.7-1.9l4.1,4.2c-1.5,1.5-3,2.5-4.6,3.2c-1.6,0.7-3.4,1-5.5,1c-3.9,0-7.3-1.4-10.1-4.1c-2.8-2.7-4.2-6-4.2-9.9
	c0-3.9,1.4-7.3,4.1-10c2.7-2.8,6-4.2,9.9-4.2c3.9,0,7.4,1.5,10.3,4.4c2.9,2.9,4.4,6.3,4.4,10.2c0,0.4,0,0.8,0,1.2
	c-0.1,0.4-0.1,0.6-0.1,0.8h-20.1c-0.4,0-0.7-0.2-0.8-0.5c-0.1-0.4-0.2-0.8-0.2-1.5c0-0.3,0-0.5,0-0.6c0-0.3,0-0.5,0-0.7
	c0-0.5,0-0.8,0.1-1c0.1-0.2,0.3-0.3,0.7-0.3H322.8z"/>
<path fill="#CE0000" d="M353.3,360.4h5.8v22c0,3.6-1.4,6.7-4.1,9.2c-2.7,2.5-6,3.8-9.7,3.8c-3.7,0-6.8-1.3-9.5-3.9
	c-2.6-2.6-3.9-5.8-3.9-9.5c0-3.4,1.1-6.3,3.2-8.7c2.1-2.4,4.8-3.9,8.2-4.4c0.9-0.1,1.8-0.2,2.6-0.2c1.8,0,3.7,0.5,5.7,1.4v7.1
	c-0.7-0.9-1.6-1.5-2.7-2c-1.1-0.5-2.3-0.7-3.6-0.7c-2.1,0-3.8,0.6-5.2,1.8c-1.6,1.4-2.4,3.3-2.4,5.7c0,2.1,0.7,3.9,2.2,5.4
	c1.5,1.5,3.3,2.2,5.4,2.2c2.1,0,3.9-0.7,5.5-2c1.6-1.3,2.3-3,2.3-4.9V360.4z"/>
<path fill="#CE0000" d="M393.3,395.7v-15.9c0-3.5,1.2-6.4,3.7-8.8c2.5-2.4,5.5-3.7,9-3.7c3.4,0,6.4,1.2,8.8,3.7
	c2.4,2.4,3.6,5.4,3.6,8.8v15.8H412v-16c0-1.6-0.6-3-1.9-4.1c-1.2-1.1-2.7-1.7-4.4-1.7c-1.6,0-3,0.6-4.2,1.7
	c-1.2,1.1-1.8,2.5-1.8,4.1v16.1H393.3z"/>
<path fill="#CE0000" d="M439.6,388.8v6.4c-1.1,0.3-2.3,0.4-3.5,0.4c-3.9,0-7.3-1.4-10-4.2c-2.8-2.8-4.1-6.2-4.1-10.1
	c0-3.9,1.4-7.2,4.2-9.9c2.8-2.7,6.1-4,10-4c1,0,2.2,0.2,3.3,0.5v6.2c-1-0.5-2-0.7-3.2-0.7c-2.2,0-4.1,0.7-5.7,2.1
	c-1.7,1.5-2.6,3.5-2.6,5.8c0,2.4,0.9,4.4,2.6,5.9c1.6,1.5,3.5,2.2,5.7,2.2C437.4,389.5,438.5,389.3,439.6,388.8z"/>
<path fill="#CE0000" d="M442.8,390.9c0-1.2,0.4-2.1,1.1-2.8c0.7-0.7,1.6-1,2.6-1c1.2,0,2.2,0.4,3,1.1c1,0.8,1.4,1.9,1.4,3.3
	c0,1.2-0.4,2.1-1.1,2.8c-0.7,0.7-1.6,1-2.6,1c-1.2,0-2.2-0.4-3-1.1C443.3,393.4,442.8,392.3,442.8,390.9z"/>
<path fill="#CE0000" d="M312.3,308.8h6.1v35.4h-6.1V308.8z"/>
<text transform="matrix(1 0 0 1 470.5736 441.9919)"><tspan x="0" y="0" fill="#FFFFFF" font-family="'Gothic821CondTL-Regular'" font-size="32">WHAT</tspan><tspan x="62.1" y="0" font-family="'Gothic821CondTL-Regular'" font-size="32"> </tspan><tspan x="69.2" y="0" fill="#CE0000" font-family="'Gothic821CondTL-Regular'" font-size="32">do they do?</tspan></text>
</svg>
