<?xml version="1.0" encoding="utf-8"?>
<!-- Generator: Adobe Illustrator 18.0.0, SVG Export Plug-In . SVG Version: 6.00 Build 0)  -->
<!DOCTYPE svg PUBLIC "-//W3C//DTD SVG 1.1//EN" "http://www.w3.org/Graphics/SVG/1.1/DTD/svg11.dtd">
<svg version="1.1" id="Layer_1" xmlns="http://www.w3.org/2000/svg" xmlns:xlink="http://www.w3.org/1999/xlink" x="0px" y="0px"
	 viewBox="0 0 444.8 1722.3" enable-background="new 0 0 444.8 1722.3" xml:space="preserve">
<path fill="#CE0000" d="M379.8,709.2c-1.1,0-2-0.4-2.7-1.1c-0.6-0.7-1-1.5-1-2.5c0-0.9,0.3-1.7,0.9-2.4c0.6-0.7,1.5-1,2.7-1c1,0,1.9,0.4,2.5,1.1
	c0.6,0.7,0.9,1.5,0.9,2.4c0,0.9-0.3,1.7-0.9,2.4C381.7,708.9,380.8,709.2,379.8,709.2z M376.7,710.9h6.1v1011.5h-6.1V710.9z"/>
<path fill="#CE0000" d="M299,663.4c-2.7-2.7-5.8-4-9.6-4c-1.2,0-2.3,0.1-3.1,0.4c-0.9,0.2-1.9,0.7-3,1.3v6.9c0.7-0.9,1.6-1.5,2.7-2
	c1.1-0.5,2.3-0.7,3.5-0.7c1.8,0,3.3,0.5,4.6,1.4c1.5,1,2.4,2.4,2.8,4.2c0.1,0.6,0.2,1.2,0.2,1.7c0,2-0.6,3.8-1.8,5.3
	c-1.2,1.6-2.7,2.5-4.6,2.8c-0.3,0-0.6,0.1-0.7,0.1h-0.4c-2.1,0-3.9-0.7-5.6-2.2c-1.6-1.4-2.4-3.2-2.4-5.2L281.7,0h-5.8l0.1,673.6
	c0,3.6,1.4,6.6,4.2,9.1c2.7,2.4,6,3.6,9.8,3.6c3.6,0,6.7-1.3,9.2-3.9c2.5-2.6,3.8-5.7,3.8-9.4C303,669.2,301.7,666,299,663.4z"/>
<path fill="#CE0000" d="M337.1,678.3v7.4c-2.2,1.1-4.4,1.6-6.6,1.6c-3.3,0-6.4-1.2-9.3-3.7c-1.8-1.5-3.1-3.1-3.9-4.9c-0.8-1.7-1.2-3.8-1.2-6.2
	c0-3.9,1.4-7.3,4.2-10c2.8-2.8,6.2-4.2,10.1-4.2c4,0,7.5,1.4,10.4,4.1c2.9,2.7,4.3,6.1,4.3,10v13.8h-6.3v-14c0-2.2-0.8-4.1-2.5-5.6
	c-1.7-1.5-3.7-2.3-5.9-2.3c-2.3,0-4.2,0.8-5.8,2.4c-1.6,1.6-2.4,3.5-2.4,5.8c0,2.4,0.8,4.4,2.4,6.1s3.6,2.5,5.9,2.5
	c1.4,0,2.6-0.2,3.6-0.7C335.2,680.1,336.2,679.4,337.1,678.3z"/>
<path fill="#CE0000" d="M366.7,679.4v6.4c-1.1,0.3-2.3,0.4-3.5,0.4c-3.9,0-7.3-1.4-10-4.2c-2.8-2.8-4.1-6.2-4.1-10.1c0-3.9,1.4-7.2,4.2-9.9
	c2.8-2.7,6.1-4,10-4c1,0,2.2,0.2,3.3,0.5v6.2c-1-0.5-2-0.7-3.2-0.7c-2.2,0-4.1,0.7-5.7,2.1c-1.7,1.5-2.6,3.5-2.6,5.8
	c0,2.4,0.9,4.4,2.6,5.9c1.6,1.5,3.5,2.2,5.7,2.2C364.6,680.1,365.7,679.9,366.7,679.4z"/>
<path fill="#CE0000" d="M370.3,686.4v-35.6h5.9V672h0.5l6.9-11.7h7.1l-7.4,12.7l7.4,13.2h-6.8l-7.1-11.9h-0.4v12H370.3z"/>
<path fill="#CE0000" d="M441.4,686.3h-7.9l-1.3-2.1c-1,0.9-2.1,1.5-3.1,1.9c-1.1,0.3-2.4,0.5-3.9,0.5c-3.8,0-6.7-1.3-8.7-3.9c-1.1-1.4-2-3.4-2.7-6
	c-0.1-0.4-0.2-0.9-0.3-1.5c-0.1-0.6-0.1-1.1-0.1-1.5c0-1.7,0.4-3.3,1.2-4.9c0.7-1.3,1.5-2.6,2.2-3.9c-0.9-0.9-1.4-1.7-1.7-2.4
	c-0.3-0.7-0.4-1.8-0.4-3.2c0-1.7,0.8-3.5,2.5-5.3c1.9-2.2,4.1-3.2,6.5-3.2c1.4,0,2.6,0.1,3.5,0.4c0.9,0.3,1.9,0.9,2.9,1.7
	c0.9,0.8,1.7,1.7,2.3,2.7c0.6,1.1,0.9,2,0.9,2.8h-6.9c0.2-0.5,0-0.9-0.5-1.2c-0.5-0.3-1.1-0.5-1.8-0.5c-0.4,0-0.8,0.1-1.1,0.2
	c-0.5,0.2-0.9,0.6-1.2,1.1c-0.2,0.5-0.3,1.1-0.3,1.9c0,0.5,0.2,1.1,0.6,1.6c0.1,0.2,0.4,0.5,0.7,0.9l9.4,11.6v-3.4h6.4v5.9
	c0,0.2,0,0.3-0.1,0.4c-0.1,0.7-0.3,1.2-0.5,1.5c-0.2,0.3-0.5,0.7-1,1.2c-0.1,0.1-0.2,0.2-0.3,0.4L441.4,686.3z M427.9,678.8
	l-6.6-8.6c-0.6,0.6-1,1.3-1.2,1.9c-0.2,0.7-0.3,1.4-0.3,2.4c0,1.2,0.4,2.2,1.1,3.2c1,1.3,2.3,1.9,4.1,1.9c0.6,0,1.1-0.1,1.6-0.2
	C426.9,679.3,427.4,679.1,427.9,678.8z"/>
<path fill="#CE0000" d="M283.2,737.7l-6.7,0v-15.6c0-2.4,0.4-4.4,1.3-6.2c0.9-1.7,2.3-3.2,4.2-4.5c1.2-0.8,2.3-1.4,3.3-1.7c1-0.3,2.1-0.5,3.4-0.5
	c0.3,0,0.7,0,1.1,0.1c0.4,0,0.9,0.1,1.5,0.2v6.3c-0.6-0.2-1.2-0.2-1.9-0.2c-1.2,0-2.4,0.4-3.6,1.2c-0.8,0.6-1.5,1.3-1.9,2
	c-0.4,0.8-0.7,1.6-0.7,2.6V737.7z"/>
<path fill="#CE0000" d="M316.6,721.7c-0.5-1.9-1.5-3.4-3-4.5c-1.5-1.1-3.2-1.6-5.2-1.6c-2.2,0-4.2,0.8-5.8,2.4c-1.7,1.6-2.5,3.5-2.5,5.7
	c0,0.4,0,0.7,0,0.9c0.3,2.4,1.2,4.2,3,5.6c1.5,1.2,3.3,1.8,5.4,1.8c1.2,0,2.3-0.2,3.4-0.6c1-0.4,1.9-1,2.7-1.9l4.1,4.2
	c-1.5,1.5-3,2.5-4.6,3.2c-1.6,0.7-3.4,1-5.5,1c-3.9,0-7.3-1.4-10.1-4.1c-2.8-2.7-4.2-6-4.2-9.9c0-3.9,1.4-7.3,4.1-10
	c2.7-2.8,6-4.2,9.9-4.2c3.9,0,7.4,1.5,10.3,4.4c2.9,2.9,4.4,6.3,4.4,10.2c0,0.4,0,0.8,0,1.2c-0.1,0.4-0.1,0.6-0.1,0.8h-20.1
	c-0.4,0-0.7-0.2-0.8-0.5c-0.1-0.4-0.2-0.8-0.2-1.5c0-0.3,0-0.5,0-0.6c0-0.3,0-0.5,0-0.7c0-0.5,0-0.8,0.1-1c0.1-0.2,0.3-0.3,0.7-0.3
	H316.6z"/>
<path fill="#CE0000" d="M347.1,702.4h5.8v22c0,3.6-1.4,6.7-4.1,9.2c-2.7,2.5-6,3.8-9.7,3.8c-3.7,0-6.8-1.3-9.5-3.9c-2.6-2.6-3.9-5.8-3.9-9.5
	c0-3.4,1.1-6.3,3.2-8.7c2.1-2.4,4.8-3.9,8.2-4.4c0.9-0.1,1.8-0.2,2.6-0.2c1.8,0,3.7,0.5,5.7,1.4v7.1c-0.7-0.9-1.6-1.5-2.7-2
	c-1.1-0.5-2.3-0.7-3.6-0.7c-2.1,0-3.8,0.6-5.2,1.8c-1.6,1.4-2.4,3.3-2.4,5.7c0,2.1,0.7,3.9,2.2,5.4c1.5,1.5,3.3,2.2,5.4,2.2
	c2.1,0,3.9-0.7,5.5-2c1.6-1.3,2.3-3,2.3-4.9V702.4z"/>
<path fill="#CE0000" d="M387.2,737.7v-15.9c0-3.5,1.2-6.4,3.7-8.8c2.5-2.4,5.5-3.7,9-3.7c3.4,0,6.4,1.2,8.8,3.7c2.4,2.4,3.6,5.4,3.6,8.8v15.8h-6.5
	v-16c0-1.6-0.6-3-1.9-4.1c-1.2-1.1-2.7-1.7-4.4-1.7c-1.6,0-3,0.6-4.2,1.7s-1.8,2.5-1.8,4.1v16.1H387.2z"/>
<path fill="#CE0000" d="M433.4,730.8v6.4c-1.1,0.3-2.3,0.4-3.5,0.4c-3.9,0-7.3-1.4-10-4.2c-2.8-2.8-4.1-6.2-4.1-10.1c0-3.9,1.4-7.2,4.2-9.9
	c2.8-2.7,6.1-4,10-4c1,0,2.2,0.2,3.3,0.5v6.2c-1-0.5-2-0.7-3.2-0.7c-2.2,0-4.1,0.7-5.7,2.1c-1.7,1.5-2.6,3.5-2.6,5.8
	c0,2.4,0.9,4.4,2.6,5.9c1.6,1.5,3.5,2.2,5.7,2.2C431.2,731.5,432.4,731.3,433.4,730.8z"/>
<path fill="#CE0000" d="M436.7,732.9c0-1.2,0.4-2.1,1.1-2.8c0.7-0.7,1.6-1,2.6-1c1.2,0,2.2,0.4,3,1.1c1,0.8,1.4,1.9,1.4,3.3c0,1.2-0.4,2.1-1.1,2.8
	c-0.7,0.7-1.6,1-2.6,1c-1.2,0-2.2-0.4-3-1.1C437.1,735.4,436.7,734.3,436.7,732.9z"/>
<path fill="#CE0000" d="M306.2,650.8h6.1v35.4h-6.1V650.8z"/>
<g>
	<path fill="#FFFFFF" d="M100,390.1h-0.4l-1.1,7.3c-0.1,0.6-0.2,1-0.4,1.2c-0.2,0.3-0.7,0.4-1.4,0.4c-0.1,0-0.2,0-0.4,0
		c-0.1,0-0.3,0-0.4,0c-0.2,0-0.3,0-0.5,0c-0.2,0-0.4,0-0.5,0c-0.4,0-0.7,0-0.9-0.1c-0.2-0.1-0.4-0.2-0.5-0.4
		c-0.1-0.2-0.2-0.5-0.3-0.8c-0.1-0.3-0.2-0.8-0.2-1.3l-3.1-17.9c-0.1-0.5-0.2-0.9-0.2-1.2c-0.1-0.3-0.1-0.6-0.1-0.8
		c0-0.3,0.4-0.5,1.1-0.5c0.9,0,1.6,0,2,0c0.5,0,0.8,0,0.9,0c0.3,0,0.6,0,0.8,0.1c0.2,0.1,0.3,0.2,0.4,0.4c0.1,0.2,0.2,0.5,0.2,0.8
		c0.1,0.3,0.1,0.7,0.1,1.2l1.2,10.8h0.4l1.4-5.4l-1.2-6.6c0-0.1,0-0.2,0-0.3c0-0.1,0-0.1,0-0.2c0-0.3,0.1-0.5,0.3-0.7
		c0.2-0.2,0.4-0.3,0.7-0.3c0.5,0,0.9,0,1.2,0c0.3,0,0.5,0,0.7,0c0.2,0,0.4,0,0.6,0c0.2,0,0.4,0,0.6,0c0.5,0,0.8,0.1,0.9,0.4
		c0.1,0.3,0.2,0.7,0.3,1.4l0.9,11.6h0.4l1.4-11.5v-0.2v-0.3c0-0.5,0.1-0.9,0.4-1.1c0.2-0.2,0.6-0.3,1.2-0.3c0.4,0,0.8,0,1.1,0
		c0.4,0,0.7,0,1.1,0c0.3,0,0.5,0,0.6,0s0.3,0,0.4,0c0.2,0,0.4,0,0.5,0.1c0.1,0.1,0.1,0.3,0.1,0.5c0,0.1,0,0.4-0.1,0.7
		c-0.1,0.3-0.1,0.7-0.2,1.2l-3.5,18.5c-0.1,0.7-0.3,1.2-0.4,1.5c-0.1,0.3-0.5,0.5-1,0.5c-0.2,0-0.3,0-0.5,0c-0.2,0-0.4,0-0.5,0
		c-0.2,0-0.4,0-0.6,0.1c-0.2,0-0.3,0.1-0.5,0.1c-0.6,0-1-0.2-1.2-0.6c-0.2-0.4-0.4-1.1-0.5-2L100,390.1z"/>
	<path fill="#FFFFFF" d="M113.3,399h-0.2c-0.7,0-1.2-0.1-1.5-0.2s-0.4-0.5-0.4-1.2c0-0.1,0-0.5,0-1.2c0-0.6,0-1.5,0-2.6
		c0-1.7,0-3.4,0-5c0-1.6,0-3.2,0-4.8c0-0.8,0-1.6,0-2.5c0-0.9,0-1.8,0-2.8v-0.8c0-0.4,0-0.7,0-0.9c0-0.2,0.1-0.4,0.2-0.6
		s0.3-0.2,0.6-0.3c0.3-0.1,0.6-0.1,1.1-0.1h1c0.9,0,1.5,0.1,1.8,0.3c0.3,0.2,0.5,0.6,0.5,1.3v0.2l-0.2,5.1c0,0.1,0,0.2,0,0.3
		c0,0.1,0,0.2,0,0.3c0,0.5,0.1,0.9,0.2,1.1c0.2,0.3,0.5,0.4,1,0.4c0.5,0,0.8-0.2,1-0.5c0.2-0.4,0.3-0.9,0.3-1.6c0-0.7,0-1.3-0.1-1.7
		s-0.1-0.7-0.1-0.9c0-0.3,0-0.6,0.1-0.8c0-0.3,0.1-0.5,0.1-0.8c0-0.2,0-0.5,0-0.7c0-0.2,0-0.4,0-0.6c0-0.6,0.2-1,0.5-1.1
		c0.3-0.1,0.9-0.2,1.6-0.2h1.5c0.6,0,0.9,0.1,1.2,0.2c0.2,0.2,0.3,0.5,0.3,1c0,0.1,0,0.4,0,1s0,1.3,0,2.2c0,0.3,0,0.7,0,1.2
		c0,0.5,0,1.2,0,2c0,1,0,2.2,0,3.8c0,1.5,0,3.4,0,5.6c0,1.2,0,2.1,0,2.8c0,0.7,0,1.2,0,1.5c0,1.2-0.5,1.8-1.5,1.8h-2.3
		c-0.5,0-0.9-0.2-1.1-0.5c-0.2-0.3-0.3-0.8-0.3-1.4v-2.8c0-0.6,0-1.2,0.1-1.7c0.1-0.5,0.1-1,0.1-1.4c0-0.7-0.3-1.1-1-1.1
		c-0.7,0-1.1,0.2-1.3,0.5c-0.2,0.3-0.3,0.8-0.3,1.5v5.1c0,0.4,0,0.7-0.1,0.9c-0.1,0.2-0.1,0.4-0.3,0.5c-0.1,0.1-0.3,0.2-0.6,0.3
		c-0.3,0.1-0.6,0.1-1,0.1H113.3z"/>
	<path fill="#FFFFFF" d="M125.6,387.7c0-0.9,0-1.8,0-2.6s0.1-1.6,0.1-2.4c0.1-0.7,0.2-1.4,0.4-2.1c0.2-0.7,0.4-1.3,0.7-1.8
		c0.6-1,1.4-1.8,2.4-2.4c1.1-0.6,2.4-0.8,4-0.8c2.4,0,4.1,0.7,5.2,2.2c1.1,1.5,1.6,3.7,1.6,6.8v1c0,2.3,0,4.3-0.1,5.9s-0.3,3-0.8,4
		c-0.5,1.2-1.3,2.2-2.5,2.8c-1.2,0.7-2.6,1-4.3,1c-1.3,0-2.5-0.2-3.3-0.7c-0.9-0.5-1.6-1.2-2.1-2.1c-0.5-1-0.9-2.2-1.1-3.6
		C125.7,391.4,125.6,389.7,125.6,387.7z M134.5,383.4c0-0.8-0.1-1.4-0.4-1.8s-0.7-0.6-1.1-0.6c-0.6,0-1.1,0.3-1.3,0.8
		c-0.2,0.6-0.3,1.4-0.3,2.6v6.4c0,1.1,0.1,1.9,0.3,2.4c0.2,0.5,0.6,0.7,1.1,0.7c0.4,0,0.8-0.1,1-0.3c0.2-0.2,0.4-0.5,0.5-0.9
		c0.1-0.4,0.2-0.9,0.2-1.6c0-0.6,0-1.4,0-2.3v-0.4V383.4z"/>
	<path fill="#CE0000" d="M149.1,399c-0.4,0-0.8-0.1-0.9-0.2c-0.2-0.1-0.3-0.4-0.3-0.7c0-0.3,0-0.6,0.1-1c0.1-0.4,0.2-0.8,0.3-1.2l1-4.6
		c0.1-0.4,0.1-0.8,0.1-1.2c0-0.4,0.1-0.9,0.1-1.3c0.6-3.1,1-5.4,1.3-7.1c0.3-1.7,0.5-2.6,0.5-2.9c0.2-1,0.3-1.7,0.5-2.1
		c0.1-0.4,0.5-0.6,0.9-0.6h3.9c0.3,0,0.5,0,0.8,0.1c0.2,0,0.4,0.1,0.5,0.3c0.2,0.2,0.4,1,0.7,2.4c0.3,1.4,0.7,3.4,1.2,5.9
		c0.2,0.9,0.4,2,0.6,3.4c0.2,1.4,0.4,2.9,0.8,4.8c0.2,1,0.4,2,0.6,2.8c0.2,0.8,0.4,1.5,0.4,2.1c0,0.4-0.1,0.7-0.4,0.9
		c-0.3,0.2-0.6,0.3-1.1,0.3H158c-0.2,0-0.4-0.1-0.6-0.2c-0.2-0.1-0.3-0.3-0.4-0.5c-0.1-0.4-0.2-0.8-0.2-1.2c0-0.4,0-0.7-0.1-1.1
		c-0.1-0.4-0.3-0.7-0.4-0.8c-0.2-0.2-0.5-0.2-0.9-0.2c-0.6,0-1.1,0.1-1.4,0.3c-0.3,0.2-0.5,0.4-0.5,0.7c0,0.2,0,0.4,0,0.6
		c0,0.2,0,0.4,0,0.5c0,0.7-0.1,1.2-0.3,1.5c-0.2,0.3-0.6,0.4-1.2,0.4H149.1z M155.2,381.6l-0.3,0l-0.9,6.5c0,0.2-0.1,0.3-0.1,0.4
		c0,0.1,0,0.2,0,0.4c0,0.1,0,0.2,0,0.3c0,0.2,0.1,0.4,0.3,0.5c0.2,0.1,0.5,0.2,0.9,0.2c0.4,0,0.8-0.1,0.9-0.2
		c0.2-0.1,0.2-0.4,0.2-0.7c0-0.1,0-0.2,0-0.3s0-0.2,0-0.4L155.2,381.6z"/>
	<path fill="#CE0000" d="M164.5,399c-0.6,0-0.9-0.2-1.1-0.5c-0.1-0.3-0.2-0.8-0.2-1.6v-19c0-0.7,0.1-1.2,0.3-1.6c0.2-0.3,0.7-0.5,1.5-0.5
		c0.5,0,0.9,0,1.4,0c0.4,0,0.8,0,1.1,0c0.5,0,1,0,1.6,0c0.6,0,1.2,0,1.9,0c1,0,1.9,0.1,2.7,0.4c0.7,0.3,1.3,0.7,1.8,1.4
		c0.5,0.6,0.8,1.5,1,2.5c0.2,1,0.3,2.2,0.3,3.7c0,2-0.2,3.5-0.5,4.7c-0.3,1.2-1,2-1.9,2.5l2.9,6.7c0.1,0.3,0.2,0.4,0.2,0.6
		c0,0.6-0.4,0.9-1.1,0.9c-0.1,0-0.2,0-0.3,0c-0.1,0-0.2,0-0.4,0H173c-0.3,0-0.5,0-0.6-0.1c-0.1-0.1-0.3-0.2-0.4-0.3
		c-0.1-0.1-0.2-0.3-0.3-0.5s-0.2-0.5-0.3-0.8l-2.5-6.4h-0.6v6.8c0,0.4-0.1,0.8-0.2,1c-0.2,0.2-0.4,0.3-0.8,0.3H164.5z M168.4,384.7
		c0,0.5,0,0.9,0,1.2c0,0.3,0.1,0.6,0.2,0.8c0.1,0.2,0.3,0.4,0.5,0.5c0.2,0.1,0.5,0.1,0.9,0.1c0.6,0,1-0.2,1.3-0.6
		c0.3-0.4,0.5-0.9,0.5-1.6c0-0.8,0-1.4,0-2c0-0.6-0.1-1.1-0.2-1.4c-0.1-0.4-0.3-0.6-0.6-0.8c-0.3-0.2-0.6-0.3-1.1-0.3
		c-1,0-1.5,0.6-1.5,1.7c0,0.2,0,0.5,0,0.9C168.3,383.8,168.4,384.2,168.4,384.7z"/>
	<path fill="#CE0000" d="M179.6,378.3c0-0.1,0-0.2,0-0.3c0-0.1,0-0.3,0-0.5c0-0.4,0-0.7,0.1-0.9c0.1-0.2,0.2-0.4,0.4-0.5c0.2-0.1,0.4-0.2,0.7-0.2
		c0.3,0,0.7,0,1.1,0h5c0.1,0,0.1,0,0.2,0c0.1,0,0.2,0,0.3,0c0,0,0.1,0,0.2,0s0.2,0,0.4,0c0.7,0,1.1,0.1,1.3,0.4
		c0.2,0.2,0.4,0.7,0.4,1.3c0,0.6,0,1,0,1.3s0,0.5,0,0.6c0,0.6-0.1,1.1-0.4,1.3c-0.2,0.2-0.6,0.3-1.2,0.3c-0.2,0-0.4,0-0.5,0
		c-0.2,0-0.4,0-0.6,0h-1.5c-0.4,0-0.6,0.1-0.7,0.3c-0.1,0.2-0.2,0.5-0.2,1v0.4c0,0.6,0.1,1,0.2,1.2c0.1,0.2,0.4,0.4,1,0.4
		c0.3,0,0.6,0,1,0c0.4,0,0.8,0,1.2,0c0.8,0,1.2,0.2,1.4,0.5c0.2,0.3,0.3,0.9,0.3,1.7v0.9c0,1.4-0.4,2.1-1.3,2.1
		c-0.3,0-0.7,0-1.1-0.1c-0.4,0-0.9-0.1-1.5-0.1c-0.5,0-0.7,0.1-0.8,0.3c-0.1,0.2-0.1,0.4-0.1,0.8l0,1.9c0,0.5,0,0.8,0.2,1
		c0.1,0.1,0.4,0.2,0.9,0.2c0.8,0,1.5,0,1.9,0c0.5,0,0.8,0,0.9,0c0.7,0,1.1,0.2,1.2,0.5c0.1,0.4,0.2,1,0.2,1.9c0,0.6,0,1.1,0,1.4
		c0,0.4-0.1,0.7-0.2,0.9c-0.1,0.2-0.3,0.4-0.5,0.5c-0.2,0.1-0.5,0.2-1,0.2c-0.7,0-1.4,0-2.3-0.1c-0.9,0-1.9-0.1-3-0.1
		c-0.3,0-0.7,0-1.1,0.1c-0.4,0-0.8,0.1-1.2,0.1c-0.5,0-0.8-0.1-1.1-0.4c-0.3-0.2-0.4-0.6-0.4-1c0-0.5,0-1.1,0.1-1.7
		c0.1-0.6,0.1-1.3,0.1-2.1L179.6,378.3z"/>
	<path fill="#CE0000" d="M201.1,387.8c0-0.3,0-0.5,0-0.8c0-0.3,0-0.5,0-0.8c0-0.2,0-0.7,0-1.3c0-0.7,0-1.6,0-2.8c0-0.4-0.1-0.6-0.3-0.6
		c-0.4-0.1-0.9-0.1-1.3-0.1c-0.4,0-0.8,0-1.2-0.2c-0.3-0.1-0.4-0.4-0.5-0.9s-0.1-1.3-0.1-2.4c0-1.1,0.5-1.7,1.5-1.7
		c1.4,0,2.5,0,3.3,0c0.8,0,1.2,0,1.4,0c0.5,0,0.9,0,1.3,0c0.4,0,0.8,0,1.1,0c0.3,0,0.6,0,0.9,0c0.3,0,0.6,0,0.8,0
		c0.6,0,1,0.1,1.2,0.3c0.2,0.2,0.3,0.6,0.3,1.3v0.4c0,1.1,0,1.9-0.1,2.5c-0.1,0.5-0.4,0.8-1,0.8h-1.1c-0.4,0-0.7,0.1-0.9,0.2
		s-0.2,0.3-0.2,0.6v0.3v0.3l0,13c0,0.5,0,0.9,0,1.3c0,0.4,0,0.6,0,0.8c0,0.5-0.1,0.8-0.3,1c-0.2,0.2-0.5,0.3-0.9,0.3
		c-0.1,0-0.2,0-0.3,0c-0.1,0-0.3,0-0.4,0c-0.3,0-0.6,0-0.9,0c-0.3,0-0.7,0-1.1,0c-0.5,0-0.9-0.1-1.1-0.3c-0.2-0.2-0.3-0.5-0.3-1
		c0-0.3,0-0.6,0-0.8c0-0.3,0-0.6,0-0.9V387.8z"/>
	<path fill="#CE0000" d="M213.4,399h-0.2c-0.7,0-1.2-0.1-1.5-0.2s-0.4-0.5-0.4-1.2c0-0.1,0-0.5,0-1.2c0-0.6,0-1.5,0-2.6c0-1.7,0-3.4,0-5
		c0-1.6,0-3.2,0-4.8c0-0.8,0-1.6,0-2.5c0-0.9,0-1.8,0-2.8v-0.8c0-0.4,0-0.7,0-0.9c0-0.2,0.1-0.4,0.2-0.6s0.3-0.2,0.6-0.3
		c0.3-0.1,0.6-0.1,1.1-0.1h1c0.9,0,1.5,0.1,1.8,0.3c0.3,0.2,0.5,0.6,0.5,1.3v0.2l-0.2,5.1c0,0.1,0,0.2,0,0.3c0,0.1,0,0.2,0,0.3
		c0,0.5,0.1,0.9,0.2,1.1c0.2,0.3,0.5,0.4,1,0.4c0.5,0,0.8-0.2,1-0.5c0.2-0.4,0.3-0.9,0.3-1.6c0-0.7,0-1.3-0.1-1.7s-0.1-0.7-0.1-0.9
		c0-0.3,0-0.6,0.1-0.8c0-0.3,0.1-0.5,0.1-0.8c0-0.2,0-0.5,0-0.7c0-0.2,0-0.4,0-0.6c0-0.6,0.2-1,0.5-1.1c0.3-0.1,0.9-0.2,1.6-0.2h1.5
		c0.6,0,0.9,0.1,1.2,0.2c0.2,0.2,0.3,0.5,0.3,1c0,0.1,0,0.4,0,1s0,1.3,0,2.2c0,0.3,0,0.7,0,1.2c0,0.5,0,1.2,0,2c0,1,0,2.2,0,3.8
		c0,1.5,0,3.4,0,5.6c0,1.2,0,2.1,0,2.8c0,0.7,0,1.2,0,1.5c0,1.2-0.5,1.8-1.5,1.8h-2.3c-0.5,0-0.9-0.2-1.1-0.5
		c-0.2-0.3-0.3-0.8-0.3-1.4v-2.8c0-0.6,0-1.2,0.1-1.7c0.1-0.5,0.1-1,0.1-1.4c0-0.7-0.3-1.1-1-1.1c-0.7,0-1.1,0.2-1.3,0.5
		c-0.2,0.3-0.3,0.8-0.3,1.5v5.1c0,0.4,0,0.7-0.1,0.9c-0.1,0.2-0.1,0.4-0.3,0.5c-0.1,0.1-0.3,0.2-0.6,0.3c-0.3,0.1-0.6,0.1-1,0.1
		H213.4z"/>
	<path fill="#CE0000" d="M225.9,378.3c0-0.1,0-0.2,0-0.3c0-0.1,0-0.3,0-0.5c0-0.4,0-0.7,0.1-0.9c0.1-0.2,0.2-0.4,0.4-0.5c0.2-0.1,0.4-0.2,0.7-0.2
		c0.3,0,0.7,0,1.1,0h5c0.1,0,0.1,0,0.2,0c0.1,0,0.2,0,0.3,0c0,0,0.1,0,0.2,0s0.2,0,0.4,0c0.7,0,1.1,0.1,1.3,0.4
		c0.2,0.2,0.4,0.7,0.4,1.3c0,0.6,0,1,0,1.3s0,0.5,0,0.6c0,0.6-0.1,1.1-0.4,1.3c-0.2,0.2-0.6,0.3-1.2,0.3c-0.2,0-0.4,0-0.5,0
		c-0.2,0-0.4,0-0.6,0H232c-0.4,0-0.6,0.1-0.7,0.3c-0.1,0.2-0.2,0.5-0.2,1v0.4c0,0.6,0.1,1,0.2,1.2c0.1,0.2,0.4,0.4,1,0.4
		c0.3,0,0.6,0,1,0c0.4,0,0.8,0,1.2,0c0.8,0,1.2,0.2,1.4,0.5c0.2,0.3,0.3,0.9,0.3,1.7v0.9c0,1.4-0.4,2.1-1.3,2.1
		c-0.3,0-0.7,0-1.1-0.1c-0.4,0-0.9-0.1-1.5-0.1c-0.5,0-0.7,0.1-0.8,0.3c-0.1,0.2-0.1,0.4-0.1,0.8l0,1.9c0,0.5,0,0.8,0.2,1
		c0.1,0.1,0.4,0.2,0.9,0.2c0.8,0,1.5,0,1.9,0c0.5,0,0.8,0,0.9,0c0.7,0,1.1,0.2,1.2,0.5c0.1,0.4,0.2,1,0.2,1.9c0,0.6,0,1.1,0,1.4
		c0,0.4-0.1,0.7-0.2,0.9c-0.1,0.2-0.3,0.4-0.5,0.5c-0.2,0.1-0.5,0.2-1,0.2c-0.7,0-1.4,0-2.3-0.1c-0.9,0-1.9-0.1-3-0.1
		c-0.3,0-0.7,0-1.1,0.1c-0.4,0-0.8,0.1-1.2,0.1c-0.5,0-0.8-0.1-1.1-0.4c-0.3-0.2-0.4-0.6-0.4-1c0-0.5,0-1.1,0.1-1.7
		c0.1-0.6,0.1-1.3,0.1-2.1L225.9,378.3z"/>
	<path fill="#CE0000" d="M246.6,396.6c0,0.3,0,0.6,0,0.8c0,0.2,0,0.4,0,0.6c0,0.4-0.1,0.7-0.3,0.8c-0.2,0.1-0.6,0.2-1.1,0.2c-0.3,0-0.6,0-0.8,0
		c-0.2,0-0.4,0-0.6,0c-0.5,0-0.9,0-1.2,0s-0.5,0-0.6,0c-0.3,0-0.5-0.1-0.7-0.2c-0.1-0.1-0.2-0.4-0.2-0.7c0-0.1,0-0.6,0-1.4
		c0-0.8,0-1.9,0-3.5v-2.5c0-0.4,0-0.7-0.1-1.1c-0.1-0.3-0.2-0.7-0.3-1l-3.6-10.8c-0.2-0.5-0.3-0.9-0.3-1.2c0-0.6,0.4-0.9,1.3-0.9
		c0.1,0,0.3,0,0.5,0c0.2,0,0.5,0,0.8,0c0.2,0,0.4,0,0.7,0c0.3,0,0.7,0,1.1,0c0.4,0,0.8,0.1,0.9,0.3c0.2,0.2,0.3,0.5,0.4,0.9l1.2,7.3
		h0.3l1-6.5c0.1-0.6,0.2-1,0.3-1.3c0.1-0.3,0.3-0.5,0.5-0.6c0.4-0.1,1.5-0.2,3.5-0.2c1,0,1.5,0.3,1.5,0.8c0,0.2-0.1,0.6-0.3,1.2
		l-3.5,10.7c-0.1,0.2-0.2,0.6-0.4,1.1c-0.2,0.5-0.2,1.2-0.2,2.2v0.2L246.6,396.6z"/>
	<path fill="#CE0000" d="M257.5,390.8c0,0.5-0.1,0.8-0.3,0.9c-0.2,0.1-0.5,0.2-0.9,0.2h-2c-0.4,0-0.6-0.3-0.8-0.8c-0.2-0.5-0.2-1.3-0.2-2.4
		c0-0.7,0-1.4,0.1-2c0.1-0.6,0.2-1.2,0.3-1.7c0.1-0.5,0.2-1,0.3-1.4s0.1-0.7,0.1-1c0-0.9-0.3-1.4-1-1.4c-0.1,0-0.3,0-0.4,0.1
		s-0.3,0.1-0.4,0.1c-0.4,0-0.7-0.3-0.8-0.8c-0.2-0.5-0.2-1.4-0.2-2.5c0-0.9,0.3-1.5,0.8-1.9c0.5-0.4,1.4-0.6,2.5-0.6
		c3.4,0,5.1,1.6,5.1,4.8c0,1-0.2,1.9-0.5,2.8c-0.3,0.9-0.7,1.8-1.2,2.8c-0.2,0.6-0.4,1.1-0.5,1.6c-0.1,0.5-0.2,1-0.2,1.4
		c0,0.4,0,0.7,0.1,1C257.5,390.3,257.5,390.6,257.5,390.8z M254.2,399c-0.4,0-0.7-0.1-0.8-0.2c-0.2-0.2-0.2-0.5-0.2-0.9v-3.6
		c0-0.4,0.1-0.6,0.3-0.8c0.2-0.1,0.5-0.2,0.9-0.2h2.8c0.4,0,0.7,0.1,0.8,0.2s0.2,0.5,0.2,0.9v3.6c0,0.4-0.1,0.7-0.3,0.8
		c-0.2,0.1-0.5,0.2-0.9,0.2H254.2z"/>
</g>
<g>
	<path fill="#FFFFFF" d="M63.9,429.7h-0.4l-1.1,7.3c-0.1,0.6-0.2,1-0.4,1.2c-0.2,0.3-0.7,0.4-1.4,0.4c-0.1,0-0.2,0-0.4,0
		c-0.1,0-0.3,0-0.4,0c-0.2,0-0.3,0-0.5,0c-0.2,0-0.4,0-0.5,0c-0.4,0-0.7,0-0.9-0.1c-0.2-0.1-0.4-0.2-0.5-0.4
		c-0.1-0.2-0.2-0.5-0.3-0.8c-0.1-0.3-0.2-0.8-0.2-1.3L53.8,418c-0.1-0.5-0.2-0.9-0.2-1.2c-0.1-0.3-0.1-0.6-0.1-0.8
		c0-0.3,0.4-0.5,1.1-0.5c0.9,0,1.6,0,2,0c0.5,0,0.8,0,0.9,0c0.3,0,0.6,0,0.8,0.1c0.2,0.1,0.3,0.2,0.4,0.4c0.1,0.2,0.2,0.5,0.2,0.8
		c0.1,0.3,0.1,0.7,0.1,1.2l1.2,10.8h0.4l1.4-5.4l-1.2-6.6c0-0.1,0-0.2,0-0.3c0-0.1,0-0.1,0-0.2c0-0.3,0.1-0.5,0.3-0.7
		c0.2-0.2,0.4-0.3,0.7-0.3c0.5,0,0.9,0,1.2,0c0.3,0,0.5,0,0.7,0c0.2,0,0.4,0,0.6,0c0.2,0,0.4,0,0.6,0c0.5,0,0.8,0.1,0.9,0.4
		c0.1,0.3,0.2,0.7,0.3,1.4l0.9,11.6h0.4l1.4-11.5v-0.2v-0.3c0-0.5,0.1-0.9,0.4-1.1c0.2-0.2,0.6-0.3,1.2-0.3c0.4,0,0.8,0,1.1,0
		c0.4,0,0.7,0,1.1,0c0.3,0,0.5,0,0.6,0s0.3,0,0.4,0c0.2,0,0.4,0,0.5,0.1c0.1,0.1,0.1,0.3,0.1,0.5c0,0.1,0,0.4-0.1,0.7
		c-0.1,0.3-0.1,0.7-0.2,1.2l-3.5,18.5c-0.1,0.7-0.3,1.2-0.4,1.5c-0.1,0.3-0.5,0.5-1,0.5c-0.2,0-0.3,0-0.5,0c-0.2,0-0.4,0-0.5,0
		c-0.2,0-0.4,0-0.6,0.1c-0.2,0-0.3,0.1-0.5,0.1c-0.6,0-1-0.2-1.2-0.6c-0.2-0.4-0.4-1.1-0.5-2L63.9,429.7z"/>
	<path fill="#FFFFFF" d="M77.3,438.6h-0.2c-0.7,0-1.2-0.1-1.5-0.2s-0.4-0.5-0.4-1.2c0-0.1,0-0.5,0-1.2c0-0.6,0-1.5,0-2.6
		c0-1.7,0-3.4,0-5c0-1.6,0-3.2,0-4.8c0-0.8,0-1.6,0-2.5c0-0.9,0-1.8,0-2.8v-0.8c0-0.4,0-0.7,0-0.9c0-0.2,0.1-0.4,0.2-0.6
		s0.3-0.2,0.6-0.3c0.3-0.1,0.6-0.1,1.1-0.1h1c0.9,0,1.5,0.1,1.8,0.3c0.3,0.2,0.5,0.6,0.5,1.3v0.2l-0.2,5.1c0,0.1,0,0.2,0,0.3
		c0,0.1,0,0.2,0,0.3c0,0.5,0.1,0.9,0.2,1.1c0.2,0.3,0.5,0.4,1,0.4c0.5,0,0.8-0.2,1-0.5c0.2-0.4,0.3-0.9,0.3-1.6c0-0.7,0-1.3-0.1-1.7
		s-0.1-0.7-0.1-0.9c0-0.3,0-0.6,0.1-0.8c0-0.3,0.1-0.5,0.1-0.8c0-0.2,0-0.5,0-0.7c0-0.2,0-0.4,0-0.6c0-0.6,0.2-1,0.5-1.1
		c0.3-0.1,0.9-0.2,1.6-0.2h1.5c0.6,0,0.9,0.1,1.2,0.2c0.2,0.2,0.3,0.5,0.3,1c0,0.1,0,0.4,0,1s0,1.3,0,2.2c0,0.3,0,0.7,0,1.2
		c0,0.5,0,1.2,0,2c0,1,0,2.2,0,3.8c0,1.5,0,3.4,0,5.6c0,1.2,0,2.1,0,2.8c0,0.7,0,1.2,0,1.5c0,1.2-0.5,1.8-1.5,1.8H84
		c-0.5,0-0.9-0.2-1.1-0.5c-0.2-0.3-0.3-0.8-0.3-1.4v-2.8c0-0.6,0-1.2,0.1-1.7c0.1-0.5,0.1-1,0.1-1.4c0-0.7-0.3-1.1-1-1.1
		c-0.7,0-1.1,0.2-1.3,0.5c-0.2,0.3-0.3,0.8-0.3,1.5v5.1c0,0.4,0,0.7-0.1,0.9c-0.1,0.2-0.1,0.4-0.3,0.5c-0.1,0.1-0.3,0.2-0.6,0.3
		c-0.3,0.1-0.6,0.1-1,0.1H77.3z"/>
	<path fill="#FFFFFF" d="M89.8,438.6c-0.4,0-0.8-0.1-0.9-0.2c-0.2-0.1-0.3-0.4-0.3-0.7c0-0.3,0-0.6,0.1-1c0.1-0.4,0.2-0.8,0.3-1.2
		l1-4.6c0.1-0.4,0.1-0.8,0.1-1.2c0-0.4,0.1-0.9,0.1-1.3c0.6-3.1,1-5.4,1.3-7.1c0.3-1.7,0.5-2.6,0.5-2.9c0.2-1,0.3-1.7,0.5-2.1
		c0.1-0.4,0.5-0.6,0.9-0.6h3.9c0.3,0,0.5,0,0.8,0.1c0.2,0,0.4,0.1,0.5,0.3c0.2,0.2,0.4,1,0.7,2.4c0.3,1.4,0.7,3.4,1.2,5.9
		c0.2,0.9,0.4,2,0.6,3.4c0.2,1.4,0.4,2.9,0.8,4.8c0.2,1,0.4,2,0.6,2.8c0.2,0.8,0.4,1.5,0.4,2.1c0,0.4-0.1,0.7-0.4,0.9
		c-0.3,0.2-0.6,0.3-1.1,0.3h-2.8c-0.2,0-0.4-0.1-0.6-0.2c-0.2-0.1-0.3-0.3-0.4-0.5c-0.1-0.4-0.2-0.8-0.2-1.2c0-0.4,0-0.7-0.1-1.1
		c-0.1-0.4-0.3-0.7-0.4-0.8c-0.2-0.2-0.5-0.2-0.9-0.2c-0.6,0-1.1,0.1-1.4,0.3c-0.3,0.2-0.5,0.4-0.5,0.7c0,0.2,0,0.4,0,0.6
		c0,0.2,0,0.4,0,0.5c0,0.7-0.1,1.2-0.3,1.5c-0.2,0.3-0.6,0.4-1.2,0.4H89.8z M95.9,421.2l-0.3,0l-0.9,6.5c0,0.2-0.1,0.3-0.1,0.4
		c0,0.1,0,0.2,0,0.4c0,0.1,0,0.2,0,0.3c0,0.2,0.1,0.4,0.3,0.5c0.2,0.1,0.5,0.2,0.9,0.2c0.4,0,0.8-0.1,0.9-0.2
		c0.2-0.1,0.2-0.4,0.2-0.7c0-0.1,0-0.2,0-0.3s0-0.2,0-0.4L95.9,421.2z"/>
	<path fill="#FFFFFF" d="M104.4,427.4c0-0.3,0-0.5,0-0.8c0-0.3,0-0.5,0-0.8c0-0.2,0-0.7,0-1.3c0-0.7,0-1.6,0-2.8
		c0-0.4-0.1-0.6-0.3-0.6c-0.4-0.1-0.9-0.1-1.3-0.1c-0.4,0-0.8,0-1.2-0.2c-0.3-0.1-0.4-0.4-0.5-0.9s-0.1-1.3-0.1-2.4
		c0-1.1,0.5-1.7,1.5-1.7c1.4,0,2.5,0,3.3,0c0.8,0,1.2,0,1.4,0c0.5,0,0.9,0,1.3,0c0.4,0,0.8,0,1.1,0c0.3,0,0.6,0,0.9,0
		c0.3,0,0.6,0,0.8,0c0.6,0,1,0.1,1.2,0.3c0.2,0.2,0.3,0.6,0.3,1.3v0.4c0,1.1,0,1.9-0.1,2.5c-0.1,0.5-0.4,0.8-1,0.8h-1.1
		c-0.4,0-0.7,0.1-0.9,0.2s-0.2,0.3-0.2,0.6v0.3v0.3l0,13c0,0.5,0,0.9,0,1.3c0,0.4,0,0.6,0,0.8c0,0.5-0.1,0.8-0.3,1
		c-0.2,0.2-0.5,0.3-0.9,0.3c-0.1,0-0.2,0-0.3,0c-0.1,0-0.3,0-0.4,0c-0.3,0-0.6,0-0.9,0c-0.3,0-0.7,0-1.1,0c-0.5,0-0.9-0.1-1.1-0.3
		c-0.2-0.2-0.3-0.5-0.3-1c0-0.3,0-0.6,0-0.8c0-0.3,0-0.6,0-0.9V427.4z"/>
	<path fill="#CE0000" d="M127.9,415.6h0.1c1.4,0,2.5,0.3,3.4,0.8c0.9,0.5,1.6,1.3,2.1,2.4s0.9,2.4,1.1,4c0.2,1.6,0.3,3.5,0.3,5.7
		c0,3.4-0.5,6-1.4,7.7c-0.9,1.7-2.4,2.5-4.5,2.5c-0.2,0-0.4,0-0.6,0c-0.2,0-0.3,0-0.4,0l-2.1,0c-0.1,0-0.4,0-0.8,0
		c-0.4,0-1.1,0-1.9,0c-0.4,0-0.7,0-0.9-0.1c-0.2-0.1-0.4-0.2-0.5-0.5s-0.2-0.5-0.2-0.9c0-0.4,0-0.8,0-1.4v-0.3c0-0.3,0-1.2,0-2.8
		c0-1.6,0-3.8,0-6.7c0-2.8,0-5-0.1-6.5c-0.1-1.5-0.1-2.4-0.1-2.6c0-0.5,0.1-0.9,0.4-1.1c0.3-0.2,0.7-0.3,1.3-0.3c0.2,0,0.5,0,0.8,0
		c0.4,0,0.8,0,1.3,0L127.9,415.6z M126.7,431.7c0,0.1,0,0.2,0,0.3c0,0.1,0,0.2,0,0.3c0,0.6,0.1,0.9,0.3,1.2c0.2,0.2,0.5,0.3,0.9,0.3
		c0.4,0,0.7-0.1,0.9-0.3c0.2-0.2,0.4-0.4,0.5-0.8c0.1-0.4,0.2-0.8,0.2-1.4c0-0.6,0-1.3,0-2.1v-2c0-1.2,0-2.1,0-2.9
		c0-0.8-0.1-1.5-0.2-2c-0.1-0.5-0.3-0.9-0.6-1.1c-0.2-0.2-0.6-0.4-1-0.4c-0.7,0-1,0.4-1,1.2c0,0.5,0,1,0,1.3c0,0.4,0,0.7,0,1
		L126.7,431.7z"/>
	<path fill="#CE0000" d="M136.7,427.3c0-0.9,0-1.8,0-2.6s0.1-1.6,0.1-2.4c0.1-0.7,0.2-1.4,0.4-2.1c0.2-0.7,0.4-1.3,0.7-1.8c0.6-1,1.4-1.8,2.4-2.4
		c1.1-0.6,2.4-0.8,4-0.8c2.4,0,4.1,0.7,5.2,2.2c1.1,1.5,1.6,3.7,1.6,6.8v1c0,2.3,0,4.3-0.1,5.9s-0.3,3-0.8,4
		c-0.5,1.2-1.3,2.2-2.5,2.8c-1.2,0.7-2.6,1-4.3,1c-1.3,0-2.5-0.2-3.3-0.7c-0.9-0.5-1.6-1.2-2.1-2.1c-0.5-1-0.9-2.2-1.1-3.6
		C136.8,431,136.7,429.3,136.7,427.3z M145.5,423c0-0.8-0.1-1.4-0.4-1.8s-0.7-0.6-1.1-0.6c-0.6,0-1.1,0.3-1.3,0.8
		c-0.2,0.6-0.3,1.4-0.3,2.6v6.4c0,1.1,0.1,1.9,0.3,2.4c0.2,0.5,0.6,0.7,1.1,0.7c0.4,0,0.8-0.1,1-0.3c0.2-0.2,0.4-0.5,0.5-0.9
		c0.1-0.4,0.2-0.9,0.2-1.6c0-0.6,0-1.4,0-2.3v-0.4V423z"/>
	<path fill="#CE0000" d="M162.6,427.4c0-0.3,0-0.5,0-0.8c0-0.3,0-0.5,0-0.8c0-0.2,0-0.7,0-1.3c0-0.7,0-1.6,0-2.8c0-0.4-0.1-0.6-0.3-0.6
		c-0.4-0.1-0.9-0.1-1.3-0.1c-0.4,0-0.8,0-1.2-0.2c-0.3-0.1-0.4-0.4-0.5-0.9s-0.1-1.3-0.1-2.4c0-1.1,0.5-1.7,1.5-1.7
		c1.4,0,2.5,0,3.3,0c0.8,0,1.2,0,1.4,0c0.5,0,0.9,0,1.3,0c0.4,0,0.8,0,1.1,0c0.3,0,0.6,0,0.9,0c0.3,0,0.6,0,0.8,0
		c0.6,0,1,0.1,1.2,0.3c0.2,0.2,0.3,0.6,0.3,1.3v0.4c0,1.1,0,1.9-0.1,2.5c-0.1,0.5-0.4,0.8-1,0.8h-1.1c-0.4,0-0.7,0.1-0.9,0.2
		s-0.2,0.3-0.2,0.6v0.3v0.3l0,13c0,0.5,0,0.9,0,1.3c0,0.4,0,0.6,0,0.8c0,0.5-0.1,0.8-0.3,1c-0.2,0.2-0.5,0.3-0.9,0.3
		c-0.1,0-0.2,0-0.3,0c-0.1,0-0.3,0-0.4,0c-0.3,0-0.6,0-0.9,0c-0.3,0-0.7,0-1.1,0c-0.5,0-0.9-0.1-1.1-0.3c-0.2-0.2-0.3-0.5-0.3-1
		c0-0.3,0-0.6,0-0.8c0-0.3,0-0.6,0-0.9V427.4z"/>
	<path fill="#CE0000" d="M174.9,438.6h-0.2c-0.7,0-1.2-0.1-1.5-0.2s-0.4-0.5-0.4-1.2c0-0.1,0-0.5,0-1.2c0-0.6,0-1.5,0-2.6c0-1.7,0-3.4,0-5
		c0-1.6,0-3.2,0-4.8c0-0.8,0-1.6,0-2.5c0-0.9,0-1.8,0-2.8v-0.8c0-0.4,0-0.7,0-0.9c0-0.2,0.1-0.4,0.2-0.6s0.3-0.2,0.6-0.3
		c0.3-0.1,0.6-0.1,1.1-0.1h1c0.9,0,1.5,0.1,1.8,0.3c0.3,0.2,0.5,0.6,0.5,1.3v0.2l-0.2,5.1c0,0.1,0,0.2,0,0.3c0,0.1,0,0.2,0,0.3
		c0,0.5,0.1,0.9,0.2,1.1c0.2,0.3,0.5,0.4,1,0.4c0.5,0,0.8-0.2,1-0.5c0.2-0.4,0.3-0.9,0.3-1.6c0-0.7,0-1.3-0.1-1.7s-0.1-0.7-0.1-0.9
		c0-0.3,0-0.6,0.1-0.8c0-0.3,0.1-0.5,0.1-0.8c0-0.2,0-0.5,0-0.7c0-0.2,0-0.4,0-0.6c0-0.6,0.2-1,0.5-1.1c0.3-0.1,0.9-0.2,1.6-0.2h1.5
		c0.6,0,0.9,0.1,1.2,0.2c0.2,0.2,0.3,0.5,0.3,1c0,0.1,0,0.4,0,1s0,1.3,0,2.2c0,0.3,0,0.7,0,1.2c0,0.5,0,1.2,0,2c0,1,0,2.2,0,3.8
		c0,1.5,0,3.4,0,5.6c0,1.2,0,2.1,0,2.8c0,0.7,0,1.2,0,1.5c0,1.2-0.5,1.8-1.5,1.8h-2.3c-0.5,0-0.9-0.2-1.1-0.5
		c-0.2-0.3-0.3-0.8-0.3-1.4v-2.8c0-0.6,0-1.2,0.1-1.7c0.1-0.5,0.1-1,0.1-1.4c0-0.7-0.3-1.1-1-1.1c-0.7,0-1.1,0.2-1.3,0.5
		c-0.2,0.3-0.3,0.8-0.3,1.5v5.1c0,0.4,0,0.7-0.1,0.9c-0.1,0.2-0.1,0.4-0.3,0.5c-0.1,0.1-0.3,0.2-0.6,0.3c-0.3,0.1-0.6,0.1-1,0.1
		H174.9z"/>
	<path fill="#CE0000" d="M187.5,417.9c0-0.1,0-0.2,0-0.3c0-0.1,0-0.3,0-0.5c0-0.4,0-0.7,0.1-0.9c0.1-0.2,0.2-0.4,0.4-0.5c0.2-0.1,0.4-0.2,0.7-0.2
		c0.3,0,0.7,0,1.1,0h5c0.1,0,0.1,0,0.2,0c0.1,0,0.2,0,0.3,0c0,0,0.1,0,0.2,0s0.2,0,0.4,0c0.7,0,1.1,0.1,1.3,0.4
		c0.2,0.2,0.4,0.7,0.4,1.3c0,0.6,0,1,0,1.3s0,0.5,0,0.6c0,0.6-0.1,1.1-0.4,1.3c-0.2,0.2-0.6,0.3-1.2,0.3c-0.2,0-0.4,0-0.5,0
		c-0.2,0-0.4,0-0.6,0h-1.5c-0.4,0-0.6,0.1-0.7,0.3c-0.1,0.2-0.2,0.5-0.2,1v0.4c0,0.6,0.1,1,0.2,1.2c0.1,0.2,0.4,0.4,1,0.4
		c0.3,0,0.6,0,1,0c0.4,0,0.8,0,1.2,0c0.8,0,1.2,0.2,1.4,0.5c0.2,0.3,0.3,0.9,0.3,1.7v0.9c0,1.4-0.4,2.1-1.3,2.1
		c-0.3,0-0.7,0-1.1-0.1c-0.4,0-0.9-0.1-1.5-0.1c-0.5,0-0.7,0.1-0.8,0.3c-0.1,0.2-0.1,0.4-0.1,0.8l0,1.9c0,0.5,0,0.8,0.2,1
		c0.1,0.1,0.4,0.2,0.9,0.2c0.8,0,1.5,0,1.9,0c0.5,0,0.8,0,0.9,0c0.7,0,1.1,0.2,1.2,0.5c0.1,0.4,0.2,1,0.2,1.9c0,0.6,0,1.1,0,1.4
		c0,0.4-0.1,0.7-0.2,0.9c-0.1,0.2-0.3,0.4-0.5,0.5c-0.2,0.1-0.5,0.2-1,0.2c-0.7,0-1.4,0-2.3-0.1c-0.9,0-1.9-0.1-3-0.1
		c-0.3,0-0.7,0-1.1,0.1c-0.4,0-0.8,0.1-1.2,0.1c-0.5,0-0.8-0.1-1.1-0.4c-0.3-0.2-0.4-0.6-0.4-1c0-0.5,0-1.1,0.1-1.7
		c0.1-0.6,0.1-1.3,0.1-2.1L187.5,417.9z"/>
	<path fill="#CE0000" d="M208.1,436.2c0,0.3,0,0.6,0,0.8c0,0.2,0,0.4,0,0.6c0,0.4-0.1,0.7-0.3,0.8c-0.2,0.1-0.6,0.2-1.1,0.2c-0.3,0-0.6,0-0.8,0
		c-0.2,0-0.4,0-0.6,0c-0.5,0-0.9,0-1.2,0c-0.3,0-0.5,0-0.6,0c-0.3,0-0.5-0.1-0.7-0.2s-0.2-0.4-0.2-0.7c0-0.1,0-0.6,0-1.4
		c0-0.8,0-1.9,0-3.5v-2.5c0-0.4,0-0.7-0.1-1.1c-0.1-0.3-0.2-0.7-0.3-1l-3.6-10.8c-0.2-0.5-0.3-0.9-0.3-1.2c0-0.6,0.4-0.9,1.3-0.9
		c0.1,0,0.3,0,0.5,0c0.2,0,0.5,0,0.8,0c0.2,0,0.4,0,0.7,0c0.3,0,0.7,0,1.1,0c0.4,0,0.8,0.1,0.9,0.3c0.2,0.2,0.3,0.5,0.4,0.9l1.2,7.3
		h0.3l1-6.5c0.1-0.6,0.2-1,0.3-1.3c0.1-0.3,0.3-0.5,0.5-0.6c0.4-0.1,1.5-0.2,3.5-0.2c1,0,1.5,0.3,1.5,0.8c0,0.2-0.1,0.6-0.3,1.2
		l-3.5,10.7c-0.1,0.2-0.2,0.6-0.4,1.1c-0.2,0.5-0.2,1.2-0.2,2.2v0.2L208.1,436.2z"/>
	<path fill="#CE0000" d="M226.7,415.6h0.1c1.4,0,2.5,0.3,3.4,0.8c0.9,0.5,1.6,1.3,2.1,2.4c0.5,1.1,0.9,2.4,1.1,4c0.2,1.6,0.3,3.5,0.3,5.7
		c0,3.4-0.5,6-1.4,7.7c-0.9,1.7-2.4,2.5-4.5,2.5c-0.2,0-0.4,0-0.6,0c-0.2,0-0.3,0-0.4,0l-2.1,0c-0.1,0-0.4,0-0.8,0
		c-0.4,0-1.1,0-1.9,0c-0.4,0-0.7,0-0.9-0.1c-0.2-0.1-0.4-0.2-0.5-0.5s-0.2-0.5-0.2-0.9c0-0.4,0-0.8,0-1.4v-0.3c0-0.3,0-1.2,0-2.8
		c0-1.6,0-3.8,0-6.7c0-2.8,0-5-0.1-6.5c-0.1-1.5-0.1-2.4-0.1-2.6c0-0.5,0.1-0.9,0.4-1.1c0.3-0.2,0.7-0.3,1.3-0.3c0.2,0,0.5,0,0.8,0
		c0.4,0,0.8,0,1.3,0L226.7,415.6z M225.5,431.7c0,0.1,0,0.2,0,0.3s0,0.2,0,0.3c0,0.6,0.1,0.9,0.3,1.2c0.2,0.2,0.5,0.3,0.9,0.3
		c0.4,0,0.7-0.1,0.9-0.3c0.2-0.2,0.4-0.4,0.5-0.8c0.1-0.4,0.2-0.8,0.2-1.4c0-0.6,0-1.3,0-2.1v-2c0-1.2,0-2.1,0-2.9
		c0-0.8-0.1-1.5-0.2-2c-0.1-0.5-0.3-0.9-0.6-1.1c-0.2-0.2-0.6-0.4-1-0.4c-0.7,0-1,0.4-1,1.2c0,0.5,0,1,0,1.3c0,0.4,0,0.7,0,1
		L225.5,431.7z"/>
	<path fill="#CE0000" d="M235.5,427.3c0-0.9,0-1.8,0-2.6c0-0.8,0.1-1.6,0.1-2.4c0.1-0.7,0.2-1.4,0.4-2.1s0.4-1.3,0.7-1.8c0.6-1,1.4-1.8,2.4-2.4
		c1.1-0.6,2.4-0.8,4-0.8c2.4,0,4.1,0.7,5.2,2.2c1.1,1.5,1.6,3.7,1.6,6.8v1c0,2.3,0,4.3-0.1,5.9c-0.1,1.6-0.3,3-0.8,4
		c-0.5,1.2-1.3,2.2-2.5,2.8c-1.2,0.7-2.6,1-4.3,1c-1.3,0-2.5-0.2-3.3-0.7c-0.9-0.5-1.6-1.2-2.1-2.1s-0.9-2.2-1.1-3.6
		C235.6,431,235.5,429.3,235.5,427.3z M244.3,423c0-0.8-0.1-1.4-0.4-1.8s-0.7-0.6-1.1-0.6c-0.6,0-1.1,0.3-1.3,0.8
		c-0.2,0.6-0.3,1.4-0.3,2.6v6.4c0,1.1,0.1,1.9,0.3,2.4c0.2,0.5,0.6,0.7,1.1,0.7c0.4,0,0.8-0.1,1-0.3c0.2-0.2,0.4-0.5,0.5-0.9
		c0.1-0.4,0.2-0.9,0.2-1.6c0-0.6,0-1.4,0-2.3v-0.4V423z"/>
	<path fill="#CE0000" d="M257.5,430.4c0,0.5-0.1,0.8-0.3,0.9c-0.2,0.1-0.5,0.2-0.9,0.2h-2c-0.4,0-0.6-0.3-0.8-0.8c-0.1-0.5-0.2-1.3-0.2-2.4
		c0-0.7,0-1.4,0.1-2c0.1-0.6,0.2-1.2,0.3-1.7c0.1-0.5,0.2-1,0.3-1.4c0.1-0.4,0.1-0.7,0.1-1c0-0.9-0.3-1.4-1-1.4
		c-0.1,0-0.3,0-0.4,0.1c-0.1,0.1-0.3,0.1-0.4,0.1c-0.4,0-0.7-0.3-0.8-0.8c-0.2-0.5-0.2-1.4-0.2-2.5c0-0.9,0.3-1.5,0.8-1.9
		c0.5-0.4,1.4-0.6,2.5-0.6c3.4,0,5.1,1.6,5.1,4.8c0,1-0.2,1.9-0.5,2.8c-0.3,0.9-0.7,1.8-1.2,2.8c-0.2,0.6-0.4,1.1-0.5,1.6
		c-0.1,0.5-0.2,1-0.2,1.4c0,0.4,0,0.7,0.1,1C257.5,429.9,257.5,430.2,257.5,430.4z M254.2,438.6c-0.4,0-0.7-0.1-0.8-0.2
		c-0.2-0.2-0.2-0.5-0.2-0.9v-3.6c0-0.4,0.1-0.6,0.3-0.8c0.2-0.1,0.5-0.2,0.9-0.2h2.8c0.4,0,0.7,0.1,0.8,0.2c0.2,0.2,0.2,0.5,0.2,0.9
		v3.6c0,0.4-0.1,0.7-0.3,0.8c-0.2,0.1-0.5,0.2-0.9,0.2H254.2z"/>
</g>
<g>
	<path fill="#FFFFFF" d="M35.2,469.3h-0.4l-1.1,7.3c-0.1,0.6-0.2,1-0.4,1.2c-0.2,0.3-0.7,0.4-1.4,0.4c-0.1,0-0.2,0-0.4,0
		c-0.1,0-0.3,0-0.4,0c-0.2,0-0.3,0-0.5,0c-0.2,0-0.4,0-0.5,0c-0.4,0-0.7,0-0.9-0.1c-0.2-0.1-0.4-0.2-0.5-0.4
		c-0.1-0.2-0.2-0.5-0.3-0.8c-0.1-0.3-0.2-0.8-0.2-1.3l-3.1-17.9c-0.1-0.5-0.2-0.9-0.2-1.2c-0.1-0.3-0.1-0.6-0.1-0.8
		c0-0.3,0.4-0.5,1.1-0.5c0.9,0,1.6,0,2,0c0.5,0,0.8,0,0.9,0c0.3,0,0.6,0,0.8,0.1c0.2,0.1,0.3,0.2,0.4,0.4c0.1,0.2,0.2,0.5,0.2,0.8
		c0.1,0.3,0.1,0.7,0.1,1.2l1.2,10.8h0.4l1.4-5.4l-1.2-6.6c0-0.1,0-0.2,0-0.3c0-0.1,0-0.1,0-0.2c0-0.3,0.1-0.5,0.3-0.7
		c0.2-0.2,0.4-0.3,0.7-0.3c0.5,0,0.9,0,1.2,0c0.3,0,0.5,0,0.7,0c0.2,0,0.4,0,0.6,0c0.2,0,0.4,0,0.6,0c0.5,0,0.8,0.1,0.9,0.4
		c0.1,0.3,0.2,0.7,0.3,1.4l0.9,11.6h0.4L40,457v-0.2v-0.3c0-0.5,0.1-0.9,0.4-1.1c0.2-0.2,0.6-0.3,1.2-0.3c0.4,0,0.8,0,1.1,0
		c0.4,0,0.7,0,1.1,0c0.3,0,0.5,0,0.6,0s0.3,0,0.4,0c0.2,0,0.4,0,0.5,0.1c0.1,0.1,0.1,0.3,0.1,0.5c0,0.1,0,0.4-0.1,0.7
		c-0.1,0.3-0.1,0.7-0.2,1.2l-3.5,18.5c-0.1,0.7-0.3,1.2-0.4,1.5c-0.1,0.3-0.5,0.5-1,0.5c-0.2,0-0.3,0-0.5,0c-0.2,0-0.4,0-0.5,0
		c-0.2,0-0.4,0-0.6,0.1c-0.2,0-0.3,0.1-0.5,0.1c-0.6,0-1-0.2-1.2-0.6c-0.2-0.4-0.4-1.1-0.5-2L35.2,469.3z"/>
	<path fill="#FFFFFF" d="M48.6,478.2h-0.2c-0.7,0-1.2-0.1-1.5-0.2s-0.4-0.5-0.4-1.2c0-0.1,0-0.5,0-1.2c0-0.6,0-1.5,0-2.6
		c0-1.7,0-3.4,0-5c0-1.6,0-3.2,0-4.8c0-0.8,0-1.6,0-2.5c0-0.9,0-1.8,0-2.8V457c0-0.4,0-0.7,0-0.9c0-0.2,0.1-0.4,0.2-0.6
		s0.3-0.2,0.6-0.3c0.3-0.1,0.6-0.1,1.1-0.1h1c0.9,0,1.5,0.1,1.8,0.3c0.3,0.2,0.5,0.6,0.5,1.3v0.2l-0.2,5.1c0,0.1,0,0.2,0,0.3
		c0,0.1,0,0.2,0,0.3c0,0.5,0.1,0.9,0.2,1.1c0.2,0.3,0.5,0.4,1,0.4c0.5,0,0.8-0.2,1-0.5c0.2-0.4,0.3-0.9,0.3-1.6c0-0.7,0-1.3-0.1-1.7
		s-0.1-0.7-0.1-0.9c0-0.3,0-0.6,0.1-0.8c0-0.3,0.1-0.5,0.1-0.8c0-0.2,0-0.5,0-0.7c0-0.2,0-0.4,0-0.6c0-0.6,0.2-1,0.5-1.1
		c0.3-0.1,0.9-0.2,1.6-0.2h1.5c0.6,0,0.9,0.1,1.2,0.2c0.2,0.2,0.3,0.5,0.3,1c0,0.1,0,0.4,0,1s0,1.3,0,2.2c0,0.3,0,0.7,0,1.2
		c0,0.5,0,1.2,0,2c0,1,0,2.2,0,3.8c0,1.5,0,3.4,0,5.6c0,1.2,0,2.1,0,2.8c0,0.7,0,1.2,0,1.5c0,1.2-0.5,1.8-1.5,1.8h-2.3
		c-0.5,0-0.9-0.2-1.1-0.5c-0.2-0.3-0.3-0.8-0.3-1.4v-2.8c0-0.6,0-1.2,0.1-1.7c0.1-0.5,0.1-1,0.1-1.4c0-0.7-0.3-1.1-1-1.1
		c-0.7,0-1.1,0.2-1.3,0.5c-0.2,0.3-0.3,0.8-0.3,1.5v5.1c0,0.4,0,0.7-0.1,0.9c-0.1,0.2-0.1,0.4-0.3,0.5c-0.1,0.1-0.3,0.2-0.6,0.3
		c-0.3,0.1-0.6,0.1-1,0.1H48.6z"/>
	<path fill="#FFFFFF" d="M60.9,466.9c0-0.9,0-1.8,0-2.6s0.1-1.6,0.1-2.4c0.1-0.7,0.2-1.4,0.4-2.1c0.2-0.7,0.4-1.3,0.7-1.8
		c0.6-1,1.4-1.8,2.4-2.4c1.1-0.6,2.4-0.8,4-0.8c2.4,0,4.1,0.7,5.2,2.2c1.1,1.5,1.6,3.7,1.6,6.8v1c0,2.3,0,4.3-0.1,5.9s-0.3,3-0.8,4
		c-0.5,1.2-1.3,2.2-2.5,2.8c-1.2,0.7-2.6,1-4.3,1c-1.3,0-2.5-0.2-3.3-0.7c-0.9-0.5-1.6-1.2-2.1-2.1c-0.5-1-0.9-2.2-1.1-3.6
		C61,470.6,60.9,468.9,60.9,466.9z M69.7,462.6c0-0.8-0.1-1.4-0.4-1.8s-0.7-0.6-1.1-0.6c-0.6,0-1.1,0.3-1.3,0.8
		c-0.2,0.6-0.3,1.4-0.3,2.6v6.4c0,1.1,0.1,1.9,0.3,2.4c0.2,0.5,0.6,0.7,1.1,0.7c0.4,0,0.8-0.1,1-0.3c0.2-0.2,0.4-0.5,0.5-0.9
		c0.1-0.4,0.2-0.9,0.2-1.6c0-0.6,0-1.4,0-2.3v-0.4V462.6z"/>
	<path fill="#CE0000" d="M90.6,455.2h0.1c1.4,0,2.5,0.3,3.4,0.8c0.9,0.5,1.6,1.3,2.1,2.4s0.9,2.4,1.1,4c0.2,1.6,0.3,3.5,0.3,5.7
		c0,3.4-0.5,6-1.4,7.7c-0.9,1.7-2.4,2.5-4.5,2.5c-0.2,0-0.4,0-0.6,0c-0.2,0-0.3,0-0.4,0l-2.1,0c-0.1,0-0.4,0-0.8,0
		c-0.4,0-1.1,0-1.9,0c-0.4,0-0.7,0-0.9-0.1c-0.2-0.1-0.4-0.2-0.5-0.5s-0.2-0.5-0.2-0.9c0-0.4,0-0.8,0-1.4v-0.3c0-0.3,0-1.2,0-2.8
		c0-1.6,0-3.8,0-6.7c0-2.8,0-5-0.1-6.5c-0.1-1.5-0.1-2.4-0.1-2.6c0-0.5,0.1-0.9,0.4-1.1c0.3-0.2,0.7-0.3,1.3-0.3c0.2,0,0.5,0,0.8,0
		c0.4,0,0.8,0,1.3,0L90.6,455.2z M89.4,471.3c0,0.1,0,0.2,0,0.3c0,0.1,0,0.2,0,0.3c0,0.6,0.1,0.9,0.3,1.2c0.2,0.2,0.5,0.3,0.9,0.3
		c0.4,0,0.7-0.1,0.9-0.3c0.2-0.2,0.4-0.4,0.5-0.8c0.1-0.4,0.2-0.8,0.2-1.4c0-0.6,0-1.3,0-2.1v-2c0-1.2,0-2.1,0-2.9
		c0-0.8-0.1-1.5-0.2-2c-0.1-0.5-0.3-0.9-0.6-1.1c-0.2-0.2-0.6-0.4-1-0.4c-0.7,0-1,0.4-1,1.2c0,0.5,0,1,0,1.3c0,0.4,0,0.7,0,1
		L89.4,471.3z"/>
	<path fill="#CE0000" d="M99.4,466.9c0-0.9,0-1.8,0-2.6s0.1-1.6,0.1-2.4c0.1-0.7,0.2-1.4,0.4-2.1c0.2-0.7,0.4-1.3,0.7-1.8c0.6-1,1.4-1.8,2.4-2.4
		c1.1-0.6,2.4-0.8,4-0.8c2.4,0,4.1,0.7,5.2,2.2c1.1,1.5,1.6,3.7,1.6,6.8v1c0,2.3,0,4.3-0.1,5.9s-0.3,3-0.8,4
		c-0.5,1.2-1.3,2.2-2.5,2.8c-1.2,0.7-2.6,1-4.3,1c-1.3,0-2.5-0.2-3.3-0.7c-0.9-0.5-1.6-1.2-2.1-2.1c-0.5-1-0.9-2.2-1.1-3.6
		C99.5,470.6,99.4,468.9,99.4,466.9z M108.2,462.6c0-0.8-0.1-1.4-0.4-1.8s-0.7-0.6-1.1-0.6c-0.6,0-1.1,0.3-1.3,0.8
		c-0.2,0.6-0.3,1.4-0.3,2.6v6.4c0,1.1,0.1,1.9,0.3,2.4c0.2,0.5,0.6,0.7,1.1,0.7c0.4,0,0.8-0.1,1-0.3c0.2-0.2,0.4-0.5,0.5-0.9
		c0.1-0.4,0.2-0.9,0.2-1.6c0-0.6,0-1.4,0-2.3v-0.4V462.6z"/>
	<path fill="#CE0000" d="M125.3,467c0-0.3,0-0.5,0-0.8c0-0.3,0-0.5,0-0.8c0-0.2,0-0.7,0-1.3c0-0.7,0-1.6,0-2.8c0-0.4-0.1-0.6-0.3-0.6
		c-0.4-0.1-0.9-0.1-1.3-0.1c-0.4,0-0.8,0-1.2-0.2c-0.3-0.1-0.4-0.4-0.5-0.9S122,458,122,457c0-1.1,0.5-1.7,1.5-1.7
		c1.4,0,2.5,0,3.3,0c0.8,0,1.2,0,1.4,0c0.5,0,0.9,0,1.3,0c0.4,0,0.8,0,1.1,0c0.3,0,0.6,0,0.9,0c0.3,0,0.6,0,0.8,0
		c0.6,0,1,0.1,1.2,0.3c0.2,0.2,0.3,0.6,0.3,1.3v0.4c0,1.1,0,1.9-0.1,2.5c-0.1,0.5-0.4,0.8-1,0.8h-1.1c-0.4,0-0.7,0.1-0.9,0.2
		s-0.2,0.3-0.2,0.6v0.3v0.3l0,13c0,0.5,0,0.9,0,1.3c0,0.4,0,0.6,0,0.8c0,0.5-0.1,0.8-0.3,1c-0.2,0.2-0.5,0.3-0.9,0.3
		c-0.1,0-0.2,0-0.3,0c-0.1,0-0.3,0-0.4,0c-0.3,0-0.6,0-0.9,0c-0.3,0-0.7,0-1.1,0c-0.5,0-0.9-0.1-1.1-0.3c-0.2-0.2-0.3-0.5-0.3-1
		c0-0.3,0-0.6,0-0.8c0-0.3,0-0.6,0-0.9V467z"/>
	<path fill="#CE0000" d="M137.6,478.2h-0.2c-0.7,0-1.2-0.1-1.5-0.2s-0.4-0.5-0.4-1.2c0-0.1,0-0.5,0-1.2c0-0.6,0-1.5,0-2.6c0-1.7,0-3.4,0-5
		c0-1.6,0-3.2,0-4.8c0-0.8,0-1.6,0-2.5c0-0.9,0-1.8,0-2.8V457c0-0.4,0-0.7,0-0.9c0-0.2,0.1-0.4,0.2-0.6s0.3-0.2,0.6-0.3
		c0.3-0.1,0.6-0.1,1.1-0.1h1c0.9,0,1.5,0.1,1.8,0.3c0.3,0.2,0.5,0.6,0.5,1.3v0.2l-0.2,5.1c0,0.1,0,0.2,0,0.3c0,0.1,0,0.2,0,0.3
		c0,0.5,0.1,0.9,0.2,1.1c0.2,0.3,0.5,0.4,1,0.4c0.5,0,0.8-0.2,1-0.5c0.2-0.4,0.3-0.9,0.3-1.6c0-0.7,0-1.3-0.1-1.7s-0.1-0.7-0.1-0.9
		c0-0.3,0-0.6,0.1-0.8c0-0.3,0.1-0.5,0.1-0.8c0-0.2,0-0.5,0-0.7c0-0.2,0-0.4,0-0.6c0-0.6,0.2-1,0.5-1.1c0.3-0.1,0.9-0.2,1.6-0.2h1.5
		c0.6,0,0.9,0.1,1.2,0.2c0.2,0.2,0.3,0.5,0.3,1c0,0.1,0,0.4,0,1s0,1.3,0,2.2c0,0.3,0,0.7,0,1.2c0,0.5,0,1.2,0,2c0,1,0,2.2,0,3.8
		c0,1.5,0,3.4,0,5.6c0,1.2,0,2.1,0,2.8c0,0.7,0,1.2,0,1.5c0,1.2-0.5,1.8-1.5,1.8h-2.3c-0.5,0-0.9-0.2-1.1-0.5
		c-0.2-0.3-0.3-0.8-0.3-1.4v-2.8c0-0.6,0-1.2,0.1-1.7c0.1-0.5,0.1-1,0.1-1.4c0-0.7-0.3-1.1-1-1.1c-0.7,0-1.1,0.2-1.3,0.5
		c-0.2,0.3-0.3,0.8-0.3,1.5v5.1c0,0.4,0,0.7-0.1,0.9c-0.1,0.2-0.1,0.4-0.3,0.5c-0.1,0.1-0.3,0.2-0.6,0.3c-0.3,0.1-0.6,0.1-1,0.1
		H137.6z"/>
	<path fill="#CE0000" d="M150.1,457.5c0-0.1,0-0.2,0-0.3c0-0.1,0-0.3,0-0.5c0-0.4,0-0.7,0.1-0.9c0.1-0.2,0.2-0.4,0.4-0.5c0.2-0.1,0.4-0.2,0.7-0.2
		c0.3,0,0.7,0,1.1,0h5c0.1,0,0.1,0,0.2,0c0.1,0,0.2,0,0.3,0c0,0,0.1,0,0.2,0s0.2,0,0.4,0c0.7,0,1.1,0.1,1.3,0.4
		c0.2,0.2,0.4,0.7,0.4,1.3c0,0.6,0,1,0,1.3s0,0.5,0,0.6c0,0.6-0.1,1.1-0.4,1.3c-0.2,0.2-0.6,0.3-1.2,0.3c-0.2,0-0.4,0-0.5,0
		c-0.2,0-0.4,0-0.6,0h-1.5c-0.4,0-0.6,0.1-0.7,0.3c-0.1,0.2-0.2,0.5-0.2,1v0.4c0,0.6,0.1,1,0.2,1.2c0.1,0.2,0.4,0.4,1,0.4
		c0.3,0,0.6,0,1,0c0.4,0,0.8,0,1.2,0c0.8,0,1.2,0.2,1.4,0.5c0.2,0.3,0.3,0.9,0.3,1.7v0.9c0,1.4-0.4,2.1-1.3,2.1
		c-0.3,0-0.7,0-1.1-0.1c-0.4,0-0.9-0.1-1.5-0.1c-0.5,0-0.7,0.1-0.8,0.3c-0.1,0.2-0.1,0.4-0.1,0.8l0,1.9c0,0.5,0,0.8,0.2,1
		c0.1,0.1,0.4,0.2,0.9,0.2c0.8,0,1.5,0,1.9,0c0.5,0,0.8,0,0.9,0c0.7,0,1.1,0.2,1.2,0.5c0.1,0.4,0.2,1,0.2,1.9c0,0.6,0,1.1,0,1.4
		c0,0.4-0.1,0.7-0.2,0.9c-0.1,0.2-0.3,0.4-0.5,0.5c-0.2,0.1-0.5,0.2-1,0.2c-0.7,0-1.4,0-2.3-0.1c-0.9,0-1.9-0.1-3-0.1
		c-0.3,0-0.7,0-1.1,0.1c-0.4,0-0.8,0.1-1.2,0.1c-0.5,0-0.8-0.1-1.1-0.4c-0.3-0.2-0.4-0.6-0.4-1c0-0.5,0-1.1,0.1-1.7
		c0.1-0.6,0.1-1.3,0.1-2.1L150.1,457.5z"/>
	<path fill="#CE0000" d="M170.8,475.8c0,0.3,0,0.6,0,0.8c0,0.2,0,0.4,0,0.6c0,0.4-0.1,0.7-0.3,0.8c-0.2,0.1-0.6,0.2-1.1,0.2c-0.3,0-0.6,0-0.8,0
		c-0.2,0-0.4,0-0.6,0c-0.5,0-0.9,0-1.2,0c-0.3,0-0.5,0-0.6,0c-0.3,0-0.5-0.1-0.7-0.2s-0.2-0.4-0.2-0.7c0-0.1,0-0.6,0-1.4
		c0-0.8,0-1.9,0-3.5V470c0-0.4,0-0.7-0.1-1.1c-0.1-0.3-0.2-0.7-0.3-1l-3.6-10.8c-0.2-0.5-0.3-0.9-0.3-1.2c0-0.6,0.4-0.9,1.3-0.9
		c0.1,0,0.3,0,0.5,0c0.2,0,0.5,0,0.8,0c0.2,0,0.4,0,0.7,0c0.3,0,0.7,0,1.1,0c0.4,0,0.8,0.1,0.9,0.3c0.2,0.2,0.3,0.5,0.4,0.9l1.2,7.3
		h0.3l1-6.5c0.1-0.6,0.2-1,0.3-1.3c0.1-0.3,0.3-0.5,0.5-0.6c0.4-0.1,1.5-0.2,3.5-0.2c1,0,1.5,0.3,1.5,0.8c0,0.2-0.1,0.6-0.3,1.2
		l-3.5,10.7c-0.1,0.2-0.2,0.6-0.4,1.1c-0.2,0.5-0.2,1.2-0.2,2.2v0.2L170.8,475.8z"/>
	<path fill="#CE0000" d="M183.2,473.9v-0.1c0-0.6,0.1-1,0.3-1.2c0.2-0.3,0.6-0.4,1.1-0.4c0.1,0,0.3,0,0.5,0.1c0.2,0.1,0.3,0.2,0.6,0.3
		s0.5,0.2,0.8,0.3c0.3,0.1,0.6,0.1,1.1,0.1c1.1,0,1.6-0.5,1.6-1.4c0-0.4-0.1-0.7-0.3-1c-0.2-0.3-0.4-0.6-0.7-0.9
		c-0.3-0.3-0.6-0.6-1-0.9c-0.4-0.3-0.8-0.7-1.2-1.1c-1-0.9-1.6-1.9-2.1-2.8c-0.4-0.9-0.6-2-0.6-3.3c0-4.3,2.4-6.5,7.2-6.5
		c0.8,0,1.4,0,1.9,0.1c0.4,0,0.8,0.1,1,0.3c0.2,0.1,0.3,0.3,0.4,0.6c0,0.3,0.1,0.6,0.1,1.1v2.3c0,0.6-0.1,1.1-0.2,1.3
		c-0.1,0.2-0.4,0.3-0.9,0.3c-0.4,0-0.8-0.1-1.2-0.2c-0.4-0.1-0.8-0.2-1.2-0.2c-1,0-1.5,0.4-1.5,1.3c0,0.3,0.1,0.6,0.3,0.9
		c0.2,0.3,0.4,0.6,0.8,0.9c0.3,0.3,0.7,0.7,1.2,1.1c0.5,0.4,1,0.9,1.5,1.5c0.8,0.8,1.4,1.7,1.7,2.5s0.5,1.8,0.5,2.9
		c0,2.4-0.5,4.1-1.6,5.2c-1.1,1.1-2.8,1.7-5.2,1.7c-1,0-1.9-0.1-2.6-0.2s-1.2-0.3-1.5-0.4c-0.3-0.1-0.5-0.3-0.5-0.5
		c-0.1-0.2-0.1-0.5-0.1-0.8v-0.2L183.2,473.9z"/>
	<path fill="#CE0000" d="M197.1,457.5c0-0.1,0-0.2,0-0.3c0-0.1,0-0.3,0-0.5c0-0.4,0-0.7,0.1-0.9c0.1-0.2,0.2-0.4,0.4-0.5c0.2-0.1,0.4-0.2,0.7-0.2
		c0.3,0,0.7,0,1.1,0h5c0.1,0,0.1,0,0.2,0c0.1,0,0.2,0,0.3,0c0,0,0.1,0,0.2,0s0.2,0,0.4,0c0.7,0,1.1,0.1,1.3,0.4
		c0.2,0.2,0.4,0.7,0.4,1.3c0,0.6,0,1,0,1.3c0,0.3,0,0.5,0,0.6c0,0.6-0.1,1.1-0.4,1.3c-0.2,0.2-0.6,0.3-1.2,0.3c-0.2,0-0.4,0-0.5,0
		c-0.2,0-0.4,0-0.6,0h-1.5c-0.4,0-0.6,0.1-0.7,0.3c-0.1,0.2-0.2,0.5-0.2,1v0.4c0,0.6,0.1,1,0.2,1.2s0.4,0.4,1,0.4c0.3,0,0.6,0,1,0
		c0.4,0,0.8,0,1.2,0c0.8,0,1.2,0.2,1.4,0.5s0.3,0.9,0.3,1.7v0.9c0,1.4-0.4,2.1-1.3,2.1c-0.3,0-0.7,0-1.1-0.1c-0.4,0-0.9-0.1-1.5-0.1
		c-0.5,0-0.7,0.1-0.8,0.3c-0.1,0.2-0.1,0.4-0.1,0.8l0,1.9c0,0.5,0,0.8,0.2,1c0.1,0.1,0.4,0.2,0.9,0.2c0.8,0,1.5,0,1.9,0
		c0.5,0,0.8,0,0.9,0c0.7,0,1.1,0.2,1.2,0.5s0.2,1,0.2,1.9c0,0.6,0,1.1,0,1.4c0,0.4-0.1,0.7-0.2,0.9s-0.3,0.4-0.5,0.5
		c-0.2,0.1-0.5,0.2-1,0.2c-0.7,0-1.4,0-2.3-0.1c-0.9,0-1.9-0.1-3-0.1c-0.3,0-0.7,0-1.1,0.1c-0.4,0-0.8,0.1-1.2,0.1
		c-0.5,0-0.8-0.1-1.1-0.4c-0.3-0.2-0.4-0.6-0.4-1c0-0.5,0-1.1,0.1-1.7c0.1-0.6,0.1-1.3,0.1-2.1L197.1,457.5z"/>
	<path fill="#CE0000" d="M210.4,478.2c-0.6,0-0.9-0.2-1.1-0.5c-0.1-0.3-0.2-0.8-0.2-1.6v-19c0-0.7,0.1-1.2,0.3-1.6c0.2-0.3,0.7-0.5,1.5-0.5
		c0.5,0,0.9,0,1.4,0c0.4,0,0.8,0,1.1,0c0.5,0,1,0,1.6,0c0.6,0,1.2,0,1.9,0c1,0,1.9,0.1,2.7,0.4c0.7,0.3,1.3,0.7,1.8,1.4
		c0.5,0.6,0.8,1.5,1,2.5s0.3,2.2,0.3,3.7c0,2-0.2,3.5-0.5,4.7c-0.3,1.2-1,2-1.9,2.5l2.9,6.7c0.1,0.3,0.2,0.4,0.2,0.6
		c0,0.6-0.4,0.9-1.1,0.9c-0.1,0-0.2,0-0.3,0c-0.1,0-0.2,0-0.4,0h-2.7c-0.3,0-0.5,0-0.6-0.1c-0.2-0.1-0.3-0.2-0.4-0.3
		c-0.1-0.1-0.2-0.3-0.3-0.5c-0.1-0.2-0.2-0.5-0.3-0.8l-2.5-6.4h-0.6v6.8c0,0.4-0.1,0.8-0.2,1s-0.4,0.3-0.8,0.3H210.4z M214.2,463.9
		c0,0.5,0,0.9,0,1.2s0.1,0.6,0.2,0.8c0.1,0.2,0.3,0.4,0.5,0.5c0.2,0.1,0.5,0.1,0.9,0.1c0.6,0,1-0.2,1.3-0.6c0.3-0.4,0.5-0.9,0.5-1.6
		c0-0.8,0-1.4,0-2c0-0.6-0.1-1.1-0.2-1.4c-0.1-0.4-0.3-0.6-0.6-0.8c-0.3-0.2-0.6-0.3-1.1-0.3c-1,0-1.5,0.6-1.5,1.7
		c0,0.2,0,0.5,0,0.9C214.2,463,214.2,463.4,214.2,463.9z"/>
	<path fill="#CE0000" d="M231.9,471.8c0.4-5,0.6-8.9,0.8-11.6s0.4-4.2,0.8-4.7c0.2-0.3,0.6-0.4,1.2-0.4c0.5,0,1,0,1.4,0c0.4,0,0.8,0,1.2,0h0.3
		c0.4,0,0.7,0,1,0.1s0.3,0.2,0.3,0.5c0,0.6-0.2,2.1-0.7,4.6c-0.5,2.5-1.1,6.1-1.9,10.7c-0.2,1.3-0.4,2.3-0.5,3.2s-0.2,1.6-0.4,2.2
		s-0.3,1-0.4,1.3s-0.5,0.4-0.8,0.4c-0.1,0-0.3,0-0.4,0c-0.2,0-0.3,0-0.5,0c-0.4,0-0.8,0-1.1,0c-0.3,0-0.5,0-0.7,0
		c-0.2,0-0.4,0-0.6,0c-0.2,0-0.4,0-0.6,0c-0.2,0-0.4,0-0.6,0c-0.2,0-0.3,0-0.4,0c-0.3,0-0.5-0.1-0.6-0.3c-0.1-0.2-0.3-0.4-0.4-0.8
		c-0.1-0.4-0.2-0.9-0.3-1.4c-0.1-0.6-0.2-1.3-0.3-2.1c-0.3-1.7-0.6-3.6-1.1-5.5c-0.4-1.9-0.8-4-1.2-6.3c-0.3-1.8-0.5-3.2-0.7-4.2
		c-0.2-1-0.3-1.5-0.3-1.7c0-0.3,0.1-0.6,0.3-0.7c0.2-0.1,0.6-0.1,1.1-0.1h1.2h2c0.3,0,0.5,0,0.7,0.1s0.3,0.2,0.4,0.4
		c0.1,0.5,0.3,2,0.6,4.7c0.2,2.7,0.5,6.5,0.8,11.4H231.9z"/>
	<path fill="#CE0000" d="M239.9,457.5c0-0.1,0-0.2,0-0.3c0-0.1,0-0.3,0-0.5c0-0.4,0-0.7,0.1-0.9c0.1-0.2,0.2-0.4,0.4-0.5c0.2-0.1,0.4-0.2,0.7-0.2
		c0.3,0,0.7,0,1.1,0h5c0.1,0,0.1,0,0.2,0c0.1,0,0.2,0,0.3,0c0,0,0.1,0,0.2,0s0.2,0,0.4,0c0.7,0,1.1,0.1,1.3,0.4
		c0.2,0.2,0.4,0.7,0.4,1.3c0,0.6,0,1,0,1.3c0,0.3,0,0.5,0,0.6c0,0.6-0.1,1.1-0.4,1.3c-0.2,0.2-0.6,0.3-1.2,0.3c-0.2,0-0.4,0-0.5,0
		c-0.2,0-0.4,0-0.6,0h-1.5c-0.4,0-0.6,0.1-0.7,0.3c-0.1,0.2-0.2,0.5-0.2,1v0.4c0,0.6,0.1,1,0.2,1.2s0.4,0.4,1,0.4c0.3,0,0.6,0,1,0
		c0.4,0,0.8,0,1.2,0c0.8,0,1.2,0.2,1.4,0.5s0.3,0.9,0.3,1.7v0.9c0,1.4-0.4,2.1-1.3,2.1c-0.3,0-0.7,0-1.1-0.1c-0.4,0-0.9-0.1-1.5-0.1
		c-0.5,0-0.7,0.1-0.8,0.3c-0.1,0.2-0.1,0.4-0.1,0.8l0,1.9c0,0.5,0,0.8,0.2,1c0.1,0.1,0.4,0.2,0.9,0.2c0.8,0,1.5,0,1.9,0
		c0.5,0,0.8,0,0.9,0c0.7,0,1.1,0.2,1.2,0.5s0.2,1,0.2,1.9c0,0.6,0,1.1,0,1.4c0,0.4-0.1,0.7-0.2,0.9s-0.3,0.4-0.5,0.5
		c-0.2,0.1-0.5,0.2-1,0.2c-0.7,0-1.4,0-2.3-0.1c-0.9,0-1.9-0.1-3-0.1c-0.3,0-0.7,0-1.1,0.1c-0.4,0-0.8,0.1-1.2,0.1
		c-0.5,0-0.8-0.1-1.1-0.4c-0.3-0.2-0.4-0.6-0.4-1c0-0.5,0-1.1,0.1-1.7c0.1-0.6,0.1-1.3,0.1-2.1L239.9,457.5z"/>
	<path fill="#CE0000" d="M257.5,470c0,0.5-0.1,0.8-0.3,0.9c-0.2,0.1-0.5,0.2-0.9,0.2h-2c-0.4,0-0.6-0.3-0.8-0.8c-0.1-0.5-0.2-1.3-0.2-2.4
		c0-0.7,0-1.4,0.1-2c0.1-0.6,0.2-1.2,0.3-1.7c0.1-0.5,0.2-1,0.3-1.4c0.1-0.4,0.1-0.7,0.1-1c0-0.9-0.3-1.4-1-1.4
		c-0.1,0-0.3,0-0.4,0.1c-0.1,0.1-0.3,0.1-0.4,0.1c-0.4,0-0.7-0.3-0.8-0.8c-0.2-0.5-0.2-1.4-0.2-2.5c0-0.9,0.3-1.5,0.8-1.9
		c0.5-0.4,1.4-0.6,2.5-0.6c3.4,0,5.1,1.6,5.1,4.8c0,1-0.2,1.9-0.5,2.8c-0.3,0.9-0.7,1.8-1.2,2.8c-0.2,0.6-0.4,1.1-0.5,1.6
		c-0.1,0.5-0.2,1-0.2,1.4c0,0.4,0,0.7,0.1,1C257.5,469.5,257.5,469.8,257.5,470z M254.2,478.2c-0.4,0-0.7-0.1-0.8-0.2
		c-0.2-0.2-0.2-0.5-0.2-0.9v-3.6c0-0.4,0.1-0.6,0.3-0.8c0.2-0.1,0.5-0.2,0.9-0.2h2.8c0.4,0,0.7,0.1,0.8,0.2c0.2,0.2,0.2,0.5,0.2,0.9
		v3.6c0,0.4-0.1,0.7-0.3,0.8c-0.2,0.1-0.5,0.2-0.9,0.2H254.2z"/>
</g>
<g>
	<path fill="#FFFFFF" d="M2.1,517.8H1.9c-0.7,0-1.2-0.1-1.5-0.2S0,517.1,0,516.4c0-0.1,0-0.5,0-1.2c0-0.6,0-1.5,0-2.6
		c0-1.7,0-3.4,0-5c0-1.6,0-3.2,0-4.8c0-0.8,0-1.6,0-2.5c0-0.9,0-1.8,0-2.8v-0.8c0-0.4,0-0.7,0-0.9c0-0.2,0.1-0.4,0.2-0.6
		s0.3-0.2,0.6-0.3c0.3-0.1,0.6-0.1,1.1-0.1h1c0.9,0,1.5,0.1,1.8,0.3c0.3,0.2,0.5,0.6,0.5,1.3v0.2l-0.2,5.1c0,0.1,0,0.2,0,0.3
		c0,0.1,0,0.2,0,0.3c0,0.5,0.1,0.9,0.2,1.1c0.2,0.3,0.5,0.4,1,0.4c0.5,0,0.8-0.2,1-0.5c0.2-0.4,0.3-0.9,0.3-1.6c0-0.7,0-1.3-0.1-1.7
		s-0.1-0.7-0.1-0.9c0-0.3,0-0.6,0.1-0.8c0-0.3,0.1-0.5,0.1-0.8c0-0.2,0-0.5,0-0.7c0-0.2,0-0.4,0-0.6c0-0.6,0.2-1,0.5-1.1
		c0.3-0.1,0.9-0.2,1.6-0.2h1.5c0.6,0,0.9,0.1,1.2,0.2c0.2,0.2,0.3,0.5,0.3,1c0,0.1,0,0.4,0,1s0,1.3,0,2.2c0,0.3,0,0.7,0,1.2
		c0,0.5,0,1.2,0,2c0,1,0,2.2,0,3.8c0,1.5,0,3.4,0,5.6c0,1.2,0,2.1,0,2.8c0,0.7,0,1.2,0,1.5c0,1.2-0.5,1.8-1.5,1.8H8.9
		c-0.5,0-0.9-0.2-1.1-0.5c-0.2-0.3-0.3-0.8-0.3-1.4v-2.8c0-0.6,0-1.2,0.1-1.7c0.1-0.5,0.1-1,0.1-1.4c0-0.7-0.3-1.1-1-1.1
		c-0.7,0-1.1,0.2-1.3,0.5c-0.2,0.3-0.3,0.8-0.3,1.5v5.1c0,0.4,0,0.7-0.1,0.9c-0.1,0.2-0.1,0.4-0.3,0.5c-0.1,0.1-0.3,0.2-0.6,0.3
		c-0.3,0.1-0.6,0.1-1,0.1H2.1z"/>
	<path fill="#FFFFFF" d="M14.4,506.5c0-0.9,0-1.8,0-2.6s0.1-1.6,0.1-2.4c0.1-0.7,0.2-1.4,0.4-2.1c0.2-0.7,0.4-1.3,0.7-1.8
		c0.6-1,1.4-1.8,2.4-2.4c1.1-0.6,2.4-0.8,4-0.8c2.4,0,4.1,0.7,5.2,2.2c1.1,1.5,1.6,3.7,1.6,6.8v1c0,2.3,0,4.3-0.1,5.9s-0.3,3-0.8,4
		c-0.5,1.2-1.3,2.2-2.5,2.8c-1.2,0.7-2.6,1-4.3,1c-1.3,0-2.5-0.2-3.3-0.7c-0.9-0.5-1.6-1.2-2.1-2.1c-0.5-1-0.9-2.2-1.1-3.6
		C14.5,510.2,14.4,508.5,14.4,506.5z M23.3,502.2c0-0.8-0.1-1.4-0.4-1.8s-0.7-0.6-1.1-0.6c-0.6,0-1.1,0.3-1.3,0.8
		c-0.2,0.6-0.3,1.4-0.3,2.6v6.4c0,1.1,0.1,1.9,0.3,2.4c0.2,0.5,0.6,0.7,1.1,0.7c0.4,0,0.8-0.1,1-0.3c0.2-0.2,0.4-0.5,0.5-0.9
		c0.1-0.4,0.2-0.9,0.2-1.6c0-0.6,0-1.4,0-2.3v-0.4V502.2z"/>
	<path fill="#FFFFFF" d="M40.4,508.9h-0.4l-1.1,7.3c-0.1,0.6-0.2,1-0.4,1.2c-0.2,0.3-0.7,0.4-1.4,0.4c-0.1,0-0.2,0-0.4,0
		c-0.1,0-0.3,0-0.4,0c-0.2,0-0.3,0-0.5,0c-0.2,0-0.4,0-0.5,0c-0.4,0-0.7,0-0.9-0.1c-0.2-0.1-0.4-0.2-0.5-0.4
		c-0.1-0.2-0.2-0.5-0.3-0.8c-0.1-0.3-0.2-0.8-0.2-1.3l-3.1-17.9c-0.1-0.5-0.2-0.9-0.2-1.2c-0.1-0.3-0.1-0.6-0.1-0.8
		c0-0.3,0.4-0.5,1.1-0.5c0.9,0,1.6,0,2,0c0.5,0,0.8,0,0.9,0c0.3,0,0.6,0,0.8,0.1c0.2,0.1,0.3,0.2,0.4,0.4c0.1,0.2,0.2,0.5,0.2,0.8
		c0.1,0.3,0.1,0.7,0.1,1.2l1.2,10.8h0.4l1.4-5.4l-1.2-6.6c0-0.1,0-0.2,0-0.3c0-0.1,0-0.1,0-0.2c0-0.3,0.1-0.5,0.3-0.7
		c0.2-0.2,0.4-0.3,0.7-0.3c0.5,0,0.9,0,1.2,0c0.3,0,0.5,0,0.7,0c0.2,0,0.4,0,0.6,0c0.2,0,0.4,0,0.6,0c0.5,0,0.8,0.1,0.9,0.4
		c0.1,0.3,0.2,0.7,0.3,1.4l0.9,11.6h0.4l1.4-11.5v-0.2v-0.3c0-0.5,0.1-0.9,0.4-1.1c0.2-0.2,0.6-0.3,1.2-0.3c0.4,0,0.8,0,1.1,0
		c0.4,0,0.7,0,1.1,0c0.3,0,0.5,0,0.6,0s0.3,0,0.4,0c0.2,0,0.4,0,0.5,0.1c0.1,0.1,0.1,0.3,0.1,0.5c0,0.1,0,0.4-0.1,0.7
		c-0.1,0.3-0.1,0.7-0.2,1.2l-3.5,18.5c-0.1,0.7-0.3,1.2-0.4,1.5c-0.1,0.3-0.5,0.5-1,0.5c-0.2,0-0.3,0-0.5,0c-0.2,0-0.4,0-0.5,0
		c-0.2,0-0.4,0-0.6,0.1c-0.2,0-0.3,0.1-0.5,0.1c-0.6,0-1-0.2-1.2-0.6c-0.2-0.4-0.4-1.1-0.5-2L40.4,508.9z"/>
	<path fill="#CE0000" d="M61.2,506.6c0-0.3,0-0.5,0-0.8c0-0.3,0-0.5,0-0.8c0-0.2,0-0.7,0-1.3c0-0.7,0-1.6,0-2.8c0-0.4-0.1-0.6-0.3-0.6
		c-0.4-0.1-0.9-0.1-1.3-0.1c-0.4,0-0.8,0-1.2-0.2c-0.3-0.1-0.4-0.4-0.5-0.9s-0.1-1.3-0.1-2.4c0-1.1,0.5-1.7,1.5-1.7
		c1.4,0,2.5,0,3.3,0c0.8,0,1.2,0,1.4,0c0.5,0,0.9,0,1.3,0c0.4,0,0.8,0,1.1,0c0.3,0,0.6,0,0.9,0c0.3,0,0.6,0,0.8,0
		c0.6,0,1,0.1,1.2,0.3c0.2,0.2,0.3,0.6,0.3,1.3v0.4c0,1.1,0,1.9-0.1,2.5c-0.1,0.5-0.4,0.8-1,0.8h-1.1c-0.4,0-0.7,0.1-0.9,0.2
		s-0.2,0.3-0.2,0.6v0.3v0.3l0,13c0,0.5,0,0.9,0,1.3c0,0.4,0,0.6,0,0.8c0,0.5-0.1,0.8-0.3,1c-0.2,0.2-0.5,0.3-0.9,0.3
		c-0.1,0-0.2,0-0.3,0c-0.1,0-0.3,0-0.4,0c-0.3,0-0.6,0-0.9,0c-0.3,0-0.7,0-1.1,0c-0.5,0-0.9-0.1-1.1-0.3c-0.2-0.2-0.3-0.5-0.3-1
		c0-0.3,0-0.6,0-0.8c0-0.3,0-0.6,0-0.9V506.6z"/>
	<path fill="#CE0000" d="M71.2,506.5c0-0.9,0-1.8,0-2.6s0.1-1.6,0.1-2.4c0.1-0.7,0.2-1.4,0.4-2.1c0.2-0.7,0.4-1.3,0.7-1.8c0.6-1,1.4-1.8,2.4-2.4
		c1.1-0.6,2.4-0.8,4-0.8c2.4,0,4.1,0.7,5.2,2.2c1.1,1.5,1.6,3.7,1.6,6.8v1c0,2.3,0,4.3-0.1,5.9s-0.3,3-0.8,4
		c-0.5,1.2-1.3,2.2-2.5,2.8c-1.2,0.7-2.6,1-4.3,1c-1.3,0-2.5-0.2-3.3-0.7c-0.9-0.5-1.6-1.2-2.1-2.1c-0.5-1-0.9-2.2-1.1-3.6
		C71.3,510.2,71.2,508.5,71.2,506.5z M80.1,502.2c0-0.8-0.1-1.4-0.4-1.8s-0.7-0.6-1.1-0.6c-0.6,0-1.1,0.3-1.3,0.8
		c-0.2,0.6-0.3,1.4-0.3,2.6v6.4c0,1.1,0.1,1.9,0.3,2.4c0.2,0.5,0.6,0.7,1.1,0.7c0.4,0,0.8-0.1,1-0.3c0.2-0.2,0.4-0.5,0.5-0.9
		c0.1-0.4,0.2-0.9,0.2-1.6c0-0.6,0-1.4,0-2.3v-0.4V502.2z"/>
	<path fill="#CE0000" d="M94.4,505.9c0-2,0.1-3.8,0.4-5.2c0.2-1.4,0.7-2.6,1.3-3.5c0.6-0.9,1.4-1.5,2.5-1.9c1.1-0.4,2.4-0.6,4-0.6
		c0.7,0,1.2,0.1,1.4,0.3c0.3,0.2,0.4,0.7,0.4,1.4c0,0.1,0,0.3,0,0.6c0,0.2,0,0.5,0,0.8c0,0.2,0,0.4,0,0.5c0,0.2,0,0.4,0,0.6
		c0,0.3,0,0.6-0.1,0.8c-0.1,0.2-0.3,0.4-0.5,0.5c-0.1,0-0.2,0.1-0.4,0.1c-0.1,0-0.3,0-0.5,0c-0.2,0-0.4,0-0.5,0
		c-0.2,0-0.4,0-0.6,0.1c-0.4,0.1-0.7,0.3-1,0.6c-0.2,0.3-0.4,0.6-0.5,1.1c-0.1,0.5-0.2,1-0.2,1.7c0,0.7,0,1.5,0,2.4
		c0,1,0,1.9,0.1,2.7c0,0.8,0.1,1.4,0.3,1.9c0.1,0.5,0.4,0.9,0.6,1.1c0.3,0.3,0.7,0.4,1.2,0.4c0.3,0,0.5,0,0.7,0c0.2,0,0.4,0,0.6,0
		c0.6,0,0.9,0.4,0.9,1.3c0,0.8,0,1.4,0,1.8c0,0.4,0,0.7,0,0.7c0,0.7-0.2,1.1-0.5,1.4c-0.3,0.2-0.9,0.4-1.7,0.4c-0.7,0-1.3,0-1.9-0.1
		s-1.1-0.2-1.6-0.4c-0.5-0.2-0.9-0.4-1.4-0.8c-0.4-0.3-0.8-0.8-1.2-1.3c-0.7-1.1-1.2-2.4-1.5-3.9C94.5,509.9,94.4,508.1,94.4,505.9z
		"/>
	<path fill="#CE0000" d="M105.9,506.5c0-0.9,0-1.8,0-2.6s0.1-1.6,0.1-2.4c0.1-0.7,0.2-1.4,0.4-2.1c0.2-0.7,0.4-1.3,0.7-1.8c0.6-1,1.4-1.8,2.4-2.4
		c1.1-0.6,2.4-0.8,4-0.8c2.4,0,4.1,0.7,5.2,2.2c1.1,1.5,1.6,3.7,1.6,6.8v1c0,2.3,0,4.3-0.1,5.9s-0.3,3-0.8,4
		c-0.5,1.2-1.3,2.2-2.5,2.8c-1.2,0.7-2.6,1-4.3,1c-1.3,0-2.5-0.2-3.3-0.7c-0.9-0.5-1.6-1.2-2.1-2.1c-0.5-1-0.9-2.2-1.1-3.6
		C106,510.2,105.9,508.5,105.9,506.5z M114.7,502.2c0-0.8-0.1-1.4-0.4-1.8s-0.7-0.6-1.1-0.6c-0.6,0-1.1,0.3-1.3,0.8
		c-0.2,0.6-0.3,1.4-0.3,2.6v6.4c0,1.1,0.1,1.9,0.3,2.4c0.2,0.5,0.6,0.7,1.1,0.7c0.4,0,0.8-0.1,1-0.3c0.2-0.2,0.4-0.5,0.5-0.9
		c0.1-0.4,0.2-0.9,0.2-1.6c0-0.6,0-1.4,0-2.3v-0.4V502.2z"/>
	<path fill="#CE0000" d="M123.8,517.8c-0.4,0-0.7,0-0.9-0.1c-0.2-0.1-0.4-0.2-0.5-0.4c-0.1-0.2-0.2-0.4-0.2-0.7c0-0.3,0-0.6,0-1.1v-18.5
		c0-0.8,0.1-1.4,0.2-1.8c0.1-0.4,0.6-0.6,1.3-0.6h2.9c0.4,0,0.7,0,0.8,0.1c0.2,0.1,0.3,0.3,0.4,0.7c0.1,0.4,0.4,1.4,0.8,3.1
		c0.4,1.7,1.2,4,2.1,7h0.6l0.1-9c0-0.7,0.1-1.2,0.2-1.5s0.5-0.4,1-0.4h2c0.6,0,1,0.1,1.2,0.2c0.2,0.2,0.3,0.5,0.3,1.1
		c0,0.1,0,0.2,0,0.3c0,0.1,0,0.2,0,0.4v9.1c0,0.5,0,1,0,1.5s0,1.1,0,1.7c0,0.2,0,0.8,0,1.8c0,1,0,2.4,0,4.2c0,0.9-0.1,1.5-0.2,2
		c-0.1,0.5-0.5,0.7-1.2,0.7h-2.6c-0.3,0-0.6,0-0.8,0c-0.2,0-0.4-0.1-0.5-0.3c-0.1-0.1-0.2-0.3-0.3-0.6c-0.1-0.3-0.2-0.6-0.3-1.1
		l-2.6-8.9H127v8.9c0,0.4,0,0.7,0,0.9c0,0.3-0.1,0.5-0.2,0.6c-0.1,0.1-0.3,0.3-0.5,0.3c-0.2,0.1-0.5,0.1-0.8,0.1H123.8z"/>
	<path fill="#CE0000" d="M140.6,506.6c0-0.3,0-0.5,0-0.8c0-0.3,0-0.5,0-0.8c0-0.2,0-0.7,0-1.3c0-0.7,0-1.6,0-2.8c0-0.4-0.1-0.6-0.3-0.6
		c-0.4-0.1-0.9-0.1-1.3-0.1c-0.4,0-0.8,0-1.2-0.2c-0.3-0.1-0.4-0.4-0.5-0.9s-0.1-1.3-0.1-2.4c0-1.1,0.5-1.7,1.5-1.7
		c1.4,0,2.5,0,3.3,0c0.8,0,1.2,0,1.4,0c0.5,0,0.9,0,1.3,0c0.4,0,0.8,0,1.1,0c0.3,0,0.6,0,0.9,0c0.3,0,0.6,0,0.8,0
		c0.6,0,1,0.1,1.2,0.3c0.2,0.2,0.3,0.6,0.3,1.3v0.4c0,1.1,0,1.9-0.1,2.5c-0.1,0.5-0.4,0.8-1,0.8h-1.1c-0.4,0-0.7,0.1-0.9,0.2
		s-0.2,0.3-0.2,0.6v0.3v0.3l0,13c0,0.5,0,0.9,0,1.3c0,0.4,0,0.6,0,0.8c0,0.5-0.1,0.8-0.3,1c-0.2,0.2-0.5,0.3-0.9,0.3
		c-0.1,0-0.2,0-0.3,0c-0.1,0-0.3,0-0.4,0c-0.3,0-0.6,0-0.9,0c-0.3,0-0.7,0-1.1,0c-0.5,0-0.9-0.1-1.1-0.3c-0.2-0.2-0.3-0.5-0.3-1
		c0-0.3,0-0.6,0-0.8c0-0.3,0-0.6,0-0.9V506.6z"/>
	<path fill="#CE0000" d="M149,517.8c-0.4,0-0.8-0.1-0.9-0.2c-0.2-0.1-0.3-0.4-0.3-0.7c0-0.3,0-0.6,0.1-1c0.1-0.4,0.2-0.8,0.3-1.2l1-4.6
		c0.1-0.4,0.1-0.8,0.1-1.2c0-0.4,0.1-0.9,0.1-1.3c0.6-3.1,1-5.4,1.3-7.1c0.3-1.7,0.5-2.6,0.5-2.9c0.2-1,0.3-1.7,0.5-2.1
		c0.1-0.4,0.5-0.6,0.9-0.6h3.9c0.3,0,0.5,0,0.8,0.1c0.2,0,0.4,0.1,0.5,0.3c0.2,0.2,0.4,1,0.7,2.4c0.3,1.4,0.7,3.4,1.2,5.9
		c0.2,0.9,0.4,2,0.6,3.4c0.2,1.4,0.4,2.9,0.8,4.8c0.2,1,0.4,2,0.6,2.8c0.2,0.8,0.4,1.5,0.4,2.1c0,0.4-0.1,0.7-0.4,0.9
		c-0.3,0.2-0.6,0.3-1.1,0.3h-2.8c-0.2,0-0.4-0.1-0.6-0.2c-0.2-0.1-0.3-0.3-0.4-0.5c-0.1-0.4-0.2-0.8-0.2-1.2c0-0.4,0-0.7-0.1-1.1
		c-0.1-0.4-0.3-0.7-0.4-0.8c-0.2-0.2-0.5-0.2-0.9-0.2c-0.6,0-1.1,0.1-1.4,0.3c-0.3,0.2-0.5,0.4-0.5,0.7c0,0.2,0,0.4,0,0.6
		c0,0.2,0,0.4,0,0.5c0,0.7-0.1,1.2-0.3,1.5c-0.2,0.3-0.6,0.4-1.2,0.4H149z M155.1,500.4l-0.3,0L154,507c0,0.2-0.1,0.3-0.1,0.4
		c0,0.1,0,0.2,0,0.4c0,0.1,0,0.2,0,0.3c0,0.2,0.1,0.4,0.3,0.5c0.2,0.1,0.5,0.2,0.9,0.2c0.4,0,0.8-0.1,0.9-0.2
		c0.2-0.1,0.2-0.4,0.2-0.7c0-0.1,0-0.2,0-0.3s0-0.2,0-0.4L155.1,500.4z"/>
	<path fill="#CE0000" d="M162.7,505.9c0-2,0.1-3.8,0.4-5.2c0.2-1.4,0.7-2.6,1.3-3.5c0.6-0.9,1.4-1.5,2.5-1.9c1.1-0.4,2.4-0.6,4-0.6
		c0.7,0,1.2,0.1,1.4,0.3s0.4,0.7,0.4,1.4c0,0.1,0,0.3,0,0.6c0,0.2,0,0.5,0,0.8c0,0.2,0,0.4,0,0.5c0,0.2,0,0.4,0,0.6
		c0,0.3,0,0.6-0.1,0.8c-0.1,0.2-0.3,0.4-0.5,0.5c-0.1,0-0.2,0.1-0.4,0.1c-0.1,0-0.3,0-0.5,0s-0.4,0-0.5,0c-0.2,0-0.4,0-0.6,0.1
		c-0.4,0.1-0.7,0.3-1,0.6c-0.2,0.3-0.4,0.6-0.5,1.1c-0.1,0.5-0.2,1-0.2,1.7c0,0.7,0,1.5,0,2.4c0,1,0,1.9,0.1,2.7
		c0,0.8,0.1,1.4,0.3,1.9c0.1,0.5,0.4,0.9,0.6,1.1c0.3,0.3,0.7,0.4,1.2,0.4c0.3,0,0.5,0,0.7,0c0.2,0,0.4,0,0.6,0
		c0.6,0,0.9,0.4,0.9,1.3c0,0.8,0,1.4,0,1.8c0,0.4,0,0.7,0,0.7c0,0.7-0.2,1.1-0.5,1.4c-0.3,0.2-0.9,0.4-1.7,0.4c-0.7,0-1.3,0-1.9-0.1
		s-1.1-0.2-1.6-0.4c-0.5-0.2-0.9-0.4-1.4-0.8c-0.4-0.3-0.8-0.8-1.2-1.3c-0.7-1.1-1.2-2.4-1.5-3.9
		C162.8,509.9,162.7,508.1,162.7,505.9z"/>
	<path fill="#CE0000" d="M176.7,506.6c0-0.3,0-0.5,0-0.8c0-0.3,0-0.5,0-0.8c0-0.2,0-0.7,0-1.3s0-1.6,0-2.8c0-0.4-0.1-0.6-0.3-0.6
		c-0.4-0.1-0.9-0.1-1.3-0.1c-0.4,0-0.8,0-1.2-0.2c-0.3-0.1-0.4-0.4-0.5-0.9c-0.1-0.5-0.1-1.3-0.1-2.4c0-1.1,0.5-1.7,1.5-1.7
		c1.4,0,2.5,0,3.3,0c0.8,0,1.2,0,1.4,0c0.5,0,0.9,0,1.3,0c0.4,0,0.8,0,1.1,0c0.3,0,0.6,0,0.9,0c0.3,0,0.6,0,0.8,0
		c0.6,0,1,0.1,1.2,0.3c0.2,0.2,0.3,0.6,0.3,1.3v0.4c0,1.1,0,1.9-0.1,2.5c-0.1,0.5-0.4,0.8-1,0.8H183c-0.4,0-0.7,0.1-0.9,0.2
		s-0.2,0.3-0.2,0.6v0.3v0.3l0,13c0,0.5,0,0.9,0,1.3c0,0.4,0,0.6,0,0.8c0,0.5-0.1,0.8-0.3,1c-0.2,0.2-0.5,0.3-0.9,0.3
		c-0.1,0-0.2,0-0.3,0c-0.1,0-0.3,0-0.4,0c-0.3,0-0.6,0-0.9,0c-0.3,0-0.7,0-1.1,0c-0.5,0-0.9-0.1-1.1-0.3c-0.2-0.2-0.3-0.5-0.3-1
		c0-0.3,0-0.6,0-0.8c0-0.3,0-0.6,0-0.9V506.6z"/>
	<path fill="#CE0000" d="M196.5,506.6c0-0.3,0-0.5,0-0.8c0-0.3,0-0.5,0-0.8c0-0.2,0-0.7,0-1.3s0-1.6,0-2.8c0-0.4-0.1-0.6-0.3-0.6
		c-0.4-0.1-0.9-0.1-1.3-0.1c-0.4,0-0.8,0-1.2-0.2c-0.3-0.1-0.4-0.4-0.5-0.9c-0.1-0.5-0.1-1.3-0.1-2.4c0-1.1,0.5-1.7,1.5-1.7
		c1.4,0,2.5,0,3.3,0c0.8,0,1.2,0,1.4,0c0.5,0,0.9,0,1.3,0c0.4,0,0.8,0,1.1,0c0.3,0,0.6,0,0.9,0c0.3,0,0.6,0,0.8,0
		c0.6,0,1,0.1,1.2,0.3c0.2,0.2,0.3,0.6,0.3,1.3v0.4c0,1.1,0,1.9-0.1,2.5c-0.1,0.5-0.4,0.8-1,0.8h-1.1c-0.4,0-0.7,0.1-0.9,0.2
		s-0.2,0.3-0.2,0.6v0.3v0.3l0,13c0,0.5,0,0.9,0,1.3s0,0.6,0,0.8c0,0.5-0.1,0.8-0.3,1c-0.2,0.2-0.5,0.3-0.9,0.3c-0.1,0-0.2,0-0.3,0
		c-0.1,0-0.3,0-0.4,0c-0.3,0-0.6,0-0.9,0c-0.3,0-0.7,0-1.1,0c-0.5,0-0.9-0.1-1.1-0.3c-0.2-0.2-0.3-0.5-0.3-1c0-0.3,0-0.6,0-0.8
		c0-0.3,0-0.6,0-0.9V506.6z"/>
	<path fill="#CE0000" d="M208.8,517.8h-0.2c-0.7,0-1.2-0.1-1.5-0.2c-0.3-0.1-0.4-0.5-0.4-1.2c0-0.1,0-0.5,0-1.2c0-0.6,0-1.5,0-2.6c0-1.7,0-3.4,0-5
		c0-1.6,0-3.2,0-4.8c0-0.8,0-1.6,0-2.5c0-0.9,0-1.8,0-2.8v-0.8c0-0.4,0-0.7,0-0.9c0-0.2,0.1-0.4,0.2-0.6s0.3-0.2,0.6-0.3
		c0.3-0.1,0.6-0.1,1-0.1h1c0.9,0,1.5,0.1,1.8,0.3c0.3,0.2,0.5,0.6,0.5,1.3v0.2l-0.2,5.1c0,0.1,0,0.2,0,0.3c0,0.1,0,0.2,0,0.3
		c0,0.5,0.1,0.9,0.2,1.1c0.2,0.3,0.5,0.4,1,0.4c0.5,0,0.8-0.2,1-0.5s0.3-0.9,0.3-1.6c0-0.7,0-1.3-0.1-1.7c-0.1-0.4-0.1-0.7-0.1-0.9
		c0-0.3,0-0.6,0.1-0.8s0.1-0.5,0.1-0.8c0-0.2,0-0.5,0-0.7s0-0.4,0-0.6c0-0.6,0.2-1,0.5-1.1c0.3-0.1,0.9-0.2,1.6-0.2h1.5
		c0.6,0,0.9,0.1,1.2,0.2c0.2,0.2,0.3,0.5,0.3,1c0,0.1,0,0.4,0,1s0,1.3,0,2.2c0,0.3,0,0.7,0,1.2c0,0.5,0,1.2,0,2c0,1,0,2.2,0,3.8
		c0,1.5,0,3.4,0,5.6c0,1.2,0,2.1,0,2.8c0,0.7,0,1.2,0,1.5c0,1.2-0.5,1.8-1.5,1.8h-2.3c-0.5,0-0.9-0.2-1.1-0.5
		c-0.2-0.3-0.3-0.8-0.3-1.4v-2.8c0-0.6,0-1.2,0.1-1.7c0.1-0.5,0.1-1,0.1-1.4c0-0.7-0.3-1.1-1-1.1c-0.7,0-1.1,0.2-1.3,0.5
		c-0.2,0.3-0.3,0.8-0.3,1.5v5.1c0,0.4,0,0.7-0.1,0.9c-0.1,0.2-0.1,0.4-0.3,0.5c-0.1,0.1-0.3,0.2-0.6,0.3c-0.3,0.1-0.6,0.1-1,0.1
		H208.8z"/>
	<path fill="#CE0000" d="M221.3,497.1c0-0.1,0-0.2,0-0.3c0-0.1,0-0.3,0-0.5c0-0.4,0-0.7,0.1-0.9c0.1-0.2,0.2-0.4,0.4-0.5c0.2-0.1,0.4-0.2,0.7-0.2
		c0.3,0,0.7,0,1.1,0h5c0.1,0,0.1,0,0.2,0c0.1,0,0.2,0,0.3,0c0,0,0.1,0,0.2,0s0.2,0,0.4,0c0.7,0,1.1,0.1,1.3,0.4
		c0.2,0.2,0.4,0.7,0.4,1.3c0,0.6,0,1,0,1.3c0,0.3,0,0.5,0,0.6c0,0.6-0.1,1.1-0.4,1.3c-0.2,0.2-0.6,0.3-1.2,0.3c-0.2,0-0.4,0-0.5,0
		c-0.2,0-0.4,0-0.6,0h-1.5c-0.4,0-0.6,0.1-0.7,0.3c-0.1,0.2-0.2,0.5-0.2,1v0.4c0,0.6,0.1,1,0.2,1.2s0.4,0.4,1,0.4c0.3,0,0.6,0,1,0
		c0.4,0,0.8,0,1.2,0c0.8,0,1.2,0.2,1.4,0.5s0.3,0.9,0.3,1.7v0.9c0,1.4-0.4,2.1-1.3,2.1c-0.3,0-0.7,0-1.1-0.1c-0.4,0-0.9-0.1-1.5-0.1
		c-0.5,0-0.7,0.1-0.8,0.3c-0.1,0.2-0.1,0.4-0.1,0.8l0,1.9c0,0.5,0,0.8,0.2,1c0.1,0.1,0.4,0.2,0.9,0.2c0.8,0,1.5,0,1.9,0
		c0.5,0,0.8,0,0.9,0c0.7,0,1.1,0.2,1.2,0.5s0.2,1,0.2,1.9c0,0.6,0,1.1,0,1.4c0,0.4-0.1,0.7-0.2,0.9s-0.3,0.4-0.5,0.5
		c-0.2,0.1-0.5,0.2-1,0.2c-0.7,0-1.4,0-2.3-0.1c-0.9,0-1.9-0.1-3-0.1c-0.3,0-0.7,0-1.1,0.1c-0.4,0-0.8,0.1-1.2,0.1
		c-0.5,0-0.8-0.1-1.1-0.4c-0.3-0.2-0.4-0.6-0.4-1c0-0.5,0-1.1,0.1-1.7c0.1-0.6,0.1-1.3,0.1-2.1L221.3,497.1z"/>
	<path fill="#CE0000" d="M234.6,517.8c-0.8,0-1.2-0.6-1.2-1.8v-1.1V501c0-0.4,0-0.8,0-1.3c0-0.5,0-1.1,0-1.7c0-0.4,0-0.7,0-1c0-0.3,0-0.6,0-0.9
		c0-0.5,0.1-0.8,0.4-1c0.2-0.1,0.7-0.2,1.3-0.2h3c0.3,0,0.5,0,0.7,0.1c0.2,0,0.4,0.1,0.5,0.3c0.1,0.1,0.3,0.3,0.4,0.6
		c0.1,0.3,0.2,0.6,0.3,1.1l1.5,6.8h0.4l1.9-7.6c0.1-0.4,0.3-0.7,0.4-0.9c0.2-0.2,0.5-0.3,0.8-0.3h3.5c0.6,0,0.9,0.1,1.1,0.4
		s0.2,0.8,0.2,1.6c0,0.7,0,1.6-0.1,2.6c0,1.1-0.1,2.3-0.1,3.8c0,1,0,2.3,0,4c0,1.6,0,3.6,0,5.8c0,0.9,0,1.6,0,2.1c0,0.5,0,0.8,0,0.9
		c0,0.7-0.1,1.2-0.2,1.4c-0.1,0.3-0.4,0.4-0.8,0.4h-2.9c-0.4,0-0.8-0.1-0.9-0.4c-0.2-0.3-0.2-0.7-0.2-1.3V510c0-1,0-1.9,0-2.6
		c0-0.7-0.1-1.3-0.1-1.8h-0.5c-0.9,4.2-1.7,6.3-2.4,6.3c-0.4,0-0.8-0.5-1.3-1.6c-0.4-1.1-1-2.6-1.6-4.7h-0.4v1.3v1.3v6.7
		c0,0.3,0,0.6,0,0.8c0,0.3,0,0.6,0,0.9c0,0.2,0,0.4,0,0.6s-0.1,0.3-0.2,0.3c-0.1,0.1-0.3,0.1-0.5,0.2c-0.2,0-0.5,0-0.9,0H234.6z"/>
	<path fill="#CE0000" d="M257.5,509.6c0,0.5-0.1,0.8-0.3,0.9c-0.2,0.1-0.5,0.2-0.9,0.2h-2c-0.4,0-0.6-0.3-0.8-0.8c-0.1-0.5-0.2-1.3-0.2-2.4
		c0-0.7,0-1.4,0.1-2c0.1-0.6,0.2-1.2,0.3-1.7c0.1-0.5,0.2-1,0.3-1.4c0.1-0.4,0.1-0.7,0.1-1c0-0.9-0.3-1.4-1-1.4
		c-0.1,0-0.3,0-0.4,0.1c-0.1,0.1-0.3,0.1-0.4,0.1c-0.4,0-0.7-0.3-0.8-0.8c-0.2-0.5-0.2-1.4-0.2-2.5c0-0.9,0.3-1.5,0.8-1.9
		c0.5-0.4,1.4-0.6,2.5-0.6c3.4,0,5.1,1.6,5.1,4.8c0,1-0.2,1.9-0.5,2.8c-0.3,0.9-0.7,1.8-1.2,2.8c-0.2,0.6-0.4,1.1-0.5,1.6
		c-0.1,0.5-0.2,1-0.2,1.4c0,0.4,0,0.7,0.1,1C257.5,509.1,257.5,509.4,257.5,509.6z M254.2,517.8c-0.4,0-0.7-0.1-0.8-0.2
		c-0.2-0.2-0.2-0.5-0.2-0.9v-3.6c0-0.4,0.1-0.6,0.3-0.8c0.2-0.1,0.5-0.2,0.9-0.2h2.8c0.4,0,0.7,0.1,0.8,0.2c0.2,0.2,0.2,0.5,0.2,0.9
		v3.6c0,0.4-0.1,0.7-0.3,0.8c-0.2,0.1-0.5,0.2-0.9,0.2H254.2z"/>
</g>
</svg>
