<?xml version="1.0" encoding="utf-8"?>
<!-- Generator: Adobe Illustrator 18.0.0, SVG Export Plug-In . SVG Version: 6.00 Build 0)  -->
<!DOCTYPE svg PUBLIC "-//W3C//DTD SVG 1.1//EN" "http://www.w3.org/Graphics/SVG/1.1/DTD/svg11.dtd">
<svg version="1.1" id="Layer_1" xmlns="http://www.w3.org/2000/svg" xmlns:xlink="http://www.w3.org/1999/xlink" x="0px" y="0px"
	 viewBox="0 0 200 25.5" enable-background="new 0 0 200 25.5" xml:space="preserve">
<g>
	<path fill-rule="evenodd" clip-rule="evenodd" d="M93.4,12.7c0-7,5.7-12.7,12.8-12.7c7.1,0,12.7,5.7,12.7,12.9
		c0,6.9-5.8,12.6-12.8,12.6C99.1,25.5,93.4,19.8,93.4,12.7z M94.5,12.7c0,6.5,5.2,11.7,11.7,11.7c6.4,0,11.7-5.2,11.7-11.6
		c0-6.5-5.2-11.8-11.7-11.8C99.7,1,94.5,6.3,94.5,12.7z"/>
	<path fill-rule="evenodd" clip-rule="evenodd" d="M133.2,9.9c-0.6,1.4-1.2,2.7-1.7,4.1c-0.5,1.1-0.9,2.2-1.4,3.3
		c-0.1,0.4-0.3,0.5-0.7,0.5c-1.4,0-1.1,0.2-1.6-1.1c-0.9-2.1-1.8-4.1-2.6-6.2c-0.1-0.2-0.2-0.4-0.4-0.6c0,0.1,0,0.3,0,0.4
		c0,2.3,0,4.5,0,6.8c0,0.5-0.1,0.6-0.6,0.6c-1.3,0-1.3,0-1.3-1.3c0-2.9,0-5.8,0-8.8c0-0.7,0-0.7,0.7-0.7c0.5,0,1.1,0,1.6,0
		c0.4,0,0.6,0.1,0.8,0.5c0.9,2.3,1.9,4.5,2.9,6.8c0.1,0.2,0.1,0.3,0.3,0.6c0.3-0.6,0.5-1.2,0.7-1.7c0.8-1.9,1.6-3.8,2.4-5.7
		c0.2-0.4,0.3-0.5,0.7-0.5c0.6,0,1.2,0,1.8,0c0.3,0,0.5,0.1,0.5,0.4c0,3.3,0,6.6,0,9.8c0,0.3-0.1,0.4-0.5,0.4c-0.3,0-0.6,0-0.9,0
		c-0.4,0-0.5-0.1-0.5-0.5c0-2.3,0-4.6,0-6.8c0-0.2,0-0.3,0-0.5C133.3,9.9,133.3,9.9,133.2,9.9z"/>
	<path fill-rule="evenodd" clip-rule="evenodd" d="M7.2,10.3c-0.6,2.4-1.3,4.6-1.8,6.8c-0.1,0.5-0.3,0.7-0.9,0.7
		c-1.4,0-1.4,0-1.8-1.3C1.8,13.5,1,10.5,0.1,7.6C-0.1,7.1-0.1,7,0.5,7C2,7,2,7,2.5,8.5c0.5,1.9,1.1,3.8,1.6,5.8
		c0.2-0.5,0.3-1,0.4-1.4C5,11.2,5.5,9.4,6,7.5C6.1,7.1,6.3,7,6.7,7c1.5,0,1.5,0,1.9,1.4c0.5,1.9,1.1,3.8,1.7,5.9
		c0.1-0.2,0.1-0.4,0.2-0.5c0.6-2.1,1.2-4.2,1.7-6.3C12.2,7.2,12.4,7,12.8,7c0.3,0,0.7,0,1,0c0.4,0,0.5,0.1,0.4,0.5
		c-0.5,1.8-1.1,3.7-1.6,5.5c-0.4,1.4-0.8,2.8-1.2,4.3c-0.1,0.3-0.2,0.5-0.6,0.5c-1.6,0-1.6,0-2-1.5c-0.5-1.9-1-3.7-1.5-5.6
		C7.3,10.6,7.2,10.5,7.2,10.3z"/>
	<path fill-rule="evenodd" clip-rule="evenodd" d="M196.8,13.4c1.1,1.4,2.1,2.8,3.2,4.3c-0.9,0-1.7,0-2.5,0c-0.1,0-0.3-0.2-0.4-0.4
		c-0.8-1.1-1.7-2.2-2.5-3.3c-0.2-0.3-0.4-0.4-0.8-0.4c-0.8,0-1.6,0-2.3,0c-0.3,0-0.5,0.1-0.5,0.4c0,1.1,0,2.2,0,3.3
		c0,0.4-0.1,0.5-0.5,0.5c-0.4,0-0.8,0-1.2,0c-0.3,0-0.4-0.1-0.4-0.4c0-3.3,0-6.6,0-9.9c0-0.3,0.1-0.4,0.4-0.4c2.3,0,4.6,0,7,0
		c1,0,2.1,0.2,2.8,1.1c0.8,1,0.9,2.2,0.4,3.4c-0.4,1.1-1.3,1.7-2.5,1.9C197,13.4,196.9,13.4,196.8,13.4z M193.6,8.8
		C193.6,8.8,193.6,8.8,193.6,8.8c-0.7,0-1.4,0-2.1,0c-0.2,0-0.4,0-0.4,0.3c0,0.8,0,1.5,0,2.3c0,0.3,0.2,0.4,0.4,0.4c0.5,0,1,0,1.4,0
		c1.1,0,2.2,0,3.4-0.1c0.5,0,1-0.2,1.2-0.8c0.4-1-0.1-1.8-1.1-2C195.4,8.8,194.5,8.8,193.6,8.8z"/>
	<path fill-rule="evenodd" clip-rule="evenodd" d="M56.6,13.4c1.1,1.4,2.1,2.8,3.2,4.3c-0.3,0-0.5,0-0.6,0.1
		c-1.4,0.3-2.4-0.3-3.1-1.5c-0.5-0.8-1.1-1.5-1.6-2.3c-0.2-0.3-0.4-0.4-0.7-0.4c-0.8,0-1.6,0-2.4,0c-0.3,0-0.4,0.1-0.4,0.4
		c0,1.1,0,2.2,0,3.3c0,0.4-0.1,0.5-0.5,0.5c-0.4,0-0.8,0-1.2,0c-0.3,0-0.5-0.1-0.5-0.5c0-3.3,0-6.6,0-9.8c0-0.3,0.1-0.4,0.4-0.4
		c2.3,0,4.6,0,6.9,0c0.8,0,1.7,0.2,2.4,0.7c0.9,0.7,1.3,2.1,1,3.4c-0.3,1.2-1.3,2.1-2.5,2.2C56.8,13.4,56.7,13.4,56.6,13.4z
		 M53.4,8.8C53.4,8.8,53.4,8.8,53.4,8.8c-0.7,0-1.4,0.1-2.1,0c-0.3,0-0.4,0.1-0.4,0.4c0,0.7,0,1.5,0,2.2c0,0.1,0.2,0.3,0.3,0.3
		c1.6,0,3.3,0,4.9-0.1c0.8,0,1.3-0.6,1.3-1.4c0-0.8-0.4-1.3-1.3-1.4C55.2,8.8,54.3,8.8,53.4,8.8z"/>
	<path fill-rule="evenodd" clip-rule="evenodd" d="M41.1,13.4c1.1,1.4,2.1,2.8,3.1,4.2c0,0,0,0.1,0,0.2c-0.4,0-0.8,0-1.1,0
		c-1,0.2-1.7-0.2-2.2-1.1c-0.6-0.9-1.3-1.8-1.9-2.7c-0.2-0.3-0.5-0.5-0.9-0.5c-0.9,0-1.7,0-2.6,0c0,0.2,0,0.4,0,0.6c0,1,0,2,0,3.1
		c0,0.4-0.1,0.5-0.5,0.5c-0.4,0-0.8,0-1.2,0c-0.3,0-0.4-0.1-0.4-0.4c0-3.3,0-6.6,0-9.9c0-0.3,0.1-0.4,0.4-0.4c2.3,0,4.6,0,6.9,0
		c0.5,0,1.1,0.1,1.6,0.3c1.1,0.3,1.7,1.1,1.8,2.2C44.3,11.7,43.2,13.1,41.1,13.4z M37.9,8.8C37.9,8.8,37.9,8.8,37.9,8.8
		c-0.7,0-1.5,0.1-2.2,0c-0.3,0-0.4,0.1-0.4,0.3c0,0.8,0,1.5,0,2.3c0,0.1,0.2,0.3,0.3,0.3c1.6,0,3.3,0,4.9-0.1c0.9,0,1.3-0.6,1.3-1.4
		c0-0.8-0.4-1.3-1.3-1.4C39.7,8.8,38.8,8.8,37.9,8.8z"/>
	<path fill-rule="evenodd" clip-rule="evenodd" d="M80,9.8c0,2.5,0,4.8,0,7.2c0,0.8,0.1,0.8-0.8,0.8c-1.2,0-1.2,0-1.2-1.2
		c0-2.9,0-5.9,0-8.9c0-0.5,0.1-0.6,0.6-0.7c1.2-0.1,1.9,0.3,2.7,1.2c1.8,2.1,3.7,4.1,5.6,6.1c0.1,0.1,0.2,0.2,0.4,0.4
		c0-0.3,0-0.4,0-0.6c0-2.2,0-4.3,0-6.5c0-0.5,0.1-0.6,0.6-0.6c0.3,0,0.7,0,1,0c0.3,0,0.4,0.1,0.4,0.4c0,0.4,0,0.7,0,1.1
		c0,2.9,0,5.7,0,8.6c0,0.5-0.1,0.6-0.6,0.6c-1,0.1-1.6-0.3-2.3-1c-2-2.2-4-4.4-6.1-6.6C80.3,10.1,80.2,10,80,9.8z"/>
	<path fill-rule="evenodd" clip-rule="evenodd" d="M175,12.4c0-1.6,0-3.2,0-4.7c0-0.4,0.1-0.6,0.6-0.6c2.8,0,5.7,0,8.5,0
		c0.4,0,0.6,0.1,0.5,0.5c0,0.3,0,0.6,0,0.8c0,0.4-0.1,0.5-0.5,0.5c-2.1,0-4.2,0-6.3,0c-0.5,0-0.7,0.1-0.6,0.6c0,0.4,0,0.8,0,1.2
		c0,0.4,0.1,0.6,0.6,0.6c1.7,0,3.5,0,5.2,0c0.5,0,0.7,0.1,0.6,0.6c0,1.2,0,1.2-1.2,1.2c-1.6,0-3.1,0-4.7,0c-0.5,0-0.6,0.1-0.6,0.6
		c0,0.5,0,1.1,0,1.6c0,0.5,0.1,0.7,0.6,0.6c2.1,0,4.3,0,6.4,0c0.5,0,0.6,0.1,0.6,0.6c0,1.2,0,1.2-1.2,1.2c-2.7,0-5.3,0-8,0
		c-0.5,0-0.6-0.2-0.6-0.6C175,15.5,175,14,175,12.4z"/>
	<path fill-rule="evenodd" clip-rule="evenodd" d="M72.7,13.1c-0.2,0-0.4,0-0.6,0c-1.7,0-3.5,0-5.2,0c-0.5,0-0.7,0.1-0.6,0.6
		c0,0.5,0,1.1,0,1.6c0,0.5,0.2,0.6,0.6,0.6c2.2,0,4.3,0,6.5,0c0.5,0,0.6,0.1,0.6,0.6c0,1.2,0,1.2-1.2,1.2c-2.7,0-5.3,0-8,0
		c-0.5,0-0.6-0.1-0.6-0.6c0-3.2,0-6.4,0-9.5c0-0.4,0.1-0.6,0.6-0.6c2.8,0,5.6,0,8.5,0c0.4,0,0.6,0.1,0.6,0.6c0,1.5,0.2,1.3-1.3,1.3
		c-1.9,0-3.8,0-5.7,0c-0.4,0-0.6,0.1-0.6,0.6c0,0.5,0,0.9,0,1.4c0,0.4,0.1,0.5,0.5,0.5c1.8,0,3.6,0,5.3,0c0.5,0,0.6,0.2,0.6,0.6
		C72.7,12.3,72.7,12.7,72.7,13.1z"/>
	<path fill-rule="evenodd" clip-rule="evenodd" d="M29.4,17.7c-0.7,0-1.4,0-2,0c-0.1,0-0.3-0.2-0.4-0.3c-0.3-0.5-0.5-1.1-0.8-1.7
		c-0.1-0.3-0.3-0.4-0.6-0.4c-1.8,0-3.5,0-5.3,0c-0.3,0-0.5,0.1-0.6,0.4c-0.2,0.5-0.5,1.1-0.7,1.6c-0.1,0.2-0.3,0.4-0.4,0.4
		c-0.6,0-1.3,0-2,0c0.1-0.2,0.1-0.4,0.2-0.5c1.6-3.2,3.2-6.5,4.8-9.7C21.8,7.2,22,7,22.3,7c0.5,0,1,0,1.5,0c0.3,0,0.5,0.1,0.6,0.4
		c1.2,2.5,2.5,5,3.7,7.6c0.4,0.7,0.7,1.5,1.1,2.2C29.3,17.4,29.3,17.5,29.4,17.7z M20.9,13.4c1.5,0,2.9,0,4.3,0
		c-0.7-1.5-1.4-3-2.2-4.6C22.3,10.4,21.6,11.9,20.9,13.4z"/>
	<path fill-rule="evenodd" clip-rule="evenodd" d="M161.2,12.4c0-1.5,0-3,0-4.5c0-0.8,0-0.8,0.8-0.8c0.3,0,0.5,0,0.8,0
		c0.4,0,0.6,0.1,0.6,0.6c0,2.5,0,5,0,7.6c0,0.7,0,0.7,0.7,0.7c2.2,0,4.3,0,6.5,0c0.4,0,0.6,0.1,0.6,0.6c0,0.3,0,0.5,0,0.8
		c0.1,0.5-0.1,0.6-0.6,0.5c-2.9,0-5.8,0-8.8,0c-0.4,0-0.5-0.1-0.5-0.5C161.2,15.6,161.2,14,161.2,12.4z"/>
	<path fill-rule="evenodd" clip-rule="evenodd" d="M147.4,12.4c0-1.6,0-3.2,0-4.8c0-0.4,0.1-0.6,0.6-0.6c0.3,0,0.7,0,1,0
		c0.4,0,0.6,0.1,0.6,0.6c0,2.5,0,5.1,0,7.6c0,0.7,0,0.7,0.6,0.7c2.2,0,4.3,0,6.5,0c0.5,0,0.6,0.1,0.6,0.6c0,1.3,0,1.3-1.3,1.3
		c-2.6,0-5.3,0-7.9,0c-0.6,0-0.6,0-0.6-0.7C147.4,15.5,147.4,13.9,147.4,12.4z"/>
	<path fill-rule="evenodd" clip-rule="evenodd" d="M140.2,12.4c0-1.6,0-3.2,0-4.8c0-0.4,0.1-0.5,0.5-0.5c0.3,0,0.6,0,0.9,0
		c0.7,0,0.7,0,0.7,0.6c0,2,0,4,0,6c0,1.2,0,2.3,0,3.5c0,0.4-0.1,0.6-0.5,0.6c-0.5-0.1-1.2,0.1-1.5-0.1c-0.3-0.2-0.1-0.9-0.1-1.4
		C140.2,14.9,140.2,13.6,140.2,12.4z"/>
	<path fill-rule="evenodd" clip-rule="evenodd" fill="#FFFFFF" d="M94.5,12.7C94.5,6.3,99.7,1,106.2,1c6.5,0,11.7,5.3,11.7,11.8
		c0,6.4-5.3,11.6-11.7,11.6C99.7,24.4,94.5,19.2,94.5,12.7z M95,12.7c0,6,4.9,11.1,10.9,11.2c6.1,0.1,11.4-4.8,11.5-11.1
		c0-6-5-11.1-10.9-11.2C100.3,1.5,95.1,6.3,95,12.7z"/>
	<path fill-rule="evenodd" clip-rule="evenodd" fill="#FFFFFF" d="M193.6,8.8c0.9,0,1.8,0.1,2.8,0.2c1,0.1,1.5,1,1.1,2
		c-0.2,0.6-0.7,0.8-1.2,0.8c-1.1,0.1-2.2,0.1-3.4,0.1c-0.5,0-1,0-1.4,0c-0.3,0-0.4-0.1-0.4-0.4c0-0.8,0-1.5,0-2.3
		c0-0.3,0.2-0.3,0.4-0.3C192.1,8.8,192.9,8.8,193.6,8.8C193.6,8.8,193.6,8.8,193.6,8.8z"/>
	<path fill-rule="evenodd" clip-rule="evenodd" fill="#FFFFFF" d="M53.4,8.8c0.9,0,1.8,0.1,2.7,0.1c0.9,0.1,1.3,0.6,1.3,1.4
		c0,0.8-0.5,1.3-1.3,1.4c-1.6,0.1-3.3,0.1-4.9,0.1c-0.1,0-0.3-0.2-0.3-0.3c0-0.7,0-1.5,0-2.2c0-0.3,0.1-0.4,0.4-0.4
		C52,8.8,52.7,8.8,53.4,8.8C53.4,8.8,53.4,8.8,53.4,8.8z"/>
	<path fill-rule="evenodd" clip-rule="evenodd" fill="#FFFFFF" d="M37.9,8.8c0.9,0,1.8,0.1,2.7,0.2c0.9,0.1,1.2,0.6,1.3,1.4
		c0,0.8-0.4,1.3-1.3,1.4c-1.6,0.1-3.3,0.1-4.9,0.1c-0.1,0-0.3-0.2-0.3-0.3c0-0.8,0-1.5,0-2.3c0-0.3,0.1-0.4,0.4-0.3
		C36.5,8.8,37.2,8.8,37.9,8.8C37.9,8.8,37.9,8.8,37.9,8.8z"/>
	<path fill-rule="evenodd" clip-rule="evenodd" fill="#FFFFFF" d="M20.9,13.4c0.7-1.5,1.4-3,2.2-4.6c0.7,1.6,1.4,3.1,2.2,4.6
		C23.8,13.4,22.4,13.4,20.9,13.4z"/>
	<path fill-rule="evenodd" clip-rule="evenodd" d="M95,12.7c0.1-6.4,5.3-11.2,11.5-11.1c5.9,0.1,10.9,5.2,10.9,11.2
		c0,6.4-5.3,11.3-11.5,11.1C99.9,23.8,95,18.8,95,12.7z M97.7,15.1c1.5,0,3,0,4.4,0c0.4,0,0.5,0.1,0.6,0.5c0.4,1.6,0.9,3.3,1.4,4.9
		c0.2,0.7,0.5,0.9,1.2,0.9c0.6,0,0.9-0.3,1.1-1c0.5-2.1,1-4.2,1.5-6.3c0.1-0.6,0.4-0.8,0.9-0.7c0.5,0.1,0.6,0.5,0.6,0.9
		c0,0.1,0,0.3,0,0.4c0,0.7,0,1.4,0,2.1c1.5,0,2.9,0,4.4,0c-0.1-0.2-0.1-0.4-0.1-0.6c-0.4-1.3-0.7-2.6-1.1-3.9
		c-0.6-2.2-1.2-4.4-1.9-6.6c-0.3-1-1.2-1.5-2.2-1.1c-0.6,0.2-0.9,0.8-1.1,1.4c-0.6,2.4-1.2,4.7-1.8,7.1c-0.1,0.4-0.2,0.5-0.6,0.5
		c-0.4,0-0.8,0-1.1,0c-0.3,0-0.5-0.1-0.6-0.4c-0.4-1-0.8-2-1.2-3c-0.2-0.6-0.5-1-1.2-1c-0.7,0-1,0.4-1.2,1c-0.5,1.3-1.1,2.6-1.6,3.9
		C97.9,14.4,97.8,14.7,97.7,15.1z"/>
	<path fill-rule="evenodd" clip-rule="evenodd" fill="#FFFFFF" d="M97.7,15.1c0.1-0.4,0.3-0.7,0.4-1c0.5-1.3,1.1-2.6,1.6-3.9
		c0.2-0.6,0.5-1,1.2-1c0.7,0,1,0.4,1.2,1c0.4,1,0.8,2,1.2,3c0.1,0.3,0.3,0.4,0.6,0.4c0.4,0,0.8,0,1.1,0c0.4,0,0.5-0.1,0.6-0.5
		c0.6-2.4,1.2-4.7,1.8-7.1c0.2-0.6,0.4-1.1,1.1-1.4c1-0.4,1.9,0.1,2.2,1.1c0.6,2.2,1.3,4.4,1.9,6.6c0.4,1.3,0.7,2.6,1.1,3.9
		c0,0.2,0.1,0.3,0.1,0.6c-1.5,0-2.9,0-4.4,0c0-0.7,0-1.4,0-2.1c0-0.1,0-0.3,0-0.4c0-0.4-0.1-0.8-0.6-0.9c-0.4-0.1-0.7,0.2-0.9,0.7
		c-0.5,2.1-1,4.2-1.5,6.3c-0.2,0.7-0.5,1-1.1,1c-0.7,0-1-0.2-1.2-0.9c-0.5-1.6-1-3.3-1.4-4.9c-0.1-0.4-0.3-0.5-0.6-0.5
		C100.6,15.1,99.2,15.1,97.7,15.1z"/>
</g>
</svg>
